<?xml version="1.0" encoding="utf-8"?>
<!-- Generator: Adobe Illustrator 25.0.1, SVG Export Plug-In . SVG Version: 6.00 Build 0)  -->
<svg version="1.1" id="Layer_1" xmlns="http://www.w3.org/2000/svg" xmlns:xlink="http://www.w3.org/1999/xlink" x="0px" y="0px"
	 viewBox="0 0 500 500" style="enable-background:new 0 0 500 500;" xml:space="preserve">
<style type="text/css">
	.st0{fill:#424E9B;}
</style>
<g>
	<path class="st0" d="M232.8,289.7c2.2,8.6,4.3,17,6.5,25.5c3,11.8,5.3,23.9,9.4,35.4c4,11.2,9.6,21.9,15,32.5c3,6,6.8,11.7,10.9,17
		c3.1,4.1,7.4,7.3,11,11.1c2.9,3,6,6,8.1,9.5c2.1,3.7,0.2,8-3.4,9.9c-3.8,2-7.8,0.9-10.4-2.9c-0.6-0.9-1.2-2-2.1-2.6
		c-12.2-7.7-19.5-19.5-26.4-31.6c-5.2-9.1-10.3-18.3-14.1-28c-4-10.2-6.4-20.9-9.2-31.5c-4.1-15.4-8-30.9-12-46.3
		c-1.1-4.1,0.1-7.1,3.7-9.3c17.6-10.5,35.9-7.1,46,12c2.1,3.9,3.9,8,6.9,11.9c0-1.4,0-2.8,0-4.2c0-31.5,0-63,0-94.5
		c0-15.2,8.5-25.6,23.4-27.7c8.9-1.3,16.5,2.1,22.3,9c1.6,1.9,3.2,2.8,5.7,2.7c4.9-0.2,9.7,0,14.6-0.1c5.1,0,6-1,6-6.2
		c0-18.3,0-36.5,0-54.8c0-7,2.9-11,8-11c5.1,0,8,3.9,8,11c0,18.3,0,36.5,0,54.8c0,13.9-8.3,22.2-22.1,22.3c-4.5,0-8.9,0-13.6,0
		c0,19.3,0,38.3,0,57.6c1.2-0.2,2.2-0.4,3.2-0.6c10-2.4,18.4,0.4,25.7,7.5c0.8,0.8,2.8,1.5,3.5,1.1c13.7-7.7,29.4-2.5,37,11.2
		c2.3-0.7,4.6-1.6,7-2.1c16.3-3.3,31.1,8.4,31.3,25.3c0.3,32.1,0.3,64.3,0,96.4c-0.2,17.9-14.1,31.4-32,31.6
		c-19.5,0.3-39,0.1-58.5,0c-3.4,0-6.4-0.9-8.2-4.2c-1.6-2.8-1.4-5.5,0.3-8.1c2-3.1,5.1-3.7,8.5-3.7c18.9,0,37.8,0,56.6,0
		c11,0,17.4-6.4,17.4-17.5c0-31.4,0-62.8,0-94.2c0-5.2-3.4-9.5-8-10.3c-5-0.8-9.6,1.8-11.4,6.5c-0.3,0.9-0.5,1.9-0.6,2.9
		c-0.6,5.3-4,8.7-8.3,8.5c-4.6-0.2-7.6-3.8-7.7-9.4c-0.1-3.4,0-6.8,0-10.1c-0.1-5.7-3.9-10.1-9.1-10.4c-5.9-0.4-10.2,3.3-10.9,9.4
		c-0.8,7.1-6.7,10.8-12,7.1c-2-1.4-3-4.6-4-7.1c-0.6-1.5-0.1-3.5-0.1-5.2c-0.1-5.6-4.1-9.9-9.4-10.1c-5.8-0.2-9.9,3.4-10.6,9.3
		c-0.6,5.4-3.8,8.7-8.1,8.6c-4.7-0.1-7.9-3.8-7.9-9.6c0-27.4,0-54.8,0-82.2c0-4.7-2.6-8.3-6.7-9.8c-3.9-1.4-8.7-0.3-11,3.4
		c-1.4,2.2-2.1,5.1-2.1,7.7c-0.1,44.6-0.1,89.3-0.1,133.9c0,4.2-0.7,8-5.2,9.9c-4.2,1.7-8,0-10.3-4.7c-5.7-11.8-11.3-23.6-17-35.4
		c-2.2-4.6-4.5-9.2-7.4-13.4C244.9,288.1,239.4,287,232.8,289.7z"/>
	<path class="st0" d="M68.5,135.5c0-15.3,0-30.5,0-45.8c0-13.9,8.3-22.3,22.1-22.3c30.6,0,61.2,0,91.9,0c13.6,0,22.1,8.4,22.1,21.9
		c0,30.8,0,61.5,0,92.3c0,13.4-8.5,21.9-21.7,21.9c-30.9,0-61.7,0-92.6,0c-13.3,0-21.7-8.5-21.7-21.9
		C68.5,166.2,68.5,150.9,68.5,135.5z M188.5,135.5c0-15.4,0-30.8,0-46.1c0-4.8-1.1-5.9-6-5.9c-30.7,0-61.5,0-92.2,0
		c-4.6,0-5.8,1.1-5.8,5.7c0,30.9,0,61.8,0,92.6c0,4.6,1.1,5.7,5.8,5.7c30.7,0,61.5,0,92.2,0c4.9,0,6-1,6-5.9
		C188.5,166.2,188.5,150.9,188.5,135.5z"/>
	<path class="st0" d="M204.5,291.7c0,15.3,0,30.5,0,45.8c0,13.8-8.4,22.2-22.2,22.2c-30.6,0-61.2,0-91.9,0c-13.6,0-22-8.4-22-22
		c0-30.8,0-61.5,0-92.3c0-13.3,8.5-21.8,21.8-21.8c30.7,0,61.5,0,92.2,0c13.6,0,22,8.4,22,22C204.6,260.9,204.5,276.3,204.5,291.7z
		 M84.5,291.6c0,15.4,0,30.8,0,46.1c0,4.8,1.1,5.9,6,5.9c30.7,0,61.5,0,92.2,0c4.6,0,5.8-1.1,5.8-5.7c0-30.9,0-61.8,0-92.6
		c0-4.6-1.1-5.7-5.8-5.7c-30.7,0-61.5,0-92.2,0c-4.9,0-6,1-6,5.9C84.5,260.8,84.5,276.2,84.5,291.6z"/>
	<path class="st0" d="M224.5,135.2c0-15.1,0-30.3,0-45.4c0-14.1,8.3-22.4,22.4-22.4c30.3,0,60.5,0,90.8,0c0.1,0,0.2,0,0.4,0
		c6.6,0,10.6,3.1,10.5,8.1c-0.1,4.9-3.9,7.9-10.3,7.9c-30.3,0-60.5,0-90.8,0c-6.2,0-6.9,0.7-6.9,6.9c0,30.3,0,60.5,0,90.8
		c0,5.4,0.9,6.4,6.2,6.4c3,0,6-0.1,9,0c5.1,0.2,8.7,3.6,8.7,8c0,4.4-3.6,7.8-8.7,8c-4.1,0.1-8.3,0.3-12.4-0.1
		c-11.6-1.2-18.8-9.5-18.9-21.3C224.5,166.5,224.5,150.9,224.5,135.2z"/>
	<path class="st0" d="M293.7,142.7c0.9-1.4,1.5-3,2.7-4.1c20.3-20.4,40.6-40.7,61-61c2.5-2.5,5.2-4.8,9.2-3.6
		c5.5,1.6,7.6,7,4.6,11.8c-0.8,1.3-1.9,2.3-2.9,3.4c-22.5,22.6-45.1,45.1-67.6,67.6c-6.2,6.2-9.7,6.2-15.8,0.1c-9-9-18.1-18-27-27.1
		c-2.3-2.3-3.7-4.9-2.7-8.4c1-3.3,3.2-5.6,6.3-5.5c2.7,0.1,5.9,1.3,7.9,3.2c6.8,6.2,13.2,12.9,19.7,19.5c1.1,1.1,1.9,2.3,2.8,3.5
		C292.4,142.3,293,142.5,293.7,142.7z"/>
</g>
</svg>
