<?xml version="1.0" encoding="utf-8"?>
<!-- Generator: Adobe Illustrator 25.0.1, SVG Export Plug-In . SVG Version: 6.00 Build 0)  -->
<svg version="1.1" id="Layer_1" xmlns="http://www.w3.org/2000/svg" xmlns:xlink="http://www.w3.org/1999/xlink" x="0px" y="0px"
	 viewBox="0 0 500 500" style="enable-background:new 0 0 500 500;" xml:space="preserve">
<style type="text/css">
	.st0{fill:#424E9B;}
</style>
<g>
	<path class="st0" d="M220.5,419.6c-42.9,0-85.8,0-128.6,0c-8.7,0-11.4-2.7-11.4-11.4c0-86,0-172-0.1-258.1c0-4.4,1.5-7.5,4.6-10.5
		c18.7-18.4,37.2-37,55.7-55.7c3.1-3.2,6.5-4.6,11-4.6c86.1,0.1,172.3,0.1,258.4,0.1c7.9,0,10.5,2.7,10.5,10.6c0,86,0,172,0.1,258.1
		c0,4.7-1.5,8.3-4.8,11.6c-19,18.8-37.8,37.9-56.8,56.7c-1.9,1.9-5.2,3.1-7.9,3.1C307.5,419.7,264,419.6,220.5,419.6z M96.5,403.3
		c83,0,165.3,0,247.7,0c0-82.7,0-165.1,0-247.5c-30.7,0-61.1,0-91.7,0c0,16.7,0,33.1,0,49.5c0,7.2-3.1,10.2-10.3,10.2
		c-14.4,0-28.8,0-43.1,0c-7.6,0-10.6-3-10.6-10.7c0-15,0-30,0-45c0-1.3,0-2.6,0-4.3c-2,0-3.5,0-5,0c-20.9,0-41.8,0-62.6,0
		c-6.4,0-10.2-3-10.3-7.9c-0.1-5,3.9-8.1,10.5-8.1c0.8,0,1.5,0,2.3,0c22.1,0,44.3,0,66.4,0.1c2.6,0,4.4-0.8,6.2-2.6
		c12.7-12.8,25.4-25.5,38.1-38.2c0.8-0.8,1.5-1.7,2.8-3.2c-2.2,0-3.5,0-4.7,0c-25.5,0-51,0-76.5-0.1c-2.7,0-4.6,0.7-6.6,2.7
		c-16.6,16.7-33.2,33.3-49.9,49.9c-2.1,2-2.7,4.1-2.7,6.9c0.1,81.3,0,162.5,0,243.8C96.5,400.2,96.5,401.6,96.5,403.3z M360.6,391.8
		c1.3-1.1,1.9-1.5,2.4-2c13.3-13.2,26.6-26.5,39.7-39.8c1.2-1.2,1.8-3.5,1.8-5.3c0.1-77.6,0.1-155.2,0.1-232.8
		c0-1.3-0.1-2.6-0.2-4.6c-1.5,1.4-2.4,2.1-3.3,3c-12.6,12.5-25.1,25.1-37.7,37.6c-2,2-2.8,4-2.8,6.9c0.1,77.4,0.1,154.7,0.1,232.1
		C360.6,388.2,360.6,389.6,360.6,391.8z M264.4,138.1c0.3,0.4,0.5,0.8,0.8,1.2c1,0.1,1.9,0.2,2.9,0.2c26.1,0,52.2,0.1,78.3-0.1
		c1.7,0,3.9-1,5.1-2.2c13-12.8,25.9-25.7,38.7-38.6c0.7-0.7,1.3-1.6,2.3-2.8c-1.3-0.1-2-0.3-2.7-0.3c-26.5,0-53,0-79.4,0.1
		c-1.6,0-3.6,1-4.7,2.2c-11,10.9-21.9,21.9-32.9,32.8C270,133.2,267.2,135.6,264.4,138.1z M236.3,155.8c-10.8,0-21.1,0-31.5,0
		c0,14.6,0,29,0,43.4c10.7,0,21.1,0,31.5,0C236.3,184.6,236.3,170.3,236.3,155.8z M216.2,139.5c7.8,0,14.6-0.1,21.5,0.1
		c2.6,0.1,4.4-0.7,6.2-2.6c12.6-12.8,25.4-25.4,38.1-38.2c0.8-0.8,1.5-1.8,2.8-3.3c-7.8,0-14.8-0.2-21.7,0.1c-1.9,0.1-4.1,1-5.5,2.3
		c-13,12.8-25.8,25.7-38.7,38.6C218.2,137.1,217.6,137.9,216.2,139.5z"/>
	<path class="st0" d="M252.5,347.8c0,3.7,0,7,0,10.4c0,9.3,0,18.5,0,27.8c0,6-3.2,9.8-8.1,9.7c-4.8-0.1-7.9-3.7-7.9-9.5
		c0-14.9,0-29.8,0-44.6c0-4.1,1.3-7.3,5.4-9.4c-3.1-4.6-6-9-9.3-14c-3.3,4.8-6.2,9.2-9.4,13.9c5.6,3,5.4,8.2,5.4,13.4
		c-0.1,13.6,0,27.3,0,40.9c0,3.6-1,6.7-4.4,8.5c-2.8,1.5-5.6,1.2-8.1-0.6c-2.9-2-3.5-5-3.5-8.2c0-11.3,0-22.5,0-33.8
		c0-1.3,0-2.7,0-4.2c-1.1-0.1-1.8-0.3-2.5-0.3c-3.6,0.1-6.7-1-8.4-4.4c-1.8-3.5-0.6-6.5,1.4-9.4c5.6-8.3,11.1-16.6,16.6-24.9
		c2-3,3.9-6.1,6.1-9c3.9-5.3,10.1-5.3,13.8,0.1c7.9,11.5,15.7,23.2,23.3,34.9c4.1,6.3,0.5,12.5-6.9,12.8
		C254.9,347.7,254,347.7,252.5,347.8z"/>
	<path class="st0" d="M295.2,332c5.3,2.7,5.4,7.4,5.4,12.3c-0.1,13.9,0,27.8,0,41.6c0,3.2-0.7,6.2-3.6,8.2c-2.6,1.7-5.3,2-8.1,0.4
		c-3.3-1.8-4.3-4.8-4.3-8.2c-0.1-11.4,0-22.8,0-34.1c0-1.4,0-2.7,0-4.3c-1.3-0.1-2.4-0.3-3.5-0.3c-7.3-0.4-10.6-6.7-6.6-13
		c3.7-5.8,7.6-11.4,11.4-17.1c3.7-5.6,7.4-11.3,11.2-16.8c4.3-6.3,10.6-6.3,14.9,0c7.3,10.9,14.5,21.8,21.8,32.7
		c2.1,3.2,3.6,6.3,1.6,10.1c-1.9,3.6-5.2,4.3-8.9,4.2c-0.5,0-1,0.1-1.9,0.3c0,1.4,0,2.7,0,4c0,11.5,0,23,0,34.5
		c0,3.4-1.1,6.4-4.3,8.1c-2.8,1.5-5.9,1.6-8-0.6c-1.8-1.8-3.5-4.6-3.5-7c-0.3-15.5-0.4-31,0-46.5c0.1-3.1,2.5-6.1,4.3-10
		c-2.2-3.2-5.1-7.6-8.4-12.5C301.3,322.9,298.4,327.3,295.2,332z"/>
</g>
</svg>
