<?xml version="1.0" encoding="utf-8"?>
<!-- Generator: Adobe Illustrator 25.0.1, SVG Export Plug-In . SVG Version: 6.00 Build 0)  -->
<svg version="1.1" id="Layer_1" xmlns="http://www.w3.org/2000/svg" xmlns:xlink="http://www.w3.org/1999/xlink" x="0px" y="0px"
	 viewBox="0 0 500 500" style="enable-background:new 0 0 500 500;" xml:space="preserve">
<style type="text/css">
	.st0{fill:#424E9B;}
</style>
<g>
	<path class="st0" d="M96.5,163.3c102.8,0,205.1,0,308,0c0-1.8,0-3.3,0-4.9c0-11,0-22,0-33c0-4.8-1.1-5.8-6-5.9c-4.5,0-9,0-13.7,0
		c-0.1,1.4-0.3,2.4-0.3,3.5c0,3.9,0.1,7.8,0,11.6c-0.2,5.1-3.5,8.7-7.9,8.8c-4.4,0.1-8-3.6-8-8.7c-0.1-15.5-0.1-31,0-46.5
		c0-5.1,3.6-8.7,8-8.7c4.4,0,7.8,3.6,8,8.7c0.1,2.5,0,5,0,7.5c0,2.4,0,4.7,0,7.7c5.2,0,10.1-0.1,15,0c8.7,0.2,15.5,3.8,19,12.1
		c1.2,2.8,1.8,6,1.8,9.1c0.1,47,0.1,94,0.1,141c0,3.5-0.8,6.7-4.2,8.6c-2.8,1.6-5.5,1.4-8.1-0.3c-3.2-2.1-3.7-5.4-3.7-8.9
		c0-26.9,0-53.7,0-80.6c0-1.5,0-3,0-4.7c-102.7,0-205.1,0-308,0c0,1.5,0,2.8,0,4.1c0,49.5,0,99-0.1,148.5c0,2.7,0.8,4.7,2.7,6.6
		c12.7,12.6,25.3,25.2,38,37.9c0.8,0.8,1.6,1.5,3,2.7c0-10.9,0-21.2,0-32.1c-1.6,0-3.1,0-4.7,0c-5,0-10,0-15,0c-6,0-9.9-3.2-9.8-8
		c0-4.8,3.8-8,9.9-8c8.7,0,17.5,0,26.2,0c6.7,0,9.8,3.2,9.8,10c0,15,0,30,0,45c0,1.5,0,3,0,5c1.7,0,3.2,0,4.6,0
		c30.7,0,61.5,0,92.2,0c7.1,0,11,2.8,11.1,7.9c0.1,5.2-3.9,8.1-11.2,8.1c-34.1,0-68.2,0-102.4,0.1c-4.1,0-7-1.4-9.9-4.2
		c-18.8-19-37.8-37.9-56.7-56.7c-2.6-2.6-3.8-5.3-3.7-9c0.1-70.8,0-141.5,0-212.3c0-13.4,8.4-21.8,21.7-21.9c3,0,6-0.1,9,0
		c5.4,0.1,9.1,3.3,9.2,7.9c0.1,4.7-3.7,8-9.4,8.1c-3.4,0.1-6.7,0-10.1,0c-2.7,0-4.4,1.3-4.4,4C96.5,136.7,96.5,149.8,96.5,163.3z"/>
	<path class="st0" d="M416.8,344.6c-0.5-4.1-1.1-8.9-1.8-13.7c-0.9-5.6,1.2-9.5,5.8-10.6c4.3-1,8.5,1.7,9.4,6.3
		c6.4,32.8-2.5,60.8-27.2,83.3c-15.3,13.9-33.7,21.1-54.2,21.3c-32.7,0.3-58.8-13.3-75.7-41.5c-31-51.7-2.3-116.3,56.9-128.5
		c25.6-5.3,49,1,69.8,16.8c4.4,3.4,5.3,7.9,2.5,11.7c-2.8,3.8-7.8,4.2-12.2,0.8c-13.5-10.5-28.7-15.4-45.9-15.2
		c-30.8,0.4-60,24.4-66.1,54.8c-7.9,39.3,15.4,75.2,54.5,84c38.3,8.6,78-19.4,83.1-58.4C416.2,352.3,416.4,348.9,416.8,344.6z"/>
	<path class="st0" d="M346.9,363.3c8-8.7,15.8-17.2,23.7-25.7c11.7-12.8,23.4-25.6,35.2-38.4c3.8-4.2,8.7-4.7,12.2-1.3
		c3.3,3.2,3.2,8-0.5,12c-21.4,23.4-42.9,46.8-64.3,70.1c-4.3,4.7-9.4,4.5-13.5-0.3c-9.5-11.4-19.1-22.8-28.5-34.2
		c-4.6-5.5-2.6-12.2,4.1-13.6c3.6-0.7,6.2,1.1,8.4,3.7c7.1,8.5,14.2,17.1,21.4,25.6C345.5,361.8,346.1,362.4,346.9,363.3z"/>
	<path class="st0" d="M144.5,103.5c5.4,0,10.4-0.2,15.3,0c7,0.3,10.7,6.7,7.1,12.3c-1.8,2.8-4.6,3.6-7.8,3.7c-4.7,0.1-9.4,0-14.7,0
		c0,5,0,9.7,0,14.4c0,3.4-0.8,6.5-4.1,8.3c-5.8,3.3-11.8-0.6-11.9-7.8c-0.1-9.7,0-19.5,0-29.2c0-5.5-0.1-11,0-16.5
		c0.1-5.4,3.4-9.1,7.9-9.2c4.5-0.1,7.9,3.7,8.1,9C144.6,93.3,144.5,98.1,144.5,103.5z"/>
	<path class="st0" d="M192.5,103.5c5.4,0,10.3-0.1,15.1,0c7.1,0.2,10.9,6.4,7.5,12.1c-1.8,3-4.8,3.8-8,3.9c-4.7,0.1-9.4,0-14.6,0
		c0,5.4,0.2,10.4,0,15.3c-0.3,7.1-6.9,11-12.1,7c-2-1.5-3.6-4.7-3.7-7.2c-0.3-15.4-0.2-30.7-0.1-46.1c0-5.3,3.6-9.1,8.1-9
		c4.6,0.1,7.8,3.8,7.9,9.2C192.6,93.5,192.5,98.2,192.5,103.5z"/>
	<path class="st0" d="M240.5,103.5c5.3,0,9.9,0,14.5,0c5.7,0.1,9.5,3.3,9.5,8c0,4.7-3.8,7.9-9.5,8c-4.6,0.1-9.2,0-14.1,0
		c-0.1,1.2-0.3,2.1-0.3,3.1c0,4,0.1,8,0,12c-0.2,5.2-3.4,8.8-7.8,8.9c-4.5,0.1-8.1-3.6-8.1-8.9c-0.1-15.4-0.1-30.7,0-46.1
		c0-5.1,3.4-8.7,7.8-8.9c4.5-0.1,8,3.6,8.2,8.9C240.6,93.3,240.5,98.2,240.5,103.5z"/>
	<path class="st0" d="M288.5,119.5c0,5.4,0.1,10.2,0,15.1c-0.2,7.2-6.5,11.2-11.9,7.4c-2-1.4-3.8-4.6-3.9-7.1
		c-0.3-15.6-0.3-31.2-0.1-46.8c0-4.9,3.5-8.4,7.8-8.5c4.3-0.1,7.9,3.5,8.1,8.6c0.1,2.5,0,5,0,7.5c0,2.5,0,4.9,0,7.9
		c5.3,0,10.3-0.1,15.2,0c7.1,0.3,10.8,6.6,7.3,12.2c-1.8,2.9-4.6,3.7-7.7,3.8C298.6,119.6,293.9,119.5,288.5,119.5z"/>
	<path class="st0" d="M337.4,103.5c4.5,0,9.5-0.2,14.4,0c7.1,0.3,10.7,6.6,7.2,12.3c-1.8,2.8-4.6,3.6-7.7,3.7
		c-4.5,0.1-9,0.1-13.5,0.1c-0.2,0-0.5,0.1-1,0.3c-0.1,0.9-0.2,2-0.2,3.1c0,3.7,0.1,7.5,0,11.2c-0.1,5.4-3.3,9.1-7.9,9.2
		c-4.5,0.1-8.1-3.7-8.1-9c-0.1-15.4-0.1-30.7,0-46.1c0-5.1,3.5-8.7,7.9-8.8c4.5-0.1,7.9,3.7,8.1,9c0.1,4.7,0.1,9.5,0.2,14.2
		C336.7,102.9,336.9,102.9,337.4,103.5z"/>
	<path class="st0" d="M178.6,227.5c-7.3,0.1-13.9-6.5-14.1-13.8c-0.1-7.4,6.7-14.3,14.1-14.1c7.4,0.1,13.9,6.7,13.9,14
		C192.5,220.9,185.9,227.4,178.6,227.5z"/>
	<path class="st0" d="M240.5,213.4c0.1,7.3-6.4,13.9-13.8,14.1c-7.2,0.2-13.9-6.3-14.2-13.7c-0.3-7.3,6.5-14.3,14-14.3
		C233.8,199.5,240.4,206.1,240.5,213.4z"/>
	<path class="st0" d="M260.5,213.5c0-7.3,6.5-13.9,13.9-14c7.4-0.1,14.3,6.8,14.1,14.2c-0.2,7.4-6.8,13.9-14.1,13.8
		C267.1,227.4,260.5,220.8,260.5,213.5z"/>
	<path class="st0" d="M336.5,213.5c0,7.3-6.5,13.9-13.9,14c-7.3,0.1-13.9-6.4-14.1-13.8c-0.2-7.4,6.6-14.3,14-14.2
		C329.9,199.6,336.4,206.1,336.5,213.5z"/>
	<path class="st0" d="M384.5,213.3c0.1,7.3-6.3,13.9-13.7,14.1c-7.2,0.2-13.9-6.2-14.2-13.7c-0.3-7.3,6.4-14.3,13.9-14.3
		C377.7,199.5,384.3,206,384.5,213.3z"/>
	<path class="st0" d="M144.5,261.6c-0.1,7.4-6.7,13.9-14,13.9c-7.3,0-13.9-6.6-14-13.9c0-7.4,6.9-14.3,14.2-14
		C138.1,247.7,144.6,254.4,144.5,261.6z"/>
	<path class="st0" d="M178.8,247.5c7.5,0.3,13.9,7,13.7,14.2c-0.2,7.6-7.2,14.2-14.5,13.8c-7.6-0.5-13.9-7.2-13.5-14.4
		C164.9,253.6,171.6,247.2,178.8,247.5z"/>
	<path class="st0" d="M240.5,261.4c0.1,7.3-6.4,13.9-13.8,14.1c-7.2,0.2-13.9-6.3-14.2-13.7c-0.2-7.3,6.6-14.3,14-14.2
		C233.8,247.5,240.4,254.1,240.5,261.4z"/>
	<path class="st0" d="M288.5,261.6c-0.1,7.4-6.7,13.9-14,13.9c-7.3,0-13.9-6.6-14-13.9c0-7.4,6.9-14.3,14.2-14
		C282.1,247.7,288.6,254.4,288.5,261.6z"/>
	<path class="st0" d="M130.4,323.5c-7.3-0.1-13.9-6.8-13.9-14c0-7.5,7-14.2,14.3-14c7.5,0.3,13.9,7,13.7,14.2
		C144.3,317.1,137.6,323.6,130.4,323.5z"/>
	<path class="st0" d="M178.6,295.5c7.3,0.1,13.9,6.6,13.9,14c0,7.4-6.9,14.3-14.2,14c-7.4-0.2-13.9-6.9-13.7-14.1
		C164.7,302,171.3,295.5,178.6,295.5z"/>
	<path class="st0" d="M240.5,309.5c0,7.3-6.6,13.9-13.9,14c-7.3,0.1-13.9-6.4-14.1-13.8c-0.2-7.4,6.7-14.3,14.1-14.2
		C233.9,295.6,240.5,302.2,240.5,309.5z"/>
	<path class="st0" d="M192.5,357.4c0.1,7.3-6.4,13.9-13.8,14.1c-7.2,0.2-13.9-6.3-14.2-13.7c-0.2-7.3,6.6-14.3,14-14.3
		C185.8,343.5,192.4,350.1,192.5,357.4z"/>
	<path class="st0" d="M226.4,371.5c-7.3-0.1-13.9-6.8-13.8-14c0.1-7.5,7-14.2,14.3-13.9c7.5,0.3,13.9,7,13.7,14.2
		C240.3,365.2,233.6,371.6,226.4,371.5z"/>
</g>
</svg>
