<?xml version="1.0" encoding="utf-8"?>
<!-- Generator: Adobe Illustrator 25.0.1, SVG Export Plug-In . SVG Version: 6.00 Build 0)  -->
<svg version="1.1" id="Layer_1" xmlns="http://www.w3.org/2000/svg" xmlns:xlink="http://www.w3.org/1999/xlink" x="0px" y="0px"
	 viewBox="0 0 653.4 317.9" style="enable-background:new 0 0 653.4 317.9;" xml:space="preserve">
<style type="text/css">
	.st0{fill:#3F4E9F;}
	.st1{fill:#EE8E22;}
	.st2{fill:#FBD8C3;}
</style>
<g>
	<g>
		<g>
			<path class="st0" d="M352,74.5c5.4,1.5,8.1,5.3,8.1,11.2c0,6.4-3.1,10.3-9.2,11.6c-1.8,0.5-9.2,0.8-22.2,0.8s-20.4,0.1-22.2,0.4
				c-6.1,11.6-11.9,23.4-17.3,35.3c-3.3,7.4-23.7,52.5-3.2,52.5c1.3,0,2.7-0.2,4.2-0.8c7.7-2.6,15.3-12.2,22.7-28.9
				c2.6-5.4,6.7-8.1,12.3-8.1c3.8,0,7.1,1.3,9.6,4c2.6,2.7,3.8,5.8,3.8,9.4c0,2.1-0.4,3.8-1.2,5.4c-4.1,9.8-8.2,17.6-12.3,23.5
				c-7.7,11-17.1,18.2-28.1,21.6c-4.1,1.3-8.1,1.9-12,1.9c-6.4,0-12.5-1.8-18.1-5.4c-9-5.4-14.6-14.1-17-26.2
				c-3-15.6,1.2-28.9,7.2-43.2c3-7.1,6.3-14.1,9.6-21.1c0.9-1.8,7.5-18.9,8.7-18.9c-4.4,0-9.5,0.3-15.4,1
				c-5.9,0.6-10.7,1.2-14.4,1.5c-3.7,0.4-7.4,0.5-11,0.2c-3.6-0.2-6.4-1.2-8.3-2.9c-1.9-1.7-3.1-4.2-3.7-7.5c-0.2-3.9,0.9-7,3.5-9.4
				s5.9-3.9,10-4.4c4.9-0.8,9.5-1.4,13.9-1.9c4.4-0.5,8.1-0.9,11.2-1.2c3.1-0.2,6-0.5,8.7-0.8c2.7-0.2,4.9-0.5,6.5-0.6
				c1.7-0.1,3.2-0.2,4.6-0.2s2.6-0.1,3.5-0.2c0.9-0.1,1.6-0.2,2.1-0.4c0.5-0.1,1-0.3,1.3-0.6c0.4-0.2,0.6-0.6,0.8-1
				c0.1-0.4,0.3-0.8,0.6-1.4c1-2,1.9-3.9,2.7-5.4c4.4-7.2,9-10.8,13.9-10.8c1.5,0,3.2,0.4,5,1.2c4.6,2.3,6.9,5.9,6.9,10.8
				c0,0.8-0.1,1.4-0.4,1.9c0,0.3-0.3,1.8-0.8,4.6C338.5,73.2,350.2,74,352,74.5L352,74.5z"/>
			<path class="st0" d="M416.9,149.9c3.6,0,6.6,1.2,9.1,3.7c2.4,2.4,3.7,5.5,3.7,9.1c0,2.1-0.5,4.1-1.5,6.2
				c-4.4,7.7-8.9,15.3-13.5,22.7c-5.4,8.7-11.3,15.2-17.7,19.3c-5.4,3.6-10.4,5.4-15,5.4c-0.8,0-1.5-0.1-2.3-0.4
				c-5.1-0.5-9.7-2.6-13.7-6.4c-4-3.7-6.4-8.4-7.1-14.1c0-0.5-0.3-4.4-0.8-11.6c-11.6,12.8-20.2,21.5-25.8,25.8
				c-3.3,2.8-6.9,4.2-10.8,4.2c-1.8,0-3.6-0.2-5.4-0.8c-5.9-1.8-9.9-6.2-12-13.1c-0.8-3.1-1.2-6.4-1.2-10c0-7.7,2.2-16.3,6.5-25.8
				c6.4-13.9,15.2-25.7,26.4-35.5c11.2-9.8,21.8-14.9,31.8-15.4h0.8c5.4,0,10,1.7,13.9,5c4.1,3.1,6.5,7.1,7.3,12
				c0.2,1.3,0.9,2.5,1.9,3.5c1.5,1.5,2.8,3.2,3.7,4.8c0.9,1.7,1.5,3.2,1.7,4.4c0.2,1.3,0.2,3-0.2,5c-0.4,2.1-0.8,3.7-1.2,4.8
				c-0.4,1.2-1,3.1-1.9,5.8c-0.9,2.7-1.5,4.4-1.7,5.2c-3.1,9.8-4.9,15.5-5.4,17.2c-0.5,1.7-0.5,3.3,0,4.8c1-1,2-2,3.1-3.1
				c5.9-8.5,11.4-17.2,16.6-26.2C408.5,152.1,412.1,149.9,416.9,149.9L416.9,149.9z M334.8,172.7l29.3-30.8l-1.2-0.8
				C351.1,147.5,341.8,158,334.8,172.7L334.8,172.7z"/>
			<path class="st0" d="M438.9,127.6c0.2-0.2,1.6-1.4,4-3.3s4-3.1,4.8-3.7c0.8-0.5,2.2-1.5,4.4-2.9s4-2.4,5.4-2.9
				c1.4-0.5,3.1-1,5.2-1.5c2-0.5,4.2-0.8,6.5-0.8h1.5c5.9,0,10.8,1.3,14.7,3.9c4.1,3.1,7.8,7.7,11.2,13.9c9-3.1,16.6-5.4,22.7-6.9
				c1.3-0.2,2.6-0.4,3.8-0.4c3.3,0,6.2,1,8.5,3.1c3.1,2.8,4.5,6.2,4.2,10c-0.3,3.8-2.2,6.9-5.8,9.2c-1.5,1-6.2,2.7-14.1,5
				s-13.5,4.1-17.2,5.4c-5.7,29.8-17,48.4-33.9,55.9c-4.6,2.1-8.9,3.1-12.7,3.1c-5.7,0-10.7-2-15-6.2c-4.1-4.1-6.2-8.9-6.2-14.3
				c0-2.3,0.4-4.9,1.2-7.7c1-2.8,2.1-5.6,3.3-8.3c1.2-2.7,2.3-5.1,3.5-7.1c1.2-2,2.7-4.2,4.6-6.4c1.9-2.2,3.5-3.8,4.6-5
				s2.9-2.6,5.2-4.4c2.3-1.8,3.9-3,4.8-3.7c0.9-0.6,2.7-1.9,5.4-3.7s4.3-2.8,4.8-3.1c1.3-1,2-1.7,2.1-2.1s-0.1-1.5-0.6-3.3
				c-0.5-0.2-1.2-0.4-1.9-0.4c-4.6,0-11.8,5.8-21.6,17.3c-11.3,13.4-19.1,27.1-23.5,41.2c-5.1,15.9-11,32.1-17.7,48.6
				c-6.7,16.5-10.9,28.5-12.7,36.2c-0.5,3.3-0.8,6.4-0.8,9.2v3.1c0.3,3.6,0.1,6.7-0.4,9.2c-1.5,5.9-5.4,9.2-11.6,10h-1.5
				c-6.4,0-10.9-4-13.5-12c-1-3.6-1.5-7.5-1.5-11.6c0-10.5,3.1-23.6,9.2-39.3c1-2.8,4.2-10.8,9.4-24.1c5.3-13.2,9.2-23.2,11.8-29.9
				c2.6-6.7,5.5-15.2,8.9-25.6c3.3-10.4,5.8-19.3,7.3-26.8c0.8-3.3,1.5-7.3,2.1-12c0.6-4.6,1.2-8.1,1.5-10.4s1.3-4.4,2.7-6.4
				c1.4-1.9,3.5-3.1,6.4-3.7c3.1-0.5,6,0.1,8.7,1.7c2.7,1.7,4.7,4.2,6,7.5L438.9,127.6L438.9,127.6z"/>
			<path class="st0" d="M576,140.6v5c0,5.9-0.1,10.5-0.4,13.9c-0.3,3.9-1.4,9.2-3.4,16c-2,6.7-5,13.2-9.2,19.3
				c-9.2,14-19.6,21-31.1,21c-1.4,0-2.9-0.1-4.6-0.4c-11.2-2-18.5-9.1-21.8-21.4c-1.4-4.5-2.1-9.1-2.1-13.9
				c0-17.4,8.3-36.5,24.8-57.6c3.4-4.2,7-8.5,10.9-13c3.6-3.6,8-5.9,13-6.7c1.1-0.3,2.2-0.4,3.4-0.4c3.9,0,7.4,1,10.5,2.9
				c8.4,3.9,17.6,6.5,27.7,7.8c10.1,1.3,16.8,2.5,20.2,3.6c4.8,1.4,7.8,4.4,9,8.8c1.3,4.5,0.6,8.6-2.1,12.4
				c-2.7,3.8-6.5,5.7-11.5,5.7h-2.1c-11.8,0-21.3-0.8-28.6-2.5L576,140.6L576,140.6z M547,150.3c-3.4,3.4-6.4,8.8-9.2,16.4
				c-2.2,6.4-3.4,11.5-3.4,15.1v2.1C542.8,174.4,547,163.2,547,150.3z"/>
		</g>
		<path class="st1" d="M533,92.2c13.5-8.6,28.9-9.5,42.9-1.3c20.2,11.7,38.4-19.5,18.2-31.2c-24.7-14.3-55.3-14.1-79.4,1.3
			C495.2,73.5,513.3,104.8,533,92.2L533,92.2L533,92.2z"/>
	</g>
	<g>
		<g>
			<g>
				<path class="st2" d="M58.1,123.1C14.2,109.4,26.8,95.7,37.6,89c1.6-1,3.4,0.8,2.5,2.4c-6.8,11.6,5.7,21.5,19.4,28.4
					C61.4,120.8,60.2,123.7,58.1,123.1L58.1,123.1z"/>
				<path class="st2" d="M109,91.6c0,3.9-4.8,7-10.6,7s-10.6-3.1-10.6-7s4.8-6.9,10.6-6.9S109,87.8,109,91.6z"/>
			</g>
			<g>
				<path class="st0" d="M147.2,77.2c-0.2-0.1-0.4-0.2-0.6-0.2v0C146.8,77,147,77.1,147.2,77.2L147.2,77.2z"/>
				<g>
					<path class="st0" d="M51.9,183.8L51.9,183.8L51.9,183.8C51.9,183.9,51.9,183.9,51.9,183.8L51.9,183.8z"/>
					<path class="st0" d="M220.3,173.6c0-0.9-0.1-1.9-0.2-2.7c-1.4-14.2-13.9-26.6-33.3-34.8v-16.9c3.7-5.4,5.7-11.2,5.7-17.2
						c0-0.9,0-1.9-0.2-2.7c-1.3-13.5-12.3-25.5-31.1-34c-4-15.5-15-28.5-30.1-35.1L73.4,5.3c-6.1-2.7-13-2.9-19.7-0.5L41.8,9.7
						c-10.5,3.7-17.6,13.8-17.6,25v36.3C12.1,78.6,4.5,88.4,3.4,99.3c-0.1,0.9-0.2,1.8-0.2,2.7c0,6,1.9,11.9,5.7,17.3v42
						c0,13.8,10.5,25.8,27.8,34.1v37.5c0,26.3,38.2,46.1,88.9,46.1s88.9-19.8,88.9-46.1c0-0.2,0-0.6,0-1l0-41
						C218.3,185.5,220.3,179.7,220.3,173.6L220.3,173.6z M162.9,84.6c2.6,1.7,4.9,3.4,6.8,5.2c0.5,0.4,0.9,0.9,1.3,1.3
						c0.5,0.5,0.9,1,1.4,1.5c0.4,0.5,0.7,0.9,1,1.4c0.4,0.5,0.6,0.9,0.9,1.4c0.5,0.8,0.9,1.7,1.2,2.5c0.1,0.2,0.1,0.3,0.2,0.5
						c0.2,0.4,0.3,0.9,0.4,1.3c0.1,0.5,0.2,0.9,0.2,1.4l0.1,0.6v0.5c0,0.4,0,0.9-0.1,1.3c0,0.3-0.1,0.6-0.2,0.9
						c0,0.2-0.1,0.5-0.2,0.7c-0.1,0.3-0.2,0.6-0.3,0.9c-0.2,0.6-0.4,1.1-0.7,1.7c-0.4,0.7-0.8,1.5-1.3,2.2
						c-2.2,3.3-5.9,6.6-10.7,9.7L162.9,84.6L162.9,84.6z M40.4,34.7c0-4.3,2.8-8.2,7.2-9.8l11.9-4.9c2.4-0.9,5.1-0.8,7.5,0.3
						l57.6,24.9c6.5,2.8,12,7.4,15.8,13.1c3.7,5.4,5.9,11.9,6.2,18.7c0.2,0.1,0.5,0.2,0.6,0.2c-0.2-0.1-0.4-0.2-0.6-0.2
						c0,0.6,0,1.1,0,1.7v77c0,1.8-1.1,3.5-2.8,4.3l-4.1,1.7c-1.8,0.8-3.3,0.1-4-0.4c-0.7-0.5-1.9-1.5-1.9-3.5V99.9
						c0-12.2-1.2-20.8-4.9-27.6c-4.1-7.5-11.1-12.9-22.9-18.9c-1-0.5-2.1-1.1-3.2-1.6l-37-17.2c-4.1-1.9-8.9-0.1-10.8,3.9
						c-1.1,2.4-1,5.1,0.2,7.3c0.8,1.5,2,2.7,3.7,3.5L71.4,55c-11.4,1.6-21.9,4.3-31,7.8L40.4,34.7L40.4,34.7z M19.5,102
						c0-0.2,0-0.4,0-0.6l0-0.5C20.9,86,53.4,69.4,97.9,69.4c1.4,0,2.7,0,4.1,0c14.1,7.4,15.7,11.9,15.7,30.4v33.5
						c-1.6,0.2-3.2,0.4-4.8,0.5c-0.9,0.1-1.8,0.2-2.7,0.2c-1.5,0.1-3,0.2-4.5,0.2c-0.3,0-0.6,0.1-0.9,0c-2.2,0.1-4.5,0.2-6.8,0.2
						c-8.5,0-16.8-0.6-24.7-1.7c-13.8-2-26.3-5.8-36-10.8C26,116,19.5,108.7,19.5,102L19.5,102z M51.9,183.8
						c-1.2-0.5-2.4-0.8-3.5-1.3c-1-0.5-2-0.8-3-1.3c-2-0.9-3.9-1.8-5.6-2.8c-0.7-0.4-1.3-0.8-2-1.2c-2.6-1.6-4.9-3.3-6.7-5v0
						c-3.8-3.5-5.9-7.3-5.9-11v-27.5c1.4,0.9,2.9,1.7,4.5,2.6c1.1,0.6,2.2,1.1,3.4,1.7c1.1,0.6,2.3,1.1,3.5,1.6c0,0,0,0,0,0
						c1,0.5,2.1,0.9,3.2,1.3c3.1,1.2,6.3,2.3,9.7,3.3c0.1,0,0.2,0,0.3,0.1c1.3,0.4,2.6,0.8,4,1.1c0.8,0.2,1.6,0.5,2.5,0.7
						c1.4,0.3,2.8,0.7,4.3,1c0.9,0.2,1.7,0.4,2.5,0.5c1.3,0.2,2.7,0.5,4.1,0.7c2.6,0.5,5.1,0.8,7.8,1.1h0c1.2,0.2,2.4,0.3,3.7,0.4
						c1,0.1,2,0.2,3,0.3c1.5,0.1,3,0.2,4.6,0.3c1.9,0.1,3.8,0.2,5.7,0.3h0c2,0,3.9,0.1,5.8,0.1c2.3,0,4.5,0,6.8-0.1
						c0.5,0,1,0,1.6-0.1c2.5-0.1,4.9-0.2,7.3-0.5c1.4-0.1,2.7-0.2,4.1-0.4v8.1c0,6.9,3.5,13.3,9.2,17.1c3.4,2.2,7.3,3.4,11.2,3.4
						c2.7,0,5.5-0.5,8.1-1.6l4.1-1.8c7.7-3.3,12.6-10.8,12.6-19.1v-17.8c1.1-0.5,2.1-1,3.2-1.6c1.5-0.8,3-1.6,4.4-2.5v28
						c-0.7,14-31.5,29.4-72.6,29.4c-2.1,0-4.1,0-6.1-0.1h-0.7c-1.5-0.1-3.1-0.2-4.6-0.3c-0.5,0-1-0.1-1.6-0.1
						c-1.7-0.1-3.5-0.3-5.2-0.5c-0.8-0.1-1.6-0.2-2.4-0.3c-1.5-0.2-3-0.4-4.5-0.7C65.1,187.9,58.1,186.1,51.9,183.8
						C47.8,182.4,47.8,182.4,51.9,183.8L51.9,183.8L51.9,183.8z M125.7,262.8C84.1,262.8,53,247,53,232.9v-27.5
						c1.4,0.9,2.9,1.7,4.5,2.6c17.5,9.2,42.4,14.5,68.2,14.5s50.7-5.3,68.2-14.5c1.5-0.8,3-1.7,4.4-2.5v26.9l0,1
						C197.6,247.4,166.7,262.8,125.7,262.8L125.7,262.8z M186.3,193.6c-15.2,8-37.4,12.6-60.6,12.6c-2,0-4,0-6-0.1
						c39.4-4.8,67.1-22.5,67.1-44.8c0-0.2,0-0.6,0-1v-6.2c0.6,0.4,1.3,0.7,1.9,1c1.9,1,3.6,2.1,5.1,3.3c0.5,0.4,1,0.7,1.5,1.1
						c0.5,0.4,0.9,0.7,1.3,1.1c0.5,0.4,1,0.9,1.5,1.4c0.7,0.7,1.3,1.3,2,2c0.4,0.5,0.7,0.9,1,1.3c0.3,0.4,0.6,0.8,0.8,1.2
						c0.2,0.4,0.4,0.7,0.6,1c0.2,0.3,0.3,0.6,0.4,0.8c0.2,0.4,0.3,0.7,0.5,1.1c0.4,1,0.6,2,0.7,3l0.1,0.5c0,0.2,0,0.3,0,0.5
						C204,180.4,197.6,187.7,186.3,193.6L186.3,193.6z"/>
					<path class="st1" d="M146.6,78.6v77c0,1.8-1.1,3.5-2.8,4.3l-4.1,1.7c-1.8,0.8-3.3,0.1-4-0.4c-0.7-0.5-1.9-1.5-1.9-3.5V99.9
						c0-12.2-1.2-20.8-4.9-27.6c-4.1-7.5-11.1-12.9-22.9-18.9c-1-0.5-2.1-1.1-3.2-1.6l-37-17.2c-4.1-1.9-8.9-0.1-10.8,3.9
						c-1.1,2.4-1,5.1,0.2,7.3c0.8,1.5,2,2.7,3.7,3.5l12.4,5.8c-11.4,1.6-21.9,4.3-31,7.8V34.7c0-4.3,2.8-8.2,7.2-9.8l11.9-4.9
						c2.4-0.9,5.1-0.8,7.5,0.3l57.6,24.9c6.5,2.8,12,7.4,15.8,13.1c3.7,5.4,5.9,11.9,6.2,18.7v0C146.6,77.5,146.6,78,146.6,78.6
						L146.6,78.6z"/>
					<path class="st0" d="M147.2,77.2c-0.2-0.1-0.4-0.2-0.6-0.2v0C146.8,77,147,77.1,147.2,77.2L147.2,77.2z"/>
				</g>
			</g>
			<path class="st0" d="M109,91.6c0,3.9-4.8,7-10.6,7s-10.6-3.1-10.6-7s4.8-6.9,10.6-6.9S109,87.8,109,91.6z"/>
		</g>
		<path class="st0" d="M58.1,123.1C14.2,109.4,26.8,95.7,37.6,89c1.6-1,3.4,0.8,2.5,2.4c-6.8,11.6,5.7,21.5,19.4,28.4
			C61.4,120.8,60.2,123.7,58.1,123.1L58.1,123.1z"/>
		<path class="st0" d="M83.1,180.6c-0.2,1-1,1.7-2,1.7h-0.2c-15.4-1.1-26.2-4.1-33.6-7.5c-6.1-2.7-9.9-5.6-12.2-7.8
			c-0.9-0.9-1.7-1.9-2.3-3v0c-0.8-1.5-1.3-3.2-1.3-5l-0.4-11.7c0-1,0.7-1.9,1.7-2.1c1-0.2,2,0.5,2.3,1.4c0.8,2.6,2,5.1,3.6,7.4
			c3,4.3,7.2,8,11.8,11.1c13.6,9.1,30.7,13.2,31,13.3C82.5,178.6,83.2,179.5,83.1,180.6L83.1,180.6z"/>
		<path class="st0" d="M109.4,249.8c-0.4-0.1-39.6-10.7-45.6-33c-0.3-1-1.2-1.6-2.2-1.5c-1,0.1-1.8,1-1.8,2L60,229
			c0,3.1,1.2,6,3.4,8.2c4.9,5,17.2,13.8,45.3,16.5c0.1,0,0.1,0,0.2,0c1,0,1.8-0.7,2-1.7C111.1,251,110.4,250,109.4,249.8
			L109.4,249.8z"/>
	</g>
</g>
<path class="st0" d="M623.2,89.4h-4.7v-2.7h12.4v2.7h-4.7v12.7h-2.9L623.2,89.4L623.2,89.4z M634.2,86.7h3.1L642,94l4.6-7.3h3v15.4
	h-2.8V91.2l-4.7,7.3h-0.3l-4.7-7.3v10.9h-2.8L634.2,86.7L634.2,86.7z"/>
</svg>
