<?xml version="1.0" encoding="UTF-8"?>
<svg id="Layer_1" data-name="Layer 1" xmlns="http://www.w3.org/2000/svg" viewBox="0 0 110.92 128.38">
  <defs>
    <style>
      .cls-1 {
        fill: #ffb7d4;
      }

      .cls-2 {
        fill: #fff;
      }

      .cls-3 {
        fill: #ff989b;
      }

      .cls-4 {
        fill: #fff5f5;
      }
    </style>
  </defs>
  <path class="cls-4" d="M48.84,82.53L1.88,108.21l6.39-44.37c.47-3.26,3.26-5.68,6.56-5.68h20.68l13.33,24.37Z"/>
  <path class="cls-4" d="M52.07,88.44l21.85,39.95H6.63c-4.04,0-7.13-3.58-6.56-7.57l.61-4.26,51.39-28.12Z"/>
  <path class="cls-4" d="M67.1,101.87l-23.91-43.71h52.9c3.3,0,6.09,2.42,6.56,5.68l2.48,17.23-38.02,20.8Z"/>
  <path class="cls-4" d="M104.29,128.38h-22.68l-11.27-20.6,35.81-19.59,4.7,32.62c.58,3.99-2.52,7.57-6.56,7.57Z"/>
  <ellipse class="cls-3" cx="75.73" cy="73.32" rx="11.79" ry="4.06"/>
  <g>
    <path class="cls-1" d="M102.62,26.89c0,20.85-18.6,38.97-24.86,44.47-1.16,1.02-2.9,1.02-4.06,0-6.26-5.51-24.86-23.62-24.86-44.47,0-14.85,12.04-26.89,26.89-26.89s26.89,12.04,26.89,26.89Z"/>
    <circle class="cls-2" cx="75.73" cy="26.89" r="19.86"/>
  </g>
</svg>