<?xml version="1.0" encoding="UTF-8"?>
<svg id="Layer_1" data-name="Layer 1" xmlns="http://www.w3.org/2000/svg" viewBox="0 0 280 280">
  <defs>
    <style>
      .cls-1 {
        fill: #fff;
      }

      .cls-2 {
        fill: #ffeaf0;
      }
    </style>
  </defs>
  <circle class="cls-2" cx="140" cy="140" r="140"/>
  <path class="cls-1" d="M95.82,52.23c15.4-18.61,45.67-25.64,65.94-10.85,17.33-.05,31.84,13.76,35.39,30.24,5.4,19.96,2.29,40.84,4.52,61.17.72,4.57,1.7,10.77,6.98,12.12,7.08,1.84,9.96,11.6,4.99,16.97-9.98,10.7-24.96,14.27-38.93,16.14,19.88,8.39,36.76,24.06,45.74,43.78,2.3,5.85-1.75,12.72-7.76,14.07-48.24.16-96.5.18-144.75,0-6.18-1.33-10.16-8.6-7.54-14.45,9.02-19.35,25.34-35.24,45.11-43.39-13.32-1.75-27.83-5.01-37.3-15.28-4.33-4.18-5.18-11.83-.6-16.13,2.33-2.9,7.23-1.74,8.67-5.57,7.74-14.16,4.77-30.94,5.8-46.39.45-15,3.97-30.6,13.73-42.41ZM101.47,95.83c-5.02,17.82.45,38.62,15,50.48,0,9.4,0,18.81,0,28.22,7.93,10.26,15.84,20.52,23.81,30.75,7.98-10.24,15.95-20.5,23.92-30.76,0-9.58-.01-19.16,0-28.73,15.06-12.61,19.97-34.86,13.49-53.12-13.47,2.83-27.81-2.89-36.48-13.38-8.54,12.61-24.64,20.06-39.74,16.55Z"/>
</svg>