<?xml version="1.0" encoding="UTF-8"?>
<svg id="Layer_1" data-name="Layer 1" xmlns="http://www.w3.org/2000/svg" viewBox="0 0 34.09 34.09">
  <defs>
    <style>
      .cls-1 {
        fill: #ffb5d4;
      }

      .cls-2 {
        fill: #aa161b;
      }
    </style>
  </defs>
  <path class="cls-1" d="M25.43,25.43c-2.87,10.74-13.91,10.74-16.78,0-10.74-2.87-10.74-13.91,0-16.78,2.87-10.74,13.91-10.74,16.78,0,10.74,2.87,10.74,13.91,0,16.78Z"/>
  <path class="cls-2" d="M18.51,24.6v-5.43h1.47c.11-.72.22-1.42.33-2.14h-2.24v-.17c0-.4,0-.79,0-1.19,0-.77.41-1.19,1.18-1.21.4,0,.8,0,1.21,0,.06,0,.11,0,.18,0,0-.32,0-.63,0-.94s0-.61,0-.93c-.31-.04-.61-.08-.91-.1-.6-.05-1.2-.08-1.79.07-1.07.27-1.81,1.09-1.94,2.18-.05.41-.05.82-.06,1.23,0,.34,0,.69,0,1.05h-1.7v2.13h1.69v5.45c-.23-.05-.47-.09-.69-.15-1.4-.35-2.61-1.02-3.62-2.07-1.1-1.15-1.8-2.5-2.03-4.08-.39-2.62.35-4.88,2.24-6.74,1.18-1.16,2.62-1.83,4.27-2.04,3.53-.45,6.91,1.63,8.09,5.01.43,1.24.52,2.51.32,3.82-.5,3.17-3.03,5.59-5.84,6.21-.05.01-.1.02-.15.03Z"/>
</svg>