<?xml version="1.0" encoding="utf-8"?>
<!-- Generator: Adobe Illustrator 25.0.1, SVG Export Plug-In . SVG Version: 6.00 Build 0)  -->
<svg version="1.1" id="Layer_1" xmlns="http://www.w3.org/2000/svg" xmlns:xlink="http://www.w3.org/1999/xlink" x="0px" y="0px"
	 viewBox="0 0 500 500" style="enable-background:new 0 0 500 500;" xml:space="preserve">
<style type="text/css">
	.st0{fill:#9D2A27;}
</style>
<g>
	<path class="st0" d="M5.8,34.5c0.6-1.8,1.3-3.5,1.9-5.3c4.8-14,17.6-23.3,32.7-23.3c29.1-0.1,58.3,0,87.4,0
		c87.1,0,174.1,0,261.2-0.1c5.6,0,9.6,1.7,13.5,5.6c14.3,14.6,28.7,28.9,43.2,43.2c1.2,1.2,2.7,2.5,4.2,2.7
		c4.2,0.6,8.8-0.2,12.6,1.3c3.6,1.4,6.4,4.9,8.7,6.8c5.1-2.8,9.7-5.7,14.7-7.7c1.5-0.6,4.6,1.3,6.2,2.8c4.7,4.5,3.6,8-5.8,19.6
		c0.1,0.3,0.1,0.7,0.3,0.9c7.6,5.5,8.6,13.1,8.5,21.9c-0.4,40.9-0.2,81.8-0.1,122.7c0,5-1.6,8.7-5.1,12.2
		c-29.9,29.7-59.7,59.6-89.5,89.4c-1.2,1.2-2.5,2.5-4,3.4c-3.8,2.3-8.8,1.5-11.8-1.7c-3-3.3-3.4-8.2-0.8-11.9c1-1.4,2.3-2.6,3.5-3.9
		c28.5-28.5,57-56.9,85.3-85.5c1.7-1.7,2.9-4.6,3-6.9c0.2-39.8,0.2-79.6,0-119.4c0-2.5-1.4-5-2.5-8.9c-8.1,8.1-15,14.9-21.6,22
		c-0.9,0.9-0.5,3.4-0.1,5c3.2,11.9,0.5,22.3-8.8,30.3c-9.3,8-20.1,9.4-31.2,4c-11-5.5-16.4-14.8-16-27.1
		c0.6-18.4,19.1-31.4,36.9-25.7c3.3,1.1,5.1,0.4,7.3-1.9c6.1-6.3,12.3-12.4,19.8-19.7c-3.6-1.2-6.1-2.6-8.5-2.6
		c-39.8-0.1-79.6-0.1-119.4,0c-2.4,0-5.3,1.2-7,2.8c-80.7,80.5-161.3,161.1-241.9,241.7c-8.7,8.7-8.7,16.8,0.1,25.6
		c41,41,81.9,81.9,122.9,122.9c8.3,8.3,16.6,8.3,24.9,0c30.2-30.1,60.3-60.3,90.5-90.5c6.3-6.3,11.5-7.2,16.1-2.7
		c4.4,4.4,3.6,10-2.5,16.1c-28.8,28.8-57.7,57.5-86.4,86.5c-7.2,7.3-14.7,13.5-25,15.8c-3.5,0-7,0-10.5,0
		c-7.9-2.2-14.9-5.8-20.8-11.8c-40.9-41.1-82-82.1-123.1-123.2c-15.8-15.8-15.9-36.1-0.1-51.9c16.6-16.7,33.3-33.3,49.9-49.9
		c1.2-1.2,2.3-2.4,4.4-4.5c-3.1,0-4.8,0-6.5,0c-25.1,0-50.3,0.1-75.4,0c-17.9-0.1-30.3-9.9-34.9-27.2c-0.2-0.6-0.5-1.1-0.8-1.7
		C5.8,161.2,5.8,97.8,5.8,34.5z M421.4,57.4c-11-11-21.1-21.2-31.3-31.1c-1-1-3.2-1.3-4.8-1.3c-114.6-0.1-229.2-0.1-343.8,0
		c-10.3,0-16.6,6.3-16.6,16.7c0,58.7,0,117.4,0,176.2c0,10.4,6.2,16.6,16.6,16.6c32.5,0.1,64.9,0.1,97.4-0.1c2.1,0,4.7-1.1,6.2-2.6
		c11-10.6,21.7-21.5,32.5-32.3c0.8-0.8,1.5-1.8,2.4-2.9c-19.4-1.4-30.7-11.8-31.2-27.9c-0.4-14.8,10.2-27.3,24.7-29.2
		c7.4-1,14.3,0.6,20.3,5c8.8,6.3,12.3,15.2,12.9,26.2c1.7-1.1,2.5-2.7,3.7-3.9c34.6-34.7,69.3-69.3,103.9-104.1
		c3.6-3.7,7.5-5.3,12.7-5.2c13.4,0.2,26.7,0.1,40.1,0.1C384.8,57.4,402.5,57.4,421.4,57.4z M433.7,127.9c-0.1-5-4.6-9.3-9.5-9.3
		c-5.3,0-9.6,4.5-9.5,9.8c0.1,5.1,4.4,9.3,9.5,9.3C429.4,137.6,433.8,133.1,433.7,127.9z M177.2,177.1c5.3,0.1,9.5-3.9,9.7-9.1
		c0.2-5.4-4.2-9.8-9.5-9.8c-5.2,0-9.3,4.2-9.4,9.4C167.9,172.9,171.9,177,177.2,177.1z"/>
	<path class="st0" d="M286,311.4c-5.8,5.9-11.5,11.6-17,17.6c-0.9,0.9-0.8,3-0.7,4.4c0.1,1,0.9,2,1.4,3c2.3,5.4,0.7,10.7-4.1,13.1
		c-4.8,2.4-10.1,0.7-12.9-4.5c-3.5-6.4-6.7-13-10-19.5c-8.4-16.6-16.9-33.1-25.3-49.7c-2.9-5.7-2.7-9.8,0.7-13.1
		c3.4-3.4,7.3-3.7,13.1-0.8c22.6,11.5,45.3,23,67.9,34.5c3.6,1.8,6.4,4.2,6.6,8.6c0.5,7.1-6,12.1-12.6,9.7
		C291,313.9,288.9,312.7,286,311.4z M248.3,292c-0.3,0.2-0.5,0.5-0.8,0.7c3.4,6.6,6.7,13.1,10.2,19.9c3.6-3.7,6.8-7.1,10.1-10.6
		C261.4,298.7,254.9,295.4,248.3,292z"/>
	<path class="st0" d="M151.6,340.9c0.1-7.7,2.9-14.3,8.2-19.8c4.3-4.5,8.7-8.9,13.2-13.2c4.4-4.3,10.2-4.5,14-0.7
		c4,3.9,3.9,9.5-0.5,14c-4,4.1-8.1,8.1-12.1,12.2c-4.3,4.5-4.7,10.1-1,14.1c3.8,4.1,9.1,4.1,14-0.1c9.7-8.4,20.6-10.6,32.3-5.1
		c10.9,5.2,16.2,14.4,16.2,26.5c0,7.1-2.7,13.4-7.6,18.6c-4.5,4.7-9.1,9.3-13.8,13.9c-4.4,4.2-10.3,4.3-14,0.3
		c-3.7-3.9-3.6-9.4,0.5-13.7c3.8-4,7.9-7.9,11.8-11.9c5-5.1,5.4-10.5,1.3-14.7c-4-4.1-9-3.9-14.4,0.7c-17.2,14.5-42,6.9-47.2-14.5
		C152,345.4,151.9,343.1,151.6,340.9z"/>
	<path class="st0" d="M332.2,175.9c4.4,4.4,8.7,8.8,13.6,13.7c3.4-3.6,6.9-7.5,10.6-11.2c4.6-4.5,10.5-4.7,14.4-0.6
		c3.8,4,3.6,9.5-0.8,14c-3.7,3.7-7.6,7.2-11.4,10.7c5,4.8,9.5,9.1,14.6,13.9c3.1-3.3,6.5-7.2,10.3-10.9c4.7-4.7,10.3-4.9,14.3-0.8
		c3.9,3.9,3.5,9.8-1,14.4c-5.6,5.7-11.2,11.3-16.9,16.9c-5.4,5.3-10.3,5.3-15.7-0.1c-17.2-17.2-34.4-34.4-51.6-51.6
		c-5.5-5.5-5.5-10.3-0.2-15.7c5.6-5.7,11.2-11.3,16.9-16.9c4.7-4.6,10.4-5,14.4-1.1c4.2,4.1,3.9,9.7-1,14.7
		c-3.3,3.4-6.7,6.8-10.1,10.2C332.3,175.6,332.2,175.9,332.2,175.9z"/>
	<path class="st0" d="M323.2,266.3c5.3-5.5,9.5-10.1,13.8-14.4c5.1-5.1,10.4-5.5,14.7-1.4c4.1,4,3.8,9.8-1,14.7
		c-6.5,6.6-13,13.1-19.6,19.6c-5.2,5.1-10.2,5.1-15.4-0.1c-17.3-17.3-34.6-34.6-51.9-51.9c-4.9-4.9-5.2-10.6-0.9-14.7
		c4.2-4,9.5-3.7,14.3,1.1c14.1,14,28.1,28.1,42.1,42.1C320.6,262.5,321.5,264,323.2,266.3z"/>
	<path class="st0" d="M361,362.2c-5.3-0.1-9.4-4.2-9.4-9.4c0-5.1,4.4-9.5,9.4-9.5c5.3,0,9.8,4.5,9.6,9.8
		C370.5,358.3,366.2,362.3,361,362.2z"/>
	<path class="st0" d="M174.2,77c-0.4,1-1,3.2-2,5c-19.9,35.4-39.9,70.9-60,106.3c-3.2,5.7-8.6,7.6-13.5,4.9c-5.2-2.8-6.4-8.4-3-14.4
		c20-35.6,40.1-71.1,60.2-106.7c2.8-5,6.8-6.8,11.4-5.5C171.6,67.9,174.2,71.4,174.2,77z"/>
	<path class="st0" d="M125.3,91.6c0.1,15.8-12.6,28.7-28.3,28.8c-15.9,0.1-29-12.9-29-28.7c0-15.7,13-28.6,28.6-28.6
		C112.4,63.1,125.2,75.9,125.3,91.6z M96.6,82.3c-5.1,0.1-9.4,4.4-9.4,9.4c-0.1,5.2,4.5,9.7,9.7,9.6c5.3-0.1,9.5-4.5,9.3-9.9
		C106,86.3,101.7,82.2,96.6,82.3z"/>
</g>
</svg>
