<?xml version="1.0" encoding="utf-8"?>
<!-- Generator: Adobe Illustrator 25.0.1, SVG Export Plug-In . SVG Version: 6.00 Build 0)  -->
<svg version="1.1" id="Layer_1" xmlns="http://www.w3.org/2000/svg" xmlns:xlink="http://www.w3.org/1999/xlink" x="0px" y="0px"
	 viewBox="0 0 500 500" style="enable-background:new 0 0 500 500;" xml:space="preserve">
<style type="text/css">
	.st0{fill:#9D2A27;}
</style>
<g>
	<path class="st0" d="M52.1,31.6c0-3.4-0.1-6.2,0-8.9c0.3-9,6.5-15.3,15.5-15.6C72.3,7,77,7,81.8,7.1c8.9,0.2,15.1,6.6,15.3,15.6
		c0.1,2.7,0,5.5,0,8.5c12.3,0,24.3,0,36.9,0c0-3.1-0.1-6.1,0-9.2c0.3-8.4,6.5-14.7,14.9-15c4.9-0.2,9.8-0.1,14.7,0
		c8.7,0.3,14.9,6.4,15.3,15.2c0.1,2.9,0,5.8,0,9c12.3,0,24.1,0,36.7,0c0-2.7-0.1-5.4,0-8.1c0.3-9.9,6.5-16,16.4-16.1
		c4.4-0.1,8.8-0.1,13.2,0c8.8,0.2,14.9,6.3,15.3,15.1c0.1,2.9,0,5.8,0,9c12.4,0,24.4,0,36.9,0c0-2.9-0.1-5.8,0-8.7
		c0.2-8.7,6.5-15.1,15.1-15.4c4.9-0.2,9.8-0.2,14.7,0c8.7,0.3,15,6.6,15.2,15.3c0.1,2.9,0,5.8,0,9.5c4.3,0,8.2-0.4,12,0.1
		c19.7,2.6,33,17.8,33,37.9c0.1,48.1,0,96.1,0,144.2c0,1.9,0,3.8,0,5.9c8.8,1.3,16.4,4.3,22.9,10c17.4,15.2,18.6,41.9,2.3,58.4
		c-3,3-2.8,4.9-0.9,8.2c9.2,15.5,18.1,31.3,27.2,46.9c5.3,9,6.4,18.1,0.9,27.2c-5.7,9.4-14.5,12.3-25.1,11.8
		c-33.7-1.5-67.4-2.1-100.8,4.2c-10.1,1.9-20.1,4.6-30.8,7.1c1.3,2.5,2.1,4,3,5.6c13.7,23.7,27.3,47.4,41,71.1
		c4.3,7.4,3.3,10.6-4.1,15.1c-7,4.2-14.1,8.2-22.6,8.6c-15.9,0.7-28.1-5.8-36.2-19.5c-9.5-16.1-18.8-32.4-28.1-48.6
		c-0.8-1.4-1.7-2.8-2.8-4.7c-24.2,15.7-49.3,18.4-73.8,2.3c-24.6-16.2-32.2-40.1-26.4-69.2c-1.9,0-3.6,0-5.4,0
		c-26.9,0-53.8,0-80.7,0c-24.4,0-40.1-15.7-40.1-40c0-80.3,0-160.7,0-241c0-26.3,14.8-41.2,41-41.5C49.2,31.6,50.3,31.6,52.1,31.6z
		 M22.9,111.9c-0.1,1.2-0.2,2-0.2,2.7c0,67.3-0.1,134.6,0,201.9c0,12.6,9.4,21.8,22.2,21.8c30.6,0.1,61.3,0.1,91.9-0.1
		c1.7,0,4.1-1.2,5.1-2.6c6-8.6,13.7-15.2,22.7-20.3c12.6-7.2,25-14.7,37.7-21.6c8-4.3,14.9-9.9,20.9-16.7
		c7.2-8.2,14.9-16.1,20.8-25.2c17.3-26.8,33.9-54,50.5-81.3c11.5-18.9,33.6-19.1,44.7,0c8.5,14.6,16.9,29.3,25.4,44
		c1.2,2.1,2.3,4.3,3.7,6.3c0.4,0.6,1.5,1,2.3,1c0.3,0,0.9-1.2,1-1.9c0.2-0.9,0.1-1.9,0.1-2.9c0-33.6,0-67.1,0-100.7
		c0-1.4,0-2.8,0-4.5C255.4,111.9,139.4,111.9,22.9,111.9z M291,208.2c-1.1,1.8-2,3.1-2.8,4.5c-17.2,29-35.3,57.4-59.5,81.3
		c-0.8,0.8-1,3.3-0.4,4.4c15,26.3,30.2,52.5,45.2,78.7c1.3,2.2,2.5,2.8,5,2c31.4-10.3,63.9-13.4,96.8-13.4c1.9,0,3.8,0,6.7,0
		C351.4,312.8,321.3,260.8,291,208.2z M22.8,95.6c116.6,0,232.7,0,349,0c0-8.7,0-17,0-25.3c-0.1-16.1-13.4-26.3-29.4-22.2
		c0,3.5,0,7.1,0,10.6c-0.1,9.6-6.3,15.8-15.9,16c-4.4,0.1-8.8,0.1-13.2,0c-9.6-0.2-15.7-6.5-15.8-16.1c-0.1-3.7,0-7.3,0-11.1
		c-12.6,0-24.4,0-36.9,0c0,4.6,0.2,9-0.1,13.3c-0.5,7.6-6.4,13.3-14,13.7c-4.7,0.2-9.4,0.2-14.2,0.1c-10.5-0.1-16.5-6.2-16.7-16.8
		c-0.1-3.4,0-6.7,0-10.4c-12.4,0-24.2,0-36.6,0c0,3.9,0.1,7.6,0,11.3c-0.3,9.4-6.4,15.6-15.7,15.8c-4.7,0.1-9.5,0.1-14.2,0
		c-8.8-0.3-14.9-6.4-15.1-15.2c-0.1-3.9,0-7.7,0-11.9c-12.5,0-24.5,0-36.9,0c0,4,0.1,7.7,0,11.4c-0.2,9.3-6.3,15.5-15.7,15.7
		c-4.6,0.1-9.1,0.1-13.7,0c-9.3-0.2-15.4-6.5-15.6-15.8c-0.1-3.7,0-7.4,0-11.4c-3.8,0-7.1-0.3-10.2,0.1c-10.5,1.3-18.5,9.5-19,19.8
		C22.5,76.6,22.8,85.9,22.8,95.6z M213.8,305.1c-15.3,8.9-30.5,17.2-45.3,26.4c-20.6,12.9-27.5,39.5-16.4,61
		c11,21.5,37.1,32,59.1,22.1c17.1-7.7,33.1-18,50-27.4C245.2,359.6,229.6,332.5,213.8,305.1z M409.5,366.1c2.5,0.2,3.8,0.2,5.1,0.3
		c4.5,0.4,8.9,0.5,11.8-3.9c3-4.6,0.7-8.6-1.6-12.7c-16.4-28.3-32.7-56.7-49.1-85c-16.7-28.9-33.3-57.8-50.1-86.7
		c-4.8-8.2-12.3-8.3-17.1-0.2c-2,3.3-3.7,6.9-6,10.1c-2.2,3.1-2,5.5-0.1,8.8c30.9,53.2,61.7,106.4,92.2,159.8
		C398.5,363.3,402,368.5,409.5,366.1z M247.1,413.1c10.9,18.8,21.1,37.1,32,55c6.8,11.3,21.9,13.5,31.9,5.3
		c-13.9-24.1-27.9-48.3-42.1-72.9C261.5,404.8,254.5,408.8,247.1,413.1z M401.1,277.5c8.5-8.6,9.7-21,3.5-30.5
		c-6-9.2-17.1-13.5-26.9-10C385.4,250.4,393.1,263.7,401.1,277.5z M68,58.7c4.7,0,8.8,0,13.2,0c0-12,0-23.8,0-35.6
		c-4.5,0-8.8,0-13.2,0C68,35.1,68,46.7,68,58.7z M163,23c-4.5,0-8.7,0-13,0c0,12,0,23.8,0,35.8c4.4,0,8.6,0,13,0
		C163,46.8,163,35.2,163,23z M231.7,22.9c0,12.2,0,24,0,35.8c4.5,0,8.6,0,12.9,0c0-12.1,0-23.8,0-35.8
		C240.2,22.9,236.2,22.9,231.7,22.9z M313.6,22.9c0,11.9,0,23.8,0,35.8c4.4,0,8.7,0,13.2,0c0-6.2,0-12,0-17.8c0-5.9,0-11.9,0-17.9
		C322.1,22.9,318,22.9,313.6,22.9z"/>
	<path class="st0" d="M447.2,232.1c-2.1-2.1-4.8-3.9-6.3-6.4c-1.8-3.2-0.4-6.7,2.6-8.5c9.6-5.8,19.3-11.5,29.1-16.8
		c3.6-1.9,7.1-0.5,9.3,2.9c2.2,3.4,2.2,7.6-1.1,9.7c-10,6.3-20.4,12-30.7,17.9c-0.5,0.3-1.3,0.2-1.9,0.3
		C447.9,231.4,447.6,231.7,447.2,232.1z"/>
	<path class="st0" d="M408.4,149.6c6.8,0,10.7,3.9,9.6,8.7c-2.5,10.9-5.4,21.7-8.6,32.4c-1.2,4-4.8,5.6-9.1,4.6c-4-1-6.7-4.9-5.7-9
		c2.6-10.5,5.3-21.1,8.6-31.4C404,152.4,407.3,150.7,408.4,149.6z"/>
	<path class="st0" d="M483.8,296.6c-9.5-2.7-20.5-5.5-31.4-8.9c-4.2-1.3-5.3-5.2-4.1-9.2c1.1-3.9,4.3-6.2,8.2-5.3
		c11,2.6,22,5.6,32.9,8.9c3.8,1.2,5.4,4.8,4.3,8.8C492.6,294.9,489.6,296.9,483.8,296.6z"/>
	<path class="st0" d="M105.5,232.9c-6.2,4.5-12.1,8.9-18.1,13.1c-5.9,4.1-11.7,4.3-16.7,0.6c-5-3.6-6.5-9.3-4.4-16.2
		c1.8-5.9,3.6-11.8,5.7-17.6c1-2.7,0.4-4.1-1.9-5.6c-5.1-3.5-10.1-7.2-15-10.9c-5.7-4.3-7.7-9.8-5.9-15.7c1.8-5.8,6.9-9.2,14-9.2
		c6.2-0.1,12.4-0.1,18.6,0c2.7,0.1,4.1-0.7,4.8-3.5c1.7-5.9,3.7-11.8,5.7-17.6c2.3-6.9,6.8-10.4,13-10.5c6.5-0.1,11,3.4,13.4,10.7
		c2.3,6.9,4.6,13.8,6.9,20.9c7.6,0,14.9,0,22.2,0c7.2,0.1,11.9,3.3,13.9,9.4c1.9,5.8,0,11.1-5.5,15.3c-5.2,3.9-10.6,7.6-15.7,11.6
		c-1.1,0.9-1.8,3.3-1.5,4.6c1.7,6.3,3.9,12.4,5.8,18.6c2,6.5,0.2,12.2-4.5,15.7c-5,3.7-10.9,3.6-16.8-0.6
		C117.6,241.8,111.7,237.4,105.5,232.9z M83,229.8c5.1-3.7,8.8-6.5,12.7-9.2c7.4-5.3,12.2-5.3,19.5-0.1c3.9,2.8,7.7,5.5,12.7,9.1
		c-1.8-5.7-3.2-10-4.5-14.3c-3-9.4-1.6-13.6,6.1-19.4c3.7-2.7,7.4-5.5,12.2-9c-6.6,0-11.6,0-16.6,0c-7.7-0.1-12-3.2-14.5-10.6
		c-1.7-4.9-3.3-9.7-5.2-15.7c-1.9,5.8-3.4,10.4-4.9,15C97.7,184,93.7,186.9,85,187c-4.8,0-9.6,0-14.4,0c3.6,3.8,7.5,6.6,11.4,9.5
		c7,5.2,8.5,9.9,5.9,18.2C86.4,219.3,84.9,223.9,83,229.8z"/>
	<path class="st0" d="M282.8,163.9c0,5,0.1,10.1,0,15.1c-0.1,5.8-3,8.8-8.7,8.9c-10.4,0.1-20.8,0.1-31.2,0c-5.2-0.1-8.3-2.9-8.4-8.1
		c-0.2-10.6-0.2-21.1,0-31.7c0.1-5.4,2.8-8.2,8.2-8.3c10.6-0.2,21.1-0.2,31.7,0c5.6,0.1,8.3,3.1,8.4,8.6
		C282.9,153.5,282.8,158.7,282.8,163.9z M266.7,172c0-5.6,0-11,0-16.3c-5.7,0-10.9,0-16.2,0c0,5.6,0,10.9,0,16.3
		C256.1,172,261.3,172,266.7,172z"/>
	<path class="st0" d="M136,310.4c-5.2,0-10.4,0.1-15.6,0c-5.5-0.1-8.5-2.9-8.5-8.5c-0.2-10.4-0.2-20.8,0-31.2
		c0.1-5.5,3.1-8.4,8.6-8.4c10.4-0.1,20.8-0.1,31.2,0c5.5,0.1,8.5,2.9,8.5,8.5c0.2,10.4,0.2,20.8,0,31.2c-0.1,5.5-3.1,8.2-8.6,8.4
		c-0.3,0-0.7,0-1,0C145.8,310.4,140.9,310.4,136,310.4z M144.4,278.1c-5.8,0-11.1,0-16.6,0c0,5.5,0,10.8,0,16.1c5.7,0,11.1,0,16.6,0
		C144.4,288.8,144.4,283.6,144.4,278.1z"/>
	<path class="st0" d="M221.4,225.3c0,5.2,0.1,10.4,0,15.6c-0.1,5-2.8,8.1-7.8,8.2c-10.9,0.3-21.8,0.3-32.7,0
		c-4.9-0.1-7.6-3.3-7.7-8.3c-0.1-10.6-0.1-21.2,0-31.7c0.1-5.2,3-8.2,8.3-8.2c10.6-0.2,21.2-0.2,31.7,0c5.2,0.1,8,3.1,8.1,8.4
		C221.5,214.6,221.4,220,221.4,225.3z M205.5,216.9c-5.9,0-11.1,0-16.3,0c0,5.7,0,11,0,16.4c5.6,0,10.8,0,16.3,0
		C205.5,227.7,205.5,222.4,205.5,216.9z"/>
	<path class="st0" d="M197.1,188c-5.2,0-10.4,0.1-15.6,0c-5.3-0.1-8.2-3-8.3-8.2c-0.1-10.6-0.1-21.1,0-31.7c0.1-5.3,2.8-8.2,8.1-8.3
		c10.6-0.2,21.1-0.2,31.7,0c5.6,0.1,8.2,3,8.3,8.7c0.1,10.2,0.1,20.5,0,30.7c-0.1,6.1-2.9,8.8-9.1,8.8
		C207.2,188,202.2,188,197.1,188z M205.4,172.1c0-5.6,0-10.9,0-16.4c-5.6,0-10.8,0-16.3,0c0,5.6,0,10.9,0,16.4
		C194.6,172.1,199.7,172.1,205.4,172.1z"/>
	<path class="st0" d="M74.9,262.2c5.2,0,10.4-0.1,15.6,0c5.5,0.1,8.4,2.9,8.5,8.5c0.1,10.4,0.1,20.8,0,31.2
		c-0.1,5.5-2.9,8.4-8.5,8.4c-10.4,0.1-20.8,0.1-31.2,0c-5.6-0.1-8.4-2.8-8.4-8.5c-0.1-10.4-0.1-20.8,0-31.2c0.1-5.6,2.9-8.2,8.5-8.5
		c0.3,0,0.7,0,1,0C65.1,262.2,70,262.2,74.9,262.2z M83.1,278.2c-5.8,0-11.1,0-16.3,0c0,5.6,0,10.9,0,16.1c5.7,0,10.9,0,16.3,0
		C83.1,288.8,83.1,283.7,83.1,278.2z"/>
</g>
</svg>
