<?xml version="1.0" encoding="utf-8"?>
<!-- Generator: Adobe Illustrator 25.0.1, SVG Export Plug-In . SVG Version: 6.00 Build 0)  -->
<svg version="1.1" id="Layer_1" xmlns="http://www.w3.org/2000/svg" xmlns:xlink="http://www.w3.org/1999/xlink" x="0px" y="0px"
	 viewBox="0 0 500 500" style="enable-background:new 0 0 500 500;" xml:space="preserve">
<style type="text/css">
	.st0{fill:#9D2A27;}
</style>
<g>
	<path class="st0" d="M51,231.2c35.8,0,71.5,0,107.4,0c0.2-1.1,0.4-2.1,0.4-3.2c0.3-5.1,2.7-8.1,7.9-8.2c9.1-0.3,18.2-0.3,27.2,0
		c5,0.1,7.3,3.3,7.3,9.2c0,24.9,0,49.7,0,74.6c0,0.8,0,1.6,0,2.4c11.4-17.1,26-29.9,46.2-35.9c0-11.8,0-23.5,0-35.7
		c-1.6-0.1-3.1-0.2-4.6-0.3c-4.1-0.4-6.5-2.7-6.7-6.7c-0.3-4,1.8-6.7,5.9-7.4c1.5-0.3,3.2-0.3,4.7-0.3c16.2,0,32.5,0,48.7,0
		c1.7,0,3.4,0,5.4,0c0-22.1,0-43.9,0-66.2c-3,0-5.8,0-8.6,0c-3.7,0-7.1-0.7-8.6-4.6c-1.6-3.9,0.4-6.6,3.1-9.3
		c26.7-26.5,53.3-53,79.9-79.5c2.1-2.1,4-4.6,6.4-6.4c7-5.5,9.3-12.4,8.5-21.2c-0.6-5.8,2.8-7.9,8.5-6.9c3.1,0.5,4.8,2.3,5.1,5.4
		c0,0.5,0.2,1,0.1,1.4c-2.1,10.1,2.8,16.9,10,23.3c10.8,9.6,20.9,20,31.1,30.3c15.8,15.9,31.5,32,47.3,47.9c2.2,2.2,5.2,3.9,6.9,6.5
		c1.5,2.3,3.1,5.9,2.2,8c-1,2.3-4.5,4.1-7.2,4.9c-2.9,0.8-6.3,0.2-10.2,0.2c0,2.3,0,4.3,0,6.3c0,102.6,0,205.2,0,307.8
		c0,8.2-1.4,9.6-9.8,9.6c-5.6,0-11.1,0-16.7,0c-8.7,0-10-1.3-10-9.9c0-48.6,0-97.2,0-145.8c0-1.9,0-3.8,0-6c-6.7,0-12.9,0-19.9,0
		c0,1.8,0,3.7,0,5.5c0,49.1,0,98.1,0,147.2c0,5.8-2,8.5-6.4,8.8c-5,0.4-7.8-2-8-7.1c-0.1-2.2,0-4.4,0-6.9c-11,0-21.5,0-32.4,0
		c-0.1,2.8-0.2,5.5-0.5,8.1c-0.5,4.1-2.8,6.1-7.1,6c-4.2-0.1-6-2.4-6.6-6.1c-0.3-1.6-0.1-3.2-0.1-4.8c0-48.3,0-96.5,0-144.8
		c0-1.9,0-3.8,0-6c-6.8,0-13.2,0-19.9,0c0,27.2,0,54.3,0,82c2.9,0,5.9-0.1,8.8,0c6.2,0.2,9,3,9,9.1c0,20.4,0,40.8,0,61.2
		c0,7.2-2.1,9.3-9.4,9.3c-44.9,0-89.8,0.4-134.7-0.2c-14-0.2-28.1,0.7-42.1,0.4c-8-0.2-11.9-2.1-10.8-10.8c0.1-0.4-0.2-0.9-0.2-0.9
		c-6.6,2.8-13,6.4-19.9,8.2c-7.4,2-15.2,3.1-22.8,3.1c-32.8,0.3-65.6,0.2-98.4,0.1c-7.7,0-9.5-1.8-9.5-9.6c0-79.3,0-158.7,0-238
		c0-7.2,2.6-9.7,9.8-9.8c7-0.1,14,0,21,0C48.6,219.8,50,220.9,51,231.2z M461,272.9c0-39.8,0-79.4,0-119.1c-48.8,0-97.2,0-145.8,0
		c0,39.8,0,79.4,0,119.1C363.9,272.9,412.3,272.9,461,272.9z M323.6,364.1c-1.8,0-3.3,0-4.9,0c-35.4,0-70.7,0-106.1,0
		c-8.5,0-11,2.5-11,11.1c0,25.5,0,51,0,76.5c0,8.7,3.1,11.7,11.9,11.7c35,0,70.1,0,105.1,0c1.5,0,3,0,5,0
		C323.6,430,323.6,397.4,323.6,364.1z M307.4,139.1c54.5,0,107.6,0,160.1,0c-26.3-26.5-52.8-53.3-79.5-80.2
		C361.5,85.4,334.8,111.9,307.4,139.1z M300.9,281.2c-10.7,0-20.8,0-31,0c-24.3,0-42.7,10.7-54.9,31.5
		c-20.4,34.9-40.7,69.9-60.6,105.2c-9.8,17.3-23.4,26.9-43.7,25.5c-3.7-0.2-6.4,0.8-8.4,4c-6.1,9.5-14.6,13.6-26.2,12.7
		c-10.9-0.8-22-0.2-32.9-0.1c-1.9,0-3.7,0.6-5.5,0.9c0,0.6,0,1.1,0,1.7c1.4,0.3,2.8,0.8,4.1,0.8c25.5,0,51,0.4,76.4-0.1
		c20.6-0.4,37-9.7,48.3-27.1c6.5-10,12.4-20.4,18.1-30.8c1.7-3.2,2.7-7.1,2.9-10.7c0.4-7,0.1-14,0.1-21c0.1-14.4,9.7-24,24-23.9
		c3.7,0,5.9-0.9,7.7-4.4c4.5-8.4,9.4-16.6,14.2-24.8c6.2-10.4,15.4-17.3,27.4-18.5c11.4-1.2,22.9-0.7,34.3-0.9c1.8,0,3.6,0,5.6,0
		C300.9,294.2,300.9,288.1,300.9,281.2z M124.8,385c0-39,0-77.6,0-116.2c-13.6,0-26.9,0-40,0c0,39,0,77.6,0,116.2
		C98.3,385,111.3,385,124.8,385z M51,268.6c0,59.4,0,118.2,0,177.5c8.7,0,17.2-0.5,25.5,0.2c6.8,0.5,11.1-2.2,14.7-7.4
		c4.8-6.8,11.4-10.4,19.9-9.8c2.7,0.2,5.4,0.2,8.1,0c6.2-0.6,11.6-2.8,16.1-8.5c-22.5,0-44,0-65.5,0c-6.4,0-8.4-2.1-8.4-8.6
		c0-5.3,0-10.5,0-15.8c0-8.1,1.1-9.5,8.7-11.7c0-38.6,0-77.1,0-115.9C63.6,268.6,57.5,268.6,51,268.6z M22.8,234.3
		c0,76.4,0,152.5,0,228.5c1.1-8.5,5.3-14.3,13.4-16.7c0-70.7,0-141.2,0-211.8C31.6,234.3,27.4,234.3,22.8,234.3z M149.4,398.5
		c2.1-3.6,3.8-7.5,6.3-10.8c3.1-4.2,3.3-8.7,3.3-13.5c-0.1-33.3,0-66.5,0-99.8c0-1.9,0-3.7,0-5.7c-6.9,0-13.2,0-19.7,0
		c0,38.9,0,77.5,0,116.3C148.6,384.9,148.2,391.9,149.4,398.5z M461.1,287.5c-49,0-97.5,0-145.9,0c0,4.7,0,9.1,0,13.4
		c48.8,0,97.2,0,145.9,0C461.1,296.3,461.1,292,461.1,287.5z M300.9,349.5c0-11.5,0-22.7,0-34.3c-9.4,0-18.4,0.4-27.4-0.1
		c-13.3-0.8-23.6,3.3-29.7,15.9c-3,6.2-6.7,12-10.4,18.5C256.3,349.5,278.4,349.5,300.9,349.5z M173,357.7
		c4.7-8.2,8.8-14.9,12.6-21.9c1.1-2.1,1.9-4.7,1.9-7.1c0.1-29.9,0.1-59.8,0.1-89.7c0-1.5,0-3,0-4.5c-5.3,0-9.8,0-14.5,0
		C173,275.3,173,315.8,173,357.7z M461.1,315.5c-3,0-5.5,0-8,0c0,49.4,0,98.5,0,147.6c2.9,0,5.4,0,8,0
		C461.1,413.8,461.1,364.8,461.1,315.5z M158.6,254c0-3,0-5.5,0-8.1c-36,0-71.7,0-107.6,0c0,2.8,0,5.4,0,8.1
		C87,254,122.7,254,158.6,254z M275.3,267.2c0-11.1,0-21.9,0-32.7c-4.6,0-9,0-13.5,0c0,11,0,21.8,0,32.7
		C266.3,267.2,270.5,267.2,275.3,267.2z M76.1,406.5c19.4,0,38.6,0,57.8,0c0-2.4,0-4.5,0-6.6c-19.5,0-38.6,0-57.8,0
		C76.1,402.2,76.1,404.2,76.1,406.5z M372.1,448.5c10.9,0,21.5,0,32.2,0c0-3.8,0-7.3,0-10.9c-10.8,0-21.5,0-32.2,0
		C372.1,441.4,372.1,444.9,372.1,448.5z M404.3,346.1c0-3.8,0-7.4,0-11c-10.9,0-21.4,0-32,0c0,3.9,0,7.4,0,11
		C383.1,346.1,393.6,346.1,404.3,346.1z M372.1,371.4c11.1,0,21.6,0,32.2,0c0-3.8,0-7.2,0-10.8c-10.8,0-21.4,0-32.2,0
		C372.1,364.3,372.1,367.7,372.1,371.4z M404.4,386.2c-10.9,0-21.5,0-32.1,0c0,3.8,0,7.4,0,11c10.9,0,21.4,0,32.1,0
		C404.4,393.6,404.4,390.1,404.4,386.2z M372.3,412.2c0,3.8,0,7.3,0,10.8c10.9,0,21.5,0,32,0c0-3.8,0-7.2,0-10.8
		C393.5,412.2,382.9,412.2,372.3,412.2z M290.2,267.1c3.8,0,7,0,10.4,0c0-11,0-21.7,0-32.5c-3.7,0-7,0-10.4,0
		C290.2,245.6,290.2,256.2,290.2,267.1z M187.3,429.6c-3.9,6.1-7,12-11.1,17c-4.4,5.2-3.4,10.7-3,16.5c4.9,0,9.4,0,14.2,0
		C187.3,452.1,187.3,441.2,187.3,429.6z M323.1,349.5c0-11.6,0-22.8,0-34c-2.7,0-5.2,0-7.8,0c0,11.5,0,22.7,0,34
		C317.9,349.5,320.3,349.5,323.1,349.5z M339.5,411.5c-0.5,0.3-1,0.7-1.5,1c0,16.8,0,33.6,0,50.4c0.4,0.3,0.8,0.5,1.2,0.8
		c0.7-1.1,2.1-2.1,2.1-3.2c0.1-15.2,0.1-30.5,0-45.8C341.4,413.7,340.1,412.6,339.5,411.5z M404.4,315.5c-11,0-21.5,0-32.5,0
		c0.1,1.9,0.2,3.5,0.2,5.1c11.1,0,21.6,0,32.2,0C404.4,318.8,404.4,317.4,404.4,315.5z"/>
	<path class="st0" d="M388.3,165c26.7,0.1,48.6,21.7,48.4,48.3c-0.3,27.5-20.7,48.3-48.5,48.5c-26.7,0.2-48.5-21.9-48.5-48.6
		C339.6,186.8,361.8,164.9,388.3,165z M387.6,247.9c19.1,0.1,35.2-13.2,34.8-34.7c-0.3-19.7-13-33-33.5-34.2
		c-18-1-34.6,14.9-35,32.3C353.5,232.8,369,247.7,387.6,247.9z"/>
	<path class="st0" d="M262.5,450.3c-19.9,0-36.8-16.6-36.6-36.4c0.2-21,15.9-37,36.3-37.1c21.2-0.1,36.9,16,37.3,36.5
		C299.8,433.3,282.6,450.3,262.5,450.3z M262.6,435.8c12.5,0,22.4-9.8,22.5-22.2c0-12.5-10.1-22.7-22.7-22.6
		c-12.8,0-22.2,9.7-22.2,22.8C240.3,426.4,249.8,435.8,262.6,435.8z"/>
	<path class="st0" d="M214,445.3c3.7,0.1,6.8,3.5,6.6,7.3c-0.1,3.8-3.4,7.1-6.9,7c-3.6-0.2-7-3.6-7-7.1
		C206.7,448.6,210.1,445.3,214,445.3z"/>
	<path class="st0" d="M213.7,369.8c4,0.1,6.8,2.9,6.8,6.8c0,3.9-3.1,7-6.9,6.9c-4,0-7-3.2-6.9-7.3
		C206.8,372.1,209.4,369.7,213.7,369.8z"/>
	<path class="st0" d="M318.7,452.5c-0.1,3.6-3.7,7.3-7,7.2c-3.4-0.1-6.7-3.8-6.7-7.4c0.1-3.9,3.1-7,6.9-7
		C315.6,445.4,318.8,448.9,318.7,452.5z"/>
	<path class="st0" d="M312,369.8c3.9,0,6.8,2.9,6.8,6.8c0,3.9-3.1,6.9-6.9,6.9c-3.8,0-6.7-3-6.7-7.1
		C305.1,372.4,307.7,369.8,312,369.8z"/>
</g>
</svg>
