<?xml version="1.0" encoding="UTF-8"?>
<svg id="Layer_1" data-name="Layer 1" xmlns="http://www.w3.org/2000/svg" viewBox="0 0 300 300">
  <defs>
    <style>
      .cls-1 {
        fill: #ab141b;
      }
    </style>
  </defs>
  <path class="cls-1" d="M282.73,174.55l-35.83-39.82,34.28-39.96c.63-.73.88-1.71.69-2.65-.19-.94-.8-1.75-1.66-2.18l-68.8-34.79c-.53-.27-1.1-.35-1.67-.3C207.12,24.14,181.4,0,149.99,0s-56.65,23.7-59.65,54.05c-.58-.06-1.17.02-1.71.29L18.2,89.94c-.86.43-1.47,1.24-1.66,2.18-.19.94.07,1.92.69,2.65l35.04,40.87-35.01,38.9c-.63.7-.91,1.65-.76,2.59.15.93.71,1.75,1.53,2.22l34.5,19.85v43.85c0,1.12.6,2.15,1.57,2.71l93.53,53.81c.48.28,1.02.42,1.56.42s1.08-.14,1.56-.42l93.53-53.81c.97-.56,1.57-1.59,1.57-2.71v-42.94l36.09-20.76c.82-.47,1.38-1.29,1.53-2.22.15-.93-.13-1.88-.76-2.59ZM235.96,134.79l-85.96,44.79-86.76-45.21,39.61-20.64c4.51,6.9,10,13.46,16.36,19.55,7.6,7.25,14.92,12.39,19.71,15.42,5.77,3.69,9.62,5.46,9.78,5.53.82.38,1.77.38,2.6,0,.85-.39,21.15-9.81,38.4-30.47,2.47-2.93,4.84-6.08,7.05-9.4l16.15,8.41,23.06,12.02ZM213.12,63.04l60.7,30.69-31.85,37.13-39.47-20.57-2.45-1.28c.24-.41.48-.83.72-1.25.05-.1.1-.2.15-.3,7.65-13.65,11.75-28.58,12.21-44.43ZM106.45,48.82c5.16-19.22,22.7-33.35,43.54-33.35s38.94,14.6,43.78,34.28c.87,3.46,1.32,7.09,1.32,10.81,0,14.29-6.62,27-16.99,35.27-1.38,1.09-2.81,2.12-4.31,3.03-6.89,4.31-15.03,6.79-23.8,6.79s-17.45-2.66-24.5-7.26c-1.18-.76-2.31-1.57-3.42-2.45-10.48-8.23-17.18-21.01-17.18-35.39,0-4.06.54-8,1.55-11.75ZM86.86,62.25c.35,16.29,4.53,31.65,12.46,45.71.08.14.16.28.24.42l-23.19,12.08-19.96,10.4-31.84-37.13,62.27-31.48ZM57.46,139.25l88.04,45.87-33.13,41.29-55.14-31.72h0l-32.72-18.82,32.94-36.61ZM58.8,202.81l52.77,30.36c.44.25.91.35,1.39.37.06,0,.11.04.17.04.08,0,.15-.04.22-.05.3-.02.58-.09.85-.19.12-.04.24-.07.36-.13.38-.2.73-.45,1.01-.8l30.5-38.02v97.06l-87.27-50.21v-38.44ZM239.61,241.25l-87.27,50.21v-99.04l32.09,40c.28.35.63.6,1.01.8.12.06.24.09.36.14.28.1.56.17.85.19.08,0,.15.05.22.05.06,0,.11-.04.17-.04.48-.03.95-.12,1.39-.37l51.18-29.45v37.53ZM241.18,195.6l-53.55,30.81-33.59-41.87,88-45.85,33.45,37.18-34.31,19.74Z"/>
  <path class="cls-1" d="M141.43,81.61l.05.06c.05.05.09.11.14.16l2.23,2.27c.59.6,1.39.94,2.23.94,0,0,.02,0,.03,0,.85,0,1.66-.36,2.24-.98l31.2-32.94c1.19-1.26,1.14-3.24-.12-4.42l-10.29-9.75c-.6-.57-1.42-.88-2.24-.86-.83.02-1.62.38-2.19.98l-18.85,19.94-10.81-11.03c-1.21-1.23-3.19-1.26-4.42-.05l-10.12,9.88c-.59.58-.93,1.37-.94,2.2,0,.83.31,1.63.89,2.22l20.95,21.38ZM132.78,52.59l10.9,11.12c.6.61,1.42.97,2.26.94.85,0,1.66-.36,2.25-.98l18.93-20.03,5.74,5.44-26.81,28.31s-.05-.06-.08-.08l-18.83-19.21,5.64-5.51Z"/>
</svg>