<?xml version="1.0" encoding="UTF-8"?>
<svg id="Layer_1" data-name="Layer 1" xmlns="http://www.w3.org/2000/svg" viewBox="0 0 300 300">
  <defs>
    <style>
      .cls-1 {
        fill: #ab141b;
      }
    </style>
  </defs>
  <path class="cls-1" d="M244.47,176.02h-53.41c-4.1,0-7.54-3.08-7.98-7.16-.9-8.23.17-16.67,3.08-24.41,3.75-9.65,4.9-20.04,4.59-30.35,0-15.6-12.7-28.3-28.3-28.3-1.67,0-3.09,1.22-3.34,2.87l-2.8,18.3c-2.9,18.92-10.34,37.13-21.52,52.66-6.24,8.59-16.3,13.72-26.91,13.72h-9.86v-16.02c0-1.87-1.51-3.38-3.38-3.38h-52.91c-1.87,0-3.38,1.51-3.38,3.38v135.4c0,1.87,1.51,3.38,3.38,3.38h52.91c1.87,0,3.38-1.51,3.38-3.38v-13.79h8.83c14.73,0,29.13,4.1,41.65,11.87,13.71,8.5,29.21,9.21,45.21,9.21h43.07c9.98,0,18.1-8.12,18.1-18.1,0-4.84-1.91-9.23-5.01-12.48,6.9-2.58,11.82-9.24,11.82-17.02,0-6.16-3.08-11.61-7.78-14.9,4.71-3.38,7.78-8.9,7.78-15.13s-2.95-11.53-7.51-14.93c4.53-3.1,7.51-8.31,7.51-14.21,0-9.49-7.72-17.21-17.21-17.21ZM91.24,289.33h-46.15v-128.63h46.15v128.63ZM244.46,203.68h0s-21.77.07-21.77.07c-1.87,0-3.38,1.51-3.38,3.38s1.51,3.38,3.38,3.38h20.36c6.54,0,11.86,5.32,11.86,11.86s-5.32,11.86-11.86,11.86h-20.36c-1.87,0-3.38,1.51-3.38,3.38s1.51,3.38,3.38,3.38h20.82c6.28,0,11.4,5.11,11.4,11.4s-5.11,11.4-11.4,11.4h-30.02c-1.87,0-3.38,1.51-3.38,3.38s1.51,3.38,3.38,3.38h23.27c6.25,0,11.33,5.09,11.33,11.34s-5.08,11.33-11.33,11.33h-43.07c-14.99,0-29.45-.63-41.65-8.19-13.59-8.43-29.22-12.89-45.22-12.89h-8.83v-92.05h9.86c12.77,0,24.88-6.17,32.4-16.52,11.81-16.4,19.67-35.63,22.73-55.6l2.33-15.23c10.52,1.41,18.65,10.44,18.65,21.34.29,9.48-.69,19.08-4.16,27.97-3.28,8.74-4.48,18.26-3.47,27.53.82,7.52,7.14,13.19,14.71,13.19h53.41c5.76,0,10.44,4.69,10.44,10.45s-4.69,10.45-10.44,10.45Z"/>
  <path class="cls-1" d="M111.06,46.42c.4,1.23,1.46,2.12,2.73,2.3l22.92,3.33,10.25,20.77c.57,1.16,1.75,1.89,3.04,1.89s2.46-.73,3.03-1.89l10.25-20.77,22.92-3.33c1.28-.18,2.33-1.08,2.73-2.3.4-1.23.07-2.57-.86-3.47l-16.59-16.17,3.92-22.83c.22-1.27-.3-2.55-1.35-3.31-1.04-.76-2.42-.86-3.56-.26l-20.5,10.78L129.5.39c-1.14-.6-2.52-.5-3.56.26-1.04.76-1.56,2.04-1.35,3.31l3.91,22.83-16.58,16.17c-.92.9-1.26,2.24-.86,3.47h0ZM134.5,30.39h0c.8-.78,1.16-1.9.97-3l-3.06-17.82,16,8.42c.99.52,2.16.52,3.15,0l16-8.42-3.06,17.82c-.19,1.1.18,2.22.97,3l12.95,12.62-17.9,2.6c-1.1.16-2.05.85-2.55,1.85l-8,16.22-8-16.22c-.49-1-1.45-1.69-2.55-1.85l-17.9-2.6,12.95-12.62Z"/>
  <path class="cls-1" d="M52.91,108.96c.57,1.16,1.75,1.89,3.04,1.89s2.46-.73,3.03-1.89l10.25-20.77,22.92-3.33c1.27-.18,2.33-1.08,2.73-2.3.4-1.23.07-2.57-.86-3.47l-16.59-16.17,3.92-22.83c.22-1.27-.3-2.55-1.35-3.31-1.04-.76-2.42-.86-3.56-.26l-20.5,10.78-20.5-10.78c-1.14-.6-2.52-.5-3.56.26-1.04.76-1.56,2.04-1.34,3.31l3.92,22.83-16.59,16.17c-.92.9-1.26,2.24-.86,3.47h0c.4,1.23,1.46,2.12,2.73,2.3l22.92,3.33,10.25,20.77ZM40.45,66.53c.8-.78,1.16-1.9.97-3l-3.06-17.82,16.01,8.42c.99.52,2.16.52,3.15,0l16-8.42-3.06,17.82c-.19,1.1.18,2.22.97,2.99l12.95,12.62-17.89,2.6c-1.1.16-2.06.85-2.55,1.85l-8,16.22-8-16.22c-.49-1-1.45-1.69-2.55-1.85l-17.89-2.6,12.95-12.62Z"/>
  <path class="cls-1" d="M282.13,79.09l-16.59-16.17,3.92-22.83c.22-1.27-.3-2.55-1.34-3.31-1.04-.76-2.42-.86-3.56-.26l-20.5,10.78-20.5-10.78c-1.14-.6-2.52-.5-3.56.26-1.04.76-1.57,2.04-1.35,3.31l3.91,22.83-16.58,16.17c-.92.9-1.26,2.24-.86,3.47.4,1.23,1.46,2.12,2.73,2.3l22.92,3.33,10.25,20.77c.57,1.16,1.75,1.89,3.04,1.89s2.46-.73,3.03-1.89l10.25-20.77,22.92-3.33c1.28-.18,2.33-1.08,2.73-2.3h0c.4-1.23.07-2.57-.86-3.47ZM254.6,81.75c-1.1.16-2.06.85-2.55,1.85l-8,16.22-8-16.22c-.49-1-1.44-1.69-2.55-1.85l-17.89-2.6,12.95-12.62c.8-.78,1.16-1.9.97-3l-3.06-17.82,16.01,8.42c.99.52,2.16.52,3.15,0l16.01-8.42-3.06,17.82c-.19,1.1.18,2.22.97,3l12.95,12.62-17.89,2.6Z"/>
</svg>