<?xml version="1.0" encoding="UTF-8"?>
<svg id="Layer_1" data-name="Layer 1" xmlns="http://www.w3.org/2000/svg" viewBox="0 0 34 34">
  <defs>
    <style>
      .cls-1 {
        fill: #aa161b;
      }

      .cls-2 {
        fill: #ff6a37;
      }
    </style>
  </defs>
  <path class="cls-2" d="M28.87,17c5.57,9.63-2.24,17.43-11.87,11.87C7.37,34.43-.43,26.63,5.13,17-.43,7.37,7.37-.43,17,5.13c9.63-5.57,17.43,2.24,11.87,11.87Z"/>
  <path class="cls-1" d="M14.92,24.28c-.25-.04-.51-.07-.75-.12-1.73-.36-3.16-1.81-3.48-3.53-.45-2.42,1.05-4.7,3.45-5.26.52-.12,1.05-.14,1.58-.08.02,0,.05,0,.07.01.02,0,.03.01.06.02v2.39c-.14-.02-.27-.05-.4-.07-1.14-.16-2.22.64-2.4,1.77-.18,1.14.56,2.23,1.69,2.46,1.32.27,2.56-.71,2.58-2.05.02-1.24,0-2.49,0-3.73,0-2.06,0-4.12,0-6.17v-.19h2.35c.26,2.22,1.48,3.44,3.72,3.67v2.34c-1.36,0-2.57-.42-3.68-1.25,0,.08,0,.13,0,.18,0,1.67.01,3.34.02,5.01,0,2.17-1.4,3.96-3.51,4.47-.22.05-.45.07-.67.1-.05,0-.09.02-.14.03h-.48Z"/>
</svg>