<?xml version="1.0" encoding="UTF-8"?>
<svg id="Layer_1" data-name="Layer 1" xmlns="http://www.w3.org/2000/svg" viewBox="0 0 20 20">
  <defs>
    <style>
      .cls-1 {
        fill: #ab141b;
      }
    </style>
  </defs>
  <path class="cls-1" d="M.6,2.9h1.74c.1,0,.2.07.23.17l.76,2.56s0,0,0,0l2.23,7.5s0,0,0,0l.55,1.86c.17.58.71,1,1.31,1.03-.28.24-.45.59-.45.98,0,.71.58,1.29,1.29,1.29s1.29-.58,1.29-1.29c0-.39-.17-.74-.45-.98h4.61c-.28.24-.45.59-.45.98,0,.71.58,1.29,1.29,1.29s1.29-.58,1.29-1.29c0-.39-.17-.74-.45-.98h1.53c.33,0,.6-.27.6-.6s-.27-.6-.6-.6H7.49c-.1,0-.2-.07-.23-.17l-.33-1.1h9c.76,0,1.43-.45,1.71-1.16l2.25-5.63c.17-.43.12-.92-.14-1.3s-.69-.61-1.15-.61H4.35l-.63-2.13c-.18-.6-.75-1.03-1.38-1.03H.6C.27,1.7,0,1.97,0,2.3s.27.6.6.6ZM18.61,6.05c.09,0,.14.05.16.09.02.03.05.1.02.18l-2.25,5.63c-.1.25-.33.41-.6.41H6.58l-1.88-6.31h13.9Z"/>
  <path class="cls-1" d="M9.43,11.29c.33,0,.6-.27.6-.6v-2.83c0-.33-.27-.6-.6-.6s-.6.27-.6.6v2.83c0,.33.27.6.6.6Z"/>
  <path class="cls-1" d="M13.44,11.29c.33,0,.6-.27.6-.6v-2.83c0-.33-.27-.6-.6-.6s-.6.27-.6.6v2.83c0,.33.27.6.6.6Z"/>
</svg>