<?xml version="1.0" encoding="UTF-8"?>
<svg id="Layer_1" data-name="Layer 1" xmlns="http://www.w3.org/2000/svg" viewBox="0 0 20 20">
  <defs>
    <style>
      .cls-1 {
        fill: #ab141b;
      }
    </style>
  </defs>
  <path class="cls-1" d="M14.76,8.78s.05-.09.04-.14c-.02-.05-.06-.09-.11-.09l-2.83-.41-.32-.05-.14-.29-1.27-2.57c-.03-.05-.07-.08-.12-.08s-.1.03-.12.08l-1.27,2.57-.14.29-.32.05-2.83.41c-.06,0-.09.04-.11.09-.02.05,0,.1.03.14l2.05,2,.23.23-.05.32-.48,2.82s0,.07.03.11c.03.03.07.05.11.05.02,0,.04,0,.06-.02l2.53-1.33.29-.15.29.15,2.53,1.33s.04.02.06.02c.04,0,.08-.02.11-.05.03-.04.03-.08.03-.11l-.48-2.82-.05-.32.23-.23,2.05-2ZM14.76,8.78s.05-.09.04-.14c-.02-.05-.06-.09-.11-.09l-2.83-.41-.32-.05-.14-.29-1.27-2.57c-.03-.05-.07-.08-.12-.08s-.1.03-.12.08l-1.27,2.57-.14.29-.32.05-2.83.41c-.06,0-.09.04-.11.09-.02.05,0,.1.03.14l2.05,2,.23.23-.05.32-.48,2.82s0,.07.03.11c.03.03.07.05.11.05.02,0,.04,0,.06-.02l2.53-1.33.29-.15.29.15,2.53,1.33s.04.02.06.02c.04,0,.08-.02.11-.05.03-.04.03-.08.03-.11l-.48-2.82-.05-.32.23-.23,2.05-2ZM17.98,6.63c-.44-1.03-1.06-1.96-1.86-2.75s-1.72-1.42-2.75-1.86c-1.07-.45-2.2-.68-3.37-.68s-2.3.23-3.37.68c-1.03.44-1.96,1.06-2.75,1.86-.8.8-1.42,1.72-1.86,2.75-.45,1.07-.68,2.2-.68,3.37s.23,2.3.68,3.37c.44,1.03,1.06,1.96,1.86,2.75.8.8,1.72,1.42,2.75,1.86,1.07.45,2.2.68,3.37.68s2.3-.23,3.37-.68c1.03-.44,1.96-1.06,2.75-1.86.8-.8,1.42-1.72,1.86-2.75.45-1.07.68-2.2.68-3.37s-.23-2.3-.68-3.37ZM10,17.43c-4.1,0-7.43-3.32-7.43-7.43s3.32-7.43,7.43-7.43,7.43,3.32,7.43,7.43-3.32,7.43-7.43,7.43ZM12.65,3.72c-.84-.36-1.73-.54-2.65-.54s-1.81.18-2.65.54c-.81.34-1.54.83-2.16,1.46-.63.63-1.12,1.35-1.46,2.16-.35.84-.53,1.73-.53,2.65s.18,1.81.53,2.65c.34.81.83,1.54,1.46,2.17.63.63,1.35,1.12,2.16,1.46.84.36,1.73.53,2.65.53s1.81-.18,2.65-.53c.81-.34,1.54-.83,2.17-1.46.63-.63,1.12-1.35,1.46-2.17.36-.84.53-1.73.53-2.65s-.18-1.81-.53-2.65c-.34-.81-.83-1.54-1.46-2.16s-1.35-1.12-2.17-1.46ZM15.19,9.22l-2.05,2,.48,2.82c.08.49-.3.88-.74.88-.12,0-.24-.03-.35-.09l-2.53-1.33-2.53,1.33c-.12.06-.23.09-.35.09-.44,0-.83-.4-.74-.88l.48-2.82-2.05-2c-.45-.44-.2-1.19.42-1.28l2.83-.41,1.27-2.57c.14-.28.41-.42.68-.42s.54.14.68.42l1.27,2.57,2.83.41c.62.09.86.85.42,1.28ZM14.69,8.55l-2.83-.41-.32-.05-.14-.29-1.27-2.57c-.03-.05-.07-.08-.12-.08s-.1.03-.12.08l-1.27,2.57-.14.29-.32.05-2.83.41c-.06,0-.09.04-.11.09-.02.05,0,.1.03.14l2.05,2,.23.23-.05.32-.48,2.82s0,.07.03.11c.03.03.07.05.11.05.02,0,.04,0,.06-.02l2.53-1.33.29-.15.29.15,2.53,1.33s.04.02.06.02c.04,0,.08-.02.11-.05.03-.04.03-.08.03-.11l-.48-2.82-.05-.32.23-.23,2.05-2s.05-.09.04-.14c-.02-.05-.06-.09-.11-.09Z"/>
</svg>