<?xml version="1.0" encoding="UTF-8"?>
<svg id="Layer_1" data-name="Layer 1" xmlns="http://www.w3.org/2000/svg" viewBox="0 0 20 20">
  <defs>
    <style>
      .cls-1 {
        fill: #ab141b;
      }
    </style>
  </defs>
  <path class="cls-1" d="M1.26,1.25c-.35.03-.62.32-.62.68v15.52c0,.33.23.61.56.67l7.08,1.26c.2.04.4-.02.55-.15.15-.13.24-.32.24-.52V1.3c0-.19-.08-.37-.22-.5-.14-.13-.33-.19-.52-.18L1.26,1.25ZM7.22,10.93c-.29,0-.53-.42-.53-.93s.24-.93.53-.93.53.41.53.93-.24.93-.53.93Z"/>
  <polygon class="cls-1" points="19.36 9.64 13.83 5.53 13.83 7.66 9.52 7.66 9.52 11.59 13.83 11.59 13.83 13.72 19.36 9.64"/>
  <path class="cls-1" d="M6.69,10c0,.51.24.93.53.93s.53-.42.53-.93-.24-.93-.53-.93-.53.41-.53.93Z"/>
  <path class="cls-1" d="M13.34,7.05V1.75c0-.14-.06-.28-.15-.37-.1-.1-.23-.15-.37-.15h-3.29v1.06h2.76v4.78h1.06Z"/>
  <path class="cls-1" d="M9.52,17.72v1.06h3.29c.14,0,.28-.06.37-.16.1-.1.15-.23.15-.37v-6.09h-1.06v5.56h-2.76Z"/>
</svg>