<?xml version="1.0" encoding="UTF-8"?>
<svg id="Layer_1" data-name="Layer 1" xmlns="http://www.w3.org/2000/svg" viewBox="0 0 20 20">
  <defs>
    <style>
      .cls-1 {
        fill: none;
        stroke: #ab141b;
        stroke-linecap: round;
        stroke-linejoin: round;
        stroke-width: 1.7px;
      }
    </style>
  </defs>
  <path class="cls-1" d="M13.12,8.9v-3.84c0-1.2-.66-2.35-1.75-2.82-2.28-.99-4.48.67-4.48,2.86v3.81M15.82,7.58l.96,9.25c.05.52-.35.98-.87.98H4.09c-.52,0-.93-.46-.87-.98l.96-9.25c.05-.45.42-.79.87-.79h9.9c.45,0,.82.34.87.79ZM7.37,8.9c0,.16-.13.3-.29.3s-.29-.13-.29-.3.13-.3.29-.3.29.13.29.3ZM13.21,8.9c0,.16-.13.3-.29.3s-.29-.13-.29-.3.13-.3.29-.3.29.13.29.3Z"/>
</svg>