<?xml version="1.0" encoding="UTF-8"?>
<svg id="Layer_1" xmlns="http://www.w3.org/2000/svg" version="1.1" viewBox="0 0 150 150">
  <!-- Generator: Adobe Illustrator 29.7.1, SVG Export Plug-In . SVG Version: 2.1.1 Build 8)  -->
  <defs>
    <style>
      .st0 {
        fill: #ff6439;
      }

      .st1 {
        fill: #faf1e6;
      }

      .st2 {
        fill: #273015;
      }

      .st3 {
        fill: #2f271f;
      }

      .st4 {
        fill: #444443;
      }

      .st5 {
        fill: #fff;
      }

      .st6 {
        fill: #ab141b;
      }

      .st7 {
        fill: #ffd4ac;
      }

      .st8 {
        fill: #b23919;
      }

      .st9 {
        fill: #ff958d;
      }

      .st10 {
        fill: #ffb200;
      }

      .st11 {
        fill: #ff9329;
      }

      .st12 {
        fill: #96371f;
      }

      .st13 {
        fill: #033922;
      }

      .st14 {
        fill: #ffe7ec;
      }

      .st15 {
        fill: #4b4b77;
      }

      .st16 {
        fill: #ff8664;
      }

      .st17 {
        fill: #bb7500;
      }

      .st18 {
        fill: #f40;
      }

      .st19 {
        fill: #005d6a;
      }

      .st20 {
        fill: #aaa;
      }

      .st21 {
        fill: #0d3b12;
      }

      .st22 {
        fill: #ffbb71;
      }

      .st23 {
        fill: #4b1d18;
      }

      .st24 {
        fill: #934637;
      }
    </style>
  </defs>
  <path class="st22" d="M64.58,57.73c-.23.95-.78,1.67-1.3,2.17-.29-.01-.57,0-.85.04-.31.04-.59.12-.83.21h0c-2.41.2-3.44,2.09-6.08-.43.02-.18.04-.37.06-.57.02-.24.03-.46.03-.68.24.14.45.24.6.31.4.2,1.21.58,2.32.6,1.09.02,1.97-.32,2.57-.64-.33,0-.74-.08-1.15-.28-.32-.16-.7-.34-.84-.73-.22-.63.28-1.58,1.08-1.74.64-.13,1.16.32,1.31.47.15,0,.31-.03.43-.14.32-.27.08-.72.29-1.37.22-.67.63-.66,1.06-1.42.18-.32.28-.63.34-.9.19.42.39.95.57,1.58.37,1.27.67,2.34.38,3.52Z"/>
  <path class="st5" d="M64.92,54.04c-.1.5-.62.9-1.3.97,0-.22.06-.57.28-.91.31-.47.75-.64.93-.7.07.16.14.39.09.65Z"/>
  <path class="st7" d="M83.63,35.77c-.89,3.19-4.02,4.73-6.21,3.92-1.45-.54-2.52-2.12-2.73-4,1.12.02,2-.32,2.37-.92.54-.88.05-2.47-.22-3.32-.11-.37-.24-.67-.34-.9-.4.01-1.24-.05-1.78-.71-.48-.6-.65-1.61-.2-2,.36-.32,1.01-.14,1.25-.08.23.06.43.16.59.26.01-.17,0-.36-.03-.56-.13-.67-.54-1.1-.81-1.32.22-.32.44-.53.6-.65.16-.12,1.1-.86,2.09-.6.3.08.46.21.66.33.46.29,1.15.59,2.21.69.41.33,1.07.97,1.33,1.97.04.16.07.32.09.47.06.54-.04,1-.09,1.34-.15,1-.66,1.22-.9,1.65-.37.67-.68,2.21-.52,3.78.36.14.8.29,1.3.42,0,0,.54.14,1.33.23Z"/>
  <path class="st22" d="M46.29,39.99c.03.22.06.45.06.69.02.49-.02,1.01-.18,1.54-.09.29-.21.58-.38.87-.95,1.62-3.38,2.05-4.61,2.17-.21.22-.41.45-.62.69-1.11,1.28-2.06,2.55-2.88,3.77-.54-.6-1.49-1.57-2.8-3.15-.39-.47-.74-.89-1.01-1.24.28-.21.56-.43.83-.68.19-.17.37-.34.54-.51.35.26.79.43,1.2.48.86.11,1.51-.3,1.74-.45.56-.37.87-.86,1.03-1.22-.72-.09-1.34-.49-1.61-1.07-.37-.77-.12-1.87.56-2.28.75-.44,2.08-.07,2.77,1.17.37-.16.74-.4.91-.78.32-.72-.28-1.35.1-1.88.33-.45.84-.11,1.6-.7.39-.3.4-.51.91-.91.15-.12.27-.19.37-.25.04.06.09.12.13.19.01.45.12.97.44,1.42.15.22.33.38.51.52.48.37.96.52.97.88,0,.17-.1.42-.6.72Z"/>
  <path class="st7" d="M61.21,58.83s-.07,0-.11,0c-.05,0-.09-.04-.09-.09,0-.05.05-.09.09-.09.19,0,.38,0,.57-.03.05,0,.09.03.1.07,0,.05-.03.09-.07.1-.16.03-.33.04-.49.04Z"/>
  <path class="st13" d="M63.71,52c0,.14-.03.36-.09.63h0c-.06.27-.16.58-.34.9-.43.76-.84.75-1.06,1.42-.21.65.03,1.1-.29,1.37-.12.1-.28.13-.43.14-.16-.15-.67-.6-1.31-.47-.8.16-1.3,1.11-1.08,1.74.13.39.52.58.84.73.42.2.82.27,1.15.28-.6.32-1.48.66-2.57.64-1.12-.02-1.92-.4-2.32-.6-.15-.07-.36-.18-.6-.31-.9-.52-2.25-1.51-2.56-3.27-.25-1.44.21-3.3,1.67-4.28.32-.21.64-.35.94-.44.23-.28.5-.55.82-.81,1.83-1.44,4.98-1.94,6.37-.37.48.54.94,1.58.86,2.71Z"/>
  <path class="st7" d="M60.85,58.13c-.57,0-.99-.3-1.06-.64-.06-.29.1-.75.5-.85.27-.07.58.05.77.31.03.04.02.1-.02.13-.04.03-.1.02-.13-.02-.15-.2-.38-.3-.58-.25-.29.08-.41.43-.37.64.07.32.57.59,1.18.47.05,0,.1.02.11.07,0,.05-.02.1-.07.11-.12.02-.23.03-.33.03Z"/>
  <path class="st19" d="M67.21,64.21c-.13.32-.33.62-.58.91-2.14,2.42-8.34,3.63-13.31,1.73-1.56-.6-1.7-1-7.71-5.44-.81-.6-1.57-1.15-2.28-1.67-1.08.03-2.28.08-3.67.13-1.96.08-4.57.26-7.66.69-.04,0-.09.01-.13.02-.68-2.88-1.15-6.1-1.21-9.58.06-1.11.07-2.51.64-4.05.02-.06.05-.12.07-.18.34-.15.7-.32,1.06-.52.42.82,1.12,1.9,2.29,2.81.32.25.67.49,1.01.69.58,0,1.21.02,1.88.08h0c.07,0,.14.01.21.02.44.04.9.1,1.38.17.28.04,2.27.36,4.37,1.12,4.35,1.57,8.78,5.27,11.62,8.22.11.12.23.23.33.33,2.64,2.52,3.68.63,6.08.43h0c.24-.09.52-.16.83-.21.28-.04.56-.05.85-.04,1.77.08,3.58,1.11,4.03,2.54h0s.03.1.04.15c.19.78-.07,1.46-.14,1.63Z"/>
  <path class="st22" d="M32.98,43.79c-.73.67-1.04,1.47-1.62,3-.21.09-.41.17-.6.24,0,.12-.02.24-.02.36-.08,1.24-.1,2.45-.08,3.63.07,3.48.54,6.7,1.21,9.58.01.05.02.1.03.14-.62,1.02-1.35,2.53-1.72,4.44-.28,1.44-.3,2.74-.2,3.83-1.29-.03-2.74-.24-3.91-1.25-.97-.84-1.58-2.08-1.95-5.16-.37-3.03-.86-7.52,1.12-13.1.15-.43.33-.91.55-1.42h0c.12-.92.33-2.07.75-3.36.58-1.8,1.54-3.83,1.84-3.74.12.04.12.41.12.7,0,.12,0,.23-.03.34.08-.19.18-.4.29-.63.91-1.91,1.07-1.93,1.13-1.92.12.03.13.37.14.56.02.39-.08.69-.11.78.07-.13.14-.28.23-.44.3-.55.5-.91.62-.88.13.04.08.55.06.83-.05.61-.19,1.06-.2,1.1.09-.18.18-.39.27-.64.16-.43.22-.71.32-.71.13,0,.23.36.27.57.1.5-.01.91-.03,1-.16.59-.58,2.37-.33,2.49.08.04.17-.13.58-.47.17-.14.78-.61,1.58-.73.29-.05.34,0,.36.02.1.16-.49.67-.66.84Z"/>
  <path class="st19" d="M31.37,46.79c-.02.06-.05.12-.07.18-.57,1.53-.58,2.94-.64,4.05-.02-1.18,0-2.39.08-3.63,0-.12.02-.24.02-.36.2-.07.4-.16.6-.24Z"/>
  <path class="st7" d="M27.93,43.6s-.03,0-.04-.01c-.04-.02-.06-.08-.04-.12.13-.24.23-.48.32-.73.08-.23.17-.47.2-.74,0-.05.05-.08.1-.08.05,0,.08.05.08.1-.04.29-.13.53-.21.77-.09.26-.2.51-.33.76-.02.03-.05.05-.08.05Z"/>
  <path class="st7" d="M29.16,43.49s-.02,0-.02,0c-.05-.01-.08-.06-.06-.11.32-1.2.57-2.09.75-2.58,0,0,0-.02,0-.02.02-.05.07-.07.12-.05.05.02.07.07.05.12-.17.5-.42,1.39-.75,2.58-.01.04-.05.07-.09.07Z"/>
  <path class="st7" d="M30.12,43.89s0,0-.01,0c-.05,0-.08-.05-.08-.1.14-.96.31-1.76.51-2.39,0-.04.04-.07.09-.07.05,0,.09.04.09.09,0,0,0,.02,0,.03,0,0,0,0,0,0-.19.62-.36,1.41-.5,2.36,0,.04-.04.08-.09.08Z"/>
  <path class="st22" d="M97.75,61.98c-.36.22-.7.44-1.03.66-.04-.21-.08-.42-.12-.64.26,0,.53-.01.83-.02.11,0,.21,0,.32,0Z"/>
  <path class="st9" d="M62.1,123.45c-.01.07-.02.14-.03.22-.23,1.72-.54,3.4-.91,5.02-.37,1.62-.81,3.19-1.3,4.69-1.46,4.48-3.36,8.45-5.29,11.81-.41-.47-1-1.03-1.73-1.48-.81-.49-1.8-.85-2.96-.82-1.09.03-1.97.4-2.57.75,0,0,0,0,0,0-.14.08-.27.16-.38.23.97-3.96,1.78-7.56,2.45-10.73h0c.45-2.13.84-4.07,1.17-5.8.84-4.34,1.1-6.23.84-8.78-.15-1.37-.4-2.49-.76-3.7-.11,1.65-.28,3.36-.5,5.09-.54,4.25-1.38,8.24-2.39,11.97-1.19,4.36-2.64,8.35-4.19,11.96-.95-.46-2.37-.99-4.14-1.18-.27-.03-.55-.05-.84-.06-2.32-.09-4.16.47-5.28.92.29-1.69.61-3.58.96-5.62.4-2.33.73-4.28,1.02-5.91,1.23-7.21,1.41-8.41,1.49-10.68.05-1.35-.02-3.34-.21-6.38,1.06-2.84,1.68-5.54,1.74-8.67.05-2.66-.34-3.89-2.4-11.46.01-.08.02-.16.03-.25.32-2.36.81-4.41,1.29-6.06.08.11.16.21.24.31,2.29,2.85,6.33,4,9.62,3.66,2.73-.29,3.51-1.45,6.17-1.05,1.6.25,2.07.79,3.66,1.05,1.21.19,2.34.11,3.34-.11-.08,1.68-.11,3.92.08,6.52.47,6.34,1.81,8.99,2.23,14.64.31,4.18-.09,7.31-.42,9.9Z"/>
  <path class="st9" d="M38.27,106.3c-.06,3.14-.68,5.84-1.74,8.67-.14-2.4-.36-5.45-.63-9.37-.28-4.03-.53-6.87-.03-10.77,2.07,7.58,2.45,8.81,2.4,11.46Z"/>
  <path class="st22" d="M39.39,142.71c-.12.77-.22,1.59-.29,2.48,0,.11-.01.21-.02.32-.01.22-.02.43-.03.64-.55.27-1.2.46-1.8.23-.97-.37-1.11-1.57-1.81-1.57-.68,0-.86,1.15-1.92,1.43-.26.07-.5.07-.73.04h0c.14-.83.3-1.74.46-2.71,1.12-.45,2.97-1.01,5.28-.92.29.01.57.04.84.06Z"/>
  <path class="st16" d="M42.41,148.47c-.14.49-1.34.56-1.92.59-1.66.08-4.35.17-8.19.15.06-.35.12-.73.19-1.12,1.22.1,2.51.18,3.84.21,2.14.06,4.16.01,6.05-.1.04.1.05.19.02.27Z"/>
  <path class="st4" d="M49.26,99.46c-1,0-2.08-.1-3.23-.37-1.89-.44-3.64-1.25-5.22-2.4-.08-.06-.1-.17-.04-.25.06-.08.17-.1.25-.04,1.54,1.12,3.25,1.91,5.09,2.34,2.84.66,5.31.29,6.88-.14.1-.03.19.03.22.13.03.1-.03.19-.13.22-.98.27-2.29.51-3.83.51Z"/>
  <path class="st4" d="M50.62,115.05c-.08,0-.15-.05-.17-.13-.19-.65-.41-1.33-.66-2.11-.45-1.39-1.01-3.12-1.65-5.48-.18-.67-.39-1.44-.61-2.23-.65-2.37-1.39-5.05-1.62-6.15-.02-.1.04-.19.14-.21.1-.02.19.04.21.14.22,1.08.96,3.76,1.62,6.12.22.79.43,1.55.61,2.23.64,2.35,1.2,4.07,1.64,5.46.25.79.47,1.47.67,2.12.03.1-.03.19-.12.22-.02,0-.03,0-.05,0Z"/>
  <path class="st22" d="M52.67,145.17c-.01.38,0,.73.02,1.04-.94-.34-1.6-.74-2.04-1.07-.49-.36-.73-.62-1.13-.61-.54.01-.76.49-1.55.97-.42.26-.83.42-1.15.52.1-.45.21-.99.33-1.63.05-.27.1-.52.14-.75,0,0,0,0,0,0,.61-.35,1.49-.72,2.57-.75,1.16-.04,2.15.32,2.96.82-.06.31-.11.66-.14,1.03-.01.15-.02.29-.02.43Z"/>
  <path class="st13" d="M55.98,147.42c-2.07.37-4.39.64-6.91.7-.91.02-1.8.02-2.65,0,.02-.39.17-.99.4-2.09.32-.09.73-.25,1.15-.52.79-.49,1.01-.96,1.55-.97.41-.01.64.25,1.13.61.44.32,1.1.73,2.04,1.07-.02-.31-.04-.66-.02-1.04.23.05.53.13.86.24.25.08.51.17.76.27.68.27,1.31.62,1.57,1.24.02.06.11.26.13.5Z"/>
  <path class="st16" d="M55.88,147.96c-.23.43-.79.55-1.11.6-1.77.32-4.14.46-4.73.5l-.62.02c-2.03.1-2.69-.18-2.85-.4-.11-.15-.16-.31-.14-.56.85.03,1.74.03,2.65,0,2.52-.07,4.83-.33,6.91-.7.01.17,0,.36-.1.54Z"/>
  <path class="st13" d="M42.39,148.19c-1.89.11-3.92.16-6.05.1-1.33-.04-2.62-.11-3.84-.21.09-.56.2-1.16.31-1.81.22.03.47.03.73-.04,1.05-.28,1.24-1.42,1.92-1.43.7,0,.84,1.2,1.81,1.57.59.23,1.25.04,1.8-.23,0-.21.02-.42.03-.64.16.1.33.21.51.33.17.11.34.23.52.36,1.12.8,2.08,1.48,2.27,1.99Z"/>
  <path class="st13" d="M97.51,53.71c-.02.25-.07.55-.15.93-.12.55-.3,1.28-.55,2.32-.09.36-.17.66-.24.91h0c-.15.48-.28.76-.47.91-.05.04-.11.07-.17.09-.64.24-1.1-.64-1.95-.46-.83.17-.92,1.11-1.67,1.16-.37.02-.65-.19-1.25-.7-.38-.31-.7-.58-.98-.81-.72-.6-1.1-.93-1.2-1.04-.4-.46-.85-1.12-1.21-1.85-.72-1.43-1.14-3.15-.37-4.28.13-.19.28-.35.46-.49.62-.5,1.55-.78,2.74-1.13.21-.06.42-.12.62-.17.66-.45,1.51-.84,2.54-.95.61-.06,2.08-.21,3.07.7,1.09,1,.96,2.69.79,4.88Z"/>
  <path class="st24" d="M99.29,56.89c-.47.66-2.02.89-2.71.98.07-.24.15-.54.24-.91.25-1.04.43-1.77.55-2.32.21-.13.5-.25.85-.26.47-.01,1.13.16,1.43.7.41.75-.22,1.63-.35,1.81Z"/>
  <path class="st24" d="M96.41,60.89c-.34.05-.63.1-.86.14-1.1.18-2.01.37-2.63.51l-1,.09c-.28.02-.62.04-1.01.08-.18-.75-.35-1.5-.53-2.25-.05-.2-.1-.41-.14-.62-.06-.27-.13-.54-.19-.8.28.23.6.5.98.81.61.51.88.72,1.25.7.75-.05.85-.99,1.67-1.16.85-.18,1.31.7,1.95.46.06-.02.12-.05.17-.09.04.29.08.58.12.87.06.42.13.84.19,1.25Z"/>
  <path class="st18" d="M77.96,73.56c-.33,1.75-.66,3.86-.86,6.28-.78.47-1.57.89-2.37,1.26-4.73,2.18-9.6,2.65-13.39,2.54-1.84-.05-3.43-.23-4.62-.42-.03,0-.06,0-.09-.01,0,0,0,.01-.01.02-.03,0-.05,0-.08,0-.01-.01-.03-.03-.04-.04-.78-.81-1.97-2.38-1.82-4.4.05-.59.2-1.1.38-1.52.44-.15.91-.32,1.41-.5,1.23-.44,2.88-1.04,4.83-1.8.98-.38,2.03-.8,3.14-1.27,1.32.47,2.84.63,4.3.77,1.58.15,3.92.21,6.77-.32.78-.15,1.61-.34,2.46-.58Z"/>
  <path class="st0" d="M123.12,111.31c-.05.82-.11,1.63-.17,2.45-.18,2.48-.39,4.93-.61,7.34-.71-3.01-.75-3.49-1.69-7.27-.57-2.3-1.99-7.87-4.24-15.24,1.16.52,2.21.93,3.16,1.25.45,1.74.94,3.52,1.49,5.31.64,2.11,1.33,4.16,2.05,6.15Z"/>
  <path class="st24" d="M88.07,144.74c-.25.42-.51.85-.78,1.28-.57-.14-2.27.26-4.7.39-.41.02-1.12.05-1.42-.36-.24-.33-.02-.63-.31-1.2-.04-.07-.4-.75-.85-.73-.08,0-.16.03-.28.12.1-.46.2-.91.29-1.35.9.36,1.91.7,3.01,1,1.85.49,3.55.74,5.03.85Z"/>
  <path class="st1" d="M128.36,141.6c-.37.35-.81.72-1.32,1.09-.38.28-.8.55-1.26.81-1.61.9-3.17,1.32-4.4,1.5-.28.04-.54.07-.78.1-1.27-2.72-2.43-5.27-3.48-7.63h0c-.23-.52-.45-1.02-.67-1.52-1.62-3.68-2.95-6.87-4.02-9.53h0c-.2-.5-.39-.98-.58-1.44-.77-1.94-1.75-4.44-3.13-7.48-.34-.76-.71-1.55-1.1-2.37-.33-.69-.69-1.41-1.06-2.16-.2-.4-.41-.8-.62-1.21-.03-.06-.06-.11-.09-.16-1.23-2.36-2.4-4.41-3.39-6.08-.29.65-.57,1.33-.86,2.04,0,.02-.01.03-.02.05-.63,1.57-1.16,3.07-1.61,4.47-1.52,4.73-2.1,8.33-2.34,9.7-.67,3.69-2.1,8.59-5.23,14.99-.04,0-.07,0-.11-.01-.25.57-.5,1.14-.75,1.73,0,0,0,.02-.01.03-.2.48-.4.96-.6,1.45-.68,1.66-1.3,3.27-1.86,4.83h0c-.32-.01-.66-.03-1.01-.06-1.48-.11-3.19-.35-5.03-.85-1.1-.3-2.11-.64-3.01-1,.64-2.97,1.2-5.72,1.69-8.23.81-4.14,1.45-7.63,1.92-10.38,1.09-6.33,1.93-11.95,3.68-17.78.91-3.02,2.06-6.1,3.63-9.36.21-.43.42-.86.64-1.3.17-.34.33-.64.47-.9.02-.04.04-.07.05-.1.86.08,1.76.11,2.69.1,8.16-.15,14.45-4.35,17.94-7.28,0,0,0,0,0,0,.04-.03.07-.06.11-.09.94,2.73,1.73,5.15,2.37,7.16.42,1.33.83,2.62,1.2,3.86,2.25,7.37,3.66,12.94,4.24,15.24.94,3.78.98,4.26,1.69,7.27.08.33.16.69.26,1.09.78,3.24,1.57,6.22,2.32,8.91.96,3.45,2.57,7.84,3.45,10.5Z"/>
  <path class="st16" d="M117.58,40.46c-.37.7-1.36,1.09-2.53.95.04.17.08.34.11.52.1.61.04,1.1-.06,1.56l-.64-.55c-1.75-.21-3.2-1.1-3.58-2.37-.04-.14-.07-.28-.08-.42-.06-.57.08-1.12.27-1.64.08-.23.18-.45.27-.66-.38-.51-.38-.76-.31-.9.01-.03.03-.05.06-.07.17-.16.55-.1.94-.29.04-.02.08-.04.11-.06.35-.21.54-.55.66-.87.08-.08.16-.16.23-.22.15.49.49.98.83,1.29.54.5,1.06.55,1.12.98.06.44-.46.75-.33,1.18.04.14.14.25.23.32.14-.25.46-.71,1.05-.84.63-.14,1.34.13,1.66.7.36.66,0,1.38-.02,1.41Z"/>
  <path class="st21" d="M113.04,35.43c-.07.07-.15.14-.23.22-.12.32-.31.66-.66.87-.04.02-.08.04-.12.06-.39.19-.77.13-.94.29-.56-.41-.85-.91-.8-1.32.07-.57.78-1.13,1.55-1.17.42-.02.82.11,1.14.35,0,.02,0,.03-.01.05-.03.2,0,.42.06.64Z"/>
  <path class="st12" d="M115.82,40.77c-.23,0-.48-.06-.71-.19-.04-.02-.06-.08-.03-.12.02-.04.08-.06.12-.03.44.25.94.23,1.2-.05.15-.17.25-.45.14-.69-.02-.05-.15-.29-.39-.3-.17,0-.33.12-.4.29-.02.05-.07.07-.12.05-.05-.02-.07-.07-.05-.12.1-.24.32-.41.57-.4.35,0,.52.33.55.4.15.32.01.68-.17.88-.17.19-.43.28-.71.28Z"/>
  <path class="st21" d="M131.75,50.41c-1.07.74-2.27.84-3.26.73-.14-.89-.41-2.13-.92-3.18-.11-.23-.4-.81-.62-.77-.13.02-.18.25-.23.46-.03.14-.06.32-.07.54-.09-.43-.19-.84-.27-1.14-.02-.06-.09-.29-.27-.54-.18-.24-.54-.59-.77-.5-.14.06-.17.28-.21.55-.02.12-.03.27-.02.45-.15-.5-.28-.84-.37-1.07-.12-.29-.33-.73-.56-.71-.22.02-.38.46-.43.59-.06.17-.09.34-.1.59,0,.09,0,.18,0,.29-.06-.21-.17-.46-.38-.67-.06-.06-.36-.36-.54-.28-.12.05-.18.26-.05,1.71.03.38.06.7.09.91l-.02.49c-.25-.23-.5-.49-.75-.77-.38-.42-.7-.83-.98-1.22l-.09-.23c-.17-.25-.93-1.3-2.23-1.46-.21-.03-.87-.09-1.81.35-.79.37-1.4.9-1.84,1.4-.24-.57-.31-1.05-.32-1.4-.02-.77.23-1.37.38-2.05.1-.45.15-.95.06-1.56-.03-.18-.06-.35-.1-.52,1.17.14,2.16-.25,2.53-.95.02-.03.38-.75.02-1.41-.31-.56-1.02-.84-1.66-.7-.6.13-.92.59-1.05.84-.09-.07-.19-.18-.23-.32-.13-.44.39-.74.33-1.18-.05-.42-.58-.48-1.12-.98-.34-.31-.68-.8-.83-1.29-.07-.22-.09-.44-.06-.64,0-.02,0-.03.01-.05.24-1.13,2.31-2.11,3.8-1.65,1.05.32,1.39,1.24,2.74,1.44.73.11.8-.2,1.25-.05,1.15.38.92,2.19,2.14,3.67.68.83,1.04.58,2.56,1.58,2.41,1.59,2.02,2.69,4.41,4.65,2.14,1.75,3.43,1.68,3.67,2.88.25,1.27-.95,2.57-1.81,3.16Z"/>
  <path class="st16" d="M119.22,52.71c-.36.69-.75,1.46-1.17,2.3-.98,1.95-1.62,3.27-2.15,4.27-.65,1.23-1.15,1.96-1.94,2.74-.15.15-.32.3-.5.47-.82.72-2.03,1.55-3.79,2.2-.07-.1-.21-.19-.3-.24-.19-.11-.37-.14-.51-.15.08,0,.14,0,.2-.02.1-.02.34-.05.43-.23.09-.18-.02-.42-.13-.56-.12-.14-.28-.19-.47-.26-.13-.05-.24-.07-.32-.08l-.15-.03c-.82-.18-1.81-.38-2.93-.55.26-.09.61-.25.97-.54.37-.29.58-.46.54-.58-.11-.37-2.2-.12-3.7.2-.67.15-1.24.31-1.68.46-1.2-.09-2.49-.15-3.86-.15.83-.52,1.73-1.03,2.7-1.54.49-.25.99-.51,1.51-.76,2.27-1.08,2.31-.86,3.49-1.6,4.72-2.99,8.3-9.19,8.71-9.9.07-.12.19-.34.38-.6,1.06.37,2.51,1.14,3.59,2.69.58.83.9,1.68,1.08,2.44Z"/>
  <path class="st18" d="M130.43,66.39h0c-.33,3.05-1.43,5.61-3.3,7.3-1.89,1.71-4.35,2.32-4.7,2.4-2.96.71-5.66.02-7.95-.97-1.29-.56-2.45-1.23-3.45-1.8-.57-.33-1.24-.74-1.97-1.26-.66-.47-1.38-1.03-2.11-1.68-.34-.3-.68-.62-1.02-.96-.05-.05-.1-.1-.15-.15-.09-.15-.18-.29-.27-.44-.35-.59-.7-1.21-1.04-1.87-.03-.06-.07-.13-.1-.19.75-.06,1.5-.1,2.24.04.01,0,.37.07.8-.02.12-.02.6-.12.62-.31.01-.15-.27-.28-.48-.38-.12-.06-.23-.1-.35-.14.22.03.41.07.58.1.09.02.4.09.78,0,.38-.09.78-.32.76-.49-.02-.11-.23-.17-.52-.25-.08-.02-.15-.04-.22-.05.05,0,.12,0,.18,0,.4-.03.93-.22.94-.45,0-.05-.01-.09-.04-.13,1.75-.65,2.97-1.48,3.79-2.2,1.83.97,3.13,2.09,4.18,2.95,1.23,1.01,2.13,1.65,3.15,1.28,1.53-.56,2.88-3.22,2.42-12.07.68.08,1.41.19,2.18.35,1.27.27,2.42.62,3.44,1,0,.02,0,.05,0,.07.03-.01.05-.03.08-.04.04.01.07.03.11.04,1.28,3.67,1.75,7.25,1.42,10.33Z"/>
  <path class="st22" d="M108.76,65.27c-.07,0-.13,0-.18,0,.07.01.14.03.22.05.3.08.5.14.52.25.03.17-.38.4-.76.49-.38.09-.7.02-.78,0-.17-.04-.35-.07-.58-.1.11.04.23.08.35.14.21.1.49.23.48.38-.02.19-.5.28-.62.3-.44.09-.79.02-.8.02-.73-.14-1.48-.09-2.24-.04-.45.03-.89.07-1.34.07-.54,0-1.32.05-2.46.22-.21.03-.44.07-.68.11-1.04.09-1.99.22-2.87.35-.11.02-.22.03-.32.05-.53.09-1.03.18-1.49.27-1.9.37-3.46.81-5.6,1.35-1.59.41-3.5.88-6.11,1.44-2.2.47-4.07.83-5.45,1.08,0-.08,0-.16-.01-.24,0-.02,0-.03,0-.05,0-.06,0-.13-.01-.19-.01-.14-.03-.29-.04-.43,0-.04,0-.08-.01-.12-.02-.18-.05-.36-.08-.54-.01-.07-.02-.14-.04-.21,0,0,0-.02,0-.02-.01-.07-.03-.14-.04-.21-.05-.24-.11-.49-.18-.73-.01-.05-.02-.09-.04-.14-.06-.21-.13-.43-.2-.65-.02-.05-.04-.1-.05-.15-.02-.06-.04-.11-.06-.17-.06-.15-.11-.29-.18-.44,0,0,0-.01,0-.02-.03-.07-.06-.14-.1-.21,0,0,0,0,0-.01-.03-.07-.07-.14-.1-.21-.04-.09-.09-.18-.13-.26-.04-.07-.07-.14-.11-.21-.39-.72-.83-1.33-1.26-1.86,1.99-.2,4.18-.48,7.12-.86.46-.06.9-.12,1.32-.17,3.28-.43,5.61-.74,7.32-.97,3.2-.43,4.28-.57,5.47-.62.04.22.08.43.12.64.33-.22.68-.44,1.03-.66h0c1.37,0,2.66.05,3.86.15.45-.15,1.02-.31,1.68-.46,1.5-.33,3.6-.57,3.7-.2.04.13-.17.29-.54.58-.36.29-.72.44-.97.53,1.12.18,2.1.37,2.93.55l.15.03c.08.01.19.03.32.08.19.07.35.12.47.26.11.14.22.38.13.56-.09.17-.33.21-.43.23-.06,0-.13.01-.2.02.13,0,.32.04.51.15.09.05.23.13.3.24.03.04.04.08.04.13-.01.24-.54.42-.94.45Z"/>
  <path class="st24" d="M128.74,54.28c-.16-.11-.35-.22-.55-.32-.74-.37-1.71-.64-2.64-.67-.99-.03-1.82.22-2.39.46-.03-.43-.06-.88-.09-1.35-.23-.27-.47-.6-.71-.98-.75-1.2-1.32-2.73-1.06-2.89.16-.1.62.29.85.54.17.18.26.35.3.4.09.16.22.35.41.58-.04-.38-.08-.77-.12-1.17h0s.02-.51.02-.51c-.02-.21-.05-.52-.09-.91-.12-1.45-.06-1.65.05-1.71.18-.08.48.22.54.28.21.21.32.46.38.67,0-.11,0-.21,0-.29.01-.25.04-.42.1-.59.05-.13.21-.58.43-.59.23-.02.44.42.56.71.1.23.23.57.37,1.07,0-.18,0-.33.02-.45.04-.27.07-.49.21-.55.22-.09.59.26.77.5.18.24.25.47.27.54.09.3.18.71.27,1.14.01-.22.04-.39.07-.54.05-.21.1-.44.23-.46.22-.04.51.54.62.77.51,1.05.78,2.29.92,3.18.11.7.14,1.19.14,1.19.04.71.08,1.36.11,1.95Z"/>
  <path class="st5" d="M129.52,55.34c-.01.17-.12.4-.54.65-.02.01-.05.03-.08.04-.03-.01-.05-.02-.08-.03-1.02-.39-2.17-.74-3.44-1-.76-.16-1.49-.27-2.18-.35-.02-.29-.03-.59-.05-.9.57-.24,1.4-.49,2.39-.46.93.03,1.89.3,2.64.67.2.1.39.21.55.32.5.34.81.72.78,1.05Z"/>
  <path class="st14" d="M120.78,66.72c-1.02.37-1.92-.27-3.15-1.28.35-.87.6-2.1.19-3.46-.4-1.34-1.26-2.2-1.93-2.7.53-1,1.17-2.33,2.15-4.27.42-.84.82-1.61,1.17-2.3-.18-.76-.5-1.6-1.08-2.44-1.08-1.56-2.54-2.32-3.59-2.69.13-.19.3-.41.5-.64.44-.5,1.05-1.04,1.84-1.4.95-.44,1.61-.38,1.81-.35,1.3.17,2.06,1.21,2.23,1.46l.09.23c.27.39.6.8.98,1.22.25.28.5.54.75.77h0c.04.41.08.8.12,1.18-.19-.23-.32-.42-.41-.58-.03-.06-.13-.22-.3-.4-.24-.25-.7-.64-.85-.54-.26.16.31,1.69,1.06,2.89.24.38.48.71.71.98.04.46.07.91.09,1.35.02.31.04.61.05.9.46,8.85-.89,11.52-2.42,12.07Z"/>
  <path class="st14" d="M140.45,89.84c-.41,1.13-1.02,2.37-1.97,3.57-1.44,1.83-3.09,2.88-3.76,3.27-.94.55-1.4.66-3.2,1.44-.07.03-.14.06-.22.09-2.44,1.07-3.9,1.86-4.39,2.09-1.34.63-3.53.81-7.34-.47-.95-.32-2-.73-3.16-1.25-.38-1.24-.78-2.53-1.2-3.86-.64-2.02-1.43-4.43-2.37-7.16l-.02-.06c.37-.62.74-1.42,1-2.39.09-.34.6-2.39,0-4.74-.11-.42-.24-.8-.39-1.16h0c.22-.78.43-1.58.63-2.39.15-.58.29-1.14.42-1.71,2.29,1,4.99,1.68,7.95.97.36-.08,2.81-.7,4.7-2.4,1.87-1.69,2.97-4.25,3.3-7.29,1,2.03,2,4.12,2.97,6.25,2.69,5.89,5.03,11.63,7.05,17.2Z"/>
  <path class="st7" d="M39.53,43.06c-.1,0-.2,0-.31-.02-.05,0-.08-.05-.08-.1,0-.05.05-.08.1-.08.47.06.96-.03,1.41-.25.04-.02.1,0,.12.04.02.04,0,.1-.04.12-.38.19-.79.28-1.2.28Z"/>
  <path class="st7" d="M39.37,42.18c-.37,0-.7-.13-.92-.38-.28-.33-.45-.98-.08-1.31.27-.24.72-.23,1.11.01.04.03.05.08.03.12-.03.04-.08.05-.12.03-.31-.2-.69-.21-.89-.03-.28.25-.13.79.1,1.06.33.38,1,.42,1.58.1.04-.02.1,0,.12.03.02.04,0,.1-.03.12-.29.16-.6.24-.89.24Z"/>
  <path class="st2" d="M37.82,49.87c-.07,0-.14-.01-.21-.02h0c-.67-.06-1.29-.08-1.88-.08-.34-.2-.69-.43-1.01-.69-1.17-.92-1.87-1.99-2.29-2.81-.08-.16-.16-.32-.22-.46l1.36-.87c.09.12.2.25.31.4.27.34.61.76,1.01,1.24,1.31,1.57,2.26,2.55,2.8,3.15.05.05.09.1.13.15Z"/>
  <path class="st2" d="M33.76,49.94s-.09-.04-.09-.08c0-.05.03-.09.08-.1.65-.05,1.31-.08,1.97-.08.05,0,.09.04.09.09,0,.05-.04.09-.09.09h0c-.65,0-1.31.03-1.96.08,0,0,0,0,0,0Z"/>
  <path class="st2" d="M37.36,58.38s-.07-.02-.08-.05c-.28-.58-.45-1.2-.5-1.84-.06-.82.09-1.65.43-2.41.02-.05.07-.07.12-.05.05.02.07.07.05.12-.23.51-.48,1.33-.41,2.33.04.62.21,1.22.48,1.78.02.04,0,.1-.04.12-.01,0-.03,0-.04,0Z"/>
  <path class="st22" d="M57.6,8.8c-.22.52-.55,1.2-1.1,1.97.03.13.07.3.11.49.19.75.26.87.26,1,0,.34-.52.78-2.6,1.3-.18.19-.36.39-.54.58-1.23,1.34-2.45,2.81-3.65,4.41-.7-.71-1.5-1.45-2.42-2.19-.58-.47-1.15-.89-1.7-1.26,1.71-1.5,3.38-2.87,5-4.13l.26-.39c.48-.55.94-.91,1.28-1.14.26-.18.81-.55,1-.39.15.12,0,.52.09.56.08.03.16-.19.42-.32.2-.1.49-.15.6-.02.13.15-.07.48.02.53.08.05.22-.18.54-.28.19-.06.5-.09.6.05.13.18-.14.55-.09.58.05.03.4-.46.6-.72.55-.73,1.37-1.57,1.53-1.46.11.07-.1.61-.21.86Z"/>
  <path class="st6" d="M35.9,105.61c-.28-4.03-.53-6.87-.03-10.77-.8-2.94-1.86-6.85-3.25-12.16-.24-.91-.46-1.76-.65-2.52-.2-.75-.37-1.42-.51-1.98-1.18.41-2.27.65-3.25.79-2.12.29-3.76.06-4.72-.13-1.13-.23-2.19-.6-3.19-1.04-1.3-.57-2.49-1.26-3.64-1.92-1.14-.65-2.05-1.26-2.68-1.71l-.38-.21c-.05-.1-.1-.21-.14-.32-.23.37-.48.79-.75,1.27-.18.33-.38.69-.57,1.07-5.44,10.75-3.26,22.78-2.58,26.27.74,3.79,1.6,5.84,1.81,10.45.18,3.94-.26,6.67-.42,8.22-.12,1.18-.18,2.52-.11,4.03.23.2.49.39.77.57,1.98,1.27,4.07,1.2,5.47.92-.32.76-.63,1.56-.95,2.39.61.67,1.36,1.37,2.27,2.02,1.8,1.28,3.66,1.96,5.33,2.32,1.03.22,1.98.32,2.78.36,1.9-2.61,3.97-5.84,5.89-9.68,1.7-3.4,3.11-6.21,4.12-8.89-.15-2.4-.36-5.45-.63-9.37ZM24.89,108.39c-.21,3.24-1.39,5.69-2.48,7.59.43-4.22.62-8.86.39-13.86-.08-1.64-.19-3.23-.33-4.77,1.61,4.1,2.66,7.43,2.42,11.04Z"/>
  <path class="st11" d="M17.08,126.46c-.32.76-.63,1.56-.95,2.39-.89,2.36-1.78,4.99-2.62,7.93-1.82-4.74-2.53-8.65-2.67-11.81.23.2.49.39.77.57,1.98,1.27,4.07,1.2,5.47.92Z"/>
  <path class="st21" d="M23.66,87.89c-1.83,0-3.98-.29-6.22-1.21-1.58-.65-3.05-1.55-4.37-2.68-.08-.06-.08-.18-.02-.25.06-.08.18-.08.25-.02,1.29,1.1,2.73,1.98,4.27,2.62,3.46,1.42,6.71,1.31,8.82.96.1-.02.19.05.21.15.02.1-.05.19-.15.21-.79.13-1.74.23-2.79.23Z"/>
  <path class="st22" d="M23.74,133.2c-.39.52-.77,1.08-1.15,1.68-1.05,1.67-1.81,3.29-2.37,4.78-.05.12-.09.24-.13.36-.33.4-.79.83-1.42,1.15-1.27.65-3.24.87-4.22-.07-.54-.52-.61-1.24-1.35-1.49-.09-.03-.18-.05-.26-.06.23-1.05.46-2.03.67-2.76.84-2.94,1.72-5.57,2.62-7.93.61.67,1.36,1.37,2.27,2.02,1.79,1.28,3.66,1.96,5.33,2.33Z"/>
  <path class="st21" d="M17.08,126.64c-.1,0-.18-.08-.18-.18,0-.03,0-.06.02-.08,1.34-3.24,2.84-6.27,4.47-9.02l.24-.41c.2-.33.41-.68.62-1.06.05-.09.16-.12.24-.07.09.05.12.16.07.24-.21.38-.43.73-.62,1.06l-.24.41c-1.62,2.74-3.12,5.76-4.45,8.98-.03.07-.09.11-.17.11Z"/>
  <path class="st21" d="M22.46,97.53c-.07,0-.14-.04-.17-.11-.38-.95-.78-1.94-1.2-2.96-.92-2.25-1.95-4.47-3.06-6.61-.05-.09-.01-.2.08-.24.09-.05.2-.01.24.08,1.11,2.14,2.15,4.37,3.07,6.64.42,1.02.82,2.01,1.2,2.96.04.09,0,.2-.1.23-.02,0-.04.01-.07.01Z"/>
  <path class="st16" d="M140.81,135.94c-.49.27-1.11.53-1.87.63-.71.1-1.27.18-1.86-.1-.95-.44-1.09-1.39-1.84-1.45-.19-.02-.37.02-.52.09l-.37-.69c-.71-1.14-1.41-2.32-2.11-3.54-3.29-5.73-6.45-12.25-9.11-19.58-.72-1.99-1.41-4.04-2.05-6.15-.55-1.8-1.04-3.57-1.49-5.31,3.81,1.28,6.01,1.1,7.35.47.49-.23,1.95-1.03,4.39-2.09.08-.03.15-.06.22-.09.17,1.14.4,2.45.72,3.89,1.3,5.89,3.17,10.02,3.76,11.39,1.3,3.04,2.75,7.54,3.75,14.36.32,2.21.6,4.65.8,7.37.08.26.17.52.25.79Z"/>
  <path class="st3" d="M82.51,28.36c-.02-.15-.04-.31-.09-.47-.26-1-.92-1.65-1.33-1.97-1.06-.1-1.76-.41-2.21-.69-.2-.13-.37-.25-.66-.33-.99-.25-1.94.48-2.09.6-.16.13-.39.33-.6.65.27.22.68.65.81,1.32.04.2.05.39.03.56-.16-.1-.36-.2-.59-.26-.24-.07-.89-.24-1.25.08-.45.4-.28,1.41.2,2,.53.67,1.38.72,1.78.71.1.23.23.53.34.9.27.86.76,2.44.22,3.32-.37.61-1.26.94-2.37.92-.65,0-1.38-.14-2.13-.4l-.24-.12c-1.39-.33-2.58-.68-3.53-.99.14-.09.33-.23.8-.47.95-.48,1.5-.76,2.13-.68.81.1.88.69,1.47.64.81-.06,1.65-1.25,1.53-2.23-.08-.63-.5-.76-.84-1.71-.13-.37-.2-.72-.23-1.02-.44-.98-.85-2.42-.31-3.86.05-.13.93-2.4,2.61-2.37.51,0,.93.21,1.24.42.39-.59,1.28-1.64,2.62-1.74,1.91-.15,3.43,1.72,3.78,3.41.35,1.7-.5,3.09-1.06,3.79Z"/>
  <path class="st12" d="M75.58,29.8s-.09,0-.14-.02c-.19-.04-.36-.18-.47-.38-.12-.22-.14-.47-.06-.68.11-.29.38-.4.41-.41.27-.1.58-.03.8.18.04.03.04.09,0,.13-.03.04-.09.04-.13,0-.17-.16-.41-.22-.61-.15,0,0-.23.09-.31.31-.06.16-.04.36.05.53.08.15.21.25.35.29.3.07.55-.19.56-.2.03-.04.09-.04.13,0,.04.03.04.09,0,.13-.03.03-.27.27-.59.27Z"/>
  <path class="st7" d="M116.97,3.84c-.56,1.96-.41,2.29-.96,3.47-.68,1.47-1.64,2.54-2.38,3.23-.72,2.2-1.8,4.99-3.39,8.04-.8,1.54-1.44,2.58-3.87,6.03-.58-.66-1.18-1.46-1.73-2.42-.8-1.39-1.25-2.7-1.51-3.73.6-.75,1.29-1.66,2.14-2.87,2.21-3.13,3.92-5.95,5.18-8.19.06-.5.13-.92.21-1.24.28-1.26.56-1.51.74-2.72.17-1.09.08-1.76.26-1.79.19-.03.5.68.65,1.25.19.74.04.9.14,1.93,0,.08.02.15.02.22.23-.97.46-1.79.65-2.43C113.83.24,114.13-.01,114.3,0c.19.01.34.34.39.51.05.15.05.3.04.43-.08.21-.13.41-.16.56.02-.05.04-.1.06-.15.03-.07.09-.22.11-.41.05-.13.11-.26.2-.4.14-.24.27-.46.42-.45.21.01.37.46.41.8.03.24,0,.46-.04.63.09-.09.19-.16.31-.22.12-.05.19-.06.24-.04.13.06.19.27.19.63,0,.38-.06.71-.13.98.07-.12.14-.22.2-.3.1-.15.16-.22.23-.21.16.02.26.47.28.8.02.37-.06.64-.07.68Z"/>
  <path class="st18" d="M100.46,60.44c-.97.51-1.87,1.03-2.7,1.54h0c-.1,0-.21,0-.32,0-.3,0-.57,0-.83.02-1.19.04-2.26.18-5.47.61-1.71.23-4.04.54-7.32.97,1.3-.57,2.82-1.09,4.56-1.47.97-.21,1.84-.33,2.55-.4.39-.04.73-.07,1.01-.08l1-.09c.62-.14,1.53-.33,2.63-.51.23-.04.51-.08.86-.14h0c.98-.15,2.39-.34,4.04-.46Z"/>
  <path class="st24" d="M90.26,58.86c-1.3.31-3.03-.03-3.61-.88-.46-.67-.69-1.9-.02-2.5.31-.28.72-.33,1.02-.32.37.73.81,1.39,1.21,1.85.1.11.48.44,1.2,1.04.06.27.12.54.19.8Z"/>
  <path class="st10" d="M106.37,24.61c-.99,1.41-2.28,3.22-3.99,5.63-5.82,8.17-6.63,9.26-8.14,11.03-1.77,2.08-3.45,3.84-4.91,5.3-.25.52-.51.94-.74,1.29-.26.39-.48.67-.65,1.16-.16.46-.21.92-.19,1.37-.18.14-.33.31-.46.49-.77,1.13-.35,2.85.37,4.28-.3,0-.71.04-1.02.32-.68.6-.44,1.83.02,2.5.58.85,2.31,1.19,3.61.88.05.21.09.41.14.62.17.75.35,1.5.53,2.25-.7.07-1.57.2-2.55.4-1.74.37-3.26.9-4.56,1.47-.43.06-.87.11-1.32.17-2.94.38-5.13.66-7.12.86-1.72.17-3.29.29-5.09.38-.08,0-.15,0-.22.01h0c-.57-.57-1.27-1.29-2.05-1.99.61-2.15,1.16-4.11,1.63-5.85,1.15-4.24,1.26-4.92,1.05-5.96-.37-1.76-1.23-2.38-2.3-5.54-.17-.51-.32-.98-.43-1.4-6.61-3.52-11.73-7.15-15.4-10.05-1.49-1.18-2.78-2.27-3.91-3.29,1.36-.67,3.14-1.84,4.49-3.86.3-.45.55-.9.75-1.33,3.75,3.11,8.13,5.96,13.39,7.92.4.15.91.33,1.53.54.95.31,2.14.66,3.53.99l.24.12c.75.26,1.48.39,2.13.4.21,1.88,1.28,3.46,2.73,4,2.19.81,5.32-.73,6.21-3.92.61.07,1.38.12,2.17.07,2.98-.21,7.03-5.39,8.71-7.5,5.13-6.43,6.22-6.87,8.62-9.87.26,1.03.71,2.33,1.51,3.73.55.96,1.15,1.76,1.73,2.42Z"/>
  <path class="st22" d="M105.89,69.46c-1.42,1.82-2.85,2.71-3.86,3.18-.58.27-1.37.52-2.96,1.01-2.69.84-2.7.67-4.29,1.22-2.74.94-2.77,1.45-4.39,1.6-1.01.09-2.27.02-3.17-.04-.5-.03-.94-.07-1.32-.1-.2-.23-.41-.45-.62-.67,1.23.04,3.58.11,4.98.04.21,0,.56-.03,1.01-.14.94-.23,1.54-.65,1.95-.91.48-.29,1.32-.54,3-1.04,2.16-.65,2.2-.47,3.66-.98.92-.32,1.84-.64,2.93-1.32,1.31-.82,2.04-1.65,2.26-1.92.14-.17.27-.32.37-.47.11.12.23.23.34.35.04.06.08.12.11.19Z"/>
  <path class="st5" d="M106.71,70.71c-.29.4-.63.82-1.05,1.23-.4.41-1.59,1.52-3.48,2.3-1.66.68-2.19.42-4.04.91-2.37.63-3.12,1.5-4.67,2.16-1.4.6-3.46,1.04-6.49.43-.26-.44-.64-.93-1.07-1.41.38.04.82.08,1.32.1.9.05,2.16.13,3.17.04,1.62-.15,1.65-.66,4.39-1.6,1.59-.55,1.6-.38,4.29-1.22,1.59-.49,2.39-.74,2.96-1.01,1.01-.47,2.44-1.36,3.86-3.18.27.44.55.86.82,1.25Z"/>
  <path class="st10" d="M108.44,73.02c-.78,1.11-1.88,2.27-3.41,3.11-1.88,1.04-2.69.64-6.06,1.74-3.83,1.25-4.13,2.21-6.41,2.58-1.28.21-3.07.21-5.37-.65.11-.38.16-.75.11-1.2-.02-.25-.14-.54-.32-.86,3.03.61,5.1.16,6.49-.43,1.55-.67,2.3-1.53,4.67-2.16,1.85-.49,2.38-.22,4.04-.91,1.9-.78,3.08-1.89,3.48-2.3.42-.42.77-.84,1.05-1.23.6.87,1.18,1.64,1.73,2.31Z"/>
  <path class="st16" d="M97.02,67.52c-.08.08-.17.17-.26.26l-.13.13c-.47.48-1.05,1.08-1.61,1.7-.61.69-.77.92-.91,1.16-.26.47-.29.71-.6,1.08-.33.39-.84.75-1.01.63-.06-.04-.08-.15.02-.62.05-.23.13-.5.23-.81-.54.88-1.05,1.4-1.42,1.7-.46.39-.59.36-.64.32-.14-.09,0-.53.13-.9.06-.18.12-.34.18-.49-.42.54-.83.9-1.15,1.15-.21.17-.79.62-.99.47-.15-.12.01-.57.14-.91.05-.14.12-.31.2-.48-.05.05-.11.09-.17.14-.05.04-.66.48-.84.34-.26-.21.53-1.65.98-2.46.14-.26.28-.51.42-.74,2.14-.55,3.69-.98,5.6-1.35.46-.09.96-.18,1.49-.27.11-.02.21-.04.32-.05Z"/>
  <path class="st18" d="M113.82,85.12c-.25.98-.63,1.78-1,2.39-.03.05-.06.1-.09.15,0,0,0,0,0,0-3.49,2.93-9.77,7.13-17.94,7.28-.93.02-1.83-.02-2.69-.1-.06,0-.12-.01-.17-.02-.42-.41-1.02-.87-1.81-1.17-.49-.19-.89-.26-1.25-.29-.81-.06-1.38.12-2.09-.23-1.87-.94-1.96-4.26-1.99-5.02-.05-1.92.5-3.49,1.05-5.02.59-1.67,1.12-2.5,1.35-3.3,2.3.86,4.09.86,5.37.65,2.28-.37,2.58-1.32,6.41-2.58,3.38-1.1,4.18-.71,6.06-1.74,1.52-.84,2.62-2,3.41-3.11.37.45.73.86,1.06,1.23,1.64,1.81,3.1,3.01,3.93,4.97h0c.15.36.28.75.39,1.17.6,2.35.09,4.4,0,4.74Z"/>
  <path class="st13" d="M90.94,97.15c-1.57,3.26-2.72,6.34-3.63,9.36-4.37-2.23-7.07-4.28-8.48-6.81-1.79-3.22-1.84-6.75-1.95-13.8-.03-2.18.05-4.21.21-6.07.8-.48,1.59-1.02,2.36-1.62,1.69-1.31,3.06-2.73,4.17-4.13.4.36,1.03.94,1.66,1.58.21.22.42.44.62.67.43.48.81.97,1.07,1.41.18.31.3.6.32.85.05.45,0,.82-.11,1.2-.23.8-.76,1.63-1.35,3.3-.54,1.53-1.1,3.1-1.04,5.02.02.76.12,4.07,1.99,5.02.71.36,1.28.18,2.09.23v2.64c.36.15.74.33,1.11.54.35.19.67.4.96.6Z"/>
  <path class="st5" d="M56.58,83.27c-.15.24-.37.49-.7.66-.57.3-1.3.26-1.79-.05-.24-.15-.43-.36-.57-.62-.67-1.2-.4-3.4.01-4.77.08-.27.17-.51.25-.71.02-.04.03-.08.05-.12.36-.12.77-.26,1.21-.41-.18.43-.33.94-.38,1.52-.16,2.02,1.03,3.59,1.82,4.4.01.01.03.03.04.04.02.02.03.03.05.05Z"/>
  <path class="st24" d="M53.53,78.5c-.42,1.37-.68,3.57-.01,4.77-.82,0-1.69-.03-2.54-.08-1.92-.11-.61-.18-2.88-.44-.07,0-1.34-.15-2.08-.78-.1-.09-.39-.32-.33-.5.04-.1.18-.14.29-.16.08-.02.15-.03.23-.03-.31-.13-.61-.29-.89-.51-.39-.31-.41-.45-.39-.52.04-.14.28-.18.41-.2.08-.01.21-.03.37-.01-.23-.1-.47-.22-.72-.35-.27-.15-.59-.34-.64-.66-.03-.15,0-.38.14-.51.07-.06.23-.16,1.12.09.16.05.31.09.45.14-.24-.16-.47-.34-.57-.64-.02-.05-.12-.36.02-.5.15-.16.5-.05.7.02,1.11.36,1.87.67,2.38.83.83.24,1.74.3,1.81.09.07-.2-.75-.43-1.14-1.28-.23-.51-.29-1.21-.02-1.37.23-.14.72.2,1.7.88.61.43.68.53.91.67.33.21.82.39,1.55.37.13,0,.27-.01.42-.03-.08.2-.17.44-.25.71Z"/>
  <path class="st14" d="M78.03,73.22h0c-.02.11-.04.23-.07.34-.86.25-1.68.44-2.46.58-2.85.53-5.19.47-6.77.32-1.46-.14-2.98-.3-4.3-.77-.76-.27-1.45-.64-2.02-1.17-.55.91-.89,1.74-1.12,2.44-1.95.76-3.6,1.36-4.83,1.8-.5.18-.98.35-1.41.5-.44.15-.85.29-1.21.41-.17.06-.33.11-.47.16-.73.02-1.22-.16-1.55-.37-.22-.14-.29-.24-.91-.67-.97-.69-1.46-1.03-1.7-.88-.26.16-.21.86.02,1.37.38.84,1.21,1.08,1.14,1.28-.07.2-.99.15-1.81-.09-.51-.15-1.27-.46-2.38-.83-.2-.06-.55-.17-.7-.02-.14.15-.04.45-.02.5.1.3.33.48.57.64-.14-.05-.29-.1-.45-.14-.89-.26-1.06-.15-1.12-.09-.15.13-.17.35-.14.51.06.32.37.51.64.66.25.14.49.25.72.35-.16-.01-.29,0-.37.01-.13.02-.37.06-.41.2-.02.07,0,.22.39.52.28.22.57.38.89.51-.07,0-.15.01-.23.03-.11.03-.25.06-.29.16-.06.17.23.41.33.5.75.62,2.01.77,2.08.78,2.27.26.96.33,2.88.44.85.05,1.72.07,2.54.08.14.26.33.47.57.62.49.3,1.22.34,1.79.05.33-.17.55-.43.7-.66.01-.02.02-.04.03-.05.03,0,.07,0,.1,0,1.19.19,2.78.37,4.62.42.01.1.02.2.04.3.31,2.57.52,3.36.52,5.23,0,1.04-.07,1.98-.16,2.78-.46.17-.97.33-1.52.45-1,.22-2.13.31-3.34.11-1.59-.26-2.06-.8-3.66-1.05-2.65-.41-3.44.76-6.17,1.05-3.28.34-7.33-.81-9.62-3.66-.08-.1-.16-.21-.24-.31-.19-.27-.36-.54-.51-.8,1.86-8.3,3.82-14.47,5.07-17.25.14-.31.32-.71.56-1.18,0-.02.02-.03.03-.05-1.47.54-3.15,1.02-5.01,1.29-1.69.25-3.52.33-5.47.13-.58-.06-1.13-.14-1.67-.23-.08-.41-.16-.89-.2-1.42-.1-1.09-.08-2.39.2-3.83.38-1.92,1.1-3.42,1.72-4.44.03-.06.07-.11.1-.16,3.09-.43,5.7-.61,7.66-.69,1.39-.06,2.59-.11,3.67-.13.71.51,1.47,1.07,2.28,1.67,6.01,4.43,6.15,4.84,7.71,5.44,4.96,1.9,11.16.69,13.31-1.73.25-.29.45-.59.58-.91.07-.16.33-.85.14-1.63-.01-.05-.03-.1-.04-.14.24.19.47.39.69.59.79.7,1.48,1.41,2.05,1.99h0c.07,0,.15,0,.22-.01,1.8-.09,3.37-.21,5.09-.38.44.52.87,1.14,1.26,1.86.04.07.08.14.11.21.05.09.09.18.13.26.03.07.07.14.1.21,0,0,0,0,0,.01.03.07.07.14.1.21,0,0,0,.01,0,.02.06.15.12.3.18.44.02.06.04.11.06.17.02.05.04.1.05.15.08.22.14.43.2.65.01.05.03.09.04.14.07.25.13.49.17.73.01.07.03.14.04.21,0,0,0,.02,0,.02.01.07.03.14.04.21.03.18.06.36.08.54,0,.04,0,.08.01.12.02.15.03.29.04.43,0,.06,0,.13.01.19,0,.02,0,.03,0,.05,0,.08,0,.16.01.24.02.55.01,1.06-.02,1.52Z"/>
  <path class="st13" d="M74.72,81.09c-.11.83-.22,1.7-.35,2.58-1.14,8.02-1.93,13.62-4.04,20.63-1.58,5.26-3.3,9.31-5.34,17.69h0c-1.06.74-2.05,1.31-2.92,1.67,0-.07.02-.14.03-.22.33-2.59.73-5.71.42-9.9-.42-5.65-1.76-8.29-2.23-14.64-.19-2.6-.16-4.84-.08-6.52.55-.12,1.06-.28,1.52-.45.09-.8.16-1.74.16-2.78,0-1.86-.21-2.65-.52-5.23-.01-.1-.02-.2-.04-.3,3.79.1,8.66-.36,13.39-2.54Z"/>
  <path class="st13" d="M106.57,112.97c-.37.34-.75.62-1.1.85-.16.11-.32.2-.47.28-.47-.19-.97-.39-1.5-.6-1.22-.49-2.39-.97-3.52-1.43.45-1.4.98-2.9,1.61-4.47,0-.01.01-.03.02-.05.28-.71.57-1.39.86-2.04,1,1.67,2.17,3.72,3.39,6.08.03.05.06.11.09.16.21.41.42.81.62,1.21Z"/>
  <path class="st2" d="M50.46,18.95c-.53.55-1.06,1.09-1.6,1.64-.06-.03-.11-.06-.17-.09-.3-.16-.61-.31-.91-.47-.41-.21-.82-.43-1.24-.65-1.13-.6-2.24-1.2-3.33-1.8-.08-.04-.15-.09-.23-.13.41-.41.83-.83,1.24-1.24.46-.45.91-.91,1.36-1.36.12.08.24.16.37.25.55.38,1.12.79,1.7,1.26.92.74,1.72,1.48,2.42,2.19.13.13.26.27.38.4Z"/>
  <path class="st7" d="M42.98,17.44c.08.04.16.09.23.13-.98.92-1.97,1.87-2.96,2.87-.46-.91-.84-1.75-1.14-2.47,0,0,0,0,0,0-.32-.56-.42-.97-.42-1.27,0-.06,0-.19-.01-.38-.01-.21-.06-.85-.29-1.42-.26-.63-.48-.5-.89-1.32-.16-.32-.29-.68-.2-1.07,0-.03.09-.35.21-.35.14,0,.17.39.43.84.3.51.73.8.77.77.05-.04-.5-.57-.91-1.53-.13-.31-.28-.74-.22-1.25.02-.21.1-.58.22-.59.12,0,.21.36.37.73.12.28.31.63.62,1.01-.18-.44-.28-.82-.35-1.11-.12-.54-.16-1.06.05-1.58.03-.09.18-.46.33-.44.16.02.18.52.39,1.21.08.27.18.51.27.71-.05-.34-.08-.63-.1-.87-.03-.35-.05-.86.26-1.32.1-.15.21-.32.32-.3.29.04.31,1.13.56,2.44.08.4.16.77.26,1.13,0-.03,0-.05,0-.08.02-.21.08-.67.36-1.12.02-.04.24-.26.34-.22.06.03.15.23.14.35,0,0-.11.64.24,1.67.05.14.04.53.2.79l.17.6c.34.4,1.01,1.17,1.87,2.11.04.04.08.09.12.13-.41.41-.83.83-1.24,1.24Z"/>
  <path class="st12" d="M40.56,15.33s-.07-.02-.08-.06c-.2-.54-.24-1.03-.11-1.46.05-.16.11-.27.17-.37.07-.12.13-.24.18-.45.05-.22.03-.34,0-.48-.02-.13-.04-.28-.03-.53,0-.05.04-.08.09-.08.05,0,.09.04.09.09h0c-.02.24,0,.38.02.5.02.15.04.29,0,.54-.05.24-.13.38-.2.51-.06.1-.11.19-.15.34-.12.39-.09.84.1,1.35.02.05,0,.1-.05.12-.01,0-.02,0-.03,0Z"/>
  <path class="st5" d="M45.41,35.95c-.15.18-.3.17-.57.31-.1.05-.23.13-.37.24-.51.4-.51.6-.91.91-.76.59-1.28.24-1.6.7-.39.53.21,1.17-.1,1.88-.17.39-.53.63-.91.78-.69-1.24-2.02-1.61-2.77-1.17-.68.4-.92,1.5-.56,2.28.27.58.89.98,1.61,1.07-.16.36-.47.85-1.03,1.22-.23.15-.88.57-1.74.45-.41-.05-.85-.22-1.2-.48-.32-.23-.56-.53-.65-.88-.15-.59.25-1.1-.07-1.36-.2-.16-.46-.07-.77-.31-.18-.15-.26-.32-.35-.52-.11-.25-.46-1.07-.1-1.67.26-.44.67-.4.73-.77.02-.16-.04-.2-.28-.84-.14-.39-.22-.58-.21-.7.02-.41.39-.85.87-.98.2-.05.38-.04.53-.01.09-.14.21-.29.37-.44.51-.46.87-.35,1.11-.7.34-.48-.22-.94.14-1.5.31-.48.85-.64,1.25-.77.38-.11.69-.13.94-.14,1.04-.04,1.4.27,1.95,0,.26-.13.19-.21.49-.38.35-.2.89-.36,1.36-.28.23.04.44.14.59.31.19.22.28.52.26.84.35-.06.79-.06,1.2.17,1.05.56,1.25,2.13.77,2.72Z"/>
  <path class="st19" d="M48.69,20.49c-.06.09-.12.18-.19.27-1.3,1.93-2.55,4.03-3.72,6.33-.77,1.52-1.51,3.12-2.2,4.81-.47-.08-1.01.07-1.36.28-.3.17-.22.25-.49.38-.55.27-.91-.04-1.95,0-.25.01-.56.02-.94.14-.41.12-.94.28-1.25.77-.36.55.2,1.02-.14,1.5-.24.35-.6.24-1.11.7-.16.15-.28.3-.37.44-.15-.03-.34-.04-.53.01-.48.13-.85.56-.87.98,0,.11.07.31.21.7.23.64.3.68.28.84-.06.37-.47.32-.73.77-.36.61,0,1.42.1,1.67.08.2.16.37.35.52.3.24.57.15.77.31.32.26-.08.77.07,1.36.09.35.33.65.65.88-.17.17-.35.34-.54.51-.28.25-.56.47-.84.68-.12-.15-.22-.28-.31-.4l-1.36.87c.06.14.14.3.22.46-.36.2-.71.37-1.06.52.58-1.54.89-2.33,1.62-3,.18-.16.76-.67.66-.84-.02-.03-.07-.07-.36-.02-.8.13-1.41.6-1.58.73-.41.33-.5.5-.58.47-.25-.12.17-1.9.33-2.49.02-.08.13-.5.03-1-.04-.21-.14-.57-.27-.57-.11,0-.17.28-.32.71-.09.24-.18.46-.27.64.01-.04.15-.49.2-1.1.02-.28.07-.79-.06-.83-.11-.03-.32.33-.62.88-.09.16-.16.3-.23.44.03-.09.13-.39.11-.78,0-.19-.02-.53-.14-.56-.05-.01-.22,0-1.13,1.92-.11.23-.21.44-.29.63.02-.11.02-.22.03-.34,0-.28,0-.66-.12-.7-.29-.09-1.25,1.94-1.84,3.74-.42,1.29-.63,2.45-.75,3.36h0c-.22.52-.4.99-.55,1.42-1.98,5.58-1.48,10.07-1.12,13.1.37,3.07.98,4.32,1.95,5.16,1.17,1.01,2.62,1.22,3.91,1.25.05.53.12,1,.2,1.42.54.1,1.09.18,1.67.23,1.94.2,3.78.12,5.47-.13-.51,1.15-1.23,2.48-2.26,3.85-1.1,1.46-2.25,2.56-3.21,3.35l-.38.45s0,0,0,0c-1.18.41-2.27.66-3.25.79-2.12.29-3.76.07-4.72-.13-1.13-.23-2.19-.6-3.19-1.04-1.29-.57-2.49-1.26-3.64-1.92-1.14-.65-2.05-1.26-2.68-1.71l-.38-.21c-.05-.1-.09-.21-.14-.32-.29-.68-.59-1.61-.69-2.74-.31-3.41,1.51-5.78,2.93-8.78.96-2.03,2.07-5.06,2.51-9.2l.84-2.09c1.56-3.36,3.4-6.87,5.58-10.45,4.84-7.96,10.28-14.55,15.64-19.93.99-1,1.98-1.95,2.96-2.87,1.09.6,2.2,1.2,3.33,1.8.41.22.83.44,1.24.65.31.16.61.31.91.47Z"/>
  <path class="st7" d="M53.87,25.73c-.2.43-.45.88-.75,1.33-1.34,2.02-3.12,3.19-4.49,3.86-1.57-1.41-2.82-2.68-3.84-3.83,1.17-2.3,2.42-4.4,3.72-6.33,1.64,1.67,3.42,3.35,5.36,4.97Z"/>
  <path class="st12" d="M39.78,12.43s-.08-.03-.09-.07c-.13-.49-.23-.97-.3-1.44,0-.05.03-.09.08-.1.05,0,.09.03.1.08.07.46.17.94.29,1.42.01.05-.02.1-.06.11,0,0-.02,0-.02,0Z"/>
  <path class="st12" d="M39.24,13.15s-.06-.02-.08-.04c-.18-.3-.33-.62-.46-.94-.02-.05,0-.1.05-.12.05-.02.1,0,.12.05.13.31.28.62.45.92.02.04.01.1-.03.12-.01,0-.03.01-.05.01Z"/>
  <path class="st12" d="M112.84,8.2h0s-.09-.04-.09-.09c0-.38-.01-.76-.05-1.13-.05-.55-.12-.85-.18-1.15-.05-.22-.1-.44-.14-.77,0-.05.03-.09.08-.1.05,0,.09.03.1.08.04.31.09.53.14.75.07.3.14.61.19,1.17.03.38.05.76.05,1.15,0,.05-.04.09-.09.09Z"/>
  <path class="st12" d="M113.82,4.69s-.01,0-.02,0c-.05,0-.08-.06-.07-.11.31-1.54.56-2.52.76-3.11.02-.05.07-.07.11-.06.05.02.07.07.06.11-.2.57-.45,1.58-.75,3.09,0,.04-.05.07-.09.07Z"/>
  <path class="st12" d="M114.62,5.25s-.01,0-.02,0c-.05-.01-.08-.06-.07-.11.34-1.51.65-2.58.96-3.26.02-.05.09-.19.13-.39,0-.04.04-.07.09-.07.05,0,.09.04.09.09,0,0,0,.01,0,.02-.05.22-.12.38-.15.43-.31.67-.62,1.72-.95,3.22,0,.04-.05.07-.09.07Z"/>
  <path class="st12" d="M115.59,5.34s-.01,0-.02,0c-.05-.01-.08-.06-.06-.11.17-.65.36-1.27.58-1.86v-.02c.04-.1.11-.28.17-.51.01-.05.06-.08.11-.06.05.01.08.06.06.11-.06.24-.13.42-.17.52v.02c-.22.58-.41,1.2-.58,1.84-.01.04-.05.07-.09.07Z"/>
  <path class="st12" d="M81.3,27.69s-.05-.01-.07-.03c-.03-.04-.03-.09,0-.13.09-.08.16-.17.21-.27.07-.15.15-.39.07-.48-.03-.03-.11-.04-.38-.02-.23.01-.46.03-.68.05-.05,0-.09-.03-.1-.08,0-.05.03-.09.08-.1.23-.02.46-.04.69-.05.32-.02.44-.01.52.08.18.2.02.57-.04.68-.06.12-.14.23-.25.32-.02.02-.04.02-.06.02Z"/>
  <path class="st12" d="M78.47,26.9s-.02,0-.03,0c-.05-.02-.07-.07-.05-.11.02-.06.15-.38.49-.49.17-.05.34-.04.52.04.11.05.21.12.3.21.03.04.03.09,0,.13-.04.03-.09.03-.13,0-.07-.07-.15-.13-.24-.16-.14-.06-.28-.07-.4-.03-.25.08-.35.33-.37.37-.01.04-.05.06-.08.06Z"/>
  <path class="st12" d="M82.14,26.82s-.07-.02-.08-.06c-.06-.16-.2-.27-.33-.26-.09,0-.16.07-.19.1-.03.04-.09.04-.13,0-.04-.03-.04-.09,0-.13.05-.06.15-.15.31-.17.22-.02.43.13.52.37.02.05,0,.1-.05.12-.01,0-.02,0-.03,0Z"/>
  <path class="st5" d="M78.35,26.07s-.04,0-.06-.02c-.04-.03-.04-.09,0-.13.05-.06.23-.25.53-.27.32-.02.53.16.59.22.04.03.04.09,0,.13-.03.04-.09.04-.13,0-.05-.04-.21-.18-.45-.17-.23.02-.37.16-.41.2-.02.02-.04.03-.07.03Z"/>
  <path class="st5" d="M81.26,26.26s-.05-.01-.07-.03c-.03-.04-.02-.1.01-.13.11-.09.42-.29.79-.24.09.01.18.04.27.09.04.02.06.08.04.12-.02.04-.08.06-.12.04-.07-.04-.14-.06-.22-.07-.31-.05-.56.12-.65.2-.02.01-.04.02-.06.02Z"/>
  <path class="st5" d="M81.93,29.11c-.75.39-1.7.08-2.1-.53-.15-.23-.2-.47-.22-.66.21,0,.43-.02.66-.04.92-.07,1.77-.2,2.53-.37.04.67-.3,1.31-.87,1.6Z"/>
  <path class="st12" d="M80.09,31.43c-1.04,0-1.78-.58-1.99-.76-.04-.03-.04-.09,0-.13.03-.04.09-.04.13,0,.21.19.98.79,2.06.71.83-.06,1.4-.48,1.67-.73.04-.03.09-.03.13,0,.03.04.03.09,0,.13-.29.26-.9.71-1.78.77-.07,0-.14,0-.21,0Z"/>
  <path class="st17" d="M78.55,46.27c-.1,0-.18-.08-.18-.17-.03-1.02,0-2.06.07-3.08.05-.75.14-1.5.25-2.24.01-.1.11-.17.2-.15.1.01.17.11.15.2-.11.73-.19,1.48-.24,2.22-.07,1.01-.1,2.04-.07,3.05,0,.1-.08.18-.17.18,0,0,0,0,0,0Z"/>
  <path class="st17" d="M83.94,50.57c-.19,0-.37,0-.56-.01-1.45-.07-2.24-.39-2.93-.67-.61-.25-1.13-.46-2.01-.45-.86.01-1.38.23-1.97.48-.65.28-1.4.59-2.73.63-.77.02-1.54-.05-2.31-.21-.1-.02-.16-.12-.14-.21.02-.1.12-.16.21-.14.74.16,1.48.23,2.22.21,1.27-.04,1.94-.33,2.6-.61.6-.26,1.17-.5,2.11-.51.94-.01,1.52.22,2.14.47.67.27,1.43.57,2.81.64.63.03,1.26,0,1.89-.07.1-.01.19.06.2.16.01.1-.06.19-.16.2-.46.06-.93.08-1.39.08Z"/>
  <path class="st3" d="M44.57,38.64c.03.23-.06.43-.21.45-.15.02-.3-.15-.33-.37-.03-.23.06-.43.21-.45.15-.02.3.15.33.37Z"/>
  <path class="st3" d="M46.21,37.85c.03.23-.06.43-.21.45-.15.02-.3-.15-.33-.37-.03-.23.06-.43.21-.45.15-.02.3.15.33.37Z"/>
  <path class="st7" d="M42.62,37.57s-.04,0-.06-.02c-.04-.03-.04-.09-.01-.13.1-.12.21-.22.34-.3.48-.31,1.01-.25,1.28-.19.05.01.08.06.07.11-.01.05-.06.08-.11.07-.24-.06-.71-.11-1.14.16-.11.07-.21.16-.3.27-.02.02-.04.03-.07.03Z"/>
  <path class="st3" d="M46.18,42.22c-.36.14-.72.12-.83.1-.16-.03-.76-.14-.98-.64-.11-.25-.15-.65.07-.84.14-.13.34-.12.43-.12.43.01.58.25.9.2.15-.02.16-.06.41-.18.05-.02.11-.04.17-.06.02.49-.02,1.01-.18,1.54Z"/>
  <path class="st13" d="M111.46,40.23c-.24.03-.47-.02-.66-.1-.06-.57.08-1.12.27-1.64.1.16.16.3.33.4.13.07.17.04.44.11.16.04.33.11.43.32.16.32-.22.83-.82.9Z"/>
  <path class="st7" d="M63.52,55.1v-.1c0-.24.07-.6.3-.96.31-.47.75-.66.98-.74l.08-.02.03.07c.11.24.14.48.09.7h0c-.11.55-.68.97-1.38,1.04h-.1ZM64.78,53.5c-.22.08-.56.26-.81.64-.18.28-.24.55-.26.76.58-.09,1.03-.44,1.12-.88.04-.2,0-.38-.05-.52Z"/>
  <path class="st13" d="M64.8,54.09c0,.18-.09.32-.2.32s-.2-.14-.2-.32.09-.32.2-.32.2.14.2.32Z"/>
  <path class="st7" d="M63.29,54.2s-.01,0-.02,0c-.05,0-.08-.06-.07-.11.06-.3.21-.74.58-1.13.23-.24.5-.43.81-.56.05-.02.1,0,.12.05.02.05,0,.1-.05.12-.29.12-.54.29-.74.52-.34.37-.48.77-.54,1.05,0,.04-.05.07-.09.07Z"/>
  <path class="st12" d="M113.45,37.88s-.09-.04-.09-.09c-.02-.59-.33-.97-.61-.99-.06,0-.2,0-.36.14-.04.03-.09.03-.13-.01-.03-.04-.03-.09.01-.13.16-.13.33-.19.49-.18.42.03.75.53.77,1.16,0,.05-.04.09-.09.09,0,0,0,0,0,0Z"/>
  <path class="st22" d="M87.19,146.78s-.06.1-.09.15c-.26.44-.53,1.04-.69,1.86-.04.2-.07.41-.1.63-.4,0-.79,0-1.17,0-3.16-.02-5.74,0-7.59,0-3.26.03-5.63.07-5.74-.51-.02-.1.02-.2.11-.3.28-.34,1.02-.72,1.56-1,2.12-1.09,3.28-.76,4.94-1.78.17-.1.33-.21.48-.32.2-.59.49-.94.67-1.11.06-.06.11-.1.16-.14.11-.09.2-.11.28-.12.46-.03.82.66.85.73.29.57.07.88.31,1.2.3.41,1,.39,1.42.36,2.43-.13,4.13-.53,4.7-.39.1.02.16.06.19.12.07.14-.09.32-.29.64Z"/>
  <path class="st24" d="M128.06,144.58c-3.46,2.05-4.69,2.11-5.16,1.73-.14-.11-.57-.56-1.2-.58-.17,0-.33.02-.46.06.07-.22.13-.48.15-.79,1.23-.19,2.78-.6,4.4-1.5.46-.26.88-.53,1.26-.81.35.65.61,1.14.77,1.44.09.16.17.31.24.45Z"/>
  <path class="st22" d="M128.81,146.32c0,.07,0,.13-.02.18-.23.83-1.33.84-4.56,2.08-2.04.79-2.03.95-3.01,1.16-2.16.48-4.61.22-4.75-.44,0-.01,0-.02,0-.03-.05-.54,1.35-1.3,1.85-1.57,1.32-.72,1.96-.57,2.52-1.21.15-.17.3-.39.4-.71.13-.04.29-.07.46-.06.62.02,1.06.47,1.2.58.46.38,1.7.31,5.16-1.73.46.86.72,1.4.74,1.74Z"/>
  <path class="st21" d="M116.6,141.85c-.43.38-1.08.13-2.11,0-.75-.1-.68,0-3.2.07-3.72.11-5.57.17-5.67-.22-.02-.07,0-.14.07-.22.34-.42,1.84-1.06,4.07-2.69.52-.38.97-.74,1.36-1.05h0s.05-.05.08-.07c.23.08.51.19.81.35.75.39,1.19.83,1.36.97.5.43,1.46.8,3.51.54,0,.2,0,.4,0,.58,0,.08,0,.17.01.25.03.62.06,1.17-.3,1.49Z"/>
  <path class="st21" d="M141.45,138.58c-.91.36-2.47,1.03-3.77,1.46-3.08,1.04-6.19,2.07-6.47,1.53-.03-.06-.02-.13.02-.2.27-.53,2.03-1.56,2.96-3.87.37-.92.5-1.75.54-2.33l-.03-.05c.16-.07.33-.11.52-.09.76.07.9,1.01,1.84,1.45.59.27,1.15.2,1.86.1.76-.11,1.38-.36,1.87-.63.03.08.05.16.07.24.06.22.12.44.18.65.16.61.29,1.19.39,1.74Z"/>
  <path class="st0" d="M117.13,137.47h0c-.17.79-.23,1.48-.24,2.06-2.05.27-3.01-.1-3.51-.54-.16-.14-.61-.58-1.36-.97-.3-.16-.58-.27-.81-.35-.02,0-.04-.01-.06-.02.09-.44.18-.9.26-1.36.24-1.32.45-2.72.62-4.18.23-2,.36-3.9.42-5.69,1.07,2.66,2.4,5.85,4.02,9.53.22.5.44,1,.67,1.52Z"/>
  <path class="st13" d="M25.61,143.16c-.08.59-2.06.79-3.89.91-2.34.15-5.67.22-9.83-.13.29-1.29.62-2.92.95-4.4.09.01.18.03.26.06.74.25.81.97,1.35,1.49.97.94,2.95.72,4.22.07.63-.32,1.09-.75,1.42-1.15.08-.1.16-.2.23-.3.41.27.9.57,1.44.9,2.71,1.65,3.92,2.07,3.85,2.55Z"/>
  <path class="st17" d="M69.12,46.83c-.08,0-.15-.05-.17-.13-.35-1.16-.34-2.16.04-2.95.13-.26.27-.46.41-.65.18-.24.36-.49.53-.89.23-.55.35-1.15.33-1.79,0-.1.08-.18.18-.18.1,0,.18.08.18.18.01.69-.11,1.35-.36,1.94-.19.44-.39.72-.57.96-.14.19-.27.36-.38.6-.34.71-.35,1.61-.02,2.69.03.09-.02.19-.12.22-.02,0-.03,0-.05,0Z"/>
  <path class="st17" d="M88.73,46.83s-.03,0-.04,0c-.1-.02-.16-.12-.14-.21.11-.51.09-.97-.08-1.37-.12-.3-.28-.47-.45-.65-.11-.12-.23-.25-.34-.42-.4-.64-.38-1.56.07-2.73.04-.09.14-.14.23-.1.09.04.14.14.1.23-.4,1.06-.44,1.87-.1,2.42.09.14.19.25.3.36.18.19.37.4.52.76.19.47.22,1,.09,1.58-.02.08-.09.14-.18.14Z"/>
  <path class="st17" d="M77.97,41c-1.26,0-2.45-.48-3.26-1.38-.93-1.03-1.06-2.26-1.06-2.91,0-.1.08-.18.18-.18h0c.1,0,.18.08.18.18,0,.59.12,1.73.97,2.67,1.05,1.16,2.8,1.56,4.47,1.03.09-.03.2.02.23.12.03.09-.02.2-.12.23-.53.17-1.06.25-1.58.25Z"/>
  <path class="st17" d="M53.53,31.09c-.05,0-.1-.02-.14-.07-.06-.08-.05-.19.03-.25.5-.4.91-.88,1.22-1.43.21-.36.37-.74.49-1.14.03-.1.13-.15.22-.12.1.03.15.13.12.22-.13.43-.3.84-.52,1.22-.34.58-.78,1.1-1.31,1.53-.03.03-.07.04-.11.04Z"/>
  <path class="st17" d="M103.02,26.07s-.08-.01-.11-.04c-.47-.36-.88-.77-1.24-1.24-.42-.55-.75-1.16-.98-1.82-.03-.09.02-.2.11-.23.09-.03.2.02.23.11.22.62.53,1.2.92,1.72.33.44.73.83,1.17,1.17.08.06.09.17.03.25-.04.05-.09.07-.14.07Z"/>
  <path class="st17" d="M71.02,58.64c-.06,0-.12-.03-.15-.08-.05-.08-.03-.19.05-.25,1.01-.67,1.99-1.42,2.89-2.23.99-.89,1.92-1.86,2.77-2.89.06-.08.18-.09.25-.03.08.06.09.18.03.25-.85,1.05-1.8,2.03-2.81,2.93-.92.82-1.91,1.58-2.93,2.26-.03.02-.06.03-.1.03Z"/>
  <path class="st17" d="M77.25,61.71s-.08-.01-.12-.04c-.07-.06-.08-.18-.02-.25.85-.98,1.55-2.06,2.09-3.22.33-.71.61-1.46.81-2.22.03-.1.12-.15.22-.13.1.03.15.12.13.22-.21.78-.49,1.55-.83,2.28-.56,1.19-1.28,2.3-2.15,3.3-.04.04-.09.06-.14.06Z"/>
  <path class="st12" d="M38.96,15.62s-.04,0-.06-.02c-.04-.03-.04-.09-.01-.13.16-.19.36-.32.58-.39.09-.03.17-.04.27-.05.05,0,.09.03.1.08,0,.05-.03.09-.08.1-.08,0-.15.02-.23.04-.24.07-.4.22-.5.34-.02.02-.04.03-.07.03Z"/>
  <path class="st12" d="M48.53,30.15s-.04,0-.06-.02c-.9-.76-1.77-1.59-2.56-2.46-.22-.24-.44-.49-.66-.74-.03-.04-.03-.09,0-.13.04-.03.09-.03.13,0,.21.25.43.5.65.74.79.86,1.65,1.68,2.55,2.44.04.03.04.09.01.13-.02.02-.04.03-.07.03Z"/>
  <path class="st12" d="M112.96,10.71s-.01,0-.02,0c-.56,0-.94-.34-1.08-.48-.03-.04-.03-.09,0-.13.04-.03.09-.03.13,0,.12.13.46.42.95.43,0,0,0,0,.01,0,.5,0,.96-.3,1.21-.78.02-.04.08-.06.12-.04.04.02.06.08.04.12-.28.54-.81.87-1.37.87Z"/>
  <path class="st12" d="M113.89,6.63s-.06-.01-.07-.04c-.03-.04-.02-.1.02-.13.29-.21.63-.36.97-.43.31-.06.63-.07.95-.01.05,0,.08.06.07.1,0,.05-.06.08-.1.07-.29-.05-.59-.05-.88.01-.32.07-.64.2-.9.4-.02.01-.03.02-.05.02Z"/>
  <path class="st12" d="M110.69,8.86s-.05-.01-.07-.04c-.14-.19-.32-.49-.38-.9-.09-.62.14-1.1.29-1.33.03-.04.08-.05.12-.03.04.03.05.08.03.12-.13.21-.34.65-.26,1.21.05.37.22.65.35.82.03.04.02.1-.02.13-.02.01-.04.02-.05.02Z"/>
  <path class="st12" d="M106.33,23.81s-.05,0-.07-.03c-.61-.67-1.11-1.41-1.5-2.21-.19-.38-.35-.78-.48-1.18-.02-.05.01-.1.06-.11.05-.02.1.01.11.06.13.4.29.79.47,1.16.38.78.88,1.51,1.47,2.16.03.04.03.09,0,.13-.02.02-.04.02-.06.02Z"/>
  <path class="st12" d="M106.55,24.01s-.04,0-.05-.02c-.04-.03-.05-.08-.02-.12,1.45-2.07,2.75-4.11,3.84-6.07.59-1.06,1.08-2.02,1.56-3.24.36-.92.66-1.88.9-2.84.01-.05.06-.08.11-.07.05.01.08.06.07.11-.24.97-.55,1.93-.91,2.86-.48,1.23-.97,2.19-1.57,3.26-1.09,1.97-2.39,4.02-3.85,6.09-.02.02-.05.04-.07.04Z"/>
  <path class="st4" d="M55.17,120.71c-.38,0-.78-.04-1.19-.13-.4-.09-.8-.22-1.18-.39-.09-.04-.13-.15-.09-.24.04-.09.15-.13.24-.09.36.16.73.29,1.1.37,1.58.34,2.98-.12,3.87-.56.09-.04.2,0,.24.08.04.09,0,.2-.08.24-.72.35-1.73.71-2.91.71Z"/>
  <path class="st4" d="M44.21,119.06c-.78,0-1.54-.1-2.27-.31-.46-.13-.92-.31-1.36-.52-.09-.04-.13-.15-.08-.24.04-.09.15-.13.24-.08.42.2.86.37,1.3.5,1.59.45,3.35.39,5.09-.19.09-.03.2.02.23.11.03.09-.02.2-.11.23-1.01.33-2.03.5-3.02.5Z"/>
  <path class="st4" d="M48.55,141.8s-.02,0-.03,0c-.1-.02-.16-.11-.15-.21.95-5.31,1.95-10.68,3-15.96.28-1.41.56-2.82.84-4.22.02-.1.11-.16.21-.14.1.02.16.11.14.21-.28,1.4-.57,2.81-.84,4.22-1.04,5.28-2.05,10.65-3,15.95-.02.09-.09.15-.18.15Z"/>
  <path class="st4" d="M35.47,140.66s-.03,0-.04,0c-.1-.02-.16-.12-.13-.22.97-4,1.78-8.08,2.4-12.14.35-2.26.65-4.56.89-6.83.01-.1.1-.17.2-.16.1.01.17.1.16.2-.24,2.28-.54,4.58-.89,6.85-.63,4.07-1.44,8.17-2.41,12.17-.02.08-.09.14-.17.14Z"/>
  <path class="st20" d="M42.59,69.15s-.04,0-.05,0c-.09-.03-.15-.13-.12-.22.34-1.1.8-2.17,1.38-3.17.51-.89,1.11-1.73,1.79-2.5.07-.07.18-.08.25-.02.07.07.08.18.02.25-.66.75-1.25,1.57-1.75,2.44-.56.98-1.01,2.02-1.35,3.1-.02.08-.09.13-.17.13Z"/>
  <path class="st20" d="M67.16,74.25s0,0,0,0c-1.92-.05-3.17-.74-3.87-1.31-.82-.65-1.3-1.42-1.91-2.39-.49-.77-.91-1.59-1.25-2.43-.04-.09,0-.2.1-.23.09-.04.2,0,.23.1.34.82.75,1.62,1.22,2.38.59.94,1.06,1.68,1.83,2.3.67.53,1.84,1.18,3.66,1.23.1,0,.18.09.17.18,0,.1-.08.17-.18.17Z"/>
  <path class="st20" d="M71.89,68.74c-.07,0-.14-.04-.17-.12-.44-1.17-1.09-2.21-1.91-3.11-.34-.37-.72-.72-1.12-1.04-.08-.06-.09-.17-.03-.25.06-.08.17-.09.25-.03.42.33.81.69,1.16,1.07.85.93,1.52,2.01,1.98,3.22.04.09-.01.2-.1.23-.02,0-.04.01-.06.01Z"/>
  <path class="st20" d="M49.65,75.64s-.02,0-.03,0c-.1-.01-.17-.11-.15-.2.2-1.36.52-2.72.96-4.02.35-1.05.78-2.08,1.28-3.06.04-.09.15-.12.24-.08.09.04.12.15.08.24-.49.97-.91,1.99-1.26,3.02-.43,1.28-.75,2.62-.94,3.96-.01.09-.09.15-.18.15Z"/>
  <path class="st20" d="M45.9,91.88c-2.71,0-5.08-1.62-6.27-2.44-.75-.52-1.45-1.11-2.09-1.75-.07-.07-.07-.18,0-.25.07-.07.18-.07.25,0,.62.63,1.31,1.21,2.04,1.71,1.27.88,3.93,2.7,6.84,2.33.82-.1,1.29-.33,1.78-.56.56-.27,1.14-.55,2.24-.62,1.25-.08,2.53.15,3.8.69.09.04.13.14.1.24-.04.09-.14.13-.24.1-1.22-.51-2.44-.74-3.63-.66-1.03.07-1.55.32-2.11.58-.5.24-1.01.49-1.89.6-.28.03-.55.05-.82.05Z"/>
  <path class="st7" d="M44.85,36.99s-.03,0-.05-.01c-.04-.03-.05-.08-.03-.12.07-.11.2-.26.41-.37.26-.14.52-.13.64-.12.05,0,.08.05.08.1,0,.05-.05.09-.1.08-.11-.01-.32-.01-.54.1-.17.09-.28.22-.34.31-.02.03-.05.04-.08.04Z"/>
  <path class="st7" d="M42.76,38.76s-.03,0-.04,0c-.04-.02-.06-.08-.04-.12.05-.09.1-.18.17-.26.12-.15.57-.63,1.25-.6.44.02.76.26.91.39.04.03.04.09,0,.13-.03.04-.09.04-.13,0-.13-.12-.41-.33-.8-.35-.61-.03-1.02.44-1.1.54-.06.07-.11.15-.15.23-.02.03-.05.05-.08.05Z"/>
  <path class="st7" d="M27.28,63.35s-.02,0-.03,0c-.05-.02-.07-.07-.06-.11.21-.61.54-1.1.98-1.45.44-.35.91-.49,1.76-.73l.08-.02c.45-.13,1.13-.32,1.83-.44.05,0,.1.03.1.07,0,.05-.03.1-.07.1-.69.11-1.36.31-1.8.43l-.08.02c-.89.26-1.31.38-1.7.7-.42.34-.73.8-.92,1.37-.01.04-.05.06-.08.06Z"/>
  <path class="st21" d="M28.7,109.38c-.6,0-1.29-.12-1.97-.48-.39-.21-.75-.5-1.06-.84-.07-.07-.06-.19.01-.25.07-.07.19-.06.25.01.28.31.61.57.97.76,1.32.72,2.73.38,3.28.2.09-.03.2.02.23.11.03.09-.02.2-.11.23-.32.1-.9.26-1.59.26Z"/>
  <path class="st21" d="M22.13,113.44s0,0-.01,0c-.1,0-.17-.09-.17-.19.26-3.82.2-7.67-.17-11.45-.13-1.33-.3-2.68-.51-4-.02-.1.05-.19.15-.2.1-.01.19.05.2.15.21,1.33.38,2.68.51,4.02.37,3.8.43,7.67.17,11.51,0,.09-.09.17-.18.17Z"/>
  <path class="st21" d="M15.41,108.65c-.48,0-.96-.05-1.42-.15-.88-.19-1.69-.56-2.43-1.08-.08-.06-.1-.17-.04-.25.06-.08.17-.1.25-.04.69.5,1.47.84,2.3,1.03.94.21,1.93.19,2.87-.04.1-.02.19.03.22.13.02.1-.03.19-.13.22-.53.13-1.07.2-1.61.2Z"/>
  <path class="st21" d="M31.97,80.16c-6.52,2.14-13.86-1.38-16.39-3.04-.97-.64-2.18-1.62-2.88-2.21.27-.48.52-.91.75-1.27.05.11.1.22.14.32l.38.21c.64.44,1.55,1.05,2.68,1.71,1.15.66,2.34,1.35,3.64,1.92,1,.44,2.06.81,3.19,1.04.96.2,2.59.42,4.72.13.99-.13,2.08-.38,3.25-.79.14.56.31,1.22.51,1.98Z"/>
  <path class="st2" d="M41.89,31.29s-.03,0-.04,0c-.04-.02-.06-.08-.04-.12,1.12-2.2,2.29-4.41,3.45-6.59.59-1.1,1.2-2.22,1.8-3.32.02-.04.08-.06.12-.04.04.02.06.08.04.12-.61,1.1-1.21,2.22-1.8,3.32-1.16,2.17-2.33,4.39-3.45,6.58-.02.03-.05.05-.08.05Z"/>
  <path class="st2" d="M18.2,57.93s-.04,0-.05-.02c-.04-.03-.05-.08-.02-.13.25-.36.48-.73.67-1.13.51-1.07.58-1.83.64-2.64.03-.39.06-.79.15-1.22.54-2.68,2.72-4.53,4.17-5.75.51-.43,1.05-.83,1.61-1.19.04-.03.1-.01.12.03.03.04.01.1-.03.12-.56.35-1.09.75-1.59,1.17-1.42,1.21-3.58,3.03-4.11,5.65-.09.42-.12.82-.15,1.2-.06.79-.13,1.6-.66,2.7-.19.4-.42.79-.68,1.15-.02.02-.05.04-.07.04Z"/>
  <path class="st2" d="M40.09,59.59c-.83,0-1.66-.12-2.46-.35-.8-.23-1.56-.58-2.27-1.02-.04-.03-.05-.08-.03-.12.03-.04.08-.05.12-.03.69.44,1.44.78,2.22,1,1.12.32,2.28.42,3.45.28.05,0,.09.03.1.08,0,.05-.03.09-.08.1-.35.04-.7.06-1.06.06Z"/>
  <path class="st2" d="M27.49,72.56c-.51,0-1.02-.02-1.52-.05-.05,0-.09-.05-.08-.1,0-.05.04-.09.1-.08,1.43.1,2.87.06,4.29-.13,1.46-.19,2.9-.53,4.29-1.01.05-.02.1,0,.11.06.02.05,0,.1-.06.11-1.4.48-2.85.83-4.32,1.02-.93.12-1.86.18-2.8.18Z"/>
  <path class="st2" d="M28.22,76.21s-.08-.03-.09-.07c0-.05.02-.1.07-.1,1.14-.21,2.2-.63,3.16-1.25,1.08-.7,2.01-1.65,2.69-2.76.03-.04.08-.06.12-.03.04.03.06.08.03.12-.69,1.13-1.65,2.1-2.75,2.81-.98.64-2.07,1.07-3.23,1.28,0,0-.01,0-.02,0Z"/>
  <path class="st2" d="M20.94,66.91s-.04,0-.05-.02c-.04-.03-.05-.08-.02-.12.53-.76.92-1.59,1.16-2.47.29-1.05.36-2.14.22-3.23,0-.05.03-.09.08-.1.05,0,.09.03.1.08.15,1.11.07,2.22-.22,3.3-.25.9-.65,1.75-1.18,2.53-.02.03-.05.04-.07.04Z"/>
  <path class="st2" d="M27.24,77.99s0,0,0,0c-2.23-.13-7.79-.76-11.26-3.63-.78-.65-2.09-1.73-2.5-3.56-.22-.97-.15-1.99.19-3.02.02-.05.07-.07.11-.06.05.02.07.07.06.11-.33,1-.4,1.99-.19,2.93.4,1.77,1.67,2.83,2.44,3.46,3.43,2.84,8.94,3.45,11.15,3.59.05,0,.09.05.08.09,0,.05-.04.08-.09.08Z"/>
  <path class="st2" d="M59.88,65.63s-.03,0-.04,0c-.05-.02-.06-.07-.04-.12.12-.27.71-1.66.05-2.79-.39-.67-1.06-.99-1.46-1.19-.46-.22-.79-.28-1.1-.33-.28-.05-.57-.1-.94-.26-.67-.29-1.26-.8-1.77-1.51-.03-.04-.02-.1.02-.13.04-.03.1-.02.13.02.49.68,1.05,1.17,1.69,1.45.35.15.62.2.9.25.33.05.67.11,1.15.35.39.19,1.12.54,1.54,1.26.69,1.18.15,2.56-.04,2.95-.02.03-.05.05-.08.05Z"/>
  <path class="st2" d="M23.78,45.86s-.07-.02-.09-.06c-.02-.05,0-.1.06-.11.46-.15.94-.24,1.42-.26.29-.01.57,0,.86.04.05,0,.08.05.08.1,0,.05-.05.08-.1.08-.27-.04-.55-.05-.83-.04-.46.02-.92.1-1.37.25,0,0-.02,0-.03,0Z"/>
  <path class="st15" d="M102.48,105.7s-.05,0-.07-.02c-.09-.04-.13-.15-.09-.24.99-2.24,2.11-4.44,3.33-6.55.05-.09.16-.11.25-.07.09.05.11.16.07.25-1.22,2.1-2.33,4.29-3.32,6.52-.03.07-.1.11-.16.11Z"/>
  <path class="st15" d="M101.23,99.48c-.48,0-.97-.02-1.45-.05-.1,0-.17-.09-.17-.19,0-.1.09-.17.19-.17,1.54.11,3.09.04,4.6-.21,2.64-.44,5.15-1.41,7.45-2.89.08-.05.19-.03.25.05.05.08.03.19-.05.25-2.34,1.5-4.89,2.49-7.58,2.94-1.07.18-2.15.27-3.24.27Z"/>
  <path class="st15" d="M94.22,117.15c-.09,0-.17-.07-.18-.17,0-.1.07-.18.17-.19.8-.05,1.57-.22,2.31-.5.37-.14.73-.3,1.07-.5.09-.05.2-.02.24.07.05.09.02.2-.07.24-.36.2-.74.37-1.12.52-.77.29-1.58.46-2.41.52,0,0,0,0-.01,0Z"/>
  <path class="st15" d="M116.18,116.5c-.57,0-1.04-.11-1.33-.2-.09-.03-.15-.13-.12-.22.03-.09.13-.15.22-.12.45.14,1.37.33,2.43,0,1.01-.31,1.65-.94,1.94-1.29.06-.08.18-.09.25-.02.08.06.09.18.02.25-.39.46-1.07,1.08-2.11,1.41-.47.15-.91.2-1.31.2Z"/>
  <path class="st6" d="M86.41,148.79c-.04.2-.07.41-.1.63-.4,0-.79,0-1.17,0-3.16-.02-5.74,0-7.59,0-3.26.03-5.63.07-5.74-.51-.02-.1.02-.2.11-.3.41,0,.83.01,1.12.02,4.46.06,8.91.12,13.37.17Z"/>
  <path class="st6" d="M128.81,146.32c0,.07,0,.13-.02.18-.23.83-1.33.84-4.56,2.08-2.04.79-2.03.95-3.01,1.16-2.16.48-4.61.22-4.75-.44,0-.01,0-.02,0-.03,2.55.57,4.21.3,5.29-.1.54-.2,1.2-.53,2.63-1.01,1.27-.43,1.86-.55,2.82-.98.66-.3,1.19-.61,1.6-.87Z"/>
  <path class="st15" d="M88.9,144.27s-.04,0-.07-.01c-.09-.04-.14-.14-.1-.23.44-1.09.89-2.22,1.33-3.35,1.41-3.6,2.44-6.4,3.35-8.86.82-2.22,1.65-4.5,2.47-6.77.03-.09.14-.14.23-.11.09.03.14.14.11.23-.82,2.27-1.65,4.55-2.47,6.78-.91,2.47-1.95,5.26-3.36,8.87-.44,1.13-.89,2.26-1.33,3.36-.03.07-.1.11-.17.11Z"/>
  <path class="st15" d="M127.4,140.98c-.07,0-.13-.04-.16-.11-1.27-2.84-2.36-5.78-3.24-8.76-.63-2.12-1.16-4.3-1.59-6.47-.02-.1.04-.19.14-.21.1-.02.19.04.21.14.42,2.16.95,4.33,1.58,6.44.88,2.96,1.96,5.89,3.22,8.71.04.09,0,.2-.09.24-.02.01-.05.02-.07.02Z"/>
  <path class="st13" d="M116.6,141.85c-.43.38-1.08.13-2.11,0-.75-.1-.68,0-3.2.07-3.72.11-5.57.17-5.67-.22-.02-.07,0-.14.07-.22,1.24.14,2.26.16,2.99.15,2.01-.03,2.47-.29,4.01-.17.9.07,1.82-.02,2.7.19.1.02.24.06.42.02.66-.15.81-1.15,1.09-1.32.03.62.06,1.17-.3,1.49Z"/>
  <path class="st13" d="M141.45,138.58c-.91.36-2.47,1.03-3.77,1.46-3.08,1.04-6.19,2.07-6.47,1.53-.03-.06-.02-.13.02-.2.43-.08.97-.2,1.59-.34,2.22-.51,3.81-1.05,4.86-1.41,1.55-.53.76-.35,2.18-.86.33-.12.47-.16.63-.3.55-.46.5-1.18.56-1.62.16.61.29,1.19.39,1.74Z"/>
  <path class="st20" d="M117.11,57.56c-.06,0-.12-.03-.15-.08-.05-.08-.03-.19.06-.25.47-.3.9-.66,1.26-1.07,1.46-1.67,1.54-3.78,1.57-4.79.03-.86-.05-1.72-.25-2.58-.02-.1.04-.19.14-.21.1-.02.19.04.21.14.2.89.29,1.79.26,2.67-.04,1.05-.11,3.25-1.66,5.02-.38.44-.83.82-1.34,1.14-.03.02-.06.03-.1.03Z"/>
  <path class="st20" d="M116.45,94.57c-.07,0-.14-.05-.17-.12-1.44-4.23-2.02-8.56-1.72-12.86.11-1.6.35-3.2.7-4.78.02-.1.12-.16.21-.14.1.02.16.12.14.21-.35,1.55-.58,3.14-.69,4.72-.3,4.26.28,8.54,1.7,12.72.03.09-.02.2-.11.23-.02,0-.04,0-.06,0Z"/>
  <path class="st20" d="M120.81,83.36s-.07,0-.1-.03c-1.02-.65-1.89-1.48-2.58-2.45-1.15-1.62-1.55-3.28-1.68-4.39-.01-.1.06-.19.16-.2.1-.01.19.06.2.16.12,1.07.5,2.66,1.61,4.22.67.94,1.5,1.73,2.48,2.36.08.05.11.16.05.25-.03.05-.09.08-.15.08Z"/>
  <path class="st20" d="M126.45,77.03c-.07,0-.13-.04-.16-.1-.04-.09,0-.2.09-.24,1.09-.51,2.07-1.26,2.85-2.17.85-1,1.48-2.2,1.8-3.47.02-.1.12-.15.22-.13.1.02.15.12.13.22-.34,1.33-.98,2.58-1.87,3.62-.81.95-1.84,1.73-2.97,2.26-.02.01-.05.02-.08.02Z"/>
  <path class="st20" d="M119.83,63.8c-.08,0-.16-.06-.18-.14-.02-.1.04-.19.14-.21.35-.07,1.03-.29,1.58-.92.63-.73.69-1.55.68-1.88,0-.1.08-.18.18-.18h0c.1,0,.18.08.18.18,0,.36-.07,1.3-.77,2.11-.62.71-1.38.96-1.78,1.04-.01,0-.02,0-.04,0Z"/>
  <path class="st12" d="M111.83,37.9h-.35s-.09-.04-.09-.09.04-.09.09-.09h.33l.24-.13-.12-.15s-.02-.1.02-.13c.04-.03.1-.02.13.02l.18.23s.02.05.02.07c0,.03-.02.05-.04.06l-.35.19s-.03.01-.04.01Z"/>
  <path class="st18" d="M105.51,68.84s-.04.06-.07.1c-.11.15-.23.31-.37.47-.22.27-.95,1.09-2.27,1.92-1.09.69-2.01,1.01-2.93,1.32-1.46.5-1.5.33-3.66.98-1.68.5-2.52.75-3,1.04-.41.25-1.01.68-1.95.91-.45.11-.8.13-1.01.14-1.4.07-3.75,0-4.98-.04-.62-.64-1.25-1.21-1.65-1.58-1.12,1.4-2.49,2.82-4.17,4.13-.77.6-1.56,1.14-2.36,1.62.21-2.41.53-4.53.86-6.28.01,0,.03,0,.04-.01.01-.11.02-.22.03-.33h0c.03-.46.04-.97.02-1.52,1.38-.25,3.25-.61,5.45-1.08,2.61-.56,4.52-1.03,6.11-1.44-.14.23-.28.48-.42.74-.45.82-1.24,2.26-.98,2.46.18.14.79-.3.84-.34.06-.04.12-.09.17-.14-.08.18-.15.34-.2.48-.13.34-.29.79-.14.91.19.15.77-.3.99-.47.32-.25.72-.61,1.15-1.15-.06.15-.13.31-.18.49-.12.37-.27.81-.13.9.04.03.18.06.64-.32.36-.3.88-.82,1.42-1.7-.11.31-.18.58-.23.81-.11.46-.08.57-.02.62.17.12.68-.24,1.01-.63.32-.37.34-.61.6-1.08.14-.24.29-.47.91-1.16.56-.63,1.13-1.22,1.61-1.7l.13-.13c.09-.09.18-.18.26-.26.87-.13,1.83-.26,2.87-.35.24-.04.47-.08.68-.11,1.14-.17,1.92-.22,2.46-.22.44,0,.89-.04,1.34-.07.03.07.07.13.1.2.34.66.69,1.28,1.04,1.87Z"/>
  <path class="st7" d="M108.69,64.4c-1.08,0-3.28-.37-3.54-.42-.05,0-.08-.05-.07-.1,0-.05.06-.08.1-.07.27.05,2.69.46,3.67.41.05,0,.09.04.09.09,0,.05-.04.09-.09.09-.05,0-.11,0-.17,0Z"/>
  <path class="st7" d="M108.58,65.37h0c-.1,0-.16-.01-.18-.01-.5-.07-1.81-.23-3.47-.44-.05,0-.08-.05-.08-.1,0-.05.05-.08.1-.08,1.66.2,2.97.36,3.48.44.01,0,.07.01.15.01.05,0,.09.04.09.09,0,.05-.04.09-.09.09Z"/>
  <path class="st7" d="M107.2,66.06c-.53-.08-1.18-.15-2.02-.2-.05,0-.09-.05-.08-.1,0-.05.05-.09.1-.08.84.06,1.5.13,2.02.2.05,0,.08.04.08.09s-.05.09-.09.09Z"/>
  <path class="st7" d="M104.79,62.85s-.08-.03-.09-.07c-.01-.05.02-.1.07-.11.45-.1.87-.28,1.24-.55.24-.17.46-.38.66-.62.03-.04.09-.04.13-.01.04.03.04.09.01.13-.2.25-.43.47-.69.65-.39.28-.83.47-1.31.58,0,0-.01,0-.02,0Z"/>
  <path class="st23" d="M48.97,79.96s-.02,0-.03,0h-.04c-.18-.07-.45-.15-.76-.24-.98-.3-1.51-.5-2.08-.85-.02-.01-.05-.03-.07-.04-.04-.03-.05-.08-.03-.12.03-.04.08-.05.12-.03.02.01.04.03.07.04.55.34,1.08.53,2.04.83.31.1.57.18.76.23h.04s.07.08.06.12c-.01.04-.05.06-.09.06Z"/>
  <path class="st23" d="M48.88,80.97s0,0-.01,0c-.67-.11-1.34-.25-1.99-.42-.06-.01-.56-.15-1.21-.44-.05-.02-.07-.07-.05-.12.02-.05.07-.07.12-.05.64.28,1.13.41,1.18.43.65.17,1.32.31,1.98.42.05,0,.08.05.07.1,0,.04-.05.08-.09.08Z"/>
  <path class="st23" d="M48.74,81.97s0,0-.01,0c-.5-.06-.98-.15-1.47-.26-.44-.11-.79-.21-1.1-.34-.05-.02-.07-.07-.05-.12.02-.05.07-.07.12-.05.29.12.63.23,1.07.33.49.11.96.2,1.45.26.05,0,.08.05.08.1,0,.05-.04.08-.09.08Z"/>
  <path class="st23" d="M124.17,49.73s-.08-.03-.09-.07c-.22-1.08-.37-1.89-.45-2.55-.01-.09-.03-.23-.07-.37,0-.02,0-.04,0-.06.01-.03.05-.06.08-.06.04,0,.08.03.09.07.05.16.06.3.08.39.09.66.23,1.47.45,2.54,0,.05-.02.1-.07.11,0,0-.01,0-.02,0Z"/>
  <path class="st23" d="M125.71,49.92s-.08-.03-.09-.08c-.17-1.09-.38-2.04-.6-2.8-.01-.05.01-.1.06-.11.05-.01.1.01.11.06.23.78.43,1.73.61,2.83,0,.05-.03.09-.07.1,0,0,0,0-.01,0Z"/>
  <path class="st23" d="M127.02,50.2s-.08-.03-.09-.07v-.03c-.13-.68-.26-1.35-.38-1.88,0,0,0-.01,0-.02,0-.05.04-.09.09-.09.05,0,.08.03.09.08.11.53.25,1.2.37,1.88v.03s-.02.1-.07.1c0,0-.01,0-.02,0Z"/>
  <path class="st23" d="M123,50.32s-.06-.02-.08-.04c-.09-.14-.2-.32-.32-.52-.4-.65-.5-.78-.67-.9-.16-.11-.35-.18-.57-.21-.05,0-.08-.05-.08-.1,0-.05.05-.08.1-.08.24.03.46.12.64.24.2.14.33.32.72.95.12.2.23.38.32.52.03.04.01.1-.03.12-.01,0-.03.01-.05.01Z"/>
  <path class="st12" d="M89.22,72s-.05-.01-.07-.03c-.03-.04-.03-.09,0-.13.14-.13.24-.24.27-.28.53-.66,1.23-1.79,1.43-2.13.03-.04.08-.06.12-.03.04.03.06.08.03.12-.2.34-.91,1.48-1.45,2.15-.04.05-.14.17-.29.3-.02.01-.04.02-.06.02Z"/>
  <path class="st12" d="M91.01,71.78s-.04,0-.06-.02c-.03-.03-.04-.07-.02-.11,0,0,0-.01.01-.02.38-.49.73-1.07,1.04-1.71.02-.04.07-.06.12-.04.04.02.06.07.04.12-.31.65-.66,1.24-1.05,1.74,0,0,0,0,0,.01-.02.02-.04.03-.07.03Z"/>
  <path class="st12" d="M92.76,71.15s-.03,0-.05-.01c-.04-.03-.06-.08-.03-.12.12-.19.24-.4.36-.63.02-.04.08-.06.12-.04.04.02.06.08.04.12-.12.23-.24.45-.36.64-.02.03-.05.04-.08.04Z"/>
  <path class="st13" d="M113,37.44c0,.21-.12.37-.27.37s-.27-.17-.27-.37.12-.37.27-.37.27.17.27.37Z"/>
  <path class="st8" d="M82.21,75.55s-.05,0-.07-.03c-.03-.04-.03-.09,0-.13.95-.9,1.76-1.91,2.41-3.02.27-.46.52-.95.73-1.45.02-.05.07-.07.12-.05.05.02.07.07.05.12-.22.5-.47,1-.74,1.47-.66,1.12-1.48,2.15-2.44,3.06-.02.02-.04.02-.06.02Z"/>
  <path class="st8" d="M115.4,75.26s-.02,0-.04,0c-1.14-.51-5.01-2.31-7.24-4.1-.39-.31-1.74-1.44-3.3-2.89-.26-.24-.47-.44-.6-.56-.04-.03-.04-.09,0-.13.03-.04.09-.04.13,0,.13.13.34.32.6.56,1.55,1.44,2.9,2.57,3.29,2.88,2.21,1.77,6.07,3.56,7.2,4.07.05.02.07.07.05.12-.01.03-.05.05-.08.05Z"/>
  <path class="st8" d="M124.61,69.81s-.07-.02-.08-.06c-.2-.49-.97-2.13-2.71-2.61-.49-.13-1-.16-1.52-.08-.05,0-.09-.03-.1-.08,0-.05.03-.09.08-.1.55-.08,1.09-.05,1.6.09,1.81.5,2.62,2.2,2.82,2.71.02.05,0,.1-.05.12-.01,0-.02,0-.03,0Z"/>
  <path class="st8" d="M63.51,83.06c-1.48,0-3.36-.02-5.75-.06-.21,0-.77-.01-1.31-.35-.91-.57-1.16-1.71-1.22-2.17-.07-.52-.03-1.04.13-1.56.01-.05.06-.07.11-.06.05.01.07.06.06.11-.15.49-.19.99-.12,1.48.06.44.29,1.51,1.14,2.05.5.31,1.02.32,1.22.32,5.64.07,8.47.11,9.69-.12,2.76-.53,5.47-1.46,8.04-2.74.04-.02.1,0,.12.04.02.04,0,.1-.04.12-2.59,1.29-5.31,2.21-8.08,2.75-.71.14-1.96.18-3.97.18Z"/>
  <path class="st8" d="M86.5,84.9s-.09-.04-.09-.09c0-.78.09-1.55.3-2.3.19-.7.48-1.38.85-2.01.03-.04.08-.06.12-.03.04.03.06.08.03.12-.36.61-.64,1.27-.83,1.96-.2.73-.3,1.49-.29,2.25,0,.05-.04.09-.09.09h0Z"/>
  <path class="st8" d="M94.06,94.55c-1.05,0-1.65-.12-2.25-.43-.39-.2-.64-.41-.89-.61-.29-.24-.56-.46-1-.62-.66-.24-1.42-.23-2.25.03-.05.02-.1-.01-.11-.06-.01-.05.01-.1.06-.11.87-.27,1.67-.28,2.37-.03.46.17.75.4,1.05.65.24.2.49.4.86.59.65.33,1.31.44,2.62.4,2.23-.06,4.75-.13,8.01-1.42,1.62-.64,3.17-1.49,4.6-2.52.04-.03.1-.02.13.02.03.04.02.1-.02.13-1.45,1.04-3.01,1.9-4.64,2.54-3.29,1.3-5.83,1.37-8.07,1.43-.16,0-.31,0-.45,0Z"/>
  <path class="st8" d="M95.9,91.5s-.09-.04-.09-.09c0-.05.04-.09.09-.09,3.31-.01,6.53-.63,9.56-1.83,1.97-.78,3.85-1.81,5.58-3.06.04-.03.1-.02.13.02.03.04.02.1-.02.13-1.75,1.26-3.64,2.29-5.62,3.08-3.05,1.21-6.29,1.83-9.62,1.84h0Z"/>
  <path class="st8" d="M87.72,79.36s0,0-.01,0c-.05,0-.08-.05-.08-.1.09-.8.18-2.37-.31-3.89-.15-.46-.42-1.31-1.14-2.17-.1-.12-.21-.24-.33-.36-.03-.04-.03-.09,0-.13.04-.04.09-.03.13,0,.12.12.23.24.34.37.74.88,1.02,1.76,1.17,2.23.5,1.55.42,3.15.32,3.96,0,.05-.04.08-.09.08Z"/>
  <path class="st8" d="M107.43,78.48s0,0,0,0c-.61-.03-1.2-.14-1.76-.34-.91-.33-1.35-.76-1.85-1.25-.38-.37-.82-.8-1.54-1.25-1.09-.68-2.15-.99-3.61-1.42-.61-.18-1.23-.34-1.85-.46-.05,0-.08-.06-.07-.11,0-.05.06-.08.11-.07.62.13,1.25.28,1.86.47,1.47.44,2.54.75,3.65,1.45.74.46,1.18.89,1.57,1.27.49.48.91.89,1.79,1.21.54.2,1.11.31,1.7.33.05,0,.09.04.09.09,0,.05-.04.09-.09.09Z"/>
</svg>