<?xml version="1.0" encoding="UTF-8"?>
<svg id="Layer_1" xmlns="http://www.w3.org/2000/svg" version="1.1" viewBox="0 0 150 150">
  <!-- Generator: Adobe Illustrator 29.7.1, SVG Export Plug-In . SVG Version: 2.1.1 Build 8)  -->
  <defs>
    <style>
      .st0 {
        fill: #8f6186;
      }

      .st1 {
        fill: #e95e00;
      }

      .st2 {
        fill: #3a3c3f;
      }

      .st3 {
        fill: #ff9488;
      }

      .st4 {
        fill: #fff;
      }

      .st5 {
        fill: #ff8031;
      }

      .st6 {
        fill: #ffddc9;
      }

      .st7 {
        fill: #714468;
      }

      .st8 {
        fill: #ffb6a9;
      }

      .st9 {
        fill: #ffcca9;
      }

      .st10 {
        fill: #a19abe;
      }

      .st11 {
        fill: #aa3931;
      }

      .st12 {
        fill: #bcc6fa;
      }

      .st13 {
        fill: #ffab71;
      }

      .st14 {
        fill: #ffecde;
      }

      .st15 {
        fill: #bdc859;
      }

      .st16 {
        fill: #7b759d;
      }

      .st17 {
        fill: #8e2425;
      }
    </style>
  </defs>
  <g>
    <polygon class="st6" points="48.15 72.46 46.06 71.28 59.06 48.23 77.83 47.69 92.08 70.12 90.05 71.41 76.54 50.14 60.49 50.6 48.15 72.46"/>
    <g>
      <polygon class="st6" points="44.97 149.88 50.01 69.66 96.26 69.2 106.33 149.88 44.97 149.88"/>
      <g>
        <path class="st15" d="M61.24,89.47s-.06,0-.09,0c-.3-.01-.54-.27-.53-.57,1.02-25.41-7.29-42.15-14.44-51.73-7.73-10.35-15.77-14.76-15.85-14.8-.27-.14-.37-.48-.22-.74.14-.27.48-.37.74-.22.34.18,8.34,4.56,16.21,15.11,7.25,9.72,15.69,26.7,14.66,52.43-.01.27-.22.49-.48.52Z"/>
        <path class="st15" d="M55.34,51.05s-11.6-10.02-33.97-9.77c0,0,4.68,11.42,33.97,9.77Z"/>
        <path class="st15" d="M51.46,43.44s2.9-11.42-4.97-26.72c0,0-6.24,7.15,4.97,26.72Z"/>
        <path class="st15" d="M59.25,64.55s5.84-8.16,4.35-22.73c0,0-7.16,3.73-4.35,22.73Z"/>
        <path class="st15" d="M39.86,29.01S33.5,12.23,10.33,0C10.33,0,8.78,14.37,39.86,29.01Z"/>
      </g>
      <g>
        <path class="st6" d="M94.51,30.94c.09,1.41-.98,2.62-2.39,2.71-1.41.09-2.62-.98-2.71-2.39-.09-1.41.98-2.62,2.39-2.71,1.41-.09,2.62.98,2.71,2.39Z"/>
        <path class="st6" d="M97.86,34.51c.09,1.41-.98,2.62-2.39,2.71-1.41.09-2.62-.98-2.71-2.39-.09-1.41.98-2.62,2.39-2.71,1.41-.09,2.62.98,2.71,2.39Z"/>
        <g>
          <path class="st6" d="M84.08,36.7c.09,1.41-.98,2.62-2.39,2.71-1.41.09-2.62-.98-2.71-2.39-.09-1.41.98-2.62,2.39-2.71,1.41-.09,2.62.98,2.71,2.39Z"/>
          <path class="st14" d="M79.45,36.81c.09,1.41-.98,2.62-2.39,2.71-1.41.09-2.62-.98-2.71-2.39-.09-1.41.98-2.62,2.39-2.71,1.41-.09,2.62.98,2.71,2.39Z"/>
          <path class="st6" d="M81.6,41.03c.09,1.41-.98,2.62-2.39,2.71-1.41.09-2.62-.98-2.71-2.39-.09-1.41.98-2.62,2.39-2.71,1.41-.09,2.62.98,2.71,2.39Z"/>
        </g>
        <g>
          <path class="st6" d="M96.39,52.62c-1.15.82-2.74.55-3.56-.6-.82-1.15-.55-2.74.6-3.56,1.15-.82,2.74-.55,3.56.6.82,1.15.55,2.74-.6,3.56Z"/>
          <path class="st14" d="M93.86,48.69c-1.15.82-2.74.55-3.56-.6-.82-1.15-.55-2.74.6-3.56,1.15-.82,2.74-.55,3.56.6.82,1.15.55,2.74-.6,3.56Z"/>
          <path class="st14" d="M91.56,52.74c-1.15.82-2.74.55-3.56-.6-.82-1.15-.55-2.74.6-3.56,1.15-.82,2.74-.55,3.56.6.82,1.15.55,2.74-.6,3.56Z"/>
        </g>
        <path class="st14" d="M99.09,30.15c.09,1.41-.98,2.62-2.39,2.71-1.41.09-2.62-.98-2.71-2.39-.09-1.41.98-2.62,2.39-2.71,1.41-.09,2.62.98,2.71,2.39Z"/>
        <path class="st15" d="M71.93,74.12s-.05,0-.08-.01c-.25-.07-.4-.32-.33-.57,6.96-26.54,23.19-42.44,23.35-42.6.19-.18.48-.17.66.01.18.19.17.48-.01.66-.16.16-16.2,15.89-23.09,42.16-.06.22-.27.37-.49.35Z"/>
        <path class="st15" d="M92.56,49.92c-.12-.01-.23-.06-.31-.16-2.5-2.84-7.91-4.08-7.96-4.09l-.24-.05-.09-.22c-2-4.83-5.1-6.63-5.13-6.65-.22-.13-.3-.41-.18-.64.13-.23.41-.3.64-.18.14.08,3.31,1.91,5.44,6.89,1.12.28,5.8,1.59,8.22,4.33.17.19.15.49-.04.66-.1.09-.23.13-.35.12Z"/>
        <path class="st15" d="M74.13,66.69s5.24-.76,10.23-6.64c0,0-4.04-1.36-10.23,6.64Z"/>
        <path class="st15" d="M75.51,62.28s-5.26-5.23-5.97-16.03c0,0,5.68,1.84,5.97,16.03Z"/>
      </g>
      <polygon class="st14" points="33.98 149.88 41.31 69.21 85.73 69.2 95.35 149.88 33.98 149.88"/>
    </g>
    <polygon class="st14" points="48.09 72.32 46.13 71.43 56.63 48.32 75.41 48.77 83.16 69.47 81.15 70.23 73.9 50.89 58 50.51 48.09 72.32"/>
    <g>
      <g>
        <path class="st15" d="M54.98,113.64c-.72,0-1.44-.09-2.15-.26-.72-.17-1.36-.44-1.93-.82-.57-.38-1.04-.86-1.41-1.45-.37-.59-.55-1.29-.55-2.11,0-.73.13-1.39.38-1.97s.58-1.1.96-1.56.8-.85,1.26-1.18c.45-.32.88-.6,1.27-.82.39-.22.73-.39,1.01-.5.28-.11.45-.18.5-.19-.02,0-.11-.05-.28-.14-.17-.09-.36-.24-.56-.44-.21-.2-.4-.45-.59-.76-.19-.31-.32-.68-.38-1.13-1.3-.12-2.27-.38-2.91-.77-.64-.39-.96-.9-.96-1.51,0-.43.12-.85.37-1.25.25-.41.54-.78.88-1.1.34-.32.69-.59,1.04-.79.35-.21.62-.31.81-.31.09,0,.15.03.18.08.03.05.05.1.05.15,0,.09-.08.24-.23.45-.15.21-.23.47-.23.78,0,.41.12.79.36,1.14.24.35.57.66,1,.94.27-.53.66-1.02,1.17-1.49.5-.46,1.07-.86,1.69-1.2.62-.34,1.29-.61,1.99-.79.7-.19,1.38-.28,2.05-.28.46,0,.89.06,1.29.17.4.11.75.27,1.05.46.3.2.53.44.7.72.17.28.26.59.26.93,0,.44-.17.87-.51,1.28-.34.41-.83.78-1.47,1.11-.64.33-1.41.61-2.32.84-.91.23-1.92.38-3.05.45.02.29.06.55.12.78.06.23.13.43.22.6.09.19.18.37.28.54.14-.02.3-.04.49-.08.15-.02.34-.03.55-.05.21-.02.46-.03.73-.03,1.01,0,1.51.3,1.51.9,0,.26-.15.52-.45.78-.3.26-.7.4-1.19.4-.31,0-.59-.02-.85-.06-.26-.04-.48-.1-.67-.17-.21-.07-.39-.15-.56-.26-.63.38-1.2.82-1.69,1.33-.43.44-.82.99-1.17,1.64-.35.65-.53,1.41-.53,2.28,0,1.08.29,1.87.87,2.4.58.52,1.41.78,2.48.78.92,0,1.79-.26,2.61-.77.82-.51,1.52-1.21,2.1-2.1.02-.05.06-.11.13-.18.03-.03.09-.07.15-.12s.15-.06.23-.06c.15,0,.28.05.38.15.1.1.15.22.15.36,0,.09-.03.21-.1.38-.03.07-.07.14-.1.21-.27.46-.61.91-1.02,1.35-.41.44-.88.82-1.42,1.16-.54.34-1.14.62-1.81.83-.67.21-1.39.32-2.18.32ZM59.67,95.45c-.39,0-.79.09-1.18.26-.39.17-.76.41-1.1.7-.34.3-.65.66-.92,1.08-.27.42-.48.87-.61,1.37.73,0,1.41-.06,2.04-.18.62-.12,1.17-.29,1.63-.51.46-.22.82-.49,1.08-.79.26-.31.38-.65.38-1.02,0-.27-.13-.49-.38-.65-.26-.16-.56-.24-.92-.24Z"/>
        <path class="st15" d="M70.87,110c-.44.6-.95,1.13-1.51,1.59-.5.39-1.1.75-1.81,1.08-.71.32-1.52.49-2.45.49-.55,0-1.1-.07-1.65-.21-.56-.14-1.05-.36-1.5-.67-.44-.31-.8-.71-1.08-1.2-.27-.49-.41-1.1-.41-1.82,0-.85.18-1.67.53-2.45.35-.78.8-1.46,1.36-2.04.55-.58,1.17-1.04,1.86-1.38.68-.34,1.35-.51,2-.51.46,0,.87.07,1.23.22.36.15.66.34.91.58.25.24.44.51.58.81.14.3.21.59.21.88,0,.22-.05.45-.14.68-.09.23-.22.44-.37.63-.15.19-.32.34-.5.46-.18.12-.35.18-.52.18-.34,0-.65-.11-.91-.32-.26-.21-.4-.47-.4-.76,0-.22.05-.4.15-.54.1-.14.22-.26.35-.37s.25-.21.36-.31c.11-.09.17-.21.17-.35s-.07-.26-.22-.37-.32-.17-.52-.17c-.38,0-.74.14-1.09.42-.35.28-.66.65-.94,1.11-.27.46-.5.98-.67,1.55-.17.57-.26,1.15-.26,1.73,0,.89.24,1.55.73,1.97.49.43,1.09.64,1.81.64.58,0,1.11-.12,1.59-.36.48-.24.89-.5,1.23-.79.41-.34.77-.73,1.08-1.18.03-.05.09-.11.15-.18.05-.03.11-.07.18-.12.07-.04.14-.06.23-.06.15,0,.28.05.38.15.1.1.15.22.15.36,0,.07-.02.13-.05.19-.03.06-.07.12-.1.19-.05.07-.09.15-.13.23Z"/>
        <path class="st15" d="M69.89,109.54c0-1.08.18-2.03.55-2.86.37-.83.84-1.52,1.42-2.09.58-.56,1.22-.99,1.92-1.28.7-.29,1.38-.44,2.05-.44.53,0,1.02.09,1.49.26.46.17.86.42,1.19.76.33.33.6.73.79,1.2.2.47.29.99.29,1.58,0,.68-.14,1.41-.41,2.16-.27.76-.66,1.46-1.17,2.1-.5.64-1.11,1.17-1.81,1.59-.7.42-1.48.63-2.33.63-.53,0-1.04-.09-1.52-.28-.49-.19-.91-.44-1.28-.77-.37-.32-.66-.71-.87-1.15-.21-.44-.32-.91-.32-1.41ZM72.92,110.18c0,.51.11.93.32,1.26.21.32.52.49.91.49s.78-.21,1.11-.64c.33-.43.62-.96.86-1.59.24-.63.42-1.3.55-2.01.13-.71.19-1.34.19-1.88,0-.58-.09-.99-.28-1.24-.19-.25-.43-.37-.72-.37s-.61.15-.95.45c-.34.3-.66.72-.96,1.25-.3.54-.55,1.17-.74,1.9-.2.73-.29,1.52-.29,2.39Z"/>
      </g>
      <g>
        <path class="st13" d="M44.32,128.27c-.52,0-.78-.26-.78-.79v-4.17h-.57c-.41,0-.61-.19-.61-.58s.2-.58.61-.58h.57c0-.86.21-1.49.64-1.91.43-.42,1.04-.67,1.84-.74l.42-.04c.21-.02.37.03.47.14.1.11.15.24.15.39,0,.15-.03.29-.12.41-.08.12-.2.19-.36.2h-.17c-.47.05-.81.16-1.02.37-.21.21-.32.52-.32.93v.26h1.05c.41,0,.61.19.61.58s-.21.58-.61.58h-1.05v4.17c0,.52-.25.79-.76.79Z"/>
        <path class="st13" d="M48.4,128.27c-.52,0-.79-.26-.79-.79v-4.65c0-.52.25-.77.75-.77s.75.26.75.77v.38c.3-.71.93-1.1,1.89-1.18.35-.04.55.16.59.6.04.44-.17.68-.64.73l-.27.03c-1.01.1-1.51.61-1.51,1.55v2.55c0,.52-.26.79-.78.79Z"/>
        <path class="st13" d="M53.2,120.93c-.29,0-.51-.07-.67-.22-.16-.14-.24-.34-.24-.6s.08-.46.24-.6c.16-.14.38-.21.67-.21.61,0,.91.27.91.81s-.3.81-.91.81ZM53.2,128.26c-.25,0-.43-.07-.57-.22-.13-.15-.2-.35-.2-.62v-4.51c0-.56.25-.84.76-.84s.77.28.77.84v4.51c0,.26-.07.47-.2.62-.13.15-.32.22-.58.22Z"/>
        <path class="st13" d="M58.53,128.3c-.68,0-1.27-.13-1.76-.38-.49-.25-.87-.61-1.14-1.08-.27-.47-.4-1.02-.4-1.66s.13-1.17.39-1.64c.26-.47.61-.83,1.07-1.1.45-.27.97-.4,1.56-.4.85,0,1.53.27,2.02.81.5.54.74,1.28.74,2.21,0,.3-.2.46-.59.46h-3.71c.11,1.07.73,1.61,1.84,1.61.21,0,.45-.03.72-.08.27-.05.52-.15.76-.28.21-.12.39-.16.54-.12.15.05.25.13.31.27.06.13.07.28.02.44-.05.16-.16.3-.35.41-.29.18-.62.31-.99.4-.37.09-.72.13-1.04.13ZM58.31,123.08c-.45,0-.82.14-1.09.42-.28.28-.45.66-.5,1.13h3.03c-.03-.5-.17-.88-.41-1.15-.24-.27-.58-.4-1.01-.4Z"/>
        <path class="st13" d="M63,128.27c-.51,0-.76-.26-.76-.79v-4.65c0-.52.25-.77.75-.77s.75.26.75.77v.26c.2-.34.48-.61.83-.79.35-.18.74-.27,1.17-.27,1.42,0,2.13.82,2.13,2.47v2.98c0,.52-.25.79-.76.79s-.78-.26-.78-.79v-2.9c0-.47-.09-.81-.26-1.02-.18-.21-.45-.32-.82-.32-.45,0-.81.14-1.08.42-.27.28-.4.66-.4,1.13v2.69c0,.52-.26.79-.77.79Z"/>
        <path class="st13" d="M71.74,128.3c-.52,0-.99-.13-1.38-.38-.4-.25-.71-.62-.93-1.09-.22-.47-.33-1.03-.33-1.67s.11-1.2.33-1.67c.22-.46.53-.82.93-1.08.4-.25.86-.38,1.38-.38.43,0,.81.09,1.16.28.34.19.6.44.77.75v-2.89c0-.52.25-.77.76-.77s.77.26.77.77v7.3c0,.52-.25.79-.76.79s-.76-.26-.76-.79v-.26c-.17.33-.43.59-.78.78-.34.19-.73.29-1.17.29ZM72.17,127.13c.46,0,.83-.17,1.11-.5.28-.33.42-.82.42-1.47s-.14-1.14-.42-1.47c-.28-.32-.65-.49-1.11-.49s-.83.16-1.11.49c-.28.32-.42.81-.42,1.47s.14,1.14.42,1.47c.28.33.65.5,1.11.5Z"/>
        <path class="st13" d="M78.86,128.3c-1.37,0-2.05-.77-2.05-2.3v-5.82c0-.52.25-.77.76-.77s.77.26.77.77v5.74c0,.74.31,1.11.92,1.11.07,0,.13,0,.18,0,.06,0,.12-.01.17-.02.12-.02.19.01.23.09.04.08.06.24.06.47,0,.21-.04.36-.12.48s-.22.18-.41.21c-.17.03-.35.04-.53.04Z"/>
        <path class="st13" d="M82.1,130.49c-.28,0-.47-.1-.58-.31-.11-.21-.1-.44.01-.7l.7-1.55-2.1-4.84c-.12-.27-.12-.51,0-.71.11-.21.34-.31.68-.31.19,0,.34.04.46.13.11.09.22.25.31.49l1.48,3.69,1.51-3.7c.09-.23.2-.39.32-.47.12-.09.29-.13.49-.13.26,0,.45.1.55.31.11.21.1.44-.01.7l-2.99,6.83c-.11.23-.22.39-.34.47-.12.08-.28.12-.48.12Z"/>
      </g>
    </g>
  </g>
  <g>
    <g>
      <g>
        <path class="st8" d="M124.36,147.56h-3.18s-.28-2.31-.28-2.31c1.14-1.1,2.44-1.69,3.78-2.03l-.32,4.34Z"/>
        <path class="st3" d="M124.78,141.89l-.21,2.72c-1.33.08-2.53.13-3.63.9l-.36-3.01,4.21-.61Z"/>
        <polygon class="st8" points="126.89 149.94 127.06 149.8 127.06 149.8 126.89 149.94"/>
        <g>
          <path class="st7" d="M129.88,149.22c-.11-.59-.9-.95-1.82-1.26l-4.67-1.91-1.35-.48c-.47-.17-.98.1-1.12.58l-.48,1.69c-.14.56-.05,1.13.19,1.55h9.26s0-.1,0-.16Z"/>
          <path class="st12" d="M120.62,149.38c.21.36.52.61.89.61l7.79.02c.28,0,.56-.28.59-.61h-9.26Z"/>
          <path class="st8" d="M128.01,147.94l-3.54-1.72-2.31-.78c-.57-.19-1.18.18-1.27.78h0c2.58,1.16,7.12,1.72,7.12,1.72Z"/>
        </g>
        <path class="st0" d="M121.78,148.78c-.41,0-.74-.38-.74-.84s.33-.84.74-.84.74.38.74.84-.33.84-.74.84ZM121.78,147.3c-.3,0-.54.29-.54.64s.24.64.54.64.54-.29.54-.64-.24-.64-.54-.64Z"/>
      </g>
      <g>
        <path class="st8" d="M105.65,147.56h3.18s.28-2.31.28-2.31c-1.14-1.1-2.44-1.69-3.78-2.03l.32,4.34Z"/>
        <path class="st3" d="M105.23,141.89l.21,2.72c1.33.08,2.53.13,3.63.9l.36-3.01-4.21-.61Z"/>
        <g>
          <path class="st7" d="M100.02,149.18c.11-.59.9-.95,1.82-1.26l4.67-1.91,1.39-.5c.45-.16.94.09,1.07.55l.49,1.73c.14.56.05,1.13-.19,1.55h-9.26s0-.1,0-.16Z"/>
          <path class="st12" d="M109.28,149.34c-.21.36-.52.61-.89.61l-7.79.02c-.28,0-.56-.28-.59-.61h9.26Z"/>
          <path class="st8" d="M101.89,147.91l3.54-1.72,2.54-.86c.46-.15.94.14,1.01.62l.03.24c-2.58,1.16-7.12,1.72-7.12,1.72Z"/>
        </g>
        <path class="st0" d="M108.12,148.75c-.41,0-.74-.38-.74-.84s.33-.84.74-.84.74.38.74.84-.33.84-.74.84ZM108.12,147.27c-.3,0-.54.29-.54.64s.24.64.54.64.54-.29.54-.64-.24-.64-.54-.64Z"/>
      </g>
      <polygon class="st16" points="122.95 94.18 108.73 94.1 108.62 96.58 108.57 98.01 122.95 98.12 122.95 94.18"/>
      <path class="st16" d="M119.01,98.39l10.37-.46c.22-1.61.09-2.42,0-3.73h-10.37v4.19Z"/>
      <path class="st10" d="M118.87,97.57c.26,7.34.39,32.9.39,44.08,0,.73.46,1.35,1.1,1.35h4.81c.83,0,1.53-.65,1.71-1.57,3.34-16.96,3.21-34.1,2.53-43.81l-10.54-.05Z"/>
      <path class="st10" d="M108.58,97.54c-.61,11.53-5.32,26.9-5,43.89.02.91.59,1.55,1.39,1.55h4.67c.61,0,1.22-.62,1.3-1.34,1.09-9.37,8.16-36.6,10.81-43.99l-13.17-.11Z"/>
      <rect class="st16" x="119.07" y="97.37" width=".18" height="43.17" transform="translate(-1.12 1.13) rotate(-.54)"/>
      <path class="st16" d="M118.89,101.84l.13-.12-.13-.13c-.75-.36-1.1-1.09-1.09-1.4l-.06-2.84h-.18s.06,2.84.06,2.84c-.01.33.32,1.13,1.18,1.55l.09.1Z"/>
      <path class="st10" d="M119.94,97.23c-.93,0-1.67-.4-1.67-.91s.73-.91,1.67-.91,1.67.4,1.67.91-.73.91-1.67.91ZM119.94,95.59c-.81,0-1.49.33-1.49.73s.68.73,1.49.73,1.49-.33,1.49-.73-.68-.73-1.49-.73Z"/>
    </g>
    <path class="st5" d="M106.71,69.87s5.88-6.38,19.57-.42l3.18,22.62c.11.57.21,1.49.06,2.02l-.07.93-20.86-.05s-.43-1.59-.47-1.97l-1.41-23.13Z"/>
    <path class="st1" d="M119.64,95.02h0c-.05,0-.09-.04-.09-.09.16-12.37-2.8-25.98-2.83-26.12-.01-.05.02-.1.07-.11.05-.01.1.02.11.07.03.14,2.99,13.77,2.83,26.16,0,.05-.04.09-.09.09Z"/>
    <g>
      <path class="st5" d="M117.9,71.39c.05-.27.32-.44.61-.39.29.05.48.31.44.58-.05.27-.32.44-.61.39-.29-.05-.48-.31-.44-.58Z"/>
      <path class="st1" d="M118.44,72.07s-.08,0-.12-.01c-.16-.03-.31-.12-.4-.24-.1-.13-.14-.29-.11-.44.03-.15.12-.29.26-.37.14-.09.3-.12.46-.09.16.03.31.12.4.24.1.13.14.29.11.44-.05.28-.31.47-.6.47ZM118.41,71.08c-.09,0-.17.02-.24.07-.09.06-.16.15-.17.25h0c-.02.1,0,.21.07.3.07.09.17.15.29.17.24.04.46-.1.5-.31.02-.1,0-.21-.07-.3-.07-.09-.17-.15-.29-.17-.03,0-.06,0-.09,0ZM117.9,71.39h0,0Z"/>
    </g>
    <g>
      <path class="st5" d="M118.64,76.44c.08-.26.37-.39.64-.31.27.09.42.37.34.62-.08.26-.37.39-.64.31-.27-.09-.42-.37-.34-.62Z"/>
      <path class="st1" d="M119.14,77.18c-.06,0-.13,0-.19-.03-.15-.05-.28-.15-.35-.29-.08-.14-.09-.3-.04-.45.05-.15.15-.27.3-.34.14-.07.3-.08.46-.03.32.1.5.43.4.74-.08.24-.31.4-.56.4ZM119.11,76.2c-.06,0-.13.01-.19.04-.1.05-.17.13-.2.23h0c-.03.1-.02.21.03.3.05.1.14.17.25.21.22.07.46-.04.53-.25.07-.21-.06-.44-.28-.51-.05-.01-.09-.02-.14-.02ZM118.64,76.44h0,0Z"/>
    </g>
    <g>
      <path class="st5" d="M119.68,81.38c.15-.19.44-.2.65-.03.2.17.24.45.09.64-.15.19-.44.2-.65.03-.2-.17-.24-.45-.09-.64Z"/>
      <path class="st1" d="M120.08,82.23c-.13,0-.27-.05-.37-.14-.12-.1-.19-.23-.21-.37-.02-.15.02-.29.11-.4h0c.19-.22.53-.24.77-.05.12.1.19.23.21.37.02.15-.02.29-.11.4-.09.11-.22.17-.37.18-.01,0-.02,0-.03,0ZM119.75,81.44c-.06.07-.08.16-.07.26.01.1.06.19.14.26.08.07.18.1.28.09.1,0,.18-.05.24-.12.06-.07.08-.16.07-.26-.01-.1-.06-.19-.14-.26-.16-.14-.4-.13-.52.02h0Z"/>
    </g>
    <path class="st10" d="M119.92,97.25c-.94,0-1.68-.4-1.68-.92s.74-.92,1.68-.92,1.68.4,1.68.92-.74.92-1.68.92ZM119.92,95.6c-.81,0-1.5.34-1.5.73s.69.73,1.5.73,1.5-.34,1.5-.73-.69-.73-1.5-.73Z"/>
    <rect class="st9" x="113.64" y="67.76" width=".29" height="33.93" transform="translate(-19.16 35.22) rotate(-16.25)"/>
    <path class="st5" d="M123.49,68.43s6.62,1.11,14.79,11.24c3.49,4.33-.37,8.71-2.78,6.58-4.03-3.57-5.09-4.72-11.05-8.08l-1.16-3c-.38-1.06-.85-6.72.19-6.74Z"/>
    <g>
      <path class="st5" d="M133.93,81.42l-4.38,12.47c1.35.87.65,3.99.65,3.99,0,0,8.58-6.24,9.28-13.49l-5.55-2.97Z"/>
      <path class="st1" d="M130.2,97.97s-.03,0-.05-.01c-.03-.02-.05-.06-.04-.09,0-.03.67-3.06-.61-3.89-.03-.02-.05-.07-.04-.1l4.38-12.47s.07-.07.11-.05c.05.02.07.07.05.11l-4.36,12.41c1.11.8.81,3.07.67,3.81,1.25-.97,8.42-6.76,9.06-13.29,0-.05.05-.08.1-.08.05,0,.09.05.08.1-.7,7.21-9.23,13.5-9.32,13.56-.02.01-.03.02-.05.02Z"/>
    </g>
    <g>
      <g>
        <path class="st8" d="M129.5,93.85c-.27-.18-4.51-.39-4.51-.39-.27,0-.46.25-.37.48v.02c.13.31.43.53.78.55l.53.06-1.49.11c-.2.01-.34.2-.28.38l.06.18c.09.27.42.52.72.52l2.93.03-2.3.48c-.13.03-.21.15-.18.27.08.27.38.48.68.47l2.16-.15h0s-1.26.31-1.26.31c-.21.05-.3.32-.18.49.11.17.32.25.52.22l1.72-.27.29.35c.22.27.65.27.85-.01.78-1.05.8-3.09-.68-4.1Z"/>
        <path class="st3" d="M129.75,98.26c-.19,0-.37-.08-.5-.23l-.26-.31-1.67.26c-.25.04-.49-.06-.61-.26-.07-.11-.08-.25-.04-.38.05-.12.15-.21.27-.25l.22-.05-1.08.08c-.34.02-.68-.21-.78-.53-.02-.08-.01-.16.03-.24.05-.08.12-.13.22-.15l1.47-.3-2.08-.02c-.34,0-.71-.28-.8-.59l-.06-.18c-.03-.11-.02-.22.05-.32.07-.1.18-.17.31-.18l.68-.05c-.26-.09-.47-.29-.57-.55v-.02c-.06-.13-.04-.28.04-.4.09-.13.24-.21.4-.21.72.03,4.29.22,4.56.4t0,0c.82.56,1.1,1.34,1.2,1.9.14.83-.05,1.73-.5,2.33-.11.15-.28.24-.48.25,0,0-.01,0-.02,0ZM129.03,97.52s.05.01.07.03l.29.35c.09.11.23.17.37.16.14,0,.26-.07.34-.17.42-.57.6-1.41.46-2.19-.09-.52-.36-1.26-1.12-1.78-.2-.12-2.84-.29-4.46-.37-.1,0-.19.05-.25.13-.05.07-.06.15-.03.23v.02c.11.28.39.47.7.49l.53.07s.08.05.08.09c0,.05-.04.09-.08.09l-1.49.11c-.07,0-.14.04-.17.1-.03.05-.04.11-.03.16l.06.18c.07.24.38.45.63.46l2.93.03s.09.04.09.08c0,.05-.03.09-.07.1l-2.3.48s-.08.03-.1.07c-.02.03-.02.06-.01.09.07.24.33.42.59.4l2.16-.15s.05,0,.07.02c.02.02.03.04.03.07,0,.04-.03.09-.07.1l-1.26.29c-.07.02-.12.07-.15.14-.03.07-.02.15.02.21.09.14.26.21.43.18l1.72-.27s0,0,.01,0Z"/>
      </g>
      <path class="st3" d="M127.71,94.74h0l-1.86-.07c-.05,0-.09-.04-.09-.09,0-.05.04-.09.09-.09h0l1.86.07c.05,0,.09.04.09.09,0,.05-.04.09-.09.09Z"/>
    </g>
    <path class="st9" d="M104.74,103.25c-.46-9.45-.09-19,1.09-28.38l.29.04c-1.19,9.36-1.55,18.89-1.09,28.33h-.29Z"/>
    <g>
      <path class="st17" d="M122.35,51.02c.54-.62.77-1.54.49-2.29-.28-.74-1.1-1.21-1.86-.99-.75.23-1.29,1.19-1.01,1.94.1-.76-.37-1.53-1.05-1.73-.69-.21-1.52.17-1.88.85-.37.68-.22,1.59.32,2.07-.2-.47-.92-.43-1.23,0-.31.43-.24,1.04.03,1.46.27.42.71.68,1.14.91-.41.05-.72.52-.71.95,0,.43.26.81.57,1.08.82.69,2.05.73,3.05.24,1-.49,1.77-1.45,2.21-2.52.17-.4.29-.82.25-1.24-.04-.42-.29-.82-.31-.73Z"/>
      <path class="st11" d="M118.27,57.93c.21-.47,1.02-1.16,1.02-1.4.45-1.22.89-2.9-1.23-5.37-1.05-.64-1.76-.81-2.95-.8-1.88.02-2.02.85-2.7,1.11-1.05.4-1.25.73-1.69,1.95-.44,1.21-.24,2.09.3,3.38.06.14.45,1.2.89,1.9.57.97-.26,2.62.51,3.59,1.15,1.47,2.57.08,3.94.83.2.13.36.3.48.51,0-.06,0-.13,0-.19-.01-.82.27-1.74.91-2.04.22-.1.45-.12.67-.22.07-.03.14-.08.2-.14-.43-.91-.58-1.98-.34-3.1Z"/>
      <path class="st17" d="M118.67,60.56l1.61-1.08c.73-.5,1.19-1.73,1.28-2.62.2-1.96-.72-3.71-2.25-4.94-.43-.34-1.18-.73-1.66-.97,2.74,2.91,1.23,3.46,1.58,5.59,0,.24-.97.93-1.22,1.39-.28,1.13-.09,2.2.43,3.11.15-.12.26-.29.24-.47Z"/>
      <g>
        <path class="st8" d="M114.69,64.38c1.43.21,2.86-.09,4.11.51l-.2,3.62-3.48.74-.56-.34.13-4.53Z"/>
        <path class="st3" d="M114.69,63.64v1.14c1.46.1,2.82.39,4.08.98l.19-4.58c-1.04,1.22-2.63,2.34-4.27,2.46Z"/>
      </g>
      <path class="st4" d="M116.19,59.83s0,0,0,0h0Z"/>
      <path class="st8" d="M111.72,54.65c.35-.02.88.04,1.05.06.83.12,2.14-1.01,3.58-.7,1.18.25,1.95,1.68,2.29,2.02.67.67.39,4.89.41,5.09,0,0,.09.47-1.03,1.24-1.24.86-2.37,1.17-3.17,1.38-.25.07-.57.07-.83.04-1.11-.13-2.5-1.8-2.67-3.47,0-.01,0-.03,0-.04l.04-5.21c0-.22.15-.41.34-.42Z"/>
      <path class="st3" d="M113.44,59.9c-.11-.03-.18-.05-.25-.08-.07-.02-.14-.05-.25-.08-.02,0-.05-.01-.07-.03-.09-.06-.06-.16,0-.32.06-.16.15-.43.25-.89.01-.06.07-.1.13-.08.06.01.1.07.08.13-.11.48-.2.75-.26.92,0,.03-.02.06-.03.08.09.03.15.05.21.07.07.02.14.05.24.08.06.02.09.08.08.14-.01.05-.06.08-.11.08,0,0-.02,0-.03,0ZM113.03,59.6h0,0Z"/>
      <path class="st11" d="M115.75,55.94c-.11-.11-.23-.2-.37-.26-.14-.06-.29-.1-.45-.11-.15-.01-.31,0-.46.04-.15.04-.29.1-.41.2.3-.03.58-.04.86-.02.14,0,.28.03.41.05.14.02.28.06.43.1Z"/>
      <path class="st11" d="M112.76,56.7c-.11-.11-.23-.21-.37-.28-.14-.08-.29-.12-.45-.15-.16-.02-.33,0-.48.05-.15.05-.28.14-.4.25.16-.03.3-.07.44-.08.14-.01.28-.01.41,0,.14.02.28.05.41.09.14.04.28.08.43.12Z"/>
      <g>
        <path class="st2" d="M111.67,57.81c.04-.1.13-.17.24-.16.17,0,.33.17.35.38.02.2-.14.33-.31.32-.17,0-.28-.14-.31-.34,0,0-.01-.11.02-.19Z"/>
        <path class="st2" d="M111.83,57.64s0,0,0,0c.34-.03.61.09.62.1.03.01.04.05.03.08-.01.03-.05.04-.08.03,0,0-.25-.11-.58-.08,0-.04,0-.08,0-.11Z"/>
        <polygon class="st2" points="111.5 57.62 111.82 57.9 111.85 57.64 111.5 57.62"/>
      </g>
      <path class="st11" d="M118.27,53.36c-.07-.02-.14-.04-.21-.05-1.22-.24-2.54-.05-3.6.53-.77.42-2.01.83-1.68.87,1.92.2,2.43-.93,4.05-.26,1.3.54,1.4,2.67,1.61,2.95,0,0,0,0,.01,0,.6-.51.76-1.34.54-2.08-.19-.67-.47-1.31-.72-1.94Z"/>
      <path class="st17" d="M118.99,59.49c.1.27.34.54.66.52.16-.01.3-.09.42-.18.6-.45.92-1.11,1.19-1.77.26-.64.47-1.32.3-1.99-.08-.33-.26-.64-.47-.92-.65-.87-.7-1.53-1.83-1.81.4,1.01-.39,3.5-.8,4.05.13.18.15.45.18,1.01.02.38.23.72.36,1.09Z"/>
      <path class="st8" d="M118.61,59.57c-.82.77-.3,1.72.39,1.72s1.42-.83,1.62-1.86c.21-1.03-.37-1.91-1.33-1.97-.69-.04.07,1.4-.69,2.11Z"/>
      <path class="st3" d="M118.51,60.88h0s.05-.03.05-.06c0-.11,0-.26.04-.39.04-.13.11-.23.19-.27.08-.04.18-.04.31.01.04.01.08.03.12.04.08.02.15.05.21.09.02.01.04.01.06,0,0,0,.81-.58.59-1.59,0-.03-.04-.05-.07-.04-.03,0-.05.04-.04.07.19.84-.37,1.34-.51,1.45-.07-.04-.14-.06-.21-.08-.04-.01-.07-.02-.11-.04-.16-.06-.29-.06-.4,0-.11.06-.2.18-.24.34-.04.15-.04.3-.04.42,0,.03.03.05.06.05Z"/>
      <path class="st4" d="M115.1,60.35c-.03.26-.28.49-.62.54-.34.06-.66-.08-.77-.31l1.38-.23Z"/>
      <g>
        <path class="st2" d="M115.07,57.76c.04-.1.13-.17.24-.16.17,0,.33.17.35.38.02.2-.14.33-.31.32-.17,0-.28-.14-.31-.34,0-.01,0-.11.02-.19Z"/>
        <path class="st2" d="M115.24,57.59s0,0,0,0c.34-.03.61.09.62.1.03.01.04.05.03.08-.01.03-.05.04-.08.03,0,0-.25-.11-.58-.08,0-.04,0-.08,0-.11Z"/>
        <polygon class="st2" points="114.9 57.57 115.23 57.85 115.25 57.58 114.9 57.57"/>
      </g>
    </g>
    <g>
      <path class="st14" d="M104.32,103.33c0-4.68,3.84-8.47,8.58-8.47s8.58,3.79,8.58,8.47-17.17,4.67-17.17,0Z"/>
      <path class="st9" d="M113.27,104.81c-1.21,0-2.34-.14-3.31-.33-3.22-.64-5.53-1.97-5.55-1.99-.03-.02-.05-.06-.03-.1.02-.03.06-.05.1-.03.02.01,2.31,1.34,5.51,1.97,2.95.58,7.3.67,11.29-2.18.03-.02.08-.02.1.02.02.03.02.08-.02.1-2.72,1.94-5.6,2.54-8.1,2.54Z"/>
      <g>
        <path class="st14" d="M113.46,104.09c.25,0,.45.25.45.56s-.2.56-.45.56-.45-.25-.45-.56.2-.56.45-.56Z"/>
        <path class="st9" d="M113.46,105.28c-.29,0-.52-.28-.52-.63s.23-.63.52-.63.52.28.52.63-.23.63-.52.63ZM113.46,104.17c-.21,0-.38.22-.38.49s.17.49.38.49.38-.22.38-.49-.17-.49-.38-.49Z"/>
      </g>
    </g>
    <path class="st8" d="M121.05,67.64s-4.23-2.05-9.12-.32c0,0,5.61,5.35,9.12.32Z"/>
    <path class="st5" d="M106.31,70.2c-2.97,3.46-6.78,7.53-8.79,16.98-1.16,5.44,3.95,7.33,5.52,4.53,3.67-6.54,3.76-7.12,6.02-12.29l-.37-9.62c-.16-1.12-1.69-.4-2.37.4Z"/>
    <g>
      <path class="st5" d="M102.82,86.9l9.81,6.77-.74,3.13c-2.31.58-9.3-1.02-13.58-5.22l4.5-4.68Z"/>
      <path class="st1" d="M110.8,97c-2.96,0-8.8-1.69-12.54-5.36-.04-.03-.04-.09,0-.13.03-.04.09-.04.13,0,4.22,4.15,11.15,5.74,13.44,5.21l.71-3.02-9.76-6.74s-.05-.08-.02-.12c.03-.04.08-.05.12-.02l9.81,6.77s.04.06.04.09l-.74,3.13s-.03.06-.06.07c-.3.07-.67.11-1.12.11Z"/>
    </g>
    <g>
      <path class="st8" d="M114.29,93.57l1.28.1c.39-.04.79.11,1.09.41l2.83,2.15c.17.15.18.45.02.58h-.02c-.22.19-.51.19-.75,0l-.37-.24.91.91c.12.12.13.34,0,.45l-.12.11c-.18.16-.5.17-.7,0l-1.91-1.6,1.27,1.64c.07.09.07.24-.01.31-.18.17-.46.17-.65-.02l-1.32-1.31h0s.68.94.68.94c.11.16.05.41-.1.48-.15.07-.32.02-.44-.12l-.99-1.16-2.28-.02c-.53-.13-.61-.13-.9-.49l-.29-1.05c0-.08-.03-.16-.07-.23-.43-.88.28-1.9,1.26-1.88.65,0,1.23.03,1.59.03Z"/>
      <path class="st3" d="M118.39,96.68s-.04,0-.05-.02l-1.18-.98s-.04-.08-.01-.12c.03-.04.08-.04.12-.01l1.18.98s.04.08.01.12c-.02.02-.04.03-.06.03Z"/>
    </g>
    <path class="st16" d="M127.96,99.67c-.46,0-.88-.07-1.29-.2-1.03-.34-1.8-1.12-2.03-2.04-.01-.05.02-.11.07-.12.05-.01.11.02.12.07.2.84.95,1.59,1.9,1.9.8.26,1.63.26,2.7,0,.05-.01.11.02.12.07.01.05-.02.11-.07.12-.56.14-1.05.21-1.52.21Z"/>
  </g>
</svg>