<?xml version="1.0" encoding="UTF-8"?>
<svg id="Layer_1" xmlns="http://www.w3.org/2000/svg" version="1.1" viewBox="0 0 150 150">
  <!-- Generator: Adobe Illustrator 29.7.1, SVG Export Plug-In . SVG Version: 2.1.1 Build 8)  -->
  <defs>
    <style>
      .st0 {
        fill: #faf1e6;
      }

      .st1 {
        fill: #ffa200;
      }

      .st2 {
        fill: #ff8936;
      }

      .st3 {
        fill: #ceffe4;
      }

      .st4 {
        fill: #ffbbf5;
      }

      .st5 {
        fill: #ff6036;
      }

      .st6 {
        fill: #ffbfff;
      }

      .st7 {
        fill: #f1f3f9;
      }

      .st8 {
        fill: #060609;
      }

      .st9 {
        fill: #00a190;
      }

      .st10 {
        fill: #ff958d;
      }

      .st11 {
        fill: #007477;
      }

      .st12 {
        fill: #ffb200;
      }

      .st13 {
        fill: #ffbe00;
      }

      .st14 {
        fill: #033922;
      }

      .st15 {
        fill: #ff3f40;
      }

      .st16 {
        fill: #ffe7ec;
      }

      .st17 {
        fill: #00a692;
      }

      .st18 {
        fill: #ffcfbb;
      }

      .st19 {
        fill: #ff5c50;
      }

      .st20 {
        fill: #f40;
      }

      .st21 {
        fill: #007770;
      }

      .st22 {
        fill: #005d6a;
      }

      .st23 {
        fill: #541516;
      }

      .st24 {
        fill: #050303;
      }

      .st25 {
        fill: #160b0c;
      }

      .st26 {
        fill: #0d3b12;
      }

      .st27 {
        fill: #56ac7a;
      }

      .st28 {
        fill: #ff5e40;
      }

      .st29 {
        fill: #ff8079;
      }

      .st30 {
        fill: #ffaae9;
      }

      .st31 {
        fill: #ff6c39;
      }
    </style>
  </defs>
  <path class="st16" d="M64.82,117.37h-9.83s-14.02-4.66-7.1-17.67c6.92-13.01,14.87-6.81,17.9-13.41,3.03-6.6-3.89-25.59,19.84-20.98,23.73,4.61,7.8,9.7,30.02,14.24,22.21,4.54,28.62,8.15,30.42,23.85,1.8,15.7-10.61,13.96-10.61,13.96h-70.64Z"/>
  <path class="st3" d="M35.69,96.41s-11.27,11.71-22.39,3.1c-11.11-8.6.79-20.4,2.14-26.11,1.35-5.71-11.32-9.23,0-30.15,9.72-17.97,29.55-8.15,38.87,6.05,9.31,14.2-1.32,30.17-18.62,47.12Z"/>
  <path class="st7" d="M65.16,38.63c-.79,4.91,4.37,17.71,9.42,12.39,5.05-5.32,15.87-20.65,9.24-23.27s-16.7-1.21-18.66,10.88Z"/>
  <path class="st0" d="M118.41,29.17c-6.39-.61-14.23,5.32-13.4,11.47s-11.32,4.23-16.19,6.64c-4.87,2.41-12.34,8.36,4.73,10.78,17.07,2.42,31.96,4.08,33.68-6.74,1.72-10.82,2.53-21.08-8.82-22.16Z"/>
  <g>
    <path class="st2" d="M98.47,56.26c.49-.5.54-1.25.49-1.95-.06-.91-.47-1.62-1.41-1.77-.88-.14-1.52.31-1.73,1.19-.2.85-.63.72-1.18.37-.81-.52-1.37-1.23-1.54-2.17-.17-.93-.52-1.29-1.55-1.06-1.37.3-2.53-.15-3.22-1.48-.43.26-.52.72-.68,1.13-.9,2.22-.64,4.5-.34,6.78-.11.49-.36.89-.49,1.38-.02.07-.03.16,0,.22.04.08.12.12.2.14.33.1.7.04.98-.16.42.35.72.73,1.14,1.07.15.12.78.8.97.86,0,0,0,0,0,0,1.38,1.18,3.03,1.57,4.95,1.15.45-.1.89-.16,1.34-.08.56-.88,1.12-1.76,1.68-2.64-.37-1.07-.51-2.06.39-3ZM93.7,57.73c-.1,1.62-1.34,2.61-3.1,2.47-.06,0-.13-.01-.19-.02.4-.16.72-.52.8-.94.09-.45-.12-.96-.52-1.19-.16-.1-.35-.15-.51-.25-.16-.1-.29-.24-.41-.39-.21-.25-.54-.84-.92-1.24.01-1.52.74-2.12,2.09-1.73,1.76.13,2.89,1.47,2.77,3.28Z"/>
    <path class="st2" d="M98.07,59.27c-.56.88-1.12,1.76-1.68,2.64.79.99,1.59,1.98,2.38,2.98.53-.1.83.33,1.22.55-.48-2.1-1.19-4.13-1.91-6.16Z"/>
  </g>
  <g>
    <path class="st21" d="M76.14,63.26c-.06-.43-.43-.49-.77-.55-.66-.12-1.33,0-1.98.06-.72.07-1.45.18-2.25.28.26-.51.49-.96.71-1.4-.22-.14-.42-.31-.69-.34-.21.62-.62,1.14-.89,1.72-.06.14-.17.2-.33.23-3.32.65-6.62,1.41-9.86,2.37-.01,0-.03-.01-.1-.04.85-1.25,1.7-2.49,2.54-3.73.09-.13.21-.19.35-.23,2.38-.7,4.65-1.64,6.85-2.78.05-.28.09-.56.15-.84.01-.07.06-.17.11-.18,1.03-.19.5-1.21,1.02-1.76-1.11.07-2-.19-2.68-.99-.63.53-1.25,1.06-1.87,1.59.24-.87.5-1.7.7-2.54.56-2.37.73-4.79.96-7.21.19-2,.34-4.01.51-6.02-.23-.2-.51-.31-.79-.4-.94,2.64-1.73,5.32-2.53,8.01.88,1.17.62,2.07-.84,2.88-.52,1.89-1.22,3.74-1.67,5.65-.3,1.3-.69,2.58-.75,3.92-.01.28-.06.52-.21.75-1.03,1.64-2.12,3.25-3.11,4.92-.1.18-.14.29-.11.36-.2.11-.4.25-.53.43-.15.21-.21.5-.09.74.16.31.55.4.89.45,1.58.21,3.2.11,4.74-.27.16-.02.31-.07.47-.12,2.46-.83,4.9-1.71,7.31-2.65,1.39-.55,2.78-1.11,4.16-1.68.28-.12.65-.23.59-.66Z"/>
    <path class="st21" d="M58.03,63.7c-.11-.63-.23-1.3-.65-1.79s-1.25-.68-1.7-.23l-.84,1.61c-.66,1.47-1,3.08-.98,4.69,0,.29.02.59.18.84.3.47,1,.52,1.49.25s.81-.75,1.12-1.21c.25-.38.5-.75.74-1.13.3-.45.6-.91.71-1.44.11-.52.02-1.06-.07-1.59Z"/>
  </g>
  <path class="st10" d="M69.72,58.86c.05-.28.09-.56.15-.84.01-.07.06-.17.11-.18,1.03-.19.5-1.21,1.02-1.76-1.11.07-2-.19-2.68-.99-.13-1.39.59-1.99,1.96-1.65.08.02.17.04.33.07-.24-.51-.52-.93-.59-1.44-.08-.68-.01-1.3.6-1.73.6-.42,1.19-.3,1.77.07.11.11.23.23.34.34.06.44.12.88.19,1.43.3-.45.66-.71,1.1-.88.85-.32,1.73-.08,2.1.58.36.63.11,1.58-.56,2.12-.3.24-.64.4-1.13.57.43.12.75.18,1.05.3.64.24,1.11.93,1.07,1.54-.05.66-.43,1.13-1.07,1.26-.53.1-1-.09-1.42-.39-.24-.18-.46-.39-.69-.59-.39,1.14-.7,1.36-1.91,1.36.21.36.18.74.21,1.22.26-.39.49-.69.84-.86.37-.19.74-.22,1.06.06.32.29.23.66.09,1-.12.31-.38.52-.57.78-.02.03-.05.06-.07.1.04,0,.08,0,.12,0,.32-.02.65-.03.97-.05.22-.02.43.03.64.1.3.1.5.3.52.62.03.35-.17.59-.48.7-.99.36-1.97.31-2.95-.08-.22-.14-.42-.31-.69-.34-.58-.75-1.13-1.53-1.43-2.45Z"/>
  <path class="st21" d="M59.77,50.15c-.33,1.1-.68,2.2-1,3.31-.18.64,0,1.29.06,1.93.23,2.44-.09,4.85-.31,7.27-.12,1.26-.28,2.51-.4,3.76-.04.4-.15.51-.57.38-1.04-.32-2.08-.59-3.14-.85-.31-.08-.39-.19-.34-.52.55-3.09,1.07-6.19,1.62-9.28.31-1.74.63-3.48.95-5.22.08-.42.1-.94.67-.97.56-.03.65.49.77.9.12.41.2.83.39,1.26.28-.82.56-1.65.83-2.47.17.15.43.21.45.49Z"/>
  <path class="st19" d="M59.77,50.15c-.03-.28-.29-.34-.45-.49-.93-1.08-1.24-2.3-.81-3.67.06-.19.14-.37.25-.54.38-.62.96-.89,1.49-.74.53.16.82.62.84,1.37,0,.07,0,.14,0,.25.26-.1.31-.35.45-.51.36-.43.72-.86,1.23-1.13.48-.25.97-.31,1.43.03.47.35.51.85.39,1.37-.18.77-.73,1.26-1.35,1.69-.26.18-.54.34-.81.55.98-.1,1.96-.29,2.88.19.88,1.17.62,2.07-.84,2.88-1.69.06-3.28-.22-4.67-1.26Z"/>
  <path class="st19" d="M73.18,49.15c-.84-.89-1.33-1.91-1.18-3.17.08-.65.44-1.1.93-1.18.57-.09,1.09.22,1.36.84.18.39.19.83.26,1.3.16-.4.29-.75.45-1.09.22-.48.53-.9,1.04-1.12.59-.25,1.17-.18,1.51.18.37.39.42,1.08.13,1.62-.21.39-.51.69-.86.96-.17.13-.34.27-.51.4-.12,0-.21.04-.33.15.18.03.28-.01.36-.09.46-.05.93-.12,1.39-.13.74-.02,1.21.3,1.29.81.08.57-.29,1.13-.98,1.3-1.51.38-3,.35-4.41-.42-.09-.2-.27-.28-.45-.35Z"/>
  <path class="st19" d="M68.61,40.92c-.23-.2-.51-.31-.79-.4-.27-.23-.55-.46-.81-.7-.29-.26-.5-.57-.58-.95-.09-.4-.05-.77.31-1.02.37-.25.72-.1,1.05.13.28.19.43.48.62.82.23-.34.46-.63.79-.81.37-.19.77-.32,1.1.02.31.32.18.71.03,1.06-.09.23-.34.37-.38.66.37-.07.71-.16,1.06-.2.38-.04.76.02.88.45.13.44-.15.72-.52.9-.76.37-1.55.24-2.34.12-.14-.02-.28-.05-.42-.08Z"/>
  <path class="st21" d="M73.18,49.15c.19.07.37.15.45.35-.32.4-.49.91-.9,1.25-.11-.11-.23-.23-.34-.34.26-.42.52-.84.78-1.25Z"/>
  <path class="st10" d="M57.37,39.45c-.28-.09-.5.03-.67.24-.13.17-.22.37-.34.55-.17.26-.19.6-.47.83-.01-.12-.02-.21-.03-.3-.06-.44-.1-.91-.66-.98-.53-.07-.75.34-.95.73-.23.46-.21.98-.31,1.47-.02.01-.05.03-.07.04-.14-.14-.28-.28-.43-.4-.29-.23-.62-.32-.95-.09-.33.24-.32.59-.19.93.1.25.25.49.42.68.86.94,1.98,1.49,3.07,2.08.2.11.32.05.41-.17.59-1.32,1.16-2.65,1.45-4.07.07-.32.09-.64.09-.97,0-.27-.11-.5-.39-.58Z"/>
  <path class="st8" d="M33.46,106.64s-.05.07-.07.11c-.01-.05-.03-.09-.04-.14.04.02.08.03.12.03Z"/>
  <path class="st26" d="M120.59,84.95c-5.38,1.44-10.89,1.67-16.4,1.83-.41.01-.82-.01-1.23-.06-1.65-.21-1.97-.52-1.86-2.2.27-4.14.54-8.28.3-12.43-.13-2.29-.59-4.51-1.41-6.66-.48-2.1-1.19-4.13-1.91-6.16-.37-1.07-.51-2.06.39-3,.49-.5.54-1.25.49-1.95-.06-.91-.47-1.62-1.41-1.77-.88-.14-1.52.31-1.73,1.19-.2.85-.63.72-1.18.37-.81-.52-1.37-1.23-1.54-2.17-.17-.93-.52-1.29-1.55-1.06-1.37.3-2.53-.15-3.22-1.48-.12-2.21,1.12-3.63,2.91-4.54,3.81-1.92,7.75-2.16,11.74-.53.22,1.99,1.35,2.79,3.3,2.51,1.5,1.69,2.2,3.75,2.77,5.88.49,1.85.93,3.71,1.61,5.5.74,1.95,1.84,3.66,3.29,5.15,1.72,1.75,3.47,3.49,5.2,5.23-.04.09-.01.16.07.2.54,1.1,1.11,2.19,1.62,3.3,1.39,2.98,2.3,6.14,3.32,9.25.27,2.03.27,2.04-1.69,2.89-.62.27-1.26.48-1.89.72ZM108.51,60.27c-.2.02-.4.03-.6.05.31,3.97.63,7.93.94,11.9.22-.02.45-.04.67-.06-.3-3.97-.5-7.94-1.01-11.9ZM110.06,77.17c-.81,2.49-1.7,4.98-1.72,7.66.9-2.48,1.53-5.01,1.72-7.66ZM106.65,77.56c-1.14,1.23-2.49,5.65-2.06,6.57.92-2.19,1.54-4.36,2.06-6.57ZM106.55,67.91c.42-1.05.26-1.88-.18-2.98-.41,1.15-.45,1.99.18,2.98Z"/>
  <path class="st12" d="M119.15,68.59c.06-1.04.11-2.09.17-3.14.79-.92.56-2.09.81-3.15,2.35-7.72,7.37-13.13,14.6-16.5,3.17-1.48,6.5-2.44,10.09-1.81.73.13,1.42.33,2.07.69,1.31.73,1.87,2.03,1.45,3.48-.79,2.67-2.74,4.47-4.71,6.25-3.12,2.82-6.47,5.35-9.53,8.24-3.11,2.92-5.86,6.14-8.26,9.66-.28.4-.44.92-.96,1.12-1.01-.4-1.53-1.36-2.3-2.04-1.07-.93-1.92-2.13-3.34-2.6-.09-.04-.11-.11-.08-.2ZM122.48,71.04c1.02-.36,1.29-.96,1.62-1.47.67-1.03,1.28-2.1,1.92-3.16,3.33-5.47,7.68-10.07,12.29-14.45.32-.3,1.05-.61.53-1.17-.41-.44-.83.11-1.14.4-4.63,4.35-9.02,8.92-12.38,14.37-1.01,1.65-2.09,3.28-2.84,5.48Z"/>
  <path class="st17" d="M120.13,62.31c-.25,1.05-.03,2.23-.81,3.15-.55-4.71-1.25-9.41-1.28-14.17-.01-2.38.03-4.76.98-7,.27-.64.54-1.52,1.48-1.33.81.16.88.98.97,1.65.23,1.69-.02,3.37-.26,5.04-.61,4.2-1.23,8.4-1.09,12.66Z"/>
  <path class="st17" d="M127.33,76.31c.05-.17.05-.39.16-.51,2.53-2.83,5.38-5.22,9.06-6.38.88-.28,2.12-.8,2.63.17.5.95-.75,1.53-1.4,2.07-2.94,2.46-5.99,4.78-9.66,6.1-.06-.27-.01-.6-.33-.76-.16-.23-.32-.46-.48-.69Z"/>
  <path class="st20" d="M106.28,46.84c-1.95.28-3.08-.52-3.3-2.51.24-1,.14-2.06.54-3.05.55-1.33,1.45-2.06,2.37-1.75,1.28.44,1.26,1.49,1.11,2.57-.02.13-.02.27-.03.4-.01.1-.03.21-.05.31.1-.03.2-.06.3-.09.18-.03.36-.06.54-.1.78-.17,1.51-.1,1.91.66.45.85-.12,1.45-.68,2.03-.75.79-1.88.88-2.72,1.51Z"/>
  <path class="st30" d="M95.36,97.61c4.94-1.15,9.96-1.87,14.99-2.49,3.68-.46,7.37-.75,11.08-.39.32.03.64.05.95.12.23.05.42.19.35.48-.06.22-.26.23-.44.24-.14.01-.27,0-.41,0-8.53-.59-16.83,1.14-25.17,2.53-.45.07-.9.11-1.35.16,0-.21,0-.43,0-.64Z"/>
  <path class="st28" d="M90.92,54.45c1.76.13,2.89,1.47,2.77,3.28-.1,1.62-1.34,2.61-3.1,2.47-.45-.03-.89-.15-1.33-.23,0,0,0,0,0,0-.02-.33-.03-.65-.05-.98,0-.11,0-.21,0-.32-.36-.78-.66-1.57-.39-2.46.55-.76,1.31-1.28,2.09-1.77Z"/>
  <path class="st29" d="M89.22,59c.02.33.03.65.05.98-.63-.3-.76-.62-.05-.98Z"/>
  <path class="st30" d="M122.34,87.88c.06.1.12.2.17.3-.06-.1-.12-.2-.17-.3Z"/>
  <path class="st30" d="M121.18,85.8c.08.17.16.33.24.5-.08-.17-.16-.33-.24-.5Z"/>
  <path class="st12" d="M108.51,60.27c.51,3.95.7,7.93,1.01,11.9-.22.02-.45.04-.67.06-.31-3.97-.63-7.93-.94-11.9.2-.02.4-.03.6-.05Z"/>
  <path class="st12" d="M110.06,77.17c-.19,2.65-.82,5.18-1.72,7.66.02-2.68.9-5.17,1.72-7.66Z"/>
  <path class="st12" d="M106.65,77.56c-.52,2.2-1.14,4.38-2.06,6.57-.43-.92.92-5.34,2.06-6.57Z"/>
  <path class="st12" d="M106.55,67.91c-.63-.99-.59-1.83-.18-2.98.44,1.1.6,1.93.18,2.98Z"/>
  <path class="st17" d="M122.48,71.04c.75-2.2,1.83-3.83,2.84-5.48,3.35-5.45,7.74-10.02,12.38-14.37.31-.29.73-.84,1.14-.4.52.56-.21.87-.53,1.17-4.61,4.38-8.95,8.99-12.29,14.45-.64,1.05-1.25,2.12-1.92,3.16-.33.51-.6,1.11-1.62,1.47Z"/>
  <path class="st25" d="M90.92,54.45c-.78.49-1.54,1.01-2.09,1.77,0-1.55.73-2.16,2.09-1.77Z"/>
  <path class="st6" d="M41.4,77.5c.96.9,1.29,2.18,1.9,3.27,1.29,2.29,3.12,3.98,5.25,5.42,2.79,1.88,5.67,3.63,8.01,6.12,1.9,2.02,2.92,4.39,3.31,7.08.1.69-.08,1.13-.93,1.17-1.19.05-2.37.3-3.58.2-.59.03-2.92.03-3.18.06-2.15.23-1.37.01-3.71.13-2.21.12-4.41.37-6.63.28-1.01-.04-2.02.02-3.02.21-1.49-.3-2.97-.09-4.45,0-3.11-.08-6.23-.09-9.34-.26-1.78-.1-3.56-.43-5.33-.69-.6-.09-1.08-.44-1.53-.88-.67-.65-.58-1.25-.06-1.88.44-.52,1.04-.82,1.66-1.11,2.37-1.13,4.79-2.19,6.37-4.46.94-1.35,1.4-2.89,1.86-4.44.99-3.34,2-6.67,3.01-10.01,3.45-.28,6.92-.18,10.37-.22Z"/>
  <path class="st14" d="M34.88,63.76c-1.53.59-3.09.86-4.73.67-3.24-.39-5.32-3.18-4.33-5.92.75-2.07,2.42-2.85,4.63-2.95-.78-1.33-1.2-2.66-.84-4.19.9-3.89,5.61-5.82,8.94-3.62.36.24.55.49.96-.03,1.4-1.77,3.28-2.29,5.19-1.53,1.95.78,3.4,2.91,3.14,5-.11.91.37,1.88-.24,2.73-.39-.04-.73.62-1.11.16-.95-1.14-2.45-1.53-3.45-2.6-.44-.47-.68-.37-.89.25-.61,1.78-1.95,2.69-3.76,2.96-.3.04-.63.02-.82.29-.36.53-.77.38-1.28.23-.97-.3-1.86-.14-2.5.76-.56.79-.51,2.03.11,2.85.3.39.69.67,1.11.94,1.11.7,1.52,2.21.94,3.31-.36.23-.71.46-1.07.69ZM46.79,49.78h.03s-.05-.02-.05-.02c-.06-.16.16-.44-.2-.47-.41-2.03-2.96-3.26-5.04-2.26,2.34-.41,3.77.77,5.05,2.25.07.16.15.33.22.49ZM32.41,63.5c-1.45-.49-2.86-.97-3.96-2.07-1.23-1.22-1.3-2.65-.38-4.43-2.01,1.48-2.14,3.96-.55,5.39,1.42,1.27,3.14,1.36,4.9,1.11ZM35.09,47.77c-3.01.02-5.31,2.93-4.58,5.87.39-2.92,1.93-4.78,4.58-5.87Z"/>
  <path class="st18" d="M41.4,77.5c-3.46.04-6.92-.06-10.37.22,0-.98-.01-1.97-.02-2.95.15-.46.29-.92.44-1.38,1.27-3.83,2.31-7.82,6.81-9.26.39.17.69-.11,1.02-.23.49,1.15,1.51,1.83,2.37,2.64,1.46,1.38,3,2.67,4.51,3.99,0,.12.01.23.02.35-1.39,1.72-3.04,3.15-4.95,4.25-.66.38-.63.65-.01.98-.51.54.25.91.19,1.4Z"/>
  <path class="st13" d="M35.94,63.07c.82.25,1.77.2,2.32,1.05-4.51,1.44-5.55,5.44-6.81,9.26-.15.46-.29.92-.44,1.38-2.48,1.11-5.03,1.72-7.76,1.13-1.62-.35-3.05-1.05-4.06-2.42-.5-.69-.8-1.46-.33-2.31.46-.82,1.25-.72,2-.64,4.52.53,8.05-1.59,11.35-4.27.94-.76,2.05-1.37,2.67-2.5.36-.23.71-.46,1.07-.69Z"/>
  <path class="st23" d="M41.15,105.22c-1.24.12-4.68.24-5.92.36-.28-1.38-.56-2.76-.84-4.14,1.48-.1,5.16-.22,6.61-.18.04,1.26.12,2.7.16,3.96Z"/>
  <path class="st13" d="M12.14,46.5c-.13.5.08,1.3-.49,1.56-.6.28-1.06-.37-1.5-.75-.62-.53-1.05-1.19-1.15-2-.08-.65.03-1.29.73-1.61.71-.32,1.23.03,1.67.54.53.63.71,1.38.75,2.25Z"/>
  <path class="st31" d="M19.26,58.83c-.02.25.15.9-.31,1.12-.5.25-.96-.26-1.37-.56-.61-.45-1.15-1-1.33-1.77-.18-.75-.24-1.55.65-1.93.82-.35,1.36.17,1.8.78.45.63.61,1.36.57,2.37Z"/>
  <path class="st27" d="M57.16,111.54c-.05,1.04-.47,1.81-1.05,2.52-.22.26-.47.42-.73.08-.75-.98-1.3-2.04-.97-3.31.19-.73.61-1.41,1.48-1.21,1,.23,1.19,1.12,1.28,1.92Z"/>
  <path class="st31" d="M45.3,121.61c-.63-.28-1.26-.56-1.91-.84.32-.71,1.38-.53,1.39-1.4.07,0,.15,0,.22.01.66.24,1.49.42,1.68,1.13.18.69-.89.5-1.1,1.04-.09.02-.18.04-.27.06Z"/>
  <path class="st1" d="M32.41,63.5c-1.76.24-3.48.16-4.9-1.11-1.59-1.42-1.46-3.91.55-5.39-.92,1.78-.84,3.21.38,4.43,1.1,1.1,2.51,1.58,3.96,2.07Z"/>
  <path class="st1" d="M35.09,47.77c-2.65,1.09-4.19,2.95-4.58,5.87-.73-2.94,1.57-5.86,4.58-5.87Z"/>
  <path class="st1" d="M46.58,49.29c-1.28-1.48-2.71-2.66-5.05-2.25,2.08-1,4.63.23,5.04,2.26h0Z"/>
  <path class="st18" d="M46.57,49.3c.36.03.15.31.2.47l.02.02-.22-.49h0Z"/>
  <polygon class="st18" points="46.77 49.76 46.82 49.77 46.79 49.78 46.77 49.76"/>
  <path class="st27" d="M26.84,121.31c-.06-.33-.08-.67-.12-1-1.06-3.83-2.62-7.44-4.84-10.75-.71-1.07-1.5-2.07-2.5-2.89-.44-.36-.9-.76-1.52-.53-.69.25-.89.89-.96,1.54-.05.44.03.9.04,1.34.02.74.39,1.44.31,2.19.21.07.23.22.23.38,0-.16-.02-.31-.23-.38,0,0,0,0,0,0,0,0-.01,0-.02,0h0s0,0,0,0c-.23.33.14.39.25.58,0-.03,0-.06,0-.08,0-.02,0-.04,0-.06,0,.02,0,.04,0,.06,0,.03,0,.06,0,.08.79,1.39,1.59,2.78,2.37,4.18.19.35.55.78.26,1.13-.33.42-.91.27-1.36.14-1.89-.56-3.84-.9-5.77-1.3-.67,0-1.34,0-2.01,0-.63,0-1.22.12-1.52.73-.31.63.07,1.16.43,1.63.85,1.12,2.05,1.82,3.26,2.48,3.77,2,7.83,2.68,12.04,2.58,1.88-.04,1.99-.24,1.64-2.05ZM17.49,111.6s0,.03,0,.04c0-.01,0-.03,0-.04Z"/>
  <path class="st31" d="M41.18,122c1.71-1.37,1.82-1.5,3.38.18-1.14.22-2.26.07-3.38-.18Z"/>
  <path class="st15" d="M42.29,58.8c-.84-.04-1.68-.18-1.74-1-.07-.97.97-.94,1.59-.99.69-.05,1.59.26,1.6,1.05,0,.78-.87.86-1.45.94Z"/>
  <path class="st8" d="M47.05,60.07c-1.1.08-1.77-.27-2.19-1.07-.12-.23-.14-.52.08-.72.29-.26.48.02.64.2.46.47.89.97,1.46,1.6Z"/>
  <path class="st23" d="M35.61,56.96c.32.02,1.95,2.1,1.88,2.41-.07.33-.3.31-.49.13-.66-.61-1.23-1.3-1.65-2.09-.12-.22-.08-.44.26-.45Z"/>
  <path class="st24" d="M44.47,55.75c.01-.41.13-.81.6-.79.6.03.78.53.81,1.04.03.46-.19.89-.68.85-.59-.05-.7-.59-.73-1.1Z"/>
  <path class="st31" d="M48.99,56.19c-.07-.03-.15-.03-.22-.05-.2-.05-.36-.22-.44-.41-.08-.19-.1-.4-.13-.61-.08-.59-.24-1.18-.46-1.73-.02.24-.11.39-.23.53-.36.03-.69.6-1.05.16-.95-1.14-2.45-1.53-3.45-2.6-.44-.47-.68-.37-.89.25-.61,1.78-1.95,2.69-3.76,2.96-.3.04-.63.02-.82.29-.36.53-.77.38-1.28.23-.97-.3-1.86-.14-2.5.76-.56.79-.51,2.03.11,2.85.3.39.69.67,1.11.94,1.11.7,1.52,2.21.94,3.31.82.25,1.77.2,2.32,1.05.39.17.69-.11,1.02-.23.38-.85,1.02-.64,1.71-.49,4.08.9,7.63-1.95,7.6-5.88.13-.14.24-.29.35-.43.1-.14.21-.28.24-.46.03-.17-.04-.37-.2-.44ZM37.5,59.37c-.07.33-.3.31-.49.13-.66-.61-1.23-1.3-1.65-2.09-.12-.22-.08-.44.26-.45.32.02,1.95,2.1,1.88,2.41ZM42.29,58.8c-.84-.04-1.68-.18-1.74-1-.07-.97.97-.94,1.59-.99.69-.05,1.59.26,1.6,1.05,0,.78-.87.86-1.45.94ZM45.07,54.96c.6.03.78.53.81,1.04.03.46-.19.89-.68.85-.59-.05-.7-.59-.73-1.1.01-.41.13-.81.6-.79ZM44.86,59c-.12-.23-.14-.52.08-.72.29-.26.48.02.64.2.46.47.89.97,1.46,1.6-1.1.08-1.77-.27-2.19-1.07Z"/>
  <path class="st31" d="M61.48,67.09c-.06-.11-.16-.2-.25-.29-.31-.3-.51-.7-.83-.98-.45-.4-1.14-.52-1.7-.29.01-.49.73-.83.57-1.29-.08-.24-.39-.34-.64-.29-.25.06-.45.23-.64.4-.26.23-.44.27-.7.5-1.39,1.21-1.43,1.81-2.35,3.4-.11.19-1.37,1.21-1.56,1.3-2.27,1.19-4.55,2.31-7.21,1.3-1.39,1.72-3.04,3.15-4.95,4.25-.66.38-.63.65-.01.98.77.37,1.52.81,2.32,1.11,3.24,1.2,6.27.84,9.05-1.27,1.27-.96,2.37-2.1,3.33-3.35.69-.89,1.39-2.56,2.42-2.61.09.02.19.03.3.03.91,0,1.96-.64,2.51-1.47.28-.18.33-.39.31-.62.05-.15.08-.3.09-.46,0-.12,0-.25-.05-.36Z"/>
  <path class="st2" d="M95.76,82.2c-1.54-.33-3.15-.45-4.49-1.42.09.62-.25,1.15-.37,1.72-.17.83-.52,1.08-1.41.76-1.89-.68-3.79-1.36-5.75-1.77-1.94-.41-3.34-.98-4.69-1.86-.82-.72-1.36-.68-1.62-1.74-.25-1.04-.36-1.36-.12-2.21.29-1.03.58-1.58,1.27-2.39-1.01-.24-1.66-.14-1.92.86-.1.36-.29.87-.63.73-.17-.92-.19-1.87-.09-2.81.06-.49.15-.98.07-1.47s-.4-.97-.87-1.09c-.22.63-.43,1.26-.65,1.89-.02.07-.05.15-.11.2-.18.17-.49-.03-.55-.27s.02-.49-.02-.74c-.04-.24-.28-.5-.5-.38-.08.04-.13.12-.17.19-.25.43-.37.93-.35,1.42-.18-.07-.66.48-.75.31-.06,1.39,0,2.03,0,3.31-.02.04-.04.09-.06.14-.07,1.16.08,2.21.43,3.17.17.56.39,1.1.71,1.56.23.34.52.66.84.93.33.36.69.7,1.09,1.02,2.62,2.14,5.14,4.4,7.84,6.43,2.35,1.76,4.73,3.53,7.58,4.43.9.41,1.96.8,2.85.36.65-.32,1.02-.98,1.29-1.66,1.26-2.6,1.74-5.43,2.37-8.22.23-1.03-.46-1.23-1.22-1.39Z"/>
  <path class="st20" d="M124.56,97.09c-.47-.39-1.08-.67-1.26-1.31l-1.87-9.48-.3-.44s-.02-.04-.03-.06c.01-.43-.35-.59-.59-.84-5.38,1.44-10.89,1.67-16.4,1.83-.41.01-.82-.01-1.23-.06-1.65-.21-1.97-.52-1.86-2.2.27-4.14.54-8.28.3-12.43-.13-2.29-.59-4.51-1.41-6.66-.39-.22-.68-.65-1.22-.55-.15.28-.43.32-.69.39-2.41.63-4.25,2.05-5.64,4.1-1.26,1.86-2.36,3.82-3.23,5.89-1.56,3.71-2.64,3.21,2.06,5.52,1.34.98,2.95,1.09,4.49,1.42.75.16,1.45.36,1.22,1.39-.7,3.1-1.21,6.26-2.82,9.08,0,.15,0,.3.01.45.02.21.03.42.05.62.13.38.19.77.21,1.16-.02.24-.06.47-.11.7-.05.18-.1.37-.13.55-.04.28-.03.56.04.83.03.11.07.22.14.3.04.05.09.09.14.12.1.18.3.28.74.21.04,0,.08,0,.13,0,.11,0,.21-.04.3-.09,4.84-1.11,9.75-1.81,14.67-2.42,3.68-.46,7.37-.75,11.08-.39.32.03.64.05.95.12.23.05.42.19.35.48-.06.22-.26.23-.44.24-.14.01-.27,0-.41,0-8.53-.59-16.83,1.14-25.17,2.53-.25.04-.5.07-.75.1v-.02c-2.03,0-4.05.02-6.07.02-.98,0-1.98.01-2.92.29-1.2.36-3.53,1.24-4.5,2.03,0,0,0,0,0,0-.31.17-.61.34-.91.53-5.06,3.22-9.66,7.02-14.17,10.94-.1.09-.21.18-.3.28-1.9,1.36-3.76,2.75-5.6,4.18-.45.35-.92.73-1.16,1.26-.42.95.1,2.11.93,2.73.83.62,1.9.82,2.93.95,1.82.24,3.66.32,5.49.26.08.02.17.03.25.04,16.78,1.59,33.59,1.84,50.41.86,4.81-.28,8.45-3.19,9.84-7.8,1.78-5.9-.66-13.67-5.52-17.65Z"/>
  <path class="st20" d="M128.13,77.76c-.06-.27-.02-.59-.33-.76-.02-.07-.05-.13-.08-.19-.9-1.8-2.26-3.34-3.76-4.68-1.08-.97-2.24-1.86-3.46-2.64-.26-.19-.53-.37-.82-.51-.1-.06-.19-.12-.29-.17l.05.07c-.07-.03-.14-.06-.22-.08.54,1.1,1.11,2.19,1.62,3.3,1.39,2.98,2.3,6.14,3.32,9.26,1.18-.9,1.75-2.45,3.22-3.03,0,0,.08-.03.08-.03v-.09c.22-.14.44-.28.66-.43Z"/>
  <path class="st9" d="M133.31,120.95c.62-3.95,1.08-7.73,2.47-11.3.21-.53.46-1.03.83-1.47.25-.29.52-.6.95-.43.38.16.4.54.4.89-.02,1.59-.42,3.1-.89,4.6-.09.28-.19.56-.32.94.65-.25.9-.74,1.23-1.13.74-.85,1.41-1.78,2.38-2.39.4-.25.87-.58,1.29-.2.4.36.21.87,0,1.31-.33.72-.81,1.35-1.3,1.96-1.96,2.47-4.19,4.68-6.48,6.83-.11.1-.25.17-.58.38Z"/>
  <path class="st11" d="M4.62,83.26c1.4,1.35,2.6,2.89,4.06,4.18.37.32.71,1.03,1.13.85.47-.21.25-.95.29-1.47-.25-1.3-.55-2.58-1.1-3.79-.14-.3-.2-.62-.2-.96.03-2.03.43-4.03.62-6.04.03-.32.23-.31.45-.38,1.63-.5,3.23-1.08,4.61-2.11.72-.54,1.32-1.19,1.51-2.12.24-1.16-.55-1.95-1.71-1.71-.67.14-1.22.5-1.7.96-2.73,2.62-4.08,5.86-4.27,9.61-.01.3-.04.6-.06,1.06-.41-.46-.72-.82-1.05-1.17-.67-.7-1.41-1.32-2.35-1.62-1.19-.38-1.97.28-1.81,1.52.1.74.44,1.4.83,2.03,0,0,.6.97.75,1.18"/>
  <path class="st5" d="M4.62,83.26c1.4,1.35,2.6,2.89,4.06,4.18.37.32.71,1.03,1.13.85.47-.21.25-.95.29-1.47.58-.71.84-1.58,1.25-2.38.78-1.53,1.48-3.1,2.57-4.45.21-.26.46-.5.84-.4.36.1.5.41.58.74.16.65.11,1.3.05,1.96-.12,1.39-.75,2.61-1.26,3.87h.02c-.1-.01-.17.01-.21.11-.71,1.07-1.59,1.96-2.67,2.63-.25.16-.49.37-.82.34-.55-.62-.29.21-.47.26-.92.46-1.74,0-2.58-.27-.28-.09-.52-.3-.83-.34-2.08-1.26-3.61-3.03-4.62-5.23-.18-.39-.3-.8-.39-1.22-.1-.51.15-.71.65-.58.44.12.82.38,1.21.61,0,0,.84.5,1.2.79Z"/>
  <path class="st4" d="M13.94,86.26c-.71,1.07-1.59,1.96-2.67,2.63-.25.16-.49.37-.82.34.04,1.19.07,2.39.11,3.58.82.17,1.55-.1,2.24-.48,1.75-.97,2.89-2.43,3.32-4.4.18-.79-.39-1.54-1.25-1.69-.25-.04-.5-.07-.74-.1,0,0,.02,0,.02,0-.07.04-.14.07-.21.11Z"/>
  <path class="st1" d="M4.71,71.22c-.36-.03-.54-.07-.71-.06-.26,0-.52.07-.57.38-.05.34.13.56.45.59.56.06.8.31.73.89-.04.28.04.59.38.66.38.08.47-.24.54-.5.12-.44.29-.56.63-.17.13.15.3.27.47.39.29.2.61.31.91.06.33-.28.2-.63-.01-.88-.53-.62-.3-.81.39-.89.38-.04.81-.2.72-.7-.08-.48-.5-.5-.9-.47-.15.01-.31,0-.45.05-.57.18-.73-.08-.68-.6.02-.2,0-.41-.04-.6-.04-.26-.14-.51-.45-.54-.31-.03-.47.19-.52.45-.11.61-.37.54-.75.22-.18-.15-.41-.23-.63-.06-.26.19-.19.45-.08.69.16.33.35.65.59,1.1Z"/>
  <path class="st4" d="M9.97,89.5c-.92.46-1.74,0-2.58-.27-.28-.09-.52-.3-.83-.34-.31,1.06.21,1.87.84,2.6.7.81,1.56,1.42,2.72,1.34-.05-1.11-.1-2.21-.16-3.32Z"/>
  <path class="st1" d="M30.45,43.64c-.12.4-.13.74.24.97.36.22.7.14.96-.17.49-.59.87-1.25,1.18-1.94.15-.33.12-.71-.28-.92-.38-.2-.7-.07-.95.22-.49.56-.82,1.22-1.14,1.84Z"/>
  <path class="st24" d="M9.97,89.5c.05,1.11.1,2.21.16,3.32.14,0,.29,0,.43,0-.04-1.2-.07-2.39-.11-3.58-.55-.62-.29.21-.47.26Z"/>
  <path class="st31" d="M47.81,120.98c-.07-.18-.22-.31-.37-.43-.43-.32-.88-.84-1.36-1.07-.73-.35-1.46-.71-2.19-1.06-.18-.11-.41-.24-.83-.48-.58-.36-.85-.68-.9-1.28-.12-1.53-.29-3.07-.43-4.6-.2-2.28-.38-4.55-.57-6.83-1.24.12-4.68.24-5.92.36.62,4.11,1.45,8.17,2.37,12.21-.02.84.12,1.69.61,2.35.19.26.43.48.68.69.58.48,1.21.89,1.89,1.21.36.18.74.33,1.14.39.43.07.89.15,1.33.19.45.04.86.04,1.31.08.32.03.64.01.95-.02.82-.08,1.72-.31,2.16-1.01.13-.21.21-.47.13-.7Z"/>
  <path class="st25" d="M34.5,121.01c.01-.14,0-.32.05-.49.09-.35.08-.88.52-.89.37,0,.44.5.52.82.13.54.16,1.09-.1,1.61-.09.18-.19.4-.41.4-.22,0-.31-.22-.41-.4-.17-.32-.15-.68-.18-1.06Z"/>
  <path class="st25" d="M31.53,120.64c-.06.43-.14.85-.48,1.16-.11.1-.2.24-.38.17-.16-.07-.17-.24-.18-.39-.03-.41.05-.81.27-1.16.13-.21.27-.51.56-.39.21.09.22.37.21.61Z"/>
  <path class="st2" d="M128.25,79.98c-.33-.54-.83-.99-.86-1.68-1.47.59-2.04,2.13-3.22,3.03.27,2.03.27,2.04-1.69,2.89-.18.08-.35.15-.53.22l-1.55.53,2.49,3.8c.42.69.84,1.39,1.3,2.05,1.33,1.94,2.79,2.21,4.76.92,1.4-.92,2.07-2.25,2.13-3.92.1-2.99-1.33-5.43-2.82-7.85Z"/>
  <g>
    <path class="st22" d="M17.24,111.21s-.02.02-.02.04c.01,0,.02,0,.04,0,0,0-.01-.03-.01-.03Z"/>
    <path class="st22" d="M20.11,116.39h0s-.77-1.8-2.29-4.21c-.18-.29-.39-.58-.63-.88,0-.02.02-.04.03-.06-.02,0-.05,0-.07,0-1.57-1.96-4.01-3.85-4.01-3.85h0c-1.39-1.2-2.85-2.31-4.41-3.31-.86-.55-1.75-1.04-2.7-1.38-1.46-.53-2.08-.02-1.87,1.54.15,1.09.6,2.09,1.1,3.06,1.81,3.56,4.45,6.38,7.74,8.62,1.93.4,3.87.74,5.77,1.3.44.13,1.03.28,1.36-.14.17-.22.11-.47-.02-.71Z"/>
  </g>
</svg>