<?xml version="1.0" encoding="utf-8"?>
<!-- Generator: Adobe Illustrator 25.0.1, SVG Export Plug-In . SVG Version: 6.00 Build 0)  -->
<svg version="1.1" id="Layer_1" xmlns="http://www.w3.org/2000/svg" xmlns:xlink="http://www.w3.org/1999/xlink" x="0px" y="0px"
	 viewBox="0 0 60 60" style="enable-background:new 0 0 60 60;" xml:space="preserve">
<style type="text/css">
	.st0{fill:#AB141B;}
</style>
<g>
	<g>
		<path class="st0" d="M56,27.4c2.6-3,4-6.8,4-10.8c0-9.1-7.4-16.5-16.5-16.5c-3.6,0-7.1,1.2-9.9,3.3C31.1,5.4,29.1,8,28.1,11
			c-1.1-0.1-2.2-0.2-3.4-0.2C11.1,10.7,0,21.8,0,35.4c0,6.2,2.3,12.1,6.4,16.6l-6.1,6.1C0,58.5-0.1,59,0.1,59.4
			c0.2,0.4,0.6,0.7,1.1,0.7h23.5c13.6,0,24.7-11.1,24.7-24.7c0-0.8,0-1.6-0.1-2.4h9.5c0.5,0,0.9-0.3,1.1-0.7
			c0.2-0.4,0.1-0.9-0.3-1.3L56,27.4z M24.7,57.8H4l4.9-4.9c0.2-0.2,0.3-0.5,0.3-0.8c0-0.3-0.1-0.6-0.3-0.8C4.7,47,2.4,41.4,2.4,35.4
			c0-12.3,10-22.4,22.4-22.4c12.3,0,22.4,10,22.4,22.4S37,57.8,24.7,57.8z M49,30.7c-1.8-9.5-9.2-17.1-18.5-19.3
			c2.1-5.3,7.3-8.9,13.1-8.9c7.8,0,14.1,6.3,14.1,14.1c0,3.8-1.5,7.3-4.1,10c-0.5,0.5-0.5,1.2,0,1.7l2.5,2.5H49z"/>
		<path class="st0" d="M11.8,29.6c-2.6,0-4.7,2.1-4.7,4.7c0,2.6,2.1,4.7,4.7,4.7c2.6,0,4.7-2.1,4.7-4.7
			C16.5,31.7,14.4,29.6,11.8,29.6z M11.8,36.6c-1.3,0-2.4-1.1-2.4-2.4c0-1.3,1.1-2.4,2.4-2.4s2.4,1.1,2.4,2.4
			C14.1,35.6,13.1,36.6,11.8,36.6z"/>
		<path class="st0" d="M24.7,29.6c-2.6,0-4.7,2.1-4.7,4.7c0,2.6,2.1,4.7,4.7,4.7c2.6,0,4.7-2.1,4.7-4.7
			C29.4,31.7,27.3,29.6,24.7,29.6z M24.7,36.6c-1.3,0-2.4-1.1-2.4-2.4c0-1.3,1.1-2.4,2.4-2.4c1.3,0,2.4,1.1,2.4,2.4
			C27.1,35.6,26,36.6,24.7,36.6z"/>
		<path class="st0" d="M32.9,34.3c0,2.6,2.1,4.7,4.7,4.7c2.6,0,4.7-2.1,4.7-4.7c0-2.6-2.1-4.7-4.7-4.7
			C35.1,29.6,32.9,31.7,32.9,34.3z M40,34.3c0,1.3-1.1,2.4-2.4,2.4c-1.3,0-2.4-1.1-2.4-2.4c0-1.3,1.1-2.4,2.4-2.4
			C38.9,31.9,40,33,40,34.3z"/>
	</g>
</g>
</svg>
