<?xml version="1.0" encoding="UTF-8"?>
<svg id="Layer_1" data-name="Layer 1" xmlns="http://www.w3.org/2000/svg" viewBox="0 0 34 34">
  <defs>
    <style>
      .cls-1 {
        fill: #aa161b;
      }

      .cls-2 {
        fill: #ff6a37;
      }
    </style>
  </defs>
  <path class="cls-2" d="M28.87,17c5.57,9.63-2.24,17.43-11.87,11.87C7.37,34.43-.43,26.63,5.13,17-.43,7.37,7.37-.43,17,5.13c9.63-5.57,17.43,2.24,11.87,11.87Z"/>
  <g>
    <path class="cls-1" d="M19.35,24.28h-4.66c-.14,0-.27-.02-.41-.03-.45-.05-.9-.05-1.34-.15-1.61-.35-2.62-1.34-3.01-2.95-.18-.71-.18-1.45-.18-2.18-.01-1.31-.01-2.63,0-3.94,0-.75.01-1.51.2-2.25.28-1.13.91-2,1.95-2.54.73-.38,1.52-.49,2.32-.51,1.35-.02,2.7-.03,4.05-.03.89,0,1.78-.01,2.66.14,1.75.3,2.98,1.53,3.25,3.36.03.23.06.47.09.7v6.03c-.03.26-.05.52-.09.77-.1.72-.34,1.38-.79,1.96-.78,1.01-1.86,1.43-3.09,1.53-.32.02-.63.04-.95.06ZM17.01,22.99s0-.02,0-.03c.53,0,1.06.01,1.59,0,.73-.02,1.46.01,2.18-.13,1.04-.21,1.72-.82,2.01-1.85.13-.47.16-.95.16-1.44.01-1.47.02-2.94.01-4.41,0-.62-.03-1.25-.13-1.87-.18-1.08-.82-1.77-1.89-2.05-.61-.16-1.23-.15-1.85-.16-1.2-.01-2.4,0-3.6,0-.72,0-1.45-.01-2.17.12-1.11.2-1.85.83-2.1,1.94-.11.5-.15,1.02-.15,1.54-.02,1.57-.02,3.15,0,4.72,0,.45.04.91.11,1.36.12.74.48,1.34,1.12,1.75.48.3,1.02.42,1.57.44,1.04.04,2.08.05,3.13.08Z"/>
    <path class="cls-1" d="M20.76,17c0,2.06-1.69,3.74-3.74,3.74-2.06,0-3.76-1.7-3.75-3.76,0-2.06,1.7-3.75,3.75-3.74,2.07,0,3.74,1.69,3.74,3.75ZM17.01,19.42c1.34,0,2.42-1.08,2.42-2.42,0-1.34-1.08-2.42-2.41-2.42-1.35,0-2.43,1.08-2.43,2.42,0,1.34,1.08,2.42,2.42,2.42Z"/>
    <path class="cls-1" d="M20.9,13.98c-.49,0-.87-.38-.87-.87,0-.49.39-.88.87-.87.48,0,.87.39.87.88,0,.48-.39.87-.88.87Z"/>
  </g>
</svg>