<?xml version="1.0" encoding="utf-8"?>
<!-- Generator: Adobe Illustrator 25.0.1, SVG Export Plug-In . SVG Version: 6.00 Build 0)  -->
<svg version="1.1" id="Layer_1" xmlns="http://www.w3.org/2000/svg" xmlns:xlink="http://www.w3.org/1999/xlink" x="0px" y="0px"
	 viewBox="0 0 60 60" style="enable-background:new 0 0 60 60;" xml:space="preserve">
<style type="text/css">
	.st0{fill:#AB141B;}
</style>
<g>
	<path class="st0" d="M49.8,20.2c0-2.4-0.5-4.7-1.3-7c-0.7-2.1-1.8-4-3.2-5.7c-1.2-1.5-2.6-2.8-4.2-3.9c-2.8-2-5.8-3-9.2-3.5
		c-2.4-0.3-4.7,0-7,0.5c-2,0.5-3.9,1.3-5.7,2.4c-1.3,0.8-2.5,1.8-3.6,2.9c-1.6,1.5-2.8,3.3-3.8,5.3c-0.7,1.5-1.3,3.1-1.6,4.8
		c-0.3,1.6-0.5,3.2-0.5,4.8c0.1,2.2,0.5,4.3,1.2,6.3c0.7,1.9,1.7,3.6,2.8,5.3c0.7,0.9,1.3,1.9,2,2.8c1.9,2.8,3.8,5.5,5.7,8.3
		c1.4,2,2.8,4,4.2,6c1.2,1.8,2.5,3.5,3.7,5.4c0.4,0.6,0.5,0.6,0.8,0c1.2-1.8,2.5-3.6,3.7-5.4c1.3-1.9,2.6-3.7,3.9-5.6
		c1.3-1.9,2.6-3.8,3.9-5.7c1-1.4,2-2.9,3-4.3c0.7-1.1,1.5-2.1,2.2-3.2c1-1.7,1.8-3.4,2.3-5.3C49.5,23.7,49.9,22,49.8,20.2z
		 M47.1,20.1c0.1,1.5-0.1,2.9-0.4,4.3c0,0.2-0.1,0.4-0.2,0.6c-0.4,1.4-1,2.8-1.8,4.1c-1,1.6-2.1,3.1-3.2,4.6
		c-0.9,1.4-1.9,2.8-2.9,4.2c-1.3,1.9-2.6,3.8-3.9,5.7c-1.5,2.1-2.9,4.2-4.4,6.3c-0.5,0.8-0.6,0.8-1.1,0c-1.4-2.1-2.8-4.1-4.2-6.2
		c-1.2-1.7-2.4-3.4-3.6-5.2c-1.2-1.8-2.5-3.6-3.7-5.4c-0.8-1.2-1.7-2.3-2.4-3.5c-1.4-2.2-2.3-4.5-2.6-7.1c-0.3-2.4-0.2-4.8,0.5-7.2
		c0.6-2.2,1.6-4.2,3-6c1.6-2.1,3.6-3.7,5.9-4.9c1.7-0.8,3.4-1.5,5.3-1.7c2.6-0.3,5.2-0.2,7.8,0.6c2,0.7,3.8,1.6,5.5,2.9
		c1.4,1.1,2.5,2.3,3.5,3.8c0.3,0.5,0.6,1.1,0.9,1.5c0.9,1.3,1.3,2.7,1.7,4.2C47.1,17.3,47.2,18.7,47.1,20.1z"/>
	<path class="st0" d="M29.8,60c2.7,0.1,5.4-0.1,8.1-0.5c2.3-0.3,4.6-0.8,6.8-1.7c1.2-0.5,2.3-1,2.9-2.3c0.5-1,0.3-2.2-0.5-3
		c-0.8-0.8-1.8-1.3-2.8-1.7c-2.2-0.8-4.4-1.3-6.7-1.5c-0.4,0-0.6,0.1-0.8,0.4c-0.3,0.6-0.7,1.1-1.1,1.7c-0.2,0.2-0.2,0.3,0.1,0.4
		c0.2,0,0.5,0.1,0.7,0.1c2.4,0.2,4.8,0.7,7.1,1.5c0.5,0.2,0.9,0.4,1.4,0.7c0.3,0.2,0.3,0.4,0,0.6c-1,0.7-2.2,1.1-3.4,1.4
		c-4.8,1.2-9.8,1.4-14.7,1.2c-2.6-0.1-5.3-0.4-7.9-0.9c-1.5-0.3-3-0.8-4.4-1.6c-0.5-0.3-0.5-0.5,0-0.8c0.9-0.6,2-0.9,3-1.2
		c1.7-0.5,3.4-0.8,5.2-0.9c0.3,0,0.8,0,0.9-0.3c0.1-0.3-0.3-0.6-0.5-0.8c-0.3-0.4-0.6-0.8-0.9-1.2c-0.1-0.2-0.3-0.3-0.5-0.2
		c-2.4,0.2-4.7,0.7-6.9,1.6c-1,0.4-2,0.9-2.8,1.7c-0.9,1-1,2.7,0,3.6c1,1,2.2,1.6,3.5,2c2.5,0.8,5.1,1.3,7.7,1.5
		C25.7,59.9,27.8,59.9,29.8,60z"/>
	<path class="st0" d="M29.8,8.6c-6.4-0.2-11.6,5.3-11.6,11.6c0,6.5,5,11.5,11.3,11.7c6.7,0.1,11.8-5.2,11.8-11.7
		C41.4,13.9,36.2,8.5,29.8,8.6z M38.7,20.2c0.1,5.1-4.2,9.1-9,9c-4.8-0.1-8.8-4-8.8-9c0-5.1,3.9-9,8.9-8.9
		C34.8,11.3,38.7,15.3,38.7,20.2z"/>
</g>
</svg>
