<?xml version="1.0" encoding="UTF-8"?>
<svg id="Layer_1" data-name="Layer 1" xmlns="http://www.w3.org/2000/svg" viewBox="0 0 300 300">
  <defs>
    <style>
      .cls-1 {
        fill: #ab141b;
        fill-rule: evenodd;
      }
    </style>
  </defs>
  <path class="cls-1" d="M168.55,270.81h-59.82c-2.51,0-4.55,2.04-4.55,4.55s2.04,4.54,4.55,4.54h59.82c2.51,0,4.55-2.04,4.55-4.54s-2.04-4.55-4.55-4.55Z"/>
  <path class="cls-1" d="M217.19,26.7h.27c2.52,0,4.55-2.04,4.55-4.54,0-2.51-2.03-4.55-4.55-4.55h-.27c-2.51,0-4.55,2.04-4.55,4.55s2.04,4.54,4.55,4.54Z"/>
  <path class="cls-1" d="M267.29,166.35c-.31-5.32-.6-10.35-.6-15.08,0-1.96-1.27-3.71-3.14-4.32l-18.32-5.95V13.5c0-7.44-6.06-13.5-13.5-13.5H45.55c-7.44,0-13.49,6.05-13.49,13.5v241.76s0,0,0,0h0v31.24c0,7.45,6.06,13.5,13.5,13.5h186.18c7.44,0,13.5-6.05,13.5-13.5v-58.14c.68-.32,1.36-.63,1.98-.9.1-.04.2-.09.3-.14,22.61-11.78,21.11-37.91,19.78-60.97ZM98.46,9.09h80.37v8.47c0,1.37-1.15,2.52-2.51,2.52h-75.34c-1.36,0-2.51-1.15-2.51-2.52v-8.47ZM231.73,290.91H45.55c-2.43,0-4.4-1.98-4.4-4.41v-26.7h194.99v26.7c0,2.43-1.98,4.41-4.41,4.41ZM236.14,250.71H41.15s0-237.21,0-237.21c0-2.43,1.98-4.41,4.4-4.41h43.82v8.47c0,6.4,5.21,11.61,11.61,11.61h75.34c6.4,0,11.6-5.21,11.6-11.61v-8.47h43.81c2.43,0,4.41,1.98,4.41,4.41v124.55l-9.54-3.1c-.91-.3-1.89-.3-2.81,0l-12.84,4.17,2.15-13.79c5.96-2.46,10.18-8.32,10.18-15.16,0-9.05-7.36-16.41-16.4-16.41h-10.49l-28.57-34.85c-.86-1.05-2.15-1.66-3.51-1.66h-51.31c-1.36,0-2.65.61-3.51,1.66l-28.57,34.85h-10.49c-9.04,0-16.4,7.36-16.41,16.41,0,6.84,4.22,12.7,10.18,15.16l10.48,67.38c1.17,7.53,6.69,12.79,13.43,12.79h97.06c2.73,9.01,7.98,16.75,17.72,21.83.1.05.2.1.3.14,6.18,2.67,15.94,7.95,18.26,11.35.42.62.99,1.11,1.63,1.45.64.34,1.37.52,2.12.52.52,0,1.01-.12,1.49-.28.56-.2,1.09-.47,1.53-.86.28-.24.52-.52.74-.83.28-.4.67-.84,1.14-1.29.15-.15.36-.31.53-.46.37-.32.74-.65,1.18-.98.21-.16.46-.33.69-.5.48-.35.96-.7,1.5-1.05.26-.17.55-.35.82-.52.44-.28.88-.55,1.33-.83v17.54ZM183.69,151.28c0,4.4-.26,9.08-.53,13.99-.02.37-.04.71-.06,1.08,0,.04,0,.09,0,.13-.12,2.09-.24,4.21-.34,6.33-.02.49-.05.98-.07,1.47-.1,2.16-.16,4.32-.2,6.48,0,.48-.01.95-.01,1.43-.02,2.23,0,4.45.11,6.65,0,.21.03.41.04.62.12,2.35.31,4.67.62,6.95h-95.13c-2.7,0-4.08-2.75-4.45-5.1l-10.07-64.74h130.13l-2.44,15.7-14.43,4.69c-1.87.61-3.14,2.36-3.14,4.32ZM206.87,102.86c4.03,0,7.31,3.28,7.31,7.31s-3.28,7.31-7.31,7.31H70.41c-4.03,0-7.31-3.28-7.31-7.31s3.28-7.32,7.32-7.32h136.46ZM92.66,93.77l22.48-27.43h47.01l22.48,27.43h-91.97ZM243.45,219.19c-1.85.8-7.25,3.26-12.41,6.44-.07.04-.14.08-.2.12-.88.55-1.75,1.12-2.59,1.7-.17.12-.37.24-.53.36-.61.43-1.17.88-1.73,1.32-.25.2-.55.41-.79.6-6.07-5.08-15.67-9.42-18.25-10.54-8.35-4.41-12.34-11.84-14.12-20.73-.1-.5-.2-1-.29-1.51-.11-.63-.2-1.27-.29-1.92-.09-.66-.17-1.32-.24-2-.06-.56-.11-1.12-.16-1.68-.06-.78-.12-1.57-.16-2.36-.03-.5-.05-1-.07-1.51-.03-.87-.05-1.74-.06-2.61,0-.47-.01-.94-.02-1.41,0-.91,0-1.82.03-2.74,0-.47.01-.93.02-1.4.02-.91.06-1.82.09-2.73.02-.49.03-.98.05-1.47.04-.83.08-1.66.12-2.49.1-1.91.2-3.83.31-5.74.25-4.26.48-8.33.57-12.29l32.45-10.54,14.08,4.58s.01,0,.02,0l18.35,5.96c.09,3.96.33,8.03.57,12.29,1.23,21.23,2.49,43.2-14.77,52.31Z"/>
  <path class="cls-1" d="M241.12,171.75l-23.93,21.9-7.32-9.98c-1.48-2.02-4.33-2.46-6.35-.98-2.02,1.48-2.46,4.33-.98,6.35l10.31,14.07c.76,1.04,1.93,1.71,3.22,1.83.15.02.3.02.44.02,1.13,0,2.23-.43,3.07-1.2l27.66-25.32c1.85-1.69,1.98-4.57.28-6.42-1.69-1.85-4.57-1.98-6.42-.28Z"/>
</svg>