<?xml version="1.0" encoding="UTF-8"?>
<svg id="Layer_1" data-name="Layer 1" xmlns="http://www.w3.org/2000/svg" viewBox="0 0 300 300">
  <defs>
    <style>
      .cls-1 {
        fill: #fff;
      }

      .cls-2 {
        fill: #ab141b;
      }
    </style>
  </defs>
  <rect class="cls-2" x="69.53" y="201.48" width="37.19" height="10.91"/>
  <rect class="cls-2" x="178.66" y="164.11" width="37.18" height="10.91"/>
  <rect class="cls-2" x="124.1" y="164.11" width="37.18" height="10.91"/>
  <rect class="cls-2" x="69.53" y="164.11" width="37.19" height="10.91"/>
  <rect class="cls-2" x="69.53" y="127.45" width="37.19" height="10.91"/>
  <rect class="cls-2" x="178.66" y="127.45" width="37.18" height="10.91"/>
  <rect class="cls-2" x="124.1" y="127.45" width="37.18" height="10.91"/>
  <path class="cls-2" d="M291.95,252.58l-35.83-75.42V63.09c0-19.23-14.68-34.86-32.68-34.86h-2.09v-10.91c0-9.55-7.77-17.32-17.36-17.32h-2c-9.59,0-17.36,7.77-17.36,17.32v10.91h-85.54v-10.91c0-9.55-7.77-17.32-17.32-17.32h-2.05c-9.55,0-17.32,7.77-17.32,17.32v10.91h-.45c-18.05,0-32.68,15.64-32.68,34.86v176.64c0,3,2.45,5.45,5.45,5.45h135.68l5.46,11.49H18.68V85.52H7.77v176.61c0,3.01,2.44,5.45,5.45,5.45h167.81l14.61,30.75c.33.7.93,1.24,1.66,1.5.32.11.65.17.98.17.43,0,.86-.09,1.26-.28l91.02-43.24c.7-.33,1.24-.93,1.5-1.66.26-.73.22-1.54-.11-2.24ZM73.3,28.23v-10.91c0-3.55,2.86-6.41,6.41-6.41h2.05c3.55,0,6.45,2.86,6.45,6.41v36.45c0,3.55-2.91,6.41-6.45,6.41h-2.05c-3.55,0-6.41-2.86-6.41-6.41v-25.55ZM195.53,28.23v-10.91c0-3.55,2.91-6.41,6.45-6.41h2c3.54,0,6.45,2.86,6.45,6.41v36.45c0,3.55-2.91,6.41-6.45,6.41h-2c-3.55,0-6.45-2.86-6.45-6.41v-25.55ZM40.16,234.27V105.59l205.04-.18v59.16c-2.73-.72-5.7-.57-8.45.73l-73.92,35.11c-.63.3-1.2.67-1.75,1.06h-37v10.91h31.72c.09,1.54.45,3.08,1.15,4.55l8.24,17.34H40.16Z"/>
  <path class="cls-1" d="M219.69,270.95c-.58,0-1.16-.1-1.73-.29l-12.86-4.58c-1.31-.46-2.36-1.41-2.95-2.66-.59-1.26-.67-2.67-.2-3.98l7.08-19.91-19.92-7.09c-1.31-.46-2.36-1.41-2.95-2.66-.59-1.26-.67-2.67-.2-3.98l4.57-12.84c.47-1.31,1.42-2.36,2.66-2.96,1.25-.58,2.7-.65,3.98-.2l19.91,7.08,7.09-19.92c.47-1.31,1.41-2.35,2.66-2.95,1.24-.6,2.65-.68,3.98-.2l12.84,4.57c1.31.46,2.36,1.41,2.95,2.66.59,1.26.67,2.67.2,3.98l-7.08,19.91,19.92,7.09c1.3.46,2.35,1.4,2.95,2.66.59,1.26.67,2.67.2,3.98l-4.57,12.84c-.46,1.31-1.41,2.36-2.67,2.95-1.25.6-2.66.67-3.97.2l-19.92-7.09-7.09,19.92c-.45,1.28-1.42,2.36-2.66,2.95-.68.32-1.46.5-2.23.5ZM195.43,214.04c-.1,0-.19.02-.28.06-.16.07-.28.2-.34.37l-4.57,12.84c-.1.29.11.73.4.83l24.2,8.61-8.61,24.2c-.1.29.11.73.4.83l13.05,4.61c.1,0,.19-.02.27-.06.17-.08.29-.21.35-.37l8.61-24.21,24.21,8.62c.27.11.74-.11.83-.4l4.57-12.84c.06-.16.05-.34-.03-.5-.07-.16-.2-.28-.36-.33l-24.21-8.62,8.61-24.2c.1-.29-.11-.73-.4-.83l-12.84-4.57c-.17-.07-.34-.05-.49.02-.16.08-.29.21-.35.38l-8.61,24.2-24.21-8.61c-.07-.03-.15-.04-.22-.04Z"/>
</svg>