<?xml version="1.0" encoding="utf-8"?>
<!-- Generator: Adobe Illustrator 25.0.1, SVG Export Plug-In . SVG Version: 6.00 Build 0)  -->
<svg version="1.1" id="Layer_1" xmlns="http://www.w3.org/2000/svg" xmlns:xlink="http://www.w3.org/1999/xlink" x="0px" y="0px"
	 viewBox="0 0 500 500" style="enable-background:new 0 0 500 500;" xml:space="preserve">
<style type="text/css">
	.st0{fill:#424E9B;}
</style>
<g>
	<path class="st0" d="M475.9,483.6c-150.6,0-301.2,0-451.8,0c-4.6-2.2-7.9-5.5-10.1-10c0-60,0-119.9,0-179.9
		c0.3-1.8,0.6-3.5,0.8-5.3c1.7-14.8,2.5-29.7,5.1-44.4C35,158.6,73,84.7,134.2,22.5c4.4-4.5,9.2-6.5,15.5-6.5
		c66.5,0.1,133.1,0.2,199.6,0c7.2,0,12.5,2.1,17.5,7.2C445.1,104.5,485,201.3,486,313.7c0.4,50.5-0.1,101,0.2,151.6
		C486.2,473.7,483.9,480,475.9,483.6z M97.3,456.1c-0.6-2-0.9-3.5-1.4-4.9c-6.9-20.5-13.7-41-20.8-61.4c-1.9-5.5-1.9-10.5,0-16
		c9.3-27,18.3-54.1,27.4-81.2c3.3-9.8,7.1-12.6,17.6-12.6c29.5,0,59-0.1,88.5,0.1c3.5,0,5.1-0.7,5.9-4.4c2.1-9.5,4.6-18.9,7.1-28.3
		c1.9-7.3,6.8-11.3,14.2-11.3c53.9-0.1,107.9,0,161.8,0c7.2,0,12.2,3.6,13.9,10.4c5.1,19.7,10.1,39.5,14.9,59.3
		c2,8.2-4,15.6-12.4,16.3c-1.4,0.1-2.7,0.2-4.3,0.3c-8.2,44.6-16.3,88.9-24.5,133.5c24.7,0,48.8,0,73.2,0c0-2,0-3.7,0-5.3
		c0-45.2,0.4-90.4-0.2-135.6c-0.3-20-1.5-40.2-4.5-60C441.5,174.6,406.6,105,350.2,45.9c-1.3-1.3-3.6-2.3-5.5-2.3
		c-63-0.1-126-0.1-189,0c-1.9,0-4.3,0.8-5.6,2.2c-69.3,73-105.8,159.7-108.2,259.9c-1.2,48.8-0.2,97.7-0.2,146.5
		c0,1.3,0.2,2.6,0.3,4C60.5,456.1,78.6,456.1,97.3,456.1z M252.2,322.4c0,0.9-0.1,1.5,0,2c7.8,42.3,15.7,84.6,23.2,127
		c0.8,4.2,2.4,4.9,6.2,4.9c16.1-0.2,32.3-0.1,48.4-0.1c8.9,0,17.8,0,27,0c8.2-44.7,16.3-89.1,24.5-133.8
		C337.8,322.4,295,322.4,252.2,322.4z M248.2,456c-3.4-18.6-6.9-37-10.1-55.4c-0.7-4-2.1-5.1-6.1-5.1c-40.1,0.1-80.2,0.1-120.3,0.1
		c-1.6,0-3.2,0-5.5,0c6.9,20.7,13.6,40.5,20.3,60.4C167.2,456,207.6,456,248.2,456z M231.6,368c0-0.9,0.1-1.5,0-2.1
		c-2.5-13.8-4.9-27.5-7.6-41.2c-0.2-0.9-1.6-2.2-2.6-2.3c-10.6-1.8-13-4-15.3-14.5c-26.3,0-52.7,0-79.5,0
		c-6.7,19.9-13.4,39.8-20.3,60.2C148.4,368,189.8,368,231.6,368z M387.4,263.6c-2.2,0-3.8,0-5.5,0c-33.8,0-67.6,0-101.4,0
		c-10.3,0-20.6-0.1-30.9,0.1c-1.4,0-3.7,0.9-3.9,1.8c-2.6,9.6-5,19.2-7.4,29c52.5,0,104.5,0,156.8,0C392.5,284,390,274,387.4,263.6z
		"/>
	<path class="st0" d="M14,473.6c2.2,4.5,5.6,7.9,10.1,10c-3.4,0-6.8,0-10.1,0C14,480.3,14,476.9,14,473.6z"/>
	<path class="st0" d="M249.8,160.9c-19,0-38.1,0.1-57.1,0c-21.9-0.1-39.2-13-44-32.5c-6.9-27.8,13.7-53.4,43.3-53.6
		c35.8-0.2,71.6-0.1,107.4,0c5.4,0,10.8,0,16.1,0.7c21.8,2.7,37.7,21.5,37.2,43.5c-0.6,22.1-17.5,40.6-39.7,41.6
		c-21,0.9-42.1,0.2-63.1,0.2C249.8,160.7,249.8,160.8,249.8,160.9z M250,102.1c-19.3,0-38.7-0.1-58,0c-10.1,0-17,6.6-16.9,15.9
		c0.1,9.3,7.1,15.4,17.8,15.5c38.1,0,76.1,0,114.2,0c1.5,0,3.1-0.1,4.6-0.3c7.7-1.2,13.2-7.4,13.3-15.1c0.1-9.3-6.8-15.9-16.9-15.9
		C288.7,102.1,269.4,102.1,250,102.1z"/>
</g>
</svg>
