<?xml version="1.0" encoding="UTF-8"?>
<svg id="Layer_1" data-name="Layer 1" xmlns="http://www.w3.org/2000/svg" viewBox="0 0 20 20">
  <defs>
    <style>
      .cls-1 {
        fill: #ab141b;
        stroke: #ab141b;
        stroke-miterlimit: 10;
      }
    </style>
  </defs>
  <path class="cls-1" d="M10,10.44c-1.81,0-3.28-1.47-3.28-3.28s1.47-3.28,3.28-3.28,3.28,1.47,3.28,3.28-1.47,3.28-3.28,3.28ZM10,4.35c-1.54,0-2.8,1.26-2.8,2.8s1.26,2.8,2.8,2.8,2.8-1.26,2.8-2.8-1.26-2.8-2.8-2.8Z"/>
  <path class="cls-1" d="M15.93,16.13H4.07v-.24c0-3.27,2.66-5.93,5.93-5.93s5.93,2.66,5.93,5.93v.24ZM4.56,15.65h10.89c-.13-2.89-2.52-5.21-5.44-5.21s-5.32,2.31-5.44,5.21Z"/>
</svg>