<?xml version="1.0" encoding="UTF-8"?>
<svg id="Layer_1" data-name="Layer 1" xmlns="http://www.w3.org/2000/svg" viewBox="0 0 20 20">
  <defs>
    <style>
      .cls-1 {
        fill: #ab141b;
        fill-rule: evenodd;
        stroke: #ab141b;
        stroke-linecap: round;
        stroke-linejoin: round;
        stroke-width: .35px;
      }
    </style>
  </defs>
  <path class="cls-1" d="M16.89,16.23h0,0ZM10.96,17.11h0s0,0,0,0h0ZM11.04,17.12l3.01.33c1.06.12,2.07-.41,2.58-1.35l.02-.04s0,0,0,0c.21-.4.29-.8.25-1.11-.07-.51-.33-.94-.71-1.19-.34-.23-.75-.29-1.18-.18l-.28.07c-.1.02-.2,0-.27-.07-.07-.07-.1-.17-.08-.27l.06-.29c.09-.43.01-.83-.23-1.17-.27-.37-.71-.61-1.22-.67-.32-.04-.71.07-1.1.29l-.05.03c-.92.54-1.41,1.57-1.26,2.63l.43,3h0ZM14.35,18.04c-.12,0-.24,0-.36-.02l-3.09-.33c-.21-.02-.38-.18-.41-.39l-.44-3.09c-.19-1.29.41-2.55,1.54-3.21l.05-.03s0,0,0,0c.5-.28,1-.41,1.44-.36.67.07,1.26.4,1.62.9.3.42.43.94.35,1.47.53-.1,1.05,0,1.48.3.51.34.86.92.96,1.59.06.44-.04.94-.31,1.45l-.02.05s0,0,0,0c-.56,1.04-1.63,1.67-2.79,1.67Z"/>
  <path class="cls-1" d="M17.13,9.26c-.86,0-1.55.7-1.55,1.55,0,.86.7,1.55,1.55,1.55s1.55-.7,1.55-1.55c0-.86-.7-1.55-1.55-1.55h0ZM17.13,12.94c-1.17,0-2.13-.95-2.13-2.13,0-1.17.95-2.13,2.13-2.13s2.13.95,2.13,2.13c0,1.17-.95,2.13-2.13,2.13Z"/>
  <path class="cls-1" d="M11.53,9.87h0s0,0,0,0h0ZM11.02,10.13s0,0,0,0c0,0,0,0,0,0h0ZM10.8,10.37s0,0,0,0c0,0,0,0,0,0h0ZM10.61,10.5h0s0,0,0,0h0ZM2.13,12.41c-.91,1.22-1.07,2.83-.4,4.21.65,1.36,1.94,2.2,3.44,2.25,1.16.04,2.11-.43,2.81-1.39.21-.29.37-.58.48-.83-.59.24-1.15.29-1.68.14-1.06-.3-1.55-1.29-1.57-1.33-.07-.14-.01-.31.13-.38,1.48-.75,2.41-1.72,2.77-2.88.49-1.6-.3-3.02-.31-3.04-.07-.13-.03-.29.09-.38.12-.08.29-.06.38.06l1.4,1.74s.03.03.05.04c.07.04.16.01.21-.06l.19-.34c.09-.16.26-.24.44-.2l.23.05c.06-.21.27-.33.48-.28h.02s0-.01,0-.01c0,0,0-.02,0-.03h0c0-.23.18-.41.4-.41h.68v-1.12c0-.19.07-.36.21-.5,0,0,0,0,0,0l.54-.54c.69-.68,1.04-1.63.97-2.6,0,0,0-.01,0-.02,0-.02,0-.05,0-.08-.1-1.03-.64-1.94-1.48-2.48-.86-.56-1.79-.68-2.75-.35-.74.25-1.22.68-1.22.68-.06.06-.15.08-.24.07-.08-.01-.16-.06-.2-.14-.42-.72-.86-1.1-1.31-1.13-.59-.04-1.08.52-1.22.69-.05.06-.1.12-.15.19-.3.35-.42.71-.37,1.07.13.84,1.14,1.48,1.15,1.48.11.07.16.2.12.33-.34,1.11-.19,1.63-.01,1.88.2.27.5.28.51.28.08,0,.16.03.21.09.05.06.08.14.08.22-.1,1.41-2.03,2.65-2.85,3.11-.11.06-.23.14-.38.24-.72.49-1.33,1.06-1.81,1.71h0ZM5.3,19.45c-.05,0-.11,0-.16,0-1.71-.06-3.18-1.02-3.93-2.57-.36-.75-.52-1.57-.45-2.39.07-.87.38-1.7.91-2.41,0,0,0,0,0,0,.52-.7,1.18-1.32,1.95-1.84.16-.11.3-.19.42-.26,1.09-.62,2.27-1.55,2.51-2.41-.2-.06-.44-.19-.64-.45-.35-.48-.4-1.21-.13-2.18-.35-.26-1.1-.9-1.23-1.76-.08-.54.08-1.05.5-1.54.05-.06.09-.11.14-.17.23-.29.87-.97,1.71-.91.58.04,1.11.43,1.59,1.14.24-.17.64-.41,1.14-.58.79-.27,1.99-.42,3.27.41.99.64,1.62,1.7,1.74,2.9,0,.03,0,.08,0,.12.08,1.14-.33,2.24-1.14,3.04l-.53.53s-.05.06-.05.11v1.29c0,.22-.18.4-.4.4h-.67s0,.07,0,.07c.02.22-.13.41-.35.44-.01,0-.02,0-.04,0-.02,0-.07,0-.12-.01h-.03c-.03.09-.1.18-.2.23-.09.04-.18.05-.27.03l-.32-.07-.13.23c-.2.35-.64.47-.99.28,0,0,0,0,0,0-.07-.04-.13-.09-.19-.16,0,0,0,0-.01-.01l-.45-.56c.09.57.09,1.25-.13,1.97-.38,1.24-1.31,2.27-2.78,3.08.18.26.54.65,1.07.79.56.16,1.19,0,1.89-.43.1-.06.23-.06.32,0,.1.07.14.19.11.3,0,.04-.21.87-.82,1.69-.78,1.07-1.86,1.63-3.13,1.63Z"/>
  <path class="cls-1" d="M10.97,6.51c-1.09,0-1.62-.41-1.73-.5-.35-.26-.67-.36-.92-.31-.24.05-.36.23-.36.24-.08.14-.26.18-.39.1-.14-.08-.18-.26-.1-.39.02-.04.25-.41.74-.51.42-.09.89.05,1.39.42.01,0,.02.01.03.02.04.04,1.01.83,3.37-.06.15-.06.31.02.37.17.06.15-.02.31-.17.37-.91.34-1.64.46-2.22.46Z"/>
</svg>