<?xml version="1.0" encoding="UTF-8"?>
<svg id="Layer_1" data-name="Layer 1" xmlns="http://www.w3.org/2000/svg" viewBox="0 0 20 20">
  <defs>
    <style>
      .cls-1 {
        fill: #ab141b;
      }
    </style>
  </defs>
  <path class="cls-1" d="M10,19.08c-1.22,0-2.41-.24-3.53-.71-1.08-.46-2.05-1.11-2.88-1.94-.83-.83-1.49-1.8-1.94-2.88-.47-1.12-.71-2.31-.71-3.53s.24-2.41.71-3.53c.46-1.08,1.11-2.05,1.94-2.88.83-.83,1.8-1.49,2.88-1.94,1.12-.47,2.31-.71,3.53-.71.49,0,.88.4.88.88s-.4.88-.88.88c-1.95,0-3.79.76-5.17,2.14-1.38,1.38-2.14,3.22-2.14,5.17s.76,3.79,2.14,5.17c1.38,1.38,3.22,2.14,5.17,2.14s3.79-.76,5.17-2.14c1.38-1.38,2.14-3.22,2.14-5.17,0-.49.4-.88.88-.88s.88.4.88.88c0,1.22-.24,2.41-.71,3.53-.46,1.08-1.11,2.05-1.94,2.88-.83.83-1.8,1.49-2.88,1.94-1.12.47-2.31.71-3.53.71Z"/>
  <path class="cls-1" d="M18.04,2.46c.47.12.67.67.38,1.06-2.1,2.88-4.65,7-6.42,10.1-.35.62-.99,1.03-1.7,1.1,0,0-.02,0-.02,0-.8.08-1.57-.28-2.03-.94-.96-1.39-2.02-2.72-3.15-3.98-.42-.47-.39-1.18.07-1.61,0,0,.02-.01.02-.02.8-.74,2.05-.66,2.77.15.71.81,1.36,1.58,1.92,2.33,1.93-2.7,4.19-5.51,6.29-7.65.5-.51,1.21-.71,1.87-.54Z"/>
</svg>