<?xml version="1.0" encoding="UTF-8"?>
<svg id="Layer_1" data-name="Layer 1" xmlns="http://www.w3.org/2000/svg" viewBox="0 0 164.87 160.85">
  <defs>
    <style>
      .cls-1 {
        fill: #ff7786;
      }

      .cls-2 {
        fill: #ff9eaa;
      }

      .cls-3 {
        fill: #fff;
      }

      .cls-4 {
        stroke: #ffb8c0;
      }

      .cls-4, .cls-5, .cls-6, .cls-7, .cls-8, .cls-9, .cls-10, .cls-11 {
        fill: none;
      }

      .cls-4, .cls-5, .cls-6, .cls-7, .cls-8, .cls-10, .cls-11 {
        stroke-linecap: round;
        stroke-linejoin: round;
      }

      .cls-4, .cls-11 {
        stroke-width: 3.94px;
      }

      .cls-12 {
        fill: #ffe1e5;
      }

      .cls-13 {
        fill: #ffabb5;
      }

      .cls-5 {
        stroke-width: 2.6px;
      }

      .cls-5, .cls-8, .cls-9, .cls-11 {
        stroke: #ffd1d9;
      }

      .cls-14 {
        fill: #ffb8c0;
      }

      .cls-6 {
        stroke: #ffe1e5;
      }

      .cls-6, .cls-10 {
        stroke-width: 4.53px;
      }

      .cls-15 {
        fill: #ff919e;
      }

      .cls-7, .cls-8 {
        stroke-width: 3.77px;
      }

      .cls-7, .cls-10 {
        stroke: #ffecef;
      }

      .cls-16 {
        fill: #ffd1d9;
      }

      .cls-17 {
        fill: #ffd4d6;
      }

      .cls-9 {
        stroke-miterlimit: 10;
        stroke-width: 4.82px;
      }

      .cls-18 {
        fill: #ff8492;
      }

      .cls-19 {
        fill: #ffecef;
      }
    </style>
  </defs>
  <path class="cls-19" d="M26.97,42.18c12.16-4.98,26.19-3.56,38.91-.44,9.78,2.43,19.33,5.81,29.24,7.78,14.84,2.95,28.58,3.15,40.01,14.19,10.02,9.68,16.34,23.85,14.58,38.24-3.14,25.55-28.21,48.05-51.44,55.44-22,6.99-46.78,3.23-65.45-9.7C3.15,127.18-18.61,66.57,23.3,43.9c1.19-.64,2.43-1.22,3.66-1.73Z"/>
  <g>
    <g>
      <path class="cls-12" d="M60.7,77.07c-.14.02-.28-.07-.31-.22l-12-57.96c-.03-.15.06-.3.21-.32.15-.03.3.06.32.21l12,57.96c.03.15-.06.3-.21.32,0,0,0,0-.01,0Z"/>
      <path class="cls-12" d="M49.84,14.69c.39,2.58-.95,5.29-.95,5.29,0,0-2.21-2.33-2.56-4.72-.14-.97.45-2.2,1.42-2.36.97-.17,1.95.81,2.09,1.79Z"/>
      <path class="cls-12" d="M54.52,21.08c-1.7,1.97-4.62,2.73-4.62,2.73,0,0,.33-3.2,1.91-5.02.64-.74,1.97-1.1,2.71-.46.75.63.65,2.01,0,2.76Z"/>
      <path class="cls-12" d="M57.2,27.66c-2.49,2.21-6.32,2.69-6.32,2.69,0,0,.96-4,3.26-6.04.94-.83,2.68-1.06,3.53-.13.84.93.47,2.66-.47,3.49Z"/>
      <path class="cls-12" d="M60.01,35.94c-2.9,2.33-7.28,2.54-7.28,2.54,0,0,1.21-4.5,3.9-6.65,1.1-.88,3.08-.99,4.02.14.93,1.14.46,3.1-.64,3.97Z"/>
      <path class="cls-12" d="M62.58,44.91c-3.38,2.13-8.08,1.83-8.08,1.83,0,0,1.84-4.65,4.98-6.62,1.28-.81,3.41-.69,4.26.64.85,1.32.11,3.35-1.16,4.15Z"/>
      <path class="cls-12" d="M65.3,54.07c-4.03,1.97-9.24,1.07-9.24,1.07,0,0,2.62-4.98,6.35-6.8,1.52-.74,3.89-.35,4.68,1.23.8,1.58-.27,3.75-1.79,4.5Z"/>
      <path class="cls-12" d="M68.07,63.88c-4.63,1.43-10.04-.41-10.04-.41,0,0,3.62-4.87,7.92-6.19,1.75-.54,4.21.28,4.79,2.1.59,1.82-.92,3.96-2.67,4.49Z"/>
      <path class="cls-12" d="M44.21,23.17c2.33,1.16,5.32.73,5.32.73,0,0-1.54-2.82-3.7-3.89-.88-.44-2.24-.25-2.68.62-.45.87.18,2.1,1.06,2.54Z"/>
      <path class="cls-12" d="M44.29,30.27c3.15,1.07,6.87.02,6.87.02,0,0-2.43-3.31-5.35-4.31-1.19-.4-2.88.06-3.3,1.25-.42,1.18.59,2.64,1.77,3.05Z"/>
      <path class="cls-12" d="M45.04,38.99c3.58,1.02,7.7-.47,7.7-.47,0,0-2.86-3.68-6.17-4.62-1.35-.38-3.23.28-3.65,1.69-.42,1.41.77,3.02,2.12,3.4Z"/>
      <path class="cls-12" d="M46.35,48.22c3.94.65,8.16-1.44,8.16-1.44,0,0-3.5-3.58-7.15-4.18-1.49-.25-3.41.69-3.69,2.24-.27,1.55,1.2,3.13,2.68,3.38Z"/>
      <path class="cls-12" d="M47.35,57.71c4.48.25,8.94-2.59,8.94-2.59,0,0-4.34-3.57-8.49-3.81-1.68-.09-3.72,1.18-3.84,2.94-.12,1.77,1.71,3.36,3.4,3.45Z"/>
      <path class="cls-12" d="M48.73,67.81c4.82-.48,9.1-4.26,9.1-4.26,0,0-5.22-3.08-9.69-2.64-1.82.18-3.77,1.88-3.6,3.79.17,1.9,2.39,3.29,4.2,3.11Z"/>
    </g>
    <g>
      <path class="cls-16" d="M96.14,44.14c-2.01-.67-5.49-1.37-5.5-.59-.01.78,3.21,1.44,5.5.59Z"/>
      <path class="cls-16" d="M96.23,44.14c2.12.06,5.63.59,5.37,1.33-.26.74-3.51.25-5.37-1.33Z"/>
      <path class="cls-16" d="M96.15,44.12c-2.03.9-5.78,3.21-5.49,3.93.28.71,3.42-.73,5.49-3.93Z"/>
      <path class="cls-16" d="M96.15,44.12c.19,1.88,2.66,7,3.89,6.5,1.22-.5-1.12-4.73-3.89-6.5Z"/>
      <path class="cls-8" d="M96.15,44.12c-.09,2.59-5.14,23.11-16.08,45.53"/>
      <path class="cls-14" d="M84.77,79.23c-2.85-2.64-4.27-3.93-4.14-9.68,0,0,4.3,1.65,4.14,9.68Z"/>
      <path class="cls-14" d="M85.17,78.7c2.29-2.65,3.96-4.45,8.82-4.71,0,0-2.82,4.2-8.82,4.71Z"/>
      <path class="cls-16" d="M96.11,44.74c-3.09-2.91-5.04-7-5.35-11.24-.07-.91.05-2.01.87-2.4,1.84-.88,3.17,2.65,3.86,3.76-.19-.31.1-1.4.16-1.75.13-.77.33-1.54.63-2.27.47-1.14,2.64-4.16,3.74-1.81.76,1.64.28,4.25-.1,5.93.64-.84,1.39-1.75,2.3-2.29.91-.54,2.13-.69,2.99-.08.72.51,1.04,1.46.99,2.34-.05.88-.42,1.72-.85,2.49-1.93,3.48-5.46,6.15-9.25,7.31Z"/>
      <path class="cls-7" d="M92.76,34.75c.42,2.28,1.28,4.48,2.52,6.45"/>
      <path class="cls-7" d="M98.19,33.42c-.35,2.46-.69,4.91-1.05,7.36"/>
      <path class="cls-7" d="M98.37,41.35c2.17-1.72,4.14-3.69,5.87-5.87"/>
    </g>
    <g>
      <path class="cls-16" d="M67.46,49.79c-2.03.61-5.28,2.04-4.84,2.68.44.65,3.45-.67,4.84-2.68Z"/>
      <path class="cls-16" d="M67.53,49.75c1.77-1.17,4.95-2.75,5.16-2,.21.76-2.73,2.23-5.16,2Z"/>
      <path class="cls-16" d="M67.45,49.77c-1.15,1.9-2.88,5.95-2.23,6.37.64.42,2.38-2.56,2.23-6.37Z"/>
      <path class="cls-16" d="M67.45,49.77c1.24,1.43,6.2,4.2,6.92,3.08.71-1.11-3.64-3.22-6.92-3.08Z"/>
      <path class="cls-8" d="M67.45,49.77c1.42,2.17,9.1,21.86,13.05,46.49"/>
      <path class="cls-14" d="M78.35,85.04c-3.85-.52-5.75-.76-8.96-5.54,0,0,4.47-1.12,8.96,5.54Z"/>
      <path class="cls-14" d="M78.37,84.37c.35-3.48.67-5.92,4.5-8.93,0,0,.11,5.05-4.5,8.93Z"/>
      <path class="cls-16" d="M67.78,50.31c-4.2-.61-8.15-2.83-10.84-6.12-.58-.7-1.11-1.67-.67-2.46,1-1.78,4.11.34,5.32.85-.34-.15-.72-1.2-.87-1.53-.34-.71-.61-1.45-.79-2.22-.27-1.2-.23-4.92,2.01-3.63,1.57.9,2.67,3.31,3.33,4.91.04-1.06.14-2.23.57-3.2.43-.97,1.35-1.79,2.4-1.79.88,0,1.69.59,2.16,1.34.47.75.65,1.65.74,2.53.42,3.96-.93,8.17-3.36,11.3Z"/>
      <path class="cls-7" d="M59.29,44.06c1.66,1.62,3.62,2.93,5.77,3.82"/>
      <path class="cls-7" d="M62.97,39.85c1.13,2.21,2.26,4.41,3.38,6.62"/>
      <path class="cls-7" d="M67.68,46.23c.79-2.66,1.27-5.4,1.43-8.18"/>
    </g>
    <g>
      <path class="cls-12" d="M77.27,24.52c-2.52.38-6.64,1.51-6.22,2.36.41.85,4.22-.2,6.22-2.36Z"/>
      <path class="cls-12" d="M77.36,24.48c2.3-1.09,6.36-2.42,6.48-1.5.12.94-3.63,2.18-6.48,1.5Z"/>
      <path class="cls-12" d="M77.27,24.5c-1.69,2.07-4.45,6.59-3.76,7.2.69.61,3.27-2.64,3.76-7.2Z"/>
      <path class="cls-12" d="M77.27,24.5c1.23,1.91,6.66,6.07,7.71,4.85,1.04-1.2-3.77-4.46-7.71-4.85Z"/>
      <path class="cls-6" d="M77.27,24.5c1.31,2.83,7.06,27.58,7.52,57.58"/>
      <path class="cls-12" d="M84.16,68.35c-4.49-1.28-6.71-1.89-9.71-8.13,0,0,5.51-.56,9.71,8.13Z"/>
      <path class="cls-12" d="M84.29,67.55c1.01-4.08,1.82-6.93,6.9-9.85,0,0-.75,6.03-6.9,9.85Z"/>
      <path class="cls-12" d="M77.56,25.19c-4.9-1.45-9.21-4.77-11.85-9.15-.57-.93-1.04-2.18-.38-3.05,1.49-1.94,4.84,1.12,6.19,1.93-.38-.23-.65-1.55-.78-1.97-.28-.9-.48-1.83-.55-2.78-.12-1.48.57-5.9,3.02-3.98,1.71,1.34,2.61,4.4,3.12,6.42.23-1.25.55-2.63,1.22-3.71.68-1.07,1.91-1.9,3.17-1.71,1.05.16,1.91,1,2.34,1.97.43.97.49,2.07.44,3.13-.18,4.78-2.51,9.56-5.95,12.87Z"/>
      <path class="cls-10" d="M68.54,16.3c1.7,2.22,3.81,4.11,6.21,5.54"/>
      <path class="cls-10" d="M73.64,11.91c.96,2.82,1.93,5.64,2.88,8.47"/>
      <path class="cls-10" d="M78.15,20.32c1.4-3.03,2.44-6.21,3.11-9.49"/>
    </g>
    <g>
      <path class="cls-16" d="M96.83,105.52c-.11-.15-.04-.37.15-.52,27.33-20.4,41.91-53.08,39.61-86.28-.02-.24.11-.43.29-.44.18-.01.34.16.35.4,2.32,33.42-12.36,66.32-39.87,86.85-.2.15-.43.15-.54,0Z"/>
      <path class="cls-16" d="M138.23,9.47c.73,4.08-1.18,10.86-1.22,10.82.04-.04-2.76-6.29-3.44-10.07-.54-3.77.28-10.18.24-10.22.02-.04,3.83,5.4,4.42,9.47Z"/>
      <path class="cls-16" d="M132.71,16.71c2.47,2.43,4.5,9.14,4.44,9.16,0-.02-5.2-2.42-7.48-4.85-2.21-2.5-4.45-7.97-4.5-7.96,0-.01,5.15,1.13,7.53,3.64Z"/>
      <path class="cls-16" d="M131.34,36.1c2.33,3.36,3.44,11.34,3.37,11.36.01-.03-5.09-4.55-7.2-7.86-2-3.43-3.81-9.8-3.86-9.78,0-.03,5.49,2.82,7.7,6.28Z"/>
      <path class="cls-16" d="M126.5,55.25c1.74,4.06,1.28,12.67,1.18,12.68.02-.04-4.12-6.11-5.65-10.11-1.36-4.08-2.1-11.03-2.16-11.01,0-.03,5.04,4.27,6.63,8.44Z"/>
      <path class="cls-14" d="M117.91,73.46c.86,4.47-1.49,13.02-1.59,13.01.04-.03-2.68-7.1-3.33-11.44-.46-4.43.23-11.51.17-11.5.01-.03,4.11,5.4,4.76,9.93Z"/>
      <path class="cls-14" d="M105.64,87.65c-.02,5.36-4.58,14.7-4.72,14.67.07-.03-.67-8.95-.42-14.12.55-5.25,2.37-13.13,2.28-13.13.03-.04,3.19,7.18,2.86,12.58Z"/>
      <g>
        <path class="cls-16" d="M140.74,15.96c-1.78,3.15-3.53,9.93-3.58,9.9,0,.02,5.24-2.43,7.24-5.57,2.09-3.06,2.8-10.35,2.74-10.37,0,.01-4.53,2.97-6.39,6.03Z"/>
        <path class="cls-16" d="M141.71,37.27c-2.87,3.27-6.95,10.24-7.01,10.19,0,.04,6.59-2,9.7-5.22,3.21-3.08,6.08-11.06,6.01-11.09,0,.02-5.74,3-8.71,6.12Z"/>
        <path class="cls-16" d="M137.54,58.94c-3.79,2.83-9.82,9.06-9.87,8.98-.02.04,7.4-.8,11.47-3.56,4.12-2.55,9.02-10.21,8.96-10.26,0,.03-6.69,2.19-10.55,4.83Z"/>
        <path class="cls-16" d="M128.26,79.63c-4.45,2.03-11.9,6.92-11.94,6.83-.03.04,7.63.73,12.32-1.16,4.73-1.69,11.33-8.25,11.27-8.32-.01.03-7.17.82-11.66,2.64Z"/>
        <path class="cls-12" d="M116.59,97.65c-5.71,1.42-15.64,4.79-15.66,4.68-.05.06,8.81,2.25,14.8,1.05,5.98-.9,15.25-6.8,15.19-6.9-.02.05-8.65.06-14.34,1.17Z"/>
      </g>
    </g>
    <g>
      <path class="cls-16" d="M68.21,107.62c.11-.15.04-.37-.15-.52C40.73,86.71,26.15,54.03,28.45,20.82c.02-.24-.11-.43-.29-.44-.18-.01-.34.16-.35.4-2.32,33.42,12.36,66.32,39.87,86.85.2.15.43.15.54,0Z"/>
      <path class="cls-16" d="M26.81,11.58c-.73,4.08,1.18,10.86,1.22,10.82-.04-.04,2.76-6.29,3.44-10.07.54-3.77-.28-10.18-.24-10.22-.02-.04-3.83,5.4-4.42,9.47Z"/>
      <path class="cls-16" d="M32.33,18.81c-2.47,2.43-4.5,9.14-4.44,9.16,0-.02,5.2-2.42,7.48-4.85,2.21-2.5,4.45-7.97,4.5-7.96,0-.01-5.15,1.13-7.53,3.64Z"/>
      <path class="cls-16" d="M33.7,38.21c-2.33,3.36-3.44,11.34-3.37,11.36-.01-.03,5.09-4.55,7.2-7.86,2-3.43,3.81-9.8,3.86-9.78,0-.03-5.49,2.82-7.7,6.28Z"/>
      <path class="cls-16" d="M38.54,57.36c-1.74,4.06-1.28,12.67-1.18,12.68-.02-.04,4.12-6.11,5.65-10.11,1.36-4.08,2.1-11.03,2.16-11.01,0-.03-5.04,4.27-6.63,8.44Z"/>
      <path class="cls-14" d="M47.13,75.56c-.86,4.47,1.49,13.02,1.59,13.01-.04-.03,2.68-7.1,3.33-11.44.46-4.43-.23-11.51-.17-11.5-.01-.03-4.11,5.4-4.76,9.93Z"/>
      <path class="cls-14" d="M59.4,89.76c.02,5.36,4.58,14.7,4.72,14.67-.07-.03.67-8.95.42-14.12-.55-5.25-2.37-13.13-2.28-13.13-.03-.04-3.19,7.18-2.86,12.58Z"/>
      <g>
        <path class="cls-16" d="M24.3,18.07c1.78,3.15,3.53,9.93,3.58,9.9,0,.02-5.24-2.43-7.24-5.57-2.09-3.06-2.8-10.35-2.74-10.36,0,.01,4.53,2.97,6.39,6.03Z"/>
        <path class="cls-16" d="M23.33,39.38c2.87,3.27,6.95,10.24,7.01,10.19,0,.04-6.59-2-9.7-5.22-3.21-3.08-6.08-11.06-6.01-11.09,0,.02,5.74,3,8.71,6.12Z"/>
        <path class="cls-16" d="M27.5,61.05c3.79,2.83,9.82,9.06,9.87,8.98.02.04-7.4-.8-11.47-3.56-4.12-2.55-9.02-10.21-8.96-10.26,0,.03,6.69,2.19,10.55,4.83Z"/>
        <path class="cls-14" d="M36.78,81.74c4.45,2.03,11.9,6.92,11.94,6.83.03.04-7.63.73-12.32-1.16-4.73-1.69-11.33-8.25-11.27-8.32.01.03,7.17.82,11.66,2.64Z"/>
        <path class="cls-14" d="M48.45,99.75c5.71,1.42,15.64,4.79,15.66,4.68.05.06-8.81,2.25-14.8,1.05-5.98-.9-15.25-6.8-15.19-6.9.02.05,8.65.06,14.34,1.17Z"/>
      </g>
    </g>
    <g>
      <path class="cls-12" d="M8.24,72.08c-.74-.23-2.41-.84-3.64-2.47-.5-.65-1.54-2.23-1.27-4.07.36-2.6,2.76-3.37,3.65-3.66,2.13-.67,4.12.57,4.48.8,2.35,1.47,2.82,4.06,2.9,4.52,2.41-6.93,6.35-6.81,8.33-6.14,4.36,1.49,3.3,8.64.59,10.54.34-.19,1.81-.95,3.54-.44,2.09.6,2.9,2.56,3.11,3.19.55,1.58.15,2.97,0,3.38-.5,1.5-1.46,2.37-1.86,2.71-2.05,1.76-4.84,1.85-6.24,1.28-.73-.29-1.46-.9-2.32-1.84,0,0,1.65,7.09-4.45,8.24-.43.08-1.43.19-2.46-.31-1.85-.92-2.24-3.19-2.36-3.78-.43-2.51.84-4.48,1.21-5-2.51,2.35-5.38,3.17-7.19,2.44-.62-.26-1.21-.67-1.73-1.36-.14-.17-.79-1.05-.92-2.31-.23-2.26,1.39-3.91,1.65-4.15,1.96-1.95,4.62-1.62,4.96-1.56Z"/>
      <path class="cls-3" d="M14.36,71.45c-.06.05-1.01.98-.75,2.24.23,1.09,1.22,1.8,2.15,1.92,1.4.19,2.96-.91,3.02-2.3.05-1-.68-1.87-1.49-2.25-.89-.48-2.12-.38-2.93.39Z"/>
      <path class="cls-5" d="M18.83,69.07c1.34-1.57,2.33-3.43,2.91-5.43"/>
      <path class="cls-5" d="M20.91,75.88c1.83.63,3.87.68,5.74.14"/>
      <path class="cls-5" d="M14.36,84.41c-.18-1.79-.09-3.61.27-5.39"/>
      <path class="cls-5" d="M5.66,77.73c1.45-.79,2.9-1.56,4.35-2.35"/>
      <path class="cls-5" d="M7.55,65.5c.9,1.94,2.43,3.58,4.31,4.59"/>
      <path class="cls-9" d="M19.53,79.87c4.12,5.66,8.27,14.72,9.16,20.66.89,5.94,4.38,12.04,7.2,13.41"/>
      <path class="cls-12" d="M16.28,98.99c.68,3.35,3.75,14.55,16.72,12.21,0,0-1.27-.65-3.66-3.84-1.44-1.91-3.56-3.95-7.83-5.88-4.28-1.93-5.23-2.49-5.23-2.49Z"/>
      <path class="cls-2" d="M29.29,103.37c-.56-5.72-.99-12.7,1.48-17,0,0,4.2,4.39,3.03,9.86-.92,4.3-4.51,7.14-4.51,7.14Z"/>
    </g>
    <g>
      <path class="cls-12" d="M152.45,66.38c.03-.67.19-2.22,1.3-3.61.44-.56,1.55-1.78,3.16-1.95,2.27-.26,3.44,1.6,3.88,2.29,1.02,1.65.4,3.6.29,3.95-.73,2.3-2.82,3.26-3.19,3.42,6.37.54,7.12,3.89,6.98,5.71-.32,4-6.58,4.65-8.77,2.77.24.25,1.19,1.32,1.14,2.9-.06,1.9-1.54,3-2.02,3.32-1.22.81-2.48.77-2.85.74-1.37-.1-2.31-.72-2.69-.98-1.93-1.35-2.6-3.68-2.42-4.99.09-.68.45-1.43,1.05-2.36,0,0-5.63,2.93-7.92-1.98-.16-.34-.46-1.16-.26-2.14.38-1.76,2.21-2.58,2.68-2.8,2.02-.91,3.96-.25,4.48-.06-2.52-1.61-3.84-3.85-3.61-5.54.08-.58.31-1.17.77-1.75.11-.16.72-.89,1.75-1.27,1.85-.68,3.6.33,3.86.49,2.07,1.23,2.36,3.55,2.39,3.85Z"/>
      <path class="cls-3" d="M153.05,71.41c-.06-.04-1.05-.64-2.06-.15-.87.43-1.25,1.42-1.16,2.23.14,1.22,1.4,2.3,2.59,2.06.85-.18,1.43-.98,1.58-1.74.21-.86-.14-1.87-.96-2.39Z"/>
      <path class="cls-5" d="M157.28,74.67c1.62.79,3.4,1.22,5.21,1.28"/>
      <path class="cls-5" d="M151.97,77.9c-.14,1.68.26,3.42,1.12,4.87"/>
      <path class="cls-5" d="M143.36,74.22c1.47-.54,3.03-.86,4.61-.94"/>
      <path class="cls-5" d="M147.12,65.43c.98,1.06,1.94,2.11,2.93,3.17"/>
      <path class="cls-5" d="M157.86,64.38c-1.44,1.18-2.49,2.83-2.95,4.63"/>
      <path class="cls-9" d="M148.31,77.6c-3.88,4.7-10.64,10.16-15.47,12.19-4.82,2.03-9.22,6.3-9.77,8.97"/>
      <path class="cls-12" d="M131.46,78.98c-2.69,1.3-11.48,6.31-6.7,16.75,0,0,.28-1.21,2.45-3.92,1.3-1.63,2.57-3.86,3.27-7.88.71-4.03.97-4.95.97-4.95Z"/>
      <path class="cls-12" d="M130.57,90.91c4.71-1.71,10.5-3.58,14.67-2.42,0,0-2.8,4.49-7.67,4.69-3.83.15-7-2.26-7-2.26Z"/>
    </g>
    <g>
      <path class="cls-12" d="M116.07,28.97c-.51.57.11,1.67.26,1.94.19.34.48.86.81.82.61-.05,1.45-1.93.71-2.7-.43-.45-1.38-.51-1.78-.06Z"/>
      <path class="cls-11" d="M117.08,30.78c.18,3.47-1.24,11.55-1.24,11.55,0,0-7.11,31.8-21.22,51.86"/>
      <path class="cls-12" d="M110.24,37.33c-.37.67.51,1.6.71,1.82.27.28.66.72.98.6.59-.19.95-2.23.04-2.79-.53-.32-1.45-.16-1.73.37Z"/>
      <path class="cls-12" d="M103.94,39.43c-.08.76,1.1,1.27,1.38,1.4.35.15.88.39,1.15.18.46-.41,0-2.42-1.07-2.58-.62-.1-1.4.43-1.46,1Z"/>
      <path class="cls-12" d="M102.53,44.63c-.3.71.66,1.55.9,1.74.3.25.73.64,1.05.5.57-.24.72-2.3-.26-2.78-.55-.27-1.45-.02-1.69.54Z"/>
      <path class="cls-12" d="M106.92,47.97c-.3.71.66,1.55.9,1.74.3.25.73.64,1.05.5.57-.24.72-2.3-.26-2.78-.57-.28-1.46,0-1.69.54Z"/>
      <g>
        <path class="cls-12" d="M126.19,41.92c-.64-.4-1.63.42-1.87.6-.29.24-.75.63-.67.94.15.6,2.17,1.07,2.78.2.37-.5.25-1.42-.25-1.73Z"/>
        <path class="cls-12" d="M123.6,38.78c-.76-.08-1.28,1.08-1.41,1.36-.15.35-.39.88-.18,1.15.41.46,2.42.03,2.6-1.04.11-.6-.41-1.39-1-1.46Z"/>
        <path class="cls-11" d="M113.38,51.73s4.33-8.24,9.25-10.78"/>
        <path class="cls-11" d="M117.9,45.03c2.44-1.19,6.44-1.66,6.44-1.66"/>
      </g>
      <path class="cls-12" d="M121.56,31.37c-.75-.19-1.44.87-1.59,1.12-.22.33-.53.82-.36,1.09.33.52,2.38.39,2.72-.63.2-.57-.19-1.42-.77-1.58Z"/>
      <path class="cls-11" d="M111.82,39.24c.29,1.65,1.72,2.96,2.3,4.39.58,1.42.74,2.82.74,2.82"/>
      <path class="cls-11" d="M105.95,40.53c1.17.94,1.87.58,3.99,1.05,2.12.47,3.18,1.01,4.16,2.05"/>
      <path class="cls-11" d="M104.29,46.03c.23,1.47,1.61,4.65,5.73,5.84"/>
      <path class="cls-11" d="M108.27,49.24c.97,1.69,3.34,4.28,3.62,7.37"/>
      <g>
        <path class="cls-12" d="M122.26,53.75c-.56-.53-1.69.1-1.95.24-.34.19-.86.46-.82.81.05.61,1.93,1.47,2.69.72.45-.43.51-1.38.08-1.77Z"/>
        <path class="cls-12" d="M122.29,57.24c-.56-.53-1.69.1-1.95.24-.34.19-.86.46-.82.81.05.61,1.93,1.47,2.69.72.45-.43.5-1.36.08-1.77Z"/>
        <path class="cls-11" d="M110.29,61.75c2.69-2.18,8.89-7.05,11.05-7.34"/>
        <path class="cls-11" d="M113.89,58.93c2.24-.74,6.72-1.16,7.72-.78"/>
      </g>
      <g>
        <path class="cls-18" d="M116.03,69.21c-.64-.4-1.63.42-1.87.6-.29.24-.75.63-.67.94.15.6,2.17,1.07,2.78.2.37-.5.27-1.42-.25-1.73Z"/>
        <path class="cls-18" d="M118.84,72.26c-.64-.4-1.63.42-1.87.6-.29.24-.75.63-.67.94.15.6,2.17,1.07,2.78.2.37-.5.27-1.42-.25-1.73Z"/>
        <path class="cls-4" d="M104.37,76.66c3.1-2.92,9.17-6.04,10.06-6.31"/>
        <path class="cls-4" d="M107.8,74.02c2.84-.89,5.63-.51,7.12-.12,1.5.39,2.7-.36,2.7-.36"/>
      </g>
      <g>
        <path class="cls-12" d="M99.83,54.74c-.4.64.44,1.64.62,1.85.24.29.63.75.96.66.59-.17,1.05-2.18.16-2.79-.5-.35-1.43-.21-1.75.28Z"/>
        <path class="cls-12" d="M104.59,57.88c-.4.64.44,1.64.62,1.85.24.29.63.75.96.66.59-.17,1.05-2.18.16-2.79-.5-.35-1.45-.22-1.75.28Z"/>
        <path class="cls-11" d="M101.1,56.1c-.08,1.65,1.09,3.6,3.74,5.9,2.67,2.31,2.35,7.64,2.35,7.64"/>
        <path class="cls-11" d="M105.84,59.36c.46,1.19,0,2.69.26,4.36"/>
      </g>
      <g>
        <path class="cls-18" d="M108.29,80.39c-.64-.4-1.63.42-1.87.6-.29.24-.75.63-.67.94.15.6,2.17,1.07,2.78.2.37-.5.27-1.42-.25-1.73Z"/>
        <path class="cls-18" d="M110.63,84.1c-.48-.6-1.67-.15-1.96-.06-.36.14-.92.34-.94.67-.05.61,1.68,1.75,2.55,1.11.52-.33.71-1.26.34-1.73Z"/>
        <path class="cls-4" d="M98.71,87.75c2.08-1.72,6.29-6.44,8.25-6.14"/>
        <path class="cls-4" d="M101.23,85.42c1.65-.41,6.79-1.13,7.82-.54"/>
      </g>
      <g>
        <path class="cls-18" d="M100.59,69.55c.75.19.83,1.46.85,1.77.04.39.07.97-.22,1.14-.53.31-2.27-.81-2.08-1.87.11-.62.86-1.17,1.45-1.03Z"/>
        <path class="cls-18" d="M96.5,71.4c.76-.08,1.28,1.09,1.4,1.39.15.34.39.89.18,1.14-.4.47-2.42,0-2.59-1.07-.11-.61.41-1.39,1.01-1.46Z"/>
        <path class="cls-4" d="M101.75,82.13c1.39-3.75.44-9.57-1.13-10.79"/>
        <path class="cls-4" d="M102.42,78.53c-.56-2.13-3.81-4.6-4.98-4.95"/>
      </g>
      <path class="cls-11" d="M116.7,36.6c2.15-2.78,4.3-3.65,4.3-3.65"/>
    </g>
  </g>
  <g>
    <path class="cls-17" d="M124.7,70.58v61.1c0,4.3-3.46,7.75-7.75,7.75H31.14c-4.3,0-7.75-3.46-7.75-7.75v-61.1c0-4.3,3.46-7.75,7.75-7.75h85.8c4.3,0,7.75,3.46,7.75,7.75Z"/>
    <path class="cls-15" d="M124.7,70.58v2.73H23.39v-2.73c0-4.3,3.46-7.75,7.75-7.75h85.8c4.3,0,7.75,3.46,7.75,7.75Z"/>
    <circle class="cls-1" cx="46.24" cy="68.08" r="2.65"/>
    <circle class="cls-1" cx="57.4" cy="68.08" r="2.65"/>
    <path class="cls-14" d="M116.14,80.87H31.94c-1.41,0-2.54-1.13-2.54-2.54h0c0-1.41,1.13-2.54,2.54-2.54h84.2c1.41,0,2.54,1.13,2.54,2.54h0c0,1.41-1.13,2.54-2.54,2.54Z"/>
    <g>
      <path class="cls-14" d="M38.4,91.09h-3.97c-.71,0-1.28-.57-1.28-1.28v-3.97c0-.71.57-1.28,1.28-1.28h3.97c.71,0,1.28.57,1.28,1.28v3.97c0,.71-.57,1.28-1.28,1.28Z"/>
      <path class="cls-14" d="M50.96,91.09h-3.99c-.71,0-1.28-.57-1.28-1.28v-3.97c0-.71.57-1.28,1.28-1.28h3.97c.71,0,1.28.57,1.28,1.28v3.97c.02.71-.57,1.28-1.26,1.28Z"/>
      <path class="cls-14" d="M63.49,91.09h-3.97c-.71,0-1.28-.57-1.28-1.28v-3.97c0-.71.57-1.28,1.28-1.28h3.97c.71,0,1.28.57,1.28,1.28v3.97c0,.71-.57,1.28-1.28,1.28Z"/>
      <path class="cls-14" d="M76.03,91.09h-3.97c-.71,0-1.28-.57-1.28-1.28v-3.97c0-.71.57-1.28,1.28-1.28h3.97c.71,0,1.28.57,1.28,1.28v3.97c.02.71-.57,1.28-1.28,1.28Z"/>
      <path class="cls-14" d="M88.59,91.09h-3.97c-.71,0-1.28-.57-1.28-1.28v-3.97c0-.71.57-1.28,1.28-1.28h3.97c.71,0,1.28.57,1.28,1.28v3.97c-.02.71-.57,1.28-1.28,1.28Z"/>
      <path class="cls-14" d="M101.12,91.09h-3.97c-.71,0-1.28-.57-1.28-1.28v-3.97c0-.71.57-1.28,1.28-1.28h3.97c.71,0,1.28.57,1.28,1.28v3.97c.02.71-.57,1.28-1.28,1.28Z"/>
      <path class="cls-14" d="M113.68,91.09h-3.97c-.71,0-1.28-.57-1.28-1.28v-3.97c0-.71.57-1.28,1.28-1.28h3.97c.71,0,1.28.57,1.28,1.28v3.97c0,.71-.57,1.28-1.28,1.28Z"/>
    </g>
    <path class="cls-14" d="M38.4,100.92h-3.97c-.71,0-1.28-.57-1.28-1.28v-3.97c0-.71.57-1.28,1.28-1.28h3.97c.71,0,1.28.57,1.28,1.28v3.97c0,.71-.57,1.28-1.28,1.28Z"/>
    <g>
      <path class="cls-14" d="M38.4,110.76h-3.97c-.71,0-1.28-.57-1.28-1.28v-3.97c0-.71.57-1.28,1.28-1.28h3.97c.71,0,1.28.57,1.28,1.28v3.97c0,.71-.57,1.28-1.28,1.28Z"/>
      <path class="cls-14" d="M50.96,110.76h-3.99c-.71,0-1.28-.57-1.28-1.28v-3.97c0-.71.57-1.28,1.28-1.28h3.97c.71,0,1.28.57,1.28,1.28v3.97c.02.71-.57,1.28-1.26,1.28Z"/>
      <path class="cls-14" d="M63.49,110.76h-3.97c-.71,0-1.28-.57-1.28-1.28v-3.97c0-.71.57-1.28,1.28-1.28h3.97c.71,0,1.28.57,1.28,1.28v3.97c0,.71-.57,1.28-1.28,1.28Z"/>
      <path class="cls-14" d="M76.03,110.76h-3.97c-.71,0-1.28-.57-1.28-1.28v-3.97c0-.71.57-1.28,1.28-1.28h3.97c.71,0,1.28.57,1.28,1.28v3.97c.02.71-.57,1.28-1.28,1.28Z"/>
      <path class="cls-14" d="M88.59,110.76h-3.97c-.71,0-1.28-.57-1.28-1.28v-3.97c0-.71.57-1.28,1.28-1.28h3.97c.71,0,1.28.57,1.28,1.28v3.97c-.02.71-.57,1.28-1.28,1.28Z"/>
      <path class="cls-14" d="M101.12,110.76h-3.97c-.71,0-1.28-.57-1.28-1.28v-3.97c0-.71.57-1.28,1.28-1.28h3.97c.71,0,1.28.57,1.28,1.28v3.97c.02.71-.57,1.28-1.28,1.28Z"/>
      <path class="cls-14" d="M113.68,110.76h-3.97c-.71,0-1.28-.57-1.28-1.28v-3.97c0-.71.57-1.28,1.28-1.28h3.97c.71,0,1.28.57,1.28,1.28v3.97c0,.71-.57,1.28-1.28,1.28Z"/>
    </g>
    <g>
      <path class="cls-14" d="M38.4,120.57h-3.97c-.71,0-1.28-.57-1.28-1.28v-3.97c0-.71.57-1.28,1.28-1.28h3.97c.71,0,1.28.57,1.28,1.28v3.97c0,.73-.57,1.28-1.28,1.28Z"/>
      <path class="cls-14" d="M50.96,120.57h-3.99c-.71,0-1.28-.57-1.28-1.28v-3.97c0-.71.57-1.28,1.28-1.28h3.97c.71,0,1.28.57,1.28,1.28v3.97c.02.73-.57,1.28-1.26,1.28Z"/>
      <path class="cls-14" d="M63.49,120.57h-3.97c-.71,0-1.28-.57-1.28-1.28v-3.97c0-.71.57-1.28,1.28-1.28h3.97c.71,0,1.28.57,1.28,1.28v3.97c0,.73-.57,1.28-1.28,1.28Z"/>
      <path class="cls-14" d="M76.03,120.57h-3.97c-.71,0-1.28-.57-1.28-1.28v-3.97c0-.71.57-1.28,1.28-1.28h3.97c.71,0,1.28.57,1.28,1.28v3.97c.02.73-.57,1.28-1.28,1.28Z"/>
      <path class="cls-14" d="M88.59,120.57h-3.97c-.71,0-1.28-.57-1.28-1.28v-3.97c0-.71.57-1.28,1.28-1.28h3.97c.71,0,1.28.57,1.28,1.28v3.97c-.02.73-.57,1.28-1.28,1.28Z"/>
      <path class="cls-14" d="M101.12,120.57h-3.97c-.71,0-1.28-.57-1.28-1.28v-3.97c0-.71.57-1.28,1.28-1.28h3.97c.71,0,1.28.57,1.28,1.28v3.97c.02.73-.57,1.28-1.28,1.28Z"/>
      <path class="cls-14" d="M113.68,120.57h-3.97c-.71,0-1.28-.57-1.28-1.28v-3.97c0-.71.57-1.28,1.28-1.28h3.97c.71,0,1.28.57,1.28,1.28v3.97c0,.73-.57,1.28-1.28,1.28Z"/>
    </g>
    <g>
      <path class="cls-14" d="M38.4,130.4h-3.97c-.71,0-1.28-.57-1.28-1.28v-3.97c0-.71.57-1.28,1.28-1.28h3.97c.71,0,1.28.57,1.28,1.28v3.97c0,.71-.57,1.28-1.28,1.28Z"/>
      <path class="cls-14" d="M50.96,130.4h-3.99c-.71,0-1.28-.57-1.28-1.28v-3.97c0-.71.57-1.28,1.28-1.28h3.97c.71,0,1.28.57,1.28,1.28v3.97c.02.71-.57,1.28-1.26,1.28Z"/>
      <path class="cls-14" d="M63.49,130.4h-3.97c-.71,0-1.28-.57-1.28-1.28v-3.97c0-.71.57-1.28,1.28-1.28h3.97c.71,0,1.28.57,1.28,1.28v3.97c0,.71-.57,1.28-1.28,1.28Z"/>
    </g>
    <path class="cls-15" d="M49.03,96.59s2.23-2.98,3.13-.76c.55,1.37-2.73,4.53-2.73,4.53,0,0-4.24-2.5-3.44-4.39.88-2.08,3.04.63,3.04.63Z"/>
    <path class="cls-15" d="M61.46,96.59s2.23-2.98,3.13-.76c.55,1.37-2.73,4.53-2.73,4.53,0,0-4.24-2.5-3.44-4.39.92-2.08,3.04.63,3.04.63Z"/>
    <path class="cls-15" d="M73.93,96.59s2.23-2.98,3.13-.76c.55,1.37-2.73,4.53-2.73,4.53,0,0-4.24-2.5-3.44-4.39.92-2.08,3.04.63,3.04.63Z"/>
    <path class="cls-15" d="M86.38,96.59s2.23-2.98,3.13-.76c.55,1.37-2.73,4.53-2.73,4.53,0,0-4.24-2.5-3.44-4.39.94-2.08,3.04.63,3.04.63Z"/>
    <path class="cls-15" d="M98.85,96.59s2.23-2.98,3.13-.76c.55,1.37-2.73,4.53-2.73,4.53,0,0-4.24-2.5-3.44-4.39.94-2.08,3.04.63,3.04.63Z"/>
    <path class="cls-15" d="M111.31,96.59s2.23-2.98,3.13-.76c.55,1.37-2.73,4.53-2.73,4.53,0,0-4.24-2.5-3.44-4.39.9-2.08,3.04.63,3.04.63Z"/>
    <path class="cls-13" d="M46.24,69.52c-.8,0-1.44-.65-1.44-1.44v-7.71c0-.8.65-1.44,1.44-1.44s1.44.65,1.44,1.44v7.71c0,.8-.65,1.44-1.44,1.44Z"/>
    <path class="cls-13" d="M57.4,69.52c-.8,0-1.44-.65-1.44-1.44v-7.71c0-.8.65-1.44,1.44-1.44s1.44.65,1.44,1.44v7.71c0,.8-.65,1.44-1.44,1.44Z"/>
    <circle class="cls-1" cx="93.31" cy="68.08" r="2.65"/>
    <circle class="cls-1" cx="104.46" cy="68.08" r="2.65"/>
    <path class="cls-13" d="M93.31,69.52c-.8,0-1.44-.65-1.44-1.44v-7.71c0-.8.65-1.44,1.44-1.44s1.44.65,1.44,1.44v7.71c0,.8-.65,1.44-1.44,1.44Z"/>
    <path class="cls-13" d="M104.46,69.52c-.8,0-1.44-.65-1.44-1.44v-7.71c0-.8.65-1.44,1.44-1.44s1.44.65,1.44,1.44v7.71c0,.8-.65,1.44-1.44,1.44Z"/>
  </g>
</svg>