<?xml version="1.0" encoding="UTF-8"?>
<svg id="Layer_1" data-name="Layer 1" xmlns="http://www.w3.org/2000/svg" viewBox="0 0 119.03 171.55">
  <defs>
    <style>
      .cls-1 {
        fill: #eaa976;
      }

      .cls-2 {
        fill: #ff979a;
      }

      .cls-3 {
        fill: #ffb8c0;
      }

      .cls-4 {
        fill: #fff8f8;
      }

      .cls-5 {
        fill: #ff989b;
      }

      .cls-6 {
        fill: #fda3b6;
      }

      .cls-7 {
        fill: #ffd4d6;
      }

      .cls-8 {
        fill: #ffe9ea;
      }

      .cls-9 {
        fill: #ffddbf;
      }

      .cls-10 {
        fill: #ffecef;
      }
    </style>
  </defs>
  <path class="cls-4" d="M41.47,40.24s-5.66-.11-9.62-1.8c-6.9-2.94-12.12-12.57-8.33-20.16,3.98-7.96,14.62-9.86,21.1-6.39,5.62,3.01,7.63,5.64,7.63,5.64,0,0-.28-4.21,1.2-8.13,2.92-7.74,11.92-11.14,20.01-8.55,10.49,3.36,10.69,12.66,10.8,16.49.09,3.4-1.92,8.34-1.92,8.34,0,0,4.8-.85,9.69-.58,9.17.51,15.51,8.77,14.24,16.81-1.43,9.06-8.19,12.44-14.75,12.51-5.9.06-9.17-2.5-9.17-2.5,0,0,2.36,2.44,3.98,5.45,5.45,10.2.03,18.04-4.63,20.37-6.55,3.27-17.04.61-20.58-9.85-1.54-4.55-1.09-10.26-1.09-10.26,0,0-.45,2.92-2.89,6.67-4.54,6.99-15.5,10.27-23.54,3.21-5.41-4.74-5.21-14.9-1.22-20.46,4.23-5.9,9.11-6.8,9.11-6.8Z"/>
  <g>
    <g>
      <path class="cls-10" d="M72.75,163.73c-6.15,0-14.14-1.49-19.29-3.23-6.05-2.04-10.19-3.06-16.01-2.95-4.39.09-14.11-.69-19.53-4.23-10.22-6.68-14.19-19.07-14.23-19.19-.91-3.41-1.37-7.17-1.38-11.19-.01-5.34.9-10.1,2.7-14.15.92-2.06,2.13-3.79,3.41-5.63.26-.38.53-.76.79-1.14,1.76-2.57,3.37-5.25,4.71-7.54.54-.93,1.09-1.86,1.63-2.8,5.45-9.4,11.09-19.12,20.64-25.19,5.38-3.41,10.3-3.1,16.99-1.41,2.66.67,6.36.91,9.34,1.11.42.03.83.05,1.22.08,4.91.34,8.57,1.04,11.17,2.14l.14.06c5.76,2.45,9.86,4.88,14.68,8.75,7.4,5.94,8.35,13.48,9.97,17.05.15.32,6.61,15.18,7.79,16.86.23.32.54.73.91,1.21,2.34,3.04,6.69,8.69,7.28,15.96.74,9.12-2.72,15.98-4.88,18.61-7.47,9.07-19.86,14.99-34.88,16.66-.98.11-2.05.16-3.18.16ZM38.33,156.69c5.48,0,9.57,1.03,15.39,3,6.02,2.03,15.94,3.73,22.13,3.04,14.81-1.65,27.01-7.46,34.34-16.36,2.08-2.52,5.4-9.15,4.68-17.99-.57-7.02-4.82-12.54-7.1-15.51-.37-.48-.69-.9-.93-1.24-1.24-1.77-2.93-6.5-4.42-10.68-.82-2.31-1.6-4.48-2.11-5.59-.12-.26-.25-.55-.4-.88-1.6-3.52-4.92-10.85-10.73-16.65-4.26-4.26-8.75-6.17-14.42-8.58l-.14-.06c-2.52-1.07-6.08-1.75-10.91-2.08-.39-.03-.8-.05-1.22-.08-3.01-.2-6.75-.44-9.48-1.13-6.48-1.64-11.23-1.95-16.36,1.31-9.39,5.96-14.97,15.59-20.37,24.9-.54.94-1.08,1.87-1.63,2.8-1.35,2.3-2.97,5.01-4.74,7.59-.26.38-.53.77-.79,1.14-1.26,1.8-2.45,3.51-3.33,5.49-1.76,3.93-2.64,8.57-2.63,13.79,0,3.94.46,7.63,1.35,10.97.51,1.92,4.97,12.88,13.87,18.7,5.25,3.43,14.77,4.18,19.07,4.1.3,0,.6,0,.89,0Z"/>
      <path class="cls-10" d="M114.53,126.72c-.66-7.88-6.28-13.84-7.89-16.06-1.86-2.58-4.95-12.45-6.32-15.34-1.39-2.93-4.22-11.36-10.45-17.42-4.23-4.12-10.16-6.47-16.06-7.96-3.26-.82-6.66-1.03-9.9-1.97-2.95-.85-5.77-2.09-8.76-2.82-6.09-1.5-12.06.1-17.32,3.35-10.12,6.26-14.04,13.36-19.82,22.34-.37.57-2.95,4.23-4.27,6-1.4,1.88-2.7,3.5-4.12,5.39-2.53,3.37-4.09,7.42-5,11.51-.71,3.21-1.1,6.55-.97,9.84.04,1.13.51,10.43,8.44,19.22.44.49.9.99,1.4,1.45,1.81,2.1,3.98,4.13,6.55,5.77,5,3.18,13.59,3.88,17.65,3.94,1.2.74,2.38,1.5,3.56,2.24,4.7,2.93,9.46,5.24,15.01,5.92,7.87.97,16.27.02,23.74-2.98,11.32-1.83,22.59-5.28,29.44-14.32,2.14-2.82,5.77-9.67,5.07-18.12Z"/>
    </g>
    <g>
      <path class="cls-10" d="M110.02,123.94c0,.41-.33.75-.75.75s-.75-.33-.75-.75.33-.75.75-.75.75.33.75.75Z"/>
      <circle class="cls-10" cx="76.95" cy="100.75" r=".89"/>
      <path class="cls-10" d="M91.16,119.89c0,.73-.59,1.31-1.31,1.31s-1.31-.59-1.31-1.31.59-1.31,1.31-1.31,1.31.59,1.31,1.31Z"/>
      <circle class="cls-10" cx="26.95" cy="136.69" r=".85"/>
      <path class="cls-10" d="M11.84,110.33c0,.75-.61,1.36-1.36,1.36s-1.36-.61-1.36-1.36.61-1.36,1.36-1.36,1.36.61,1.36,1.36Z"/>
      <path class="cls-10" d="M20.8,133.24c0,.47-.38.85-.85.85s-.85-.38-.85-.85.38-.85.85-.85.85.38.85.85Z"/>
      <circle class="cls-10" cx="10.86" cy="118.97" r=".56"/>
      <circle class="cls-10" cx="18.93" cy="102.58" r=".66"/>
      <path class="cls-10" d="M97.16,146.01c0,.26-.21.47-.47.47s-.47-.21-.47-.47.21-.47.47-.47.47.21.47.47Z"/>
      <path class="cls-10" d="M98.38,129.09c0,.31-.25.56-.56.56s-.56-.25-.56-.56.25-.56.56-.56.56.25.56.56Z"/>
      <path class="cls-10" d="M14.57,138.89c0,.6-.48,1.08-1.08,1.08s-1.08-.48-1.08-1.08.48-1.08,1.08-1.08,1.08.48,1.08,1.08Z"/>
      <path class="cls-10" d="M88.89,136.49c0,.31-.25.56-.56.56s-.56-.25-.56-.56.25-.56.56-.56.56.25.56.56Z"/>
      <circle class="cls-10" cx="73.96" cy="99.95" r=".56"/>
      <path class="cls-10" d="M110.85,140.1c.13.35-.05.73-.39.86-.35.13-.73-.05-.86-.39s.05-.73.39-.86c.35-.13.73.05.86.39Z"/>
    </g>
    <g>
      <path class="cls-10" d="M116.25,110.73c0,.78-.63,1.41-1.41,1.41s-1.41-.63-1.41-1.41.63-1.41,1.41-1.41,1.41.63,1.41,1.41Z"/>
      <path class="cls-10" d="M13.72,93.8c0,.78-.63,1.41-1.41,1.41s-1.41-.63-1.41-1.41.63-1.41,1.41-1.41,1.41.63,1.41,1.41Z"/>
      <path class="cls-10" d="M114.33,145.5c0,.47-.38.85-.85.85s-.85-.38-.85-.85.38-.85.85-.85.85.38.85.85Z"/>
      <path class="cls-10" d="M6.95,103.98c0,.47-.38.85-.85.85s-.85-.38-.85-.85.38-.85.85-.85.85.38.85.85Z"/>
      <path class="cls-10" d="M38.74,167.64c0,.47-.38.85-.85.85s-.85-.38-.85-.85.38-.85.85-.85.85.38.85.85Z"/>
      <path class="cls-10" d="M112.84,152.21c0,.47-.38.85-.85.85s-.85-.38-.85-.85.38-.85.85-.85.85.38.85.85Z"/>
      <path class="cls-10" d="M118,108.76c0,.47-.38.85-.85.85s-.85-.38-.85-.85.38-.85.85-.85.85.38.85.85Z"/>
      <path class="cls-10" d="M119.03,128.77c0,.47-.38.85-.85.85s-.85-.38-.85-.85.38-.85.85-.85.85.38.85.85Z"/>
      <path class="cls-10" d="M9.98,93.39c0,.47-.38.85-.85.85s-.85-.38-.85-.85.38-.85.85-.85.85.38.85.85Z"/>
      <path class="cls-10" d="M15.55,153.15c0,.47-.38.85-.85.85s-.85-.38-.85-.85.38-.85.85-.85.85.38.85.85Z"/>
    </g>
  </g>
  <g>
    <g>
      <path class="cls-5" d="M26.96,149.37c-8.19-6.86-12.42-16.14-12.46-16.24l-.59.26c.04.09,4.33,9.51,12.64,16.47,12.71,9.69,23.89,12.55,24,12.57l.16-.63c-.11-.03-11.16-2.85-23.75-12.45Z"/>
      <g>
        <path class="cls-5" d="M18.77,134.64c.38-5.11,4.87-8.83,4.87-8.83,0,0,1.97,4.04,1.48,8.79-.47,4.54-4.16,9.09-4.16,9.09,0,0-2.55-4.63-2.18-9.04Z"/>
        <path class="cls-5" d="M26.81,142.55c.53-3.45,4.53-7.57,4.53-7.57,0,0,1.17,3.62.97,6.88-.26,4.21-2.97,6.9-4.7,8.37-.89-2.39-1.35-5.1-.8-7.68Z"/>
        <path class="cls-5" d="M4.97,127.35C2.16,122.82.03,115.09.03,115.09c0,0,9.67,5.9,11.86,9.18,2.63,3.95,3.83,11.51,3.83,11.51,0,0-8.52-4.85-10.75-8.44Z"/>
        <path class="cls-5" d="M7.49,135.44c-5.31-1.35-7.49-5.25-7.49-5.25,0,0,4.53-1.29,8.4.19,6.06,2.76,7.18,5.6,7.18,5.6,0,0-4.71.32-8.1-.54Z"/>
        <path class="cls-5" d="M10.17,147.49c-5.11-1.3-6.88-3.69-6.88-3.69,0,0,3.68-2.31,9.45-1.96,4.48.27,9.88,4.07,9.88,4.07,0,0-8.03,2.7-12.45,1.58Z"/>
      </g>
    </g>
    <g>
      <path class="cls-5" d="M103.93,109.46c-.14.08-3.38,1.95-6.3,6.79-3.23,5.34-5.13,8.08-6.79,9.76l-.13.13c-3.62,3.68-8.59,8.71-15,10.99-.98.35-1.93.68-2.85,1.01-5.73,2.01-10.26,3.6-15.02,6.44l.39.66c4.7-2.8,9.19-4.38,14.88-6.37.92-.32,1.87-.66,2.86-1.01,6.57-2.34,11.61-7.44,15.29-11.17l.13-.13c1.72-1.74,3.59-4.43,6.9-9.9,2.81-4.66,5.99-6.5,6.02-6.52l-.38-.67Z"/>
      <g>
        <path class="cls-5" d="M95.41,120.59s-3.51-2.79-4.19-4.63c-1.11-2.97-.3-6.51-.3-6.51,0,0,3.75,1.61,4.79,4.82,1.04,3.21-.3,6.32-.3,6.32Z"/>
        <path class="cls-5" d="M100.22,113.16s-1.94-2.2-2.53-4.4c-1.1-4.12.36-6.56.36-6.56,0,0,2.39,2.03,2.82,5.58.41,3.38-.65,5.38-.65,5.38Z"/>
        <path class="cls-5" d="M102.69,110.76s-.07-6.38.39-8.89c.73-4.03,4.19-8.37,4.19-8.37,0,0,1.42,5.42.04,10.46-.54,1.99-1.25,3.05-2.48,4.63-1.12,1.44-2.15,2.17-2.15,2.17Z"/>
        <path class="cls-5" d="M103.08,110.37s3.1-4.05,4.21-5.21c2.41-2.49,6.59-3.2,6.59-3.2,0,0-.85,3.64-3.64,5.77-2.56,1.95-7.16,2.64-7.16,2.64Z"/>
        <path class="cls-5" d="M98.29,115.94s1.92-2.02,5.58-2.78c4.53-.94,8.69.83,8.69.83,0,0-3.39,2.94-7.41,3.03-3.01.11-6.86-1.08-6.86-1.08Z"/>
      </g>
    </g>
    <g>
      <path class="cls-6" d="M103.9,128.81c-.01.07-1.21,6.88-7.9,13.08-8.59,7.96-16.78,9.52-16.87,9.54l.13.71c.08-.02,8.47-1.6,17.23-9.72,6.89-6.38,8.08-13.2,8.13-13.49l-.71-.12Z"/>
      <g>
        <path class="cls-6" d="M101.52,135.62s-3.96-2.93-4.88-5.97c-1.22-4.05.06-7.03.06-7.03,0,0,3.02,2.05,4.64,6.53,1.05,2.9.18,6.47.18,6.47Z"/>
        <path class="cls-6" d="M103.94,130.22c-.72-2.01-1.89-4.96-1.66-7.29.27-2.69,1.47-4.63,1.47-4.63,0,0,1.92,2.89,1.96,5.78.03,2.05-.55,4.17-1.76,6.14Z"/>
        <path class="cls-6" d="M100.12,137.53s2.36-2.95,5.66-3.47c4.24-.67,7.13.78,7.13.78,0,0-1.13,1.9-4.83,3.22-3.18,1.14-7.96-.53-7.96-.53Z"/>
        <path class="cls-6" d="M92.98,145.02s2.63-3.3,2.58-6.77c-.05-3.47-2.87-5.91-2.87-5.91,0,0-2.4,2.74-2.22,6.38.13,2.67,2.51,6.3,2.51,6.3Z"/>
        <path class="cls-6" d="M96.68,141.73s2.73-2.12,5.44-1.22c3.04,1.01,4.78,2.74,4.78,2.74,0,0-2.62,1.94-5.66,1.51-2.95-.42-4.56-3.04-4.56-3.04Z"/>
        <path class="cls-6" d="M102.71,132.94s2.4-3.04,3.37-3.91c2.09-1.89,4.69-1.72,4.69-1.72,0,0-.39,2.79-2.48,4.36-2.1,1.56-5.57,1.27-5.57,1.27Z"/>
      </g>
    </g>
    <g>
      <path class="cls-6" d="M69.5,139.77l-.58-.23c1.46-3.73,2.05-7.17,2.81-11.52.12-.71.25-1.44.38-2.19.9-5.04,3.98-9.3,6.24-12.41l.08-.11c.9-1.24,1.4-1.72,3.26-3.54.42-.41.91-.88,1.49-1.45,1.53-1.5,2.82-3.02,3.65-4.29,1.65-2.53,2.63-4.95,2.64-4.97l.58.23s-1.02,2.5-2.7,5.08c-.85,1.3-2.18,2.86-3.74,4.39-.58.57-1.07,1.05-1.49,1.45-1.88,1.83-2.33,2.26-3.19,3.46l-.08.11c-2.22,3.06-5.25,7.25-6.13,12.15-.13.75-.26,1.48-.38,2.19-.76,4.39-1.36,7.85-2.84,11.64Z"/>
      <g>
        <path class="cls-6" d="M77.46,115.2s.88-2.38-.09-5.2c-.75-1.93-3.3-3.97-3.3-3.97,0,0-.77,3.53.24,5.35,1.41,2.55,3.15,3.82,3.15,3.82Z"/>
        <path class="cls-6" d="M72.61,125.31s1.75-2.49,3.56-3.37c2.32-1.13,5.27-.19,5.27-.19,0,0-1.1,2.36-3.75,3.49-2.36,1.01-5.08.07-5.08.07Z"/>
        <path class="cls-6" d="M79.74,112.21s2.44,2.2,3.85,2.47c2.28.44,4.74-.57,4.74-.57,0,0-1.62-2.52-4.06-2.88-2.44-.37-4.53.98-4.53.98Z"/>
        <path class="cls-6" d="M85.88,105.95s2.08,1.33,4.73,1.41c3.12.09,5.13-1.29,5.13-1.29,0,0-1.63-1.75-5.33-1.72-2.5.02-4.54,1.61-4.54,1.61Z"/>
        <path class="cls-6" d="M82.93,109s1.22-1.8,1.1-4.66c-.11-2.6-2.13-5.18-2.13-5.18,0,0-1.34,2.56-.92,4.93.58,3.29,1.96,4.91,1.96,4.91Z"/>
      </g>
      <g>
        <path class="cls-6" d="M91.61,99.99c1.86.2,5.01-.23,7.29-1.77,2.17-1.46,3.6-3.87,2.8-5.45-.97-1.94-2.74-1.5-2.74-1.5,0,0,1.71-2.8.14-4.63-2.15-2.5-5.01,1.38-5.01,1.38,0,0-.26-3.79-2.84-3.85-2.67.08-2.82,4.25-2.82,4.25,0,0-1.83-1.68-3.55-.06-1.67,1.57-.65,5.04,1.07,7.81,1.29,2.08,3.5,3.58,5.66,3.81Z"/>
        <path class="cls-6" d="M92.53,100.27c-.34,0-.65-.02-.94-.05-2.21-.23-4.5-1.77-5.83-3.92-1.64-2.64-2.89-6.35-1.03-8.1,1.39-1.31,2.85-.63,3.51-.2.12-1.11.67-3.98,3.01-4.05,2.14.05,2.81,2.43,3.01,3.52.58-.65,1.8-1.84,3.12-1.89.71-.03,1.36.28,1.91.92,1.32,1.54.52,3.64.09,4.51.65-.01,1.81.21,2.53,1.66.9,1.78-.76,4.32-2.88,5.75-1.95,1.31-4.55,1.85-6.51,1.85ZM86.53,87.9c-.47,0-.98.16-1.49.64-1.55,1.46-.56,4.83,1.11,7.52,1.26,2.03,3.41,3.48,5.48,3.7,1.9.2,4.95-.25,7.14-1.73,2.19-1.47,3.41-3.78,2.73-5.15-.87-1.74-2.41-1.39-2.47-1.38l-.55.13.29-.48s1.61-2.67.16-4.36c-.46-.53-.96-.78-1.54-.76-1.57.06-3.1,2.1-3.11,2.12l-.38.51-.04-.63s-.28-3.57-2.62-3.63c-2.41.07-2.58,3.99-2.58,4.03l-.02.5-.37-.34s-.79-.71-1.74-.71Z"/>
        <path class="cls-6" d="M90.13,101.21c2.47.94,7.83-.37,7.47-2.23-.21-1.09-2.58-.48-2.58-.48,0,0,1.68-1.32,1.15-2.34-.73-1.42-2.99,1.11-2.99,1.11,0,0,1.62-2.49.35-3.52-1.48-1.18-2.9,2.5-2.78,2.5,0,0-.87-3.04-2.17-3.02-1.52.03-.57,3.73-.57,3.73,0,0-1.64-2.57-2.85-1.42-.56.53-.18,1.98,1.26,3.35,1.21,1.16,2.83,1.97,3.72,2.31Z"/>
      </g>
    </g>
    <g>
      <path class="cls-6" d="M40.53,130.79c-4.48-1.57-10.55-4.4-14.01-7.17-5.43-4.35-8.85-11.71-8.88-11.79l.65-.3c.03.07,3.38,7.29,8.68,11.52,3.4,2.72,9.38,5.5,13.8,7.05l-.24.68Z"/>
      <g>
        <path class="cls-6" d="M22.48,118.94s-1.55-2.23-.74-4.68c.81-2.45,2.64-3.84,2.64-3.84,0,0,1.22,2.2.28,5.26-.57,1.86-2.18,3.27-2.18,3.27Z"/>
        <path class="cls-6" d="M25.2,121.96s-2.24-1.14-4.71-.77c-2.6.4-4.09,1.93-4.09,1.93,0,0,1.97,1.29,4.33,1.02,1.3-.15,2.83-.99,4.47-2.18Z"/>
        <path class="cls-6" d="M20.45,116.02s-2.7-2-4.96-2.38c-2.37-.39-4.92,1.03-4.92,1.03,0,0,1.69,1.96,4.86,2.12,2.02.1,5.02-.77,5.02-.77Z"/>
        <path class="cls-6" d="M19.1,113.89s-.28-3.1-1.45-6.22c-1-2.69-4.49-4.87-4.49-4.87,0,0-.94,3.44.81,6.67,1.8,3.25,5.12,4.42,5.12,4.42Z"/>
      </g>
    </g>
  </g>
  <g>
    <g>
      <path class="cls-3" d="M79.02,170.28s17.55.67,16.28-3.11c-1.48-4.39-3.31-9.75-4.28-12.39-1.81-4.9-7.98-16.92-7.98-16.92,0,0-7.91,1.9-18.24.28-10.31-1.61-19.84-8.1-19.85-8.07,0,.03-4.09,5.4-5.88,14.64-1.53,7.89-1.94,16.99-2.03,22.92-.06,3.86,5.46,1.97,5.46,1.97l36.52.68Z"/>
      <g>
        <path class="cls-9" d="M47.31,141.55s-.09.04-.09.09c0,.3-.23,1.37-.52,2.72-.38,1.75-.89,4.15-1.23,6.39-.66,4.33-.8,5.84-1.16,9.87l-.07.81c-.13,1.41-.37,4.74-.41,7.6.06.01.11.02.17.03.04-2.86.28-6.21.41-7.62l.07-.81c.36-4.03.5-5.53,1.16-9.86.34-2.24.86-4.63,1.23-6.38.3-1.41.52-2.43.52-2.75,0-.05-.04-.09-.09-.09Z"/>
        <path class="cls-9" d="M75.17,171.55c-.48-2.42-1.03-4.92-1.63-7.35-.16-.65-.32-1.28-.47-1.9-.53-2.18-1.04-4.25-1.73-6.48-.3-.98-.72-2.63-1.21-4.54-.73-2.87-1.56-6.13-2.23-8.01-.02-.04-.06-.07-.11-.05-.04.02-.07.07-.05.11.67,1.88,1.5,5.13,2.23,7.99.49,1.91.91,3.56,1.21,4.54.69,2.22,1.19,4.29,1.73,6.47.15.62.31,1.25.47,1.9.6,2.41,1.14,4.9,1.62,7.3.06,0,.12,0,.18.02Z"/>
        <path class="cls-9" d="M85.22,167.25c.08,1.08.16,2.18.26,3.29.06.03.12.06.18.08-.1-1.14-.19-2.27-.27-3.39l-.03-.34c-.18-2.5-.44-4.62-.68-6.66-.15-1.23-.3-2.51-.43-3.83-.16-1.58-.44-3.17-.72-4.7-.11-.63-.23-1.27-.33-1.9-.12-.73-.27-1.38-.42-1.9-.02-.06-.06-.19-.1-.33-.05-.17-.12-.4-.15-.48,0,0,0-.02,0-.02-.02-.04-.07-.08-.11-.07-.04.01-.06.02-.05.11,0,.02,0,.02,0,.03.02.09.06.23.14.48.04.14.08.27.1.33.15.51.3,1.17.42,1.88.11.64.22,1.27.33,1.91.28,1.53.56,3.11.72,4.68.13,1.33.28,2.6.43,3.84.24,2.05.5,4.16.68,6.66l.03.34Z"/>
      </g>
    </g>
    <g>
      <path class="cls-3" d="M95.71,51.7c2.37-.84,3.16-2.15,3.38-3.2.42-1.99-.53-3.67-.53-3.67,0,0,.35,1.28-.74,2.06-.41.3-1.37.71-2.45.04-.68-.42-.97-2.85-1.33-4.33-.54-2.28-2.06-5.14-3.58-6.42-2.97-2.51-5.12-3.28-8.13-3.53-3.42-.28-7.2.65-9.59,1.67-2.38,1.02-4.56,2.68-6.77,2.62-1.41-.04-3.74-.61-4.94-2.66-1.3-2.21-2.37-4.26-3.01-5.17-1.72-2.46-4.87-5.7-9.62-6.56-6.24-1.13-10.76.58-10.76.58,0,0-4.47.03-9.78,3.42-4.14,2.64-7.28,7.9-7.58,12.61-.34,5.43,1.01,6.96.32,9.27-.54,1.81-4.15,2.79-7.19,4.19-3.74,1.72-7.85,4.61-7.22,11.48.39,4.26,3.22,6.18,5.91,7.68,1.07.6,2.37,1.46,2.24,2.9-.1,1.02-2.76,2.58-3.68,3.99-.93,1.42-.87,3.11-.2,4.05.54.77,1.48,1.01,2.32,1.5,1.19.7.87,1.64.87,1.64,0,0,.41-.33.27-1.22-.06-.34-.25-.7-.53-1.04-.47-.58-1.01-.68-1.35-1.74-.17-.52-.03-1.14.5-2.1.83-1.5,3.8-2.76,4.21-4.88.48-2.51-.83-3.74-2.99-4.87-2.93-1.54-4.55-3.76-4.06-6.3.42-2.17,2.82-4.37,2.82-4.37,0,0-.92,1.34-1.34,3.22-.56,2.52.06,3.72.72,4.56,1.74,2.22,4.35,2.33,4.95,2.4,2.36.26,3.99.67,4.18,2.86.3,3.55-3.84,3.87-4.93,8.97-.78,3.71,1.68,10.8,8.64,12.37.58.13,2.45.64,5.37.58,3.23-.07,5.53-.81,7.13-1.23,2.86-.76,11.25-5.5,19.2-4.39,9.09,1.26,9.76,7.45,15.84,6.43.96-.16,2.16-.45,3.43-1.02,1.93-.86,4.4-3.33,5.67-4.97,2.63-3.38,4.3-7.17,5.16-8.57.39-.64.92-1.36,1.54-1.92,1.13-1.03,2.54-1.71,3.75-1.74,1.37-.03,2.34.52,2.77.95,1.1,1.1.87,2.53.87,2.53,0,0,.83-1.64.63-3.33-.16-1.4-1.07-4.71-4.49-5.91-.65-.23-1.75-.46-2.75-.36-1.6.17-2.96.93-2.96.93,0,0,.6-.71,1.61-1.28,1.66-.93,4.32-1.78,6.38-.74,1.2.61,1.85,2.18,2.32,3.8.9,3.15,5,3.64,7.17,1.36.5-.52.88-1.23,1.8-1.32.91-.1,1.45.56,1.18,1.13-.27.57,1.38-1.15.98-2.19-.3-.76-.96-1.21-2.38-1.1-1.42.11-2.93,1.19-2.88.07.05-1.12,1.37-3.7,1.67-5.13.3-1.43.64-5.04-.66-8.05-.96-2.22-2.82-4.14-5.94-5.04-2.6-.75-4.86-.9-4.86-.9,0,0,2.07-.11,3.44-.6Z"/>
      <g>
        <g>
          <path class="cls-3" d="M56.98,88.14c-.06,0-.11,0-.17,0-.05,0-.09-.04-.09-.09,0-.05.04-.08.09-.09,2.32.09,4.51-1.74,6.44-3.35,1.46-1.22,2.72-2.27,3.84-2.37,1.29-.12,2.26.19,3.04.44.2.07.4.13.58.18l.11.03c1.15.3,2.72.72,4.48,0,2.9-1.18,3.58-3.04,4.82-6.42.24-.66.52-1.41.83-2.22,1.35-3.43,3-5.21,5.69-6.13,3.58-1.22,6.75-.09,7.92,1.59.82,1.18,1.13,1.91,1.56,3.19.28.83.55,1.48.96,1.93.8.9,1.9,1.2,2.68,1.3.68.08,1.8-.11,2.74-.72.35-.23.63-.56.9-.88.42-.5.85-1.01,1.57-1.15.49-.1.88-.04,1.17.17.38.28.43.73.43.75,0,.05-.03.09-.08.1-.05,0-.09-.03-.1-.08,0,0-.05-.39-.36-.62-.25-.18-.59-.23-1.03-.14-.66.13-1.06.6-1.47,1.09-.28.33-.56.67-.94.91-.99.64-2.15.83-2.86.75-.81-.1-1.95-.42-2.79-1.36-.43-.48-.71-1.15-1-2-.45-1.32-.75-2-1.54-3.14-.9-1.3-3.79-2.86-7.71-1.52-2.64.9-4.26,2.65-5.58,6.02-.31.8-.59,1.55-.83,2.21-1.26,3.43-1.95,5.31-4.92,6.52-1.82.74-3.42.31-4.6,0l-.11-.03c-.18-.05-.38-.11-.59-.18-.76-.25-1.71-.55-2.97-.44-1.06.1-2.36,1.18-3.74,2.33-1.91,1.59-4.07,3.39-6.39,3.39Z"/>
          <path class="cls-3" d="M93.09,68.44c-.06-.04-.13-.09-.2-.15-.91-.68-2.6-1.96-6.72-1.14-2.1.42-4.47,2.19-5.41,3.26-1.36,1.54-2.36,3.84-2.71,5.33-.39,1.64-1.98,4.91-3.3,5.88-.81.6-2,.17-2.95-.27-.14-.07-.27-.12-.39-.18-.36-.16-.64-.29-1.02-.5-.22-.12-.57-.37-1.01-.68-1.83-1.31-5.22-3.75-8.44-3.2-2.28.39-5.2,2.43-8.95,6.23-.07.08-.14.15-.22.22.03.05.06.11.1.16.08-.08.16-.17.25-.25,3.71-3.78,6.61-5.8,8.85-6.18,3.14-.53,6.5,1.88,8.3,3.17.44.32.79.57,1.02.69.39.21.67.34,1.03.5.12.05.25.11.39.18.99.46,2.24.9,3.13.25,1.37-1.01,2.97-4.27,3.37-5.98.35-1.47,1.33-3.74,2.67-5.25.96-1.09,3.34-2.81,5.31-3.2,4.04-.8,5.69.44,6.57,1.1.07.05.14.1.2.15.04.03.1.02.13-.02.03-.04.02-.1-.02-.13Z"/>
          <path class="cls-3" d="M70.85,95.28c-.58,0-1.11-.07-1.55-.2-2.11-.66-4.05-2.52-4.06-2.54-.04-.03-.04-.09,0-.13.03-.04.09-.04.13,0,.02.02,1.92,1.85,3.99,2.5,1.5.47,4.26.04,6.42-1,2.44-1.17,3.96-2.96,5.06-4.27l.15-.17c1.71-2.02,3.67-5.84,3.69-5.87.02-.04.08-.06.12-.04.04.02.06.08.04.12-.02.04-1.99,3.88-3.71,5.91l-.15.17c-1.12,1.32-2.65,3.12-5.12,4.32-1.61.78-3.5,1.22-5.01,1.22Z"/>
          <path class="cls-3" d="M70.23,91.35c-.75,0-1.54-.04-2.37-.12-.05,0-.09-.05-.08-.1,0-.05.05-.09.1-.08,7.93.73,12.17-2.03,14.16-9.25.23-.83.43-1.79.63-2.81.48-2.34.97-4.76,1.96-6.13,1.3-1.79,3.99-2.2,4.92-2.21,0,0,.02,0,.03,0,.94,0,2.45.39,3.56,1.14.69.47,1.35,1.18,1.96,2.11.72,1.11,1.07,2.38,1.02,3.75-.03.91-.25,1.55-.25,1.58-.02.05-.07.07-.11.06-.05-.02-.07-.07-.06-.11,0,0,.22-.65.25-1.53.04-1.34-.29-2.57-.99-3.65-.6-.92-1.24-1.61-1.91-2.07-1.08-.73-2.55-1.11-3.46-1.11,0,0-.02,0-.03,0-.9,0-3.52.41-4.77,2.14-.97,1.34-1.46,3.74-1.93,6.06-.21,1.02-.41,1.99-.64,2.83-1.82,6.57-5.45,9.5-11.98,9.5Z"/>
        </g>
        <g>
          <path class="cls-3" d="M27.48,94.21c-.24,0-5.29-.05-8.84-4.02-1.25-1.4-4.05-6.55-2.03-10.77.32-.67,1.04-1.77,1.91-2.72.18-.2.37-.39.55-.58.8-.84,1.56-1.63,1.77-2.62.52-2.48-1.09-3.28-1.16-3.31-.04-.02-.06-.08-.04-.12.02-.05.07-.06.12-.04.02,0,1.81.89,1.26,3.51-.22,1.04-.99,1.85-1.82,2.71-.18.19-.37.38-.55.58-.86.93-1.56,2.02-1.88,2.68-1.98,4.14.77,9.2,2,10.57,3.49,3.91,8.47,3.96,8.7,3.96.06,0,.1.04.1.09,0,.05-.04.09-.1.09Z"/>
          <path class="cls-3" d="M30.99,87.39s-.03,0-.05-.01c-3.57-2.2-5.39-4.01-5.71-5.69-.16-.84.05-1.64.64-2.43,2.85-3.84,3.17-6.68,1.08-9.5-1.11-1.49-3.21-2.37-6.25-2.62-.23-.02-.53-.03-.89-.04-1.46-.04-3.67-.1-4.61-.94-1.48-1.32-.84-3.83-.81-3.93.01-.05.06-.08.11-.06.05.01.08.06.06.11,0,.02-.65,2.5.75,3.75.89.8,3.06.85,4.5.89.36,0,.67.02.9.04,3.09.25,5.24,1.16,6.38,2.69,2.15,2.89,1.83,5.79-1.08,9.71-.56.75-.76,1.5-.61,2.29.31,1.62,2.1,3.39,5.63,5.57.04.03.06.08.03.12-.02.03-.05.04-.08.04Z"/>
          <path class="cls-3" d="M25.46,91.22s-1.82-.22-3.21-.89c-2.91-1.41-4.22-4.63-3.36-8.22.33-1.38,1.52-2.82,2.78-4.34,1.91-2.31,3.89-4.7,2.76-6.93-1.29-2.55-3.84-2.85-6.09-3.12-.81-.1-1.57-.19-2.25-.37-1.77-.49-2.59-1.92-2.18-3.82.21-.99.51-1.83,2.42-3.5.25-.22.61-.47,1.02-.76,2.45-1.74,7.02-4.99,4.4-12.31-.4-1.12-2.31-6.94-.7-11.47.02-.05.07-.07.11-.05.05.02.07.07.05.11-1.59,4.48.31,10.24.7,11.35,2.66,7.45-1.98,10.74-4.47,12.51-.41.29-.76.54-1,.75-1.87,1.64-2.16,2.44-2.36,3.4-.39,1.82.36,3.14,2.05,3.61.66.18,1.42.27,2.22.37,2.3.27,4.9.58,6.23,3.21,1.18,2.33-.84,4.77-2.78,7.12-1.25,1.51-2.42,2.93-2.75,4.27-.85,3.5.43,6.65,3.26,8.02,1.37.66,3.13.87,3.15.88.05,0,.08.05.08.1,0,.05-.04.08-.09.08Z"/>
        </g>
      </g>
    </g>
    <g>
      <path class="cls-7" d="M53.4,62.26c-.7,1.73-2.14,6.17-1.62,9.84.09.64.6,1.64.94,2.19.65,1.07,2.04,3.09,4.68,5.16,3.02,2.37,5.83,3.97,5.83,3.97,0,0-.63,4.42-11.46,4.36-5.88-.03-14.5,7.33-17.42,3.83-2.99-2.1-3.25-8.28-1.19-13.7.3-.78,6.08-7.79,7.08-9.44,1.71-3.69,2.65-9.25,2.65-9.25,0,0,2.67-.88,6.57-.07.74.15,2.81,1.91,3.94,3.1Z"/>
      <path class="cls-7" d="M51.92,32.7c3.01,2.18,4.28,4.98,4.7,7.15.3,1.55.39,2.44,1.06,3.72.67,1.29,1.27,1.76,2.22,2.38.95.62,2.65,1.24,2.83,1.58.08.15.18,1.09-.32,1.91-.48.78-1.08,1.01-1.08,1.45,0,.3.1.58.24.86.12.22.32.6.34.86.05.69-.55,1.37-.55,1.37,0,0,.59.23.76.85.17.63-.27,1.34-.34,1.9-.07.57.1,1.37.36,2.19.26.82.41,1.22.08,1.99-.33.77-1.7,1.24-3,1.64-1.3.4-2.87.63-4.26.78-1.39.16-5.65.08-7.8-.27-5.94-.96-16.89-4.08-19.14-15.84-1.56-8.14,3.49-12.83,4.5-13.62,2.62-2.07,5.73-3.4,8.07-3.84,5.57-1.04,9.86,1.88,11.33,2.95Z"/>
    </g>
    <g>
      <path class="cls-3" d="M59.15,54.74c-.19,0-.4-.02-.55-.08-.08-.03-.14-.07-.21-.12-.07-.05-.11-.09-.08-.15.02-.04.06-.05.1-.04.02,0,.03.02.04.03.01.01.03.03.04.03.06.05.11.07.17.1.19.07.51.08.73.06.88-.1,1.48-.28,1.95-.58.04-.03.09-.01.12.02.02.04.01.09-.02.12-.49.32-1.11.5-2.02.6-.08,0-.16.01-.25.01Z"/>
      <path class="cls-3" d="M56.91,45.71h-.1c-.23.04-.48.05-.75-.03-.12-.03-.38-.13-.48-.19-.01,0-.55-.3-.55-.3-.03-.02-.07-.02-.11,0-.01,0-1.32.82-2.43,1.19-1.38.46-2,.61-2.22.67-.24.06-.7.16-.7.16-.05.02-.08.07-.07.12,0,.05.05.09.1.09.03,0,.33.03.78.03s1.03-.03,1.66-.13c.3.33.65.45.94.54.01,0,.02,0,.03,0,.03,0,.07-.02.08-.06.02-.04,0-.09-.05-.11-.29-.11-.51-.27-.67-.44.4-.08.81-.19,1.21-.35.11-.04.21-.09.31-.14.12.07.34.17.51.23.27.1.54.11.78.15.05,0,.09-.03.09-.08,0-.05-.03-.09-.08-.09-.11,0-.39-.03-.62-.14-.16-.07-.28-.16-.36-.22.61-.32,1.03-.64,1.24-.82.2.07.53.1.53.1.25.04.74,0,.85-.01h.1s.08-.06.08-.1c0-.05-.05-.08-.09-.08Z"/>
      <path class="cls-3" d="M54.85,40.44c-.1-.07-1.75-.22-4.26,1.41-1.7,1.26-2.58,2.8-2.58,3.02,0,.03.02.08.04.1.03.02.04.04.06.04.04,0,.11-.06.29-.22.47-.43,1.73-1.58,2.7-2.14,1.06-.61,2.03-.93,2.68-1.14.34-.11.61-.2.77-.29.27-.15.35-.47.36-.62,0-.05,0-.13-.06-.17Z"/>
    </g>
    <g>
      <path class="cls-5" d="M62.94,83.21s3.35,2.3,4.99,4.29c1.64,1.99,2.72,4.26,2.43,6.92-.29,2.65-1.58,5.01-1.34,6.29.24,1.26,1.64,2.33,3.2,3.34,2.19,1.41,4.9,3.4,7.47,5.8,5.6,5.21,7.35,10.08,7.63,13.99.42,7.97-3.8,15.04-3.8,15.04,0,0-11.61,4.31-25.65,2.87-12.38-1.27-16.93-4.26-16.93-4.26,0,0,.64-1.55,1.44-3.3,1.13-2.48,3.05-5.23,3.24-6.18.48-2.32-.61-8.6-2.02-11.87-.39-.9-2.45-4.88-4.76-8.98-2.52-4.48-5.48-9.07-6.36-13.7-.71-3.73-1.31-6.95-1.07-9.8.37-4.23,2.75-7.26,2.75-7.26,0,0,12,5.79,18.93,6.9,6.74,1.08,9.82-.08,9.82-.08Z"/>
      <path class="cls-5" d="M62.03,140.59c8.26.97,21.5-1.8,21.5-1.8,0,0,.77.27,1.72.99,1.51,1.14,2.43,3.04,2.32,3.32-.06.15-.55.73-1.59,1.18-.36.15-2.15.64-3.69-.09-1.54-.73-2.25-.53-2.93-.15-.7.4-.92,1.51-1.99,1.97-1.22.52-2.29-1.05-3.66-1.46-1.68-.5-2.83-.02-3.83.99-1.25,1.28-2.94,1.42-3.87,1.23-.93-.19-2.63-1.17-4.25-1.16-1.62,0-1.78.85-3.17.8-1.39-.05-2.18-1.12-3.78-1.76-1.6-.64-2.81.27-3.75.52-1.28.34-3.44.19-4.55-.49-1.11-.68-1.59-2.22-2.2-2.79-.61-.57-1.11.3-1.72.59-.61.29-2.38-.4-3.61-1.22-1.22-.8-2.37-2.12-2.31-2.59.05-.4,1.15-1.55,2.52-2.21,1.97-.95,2.57-.9,2.57-.9,0,0,3.46,3.03,20.27,5.01Z"/>
      <path class="cls-5" d="M64.69,84.51l-1.83-2.22s-6.36.36-9.36-.06c-3.05-.42-6.58-1.23-9.63-2.37-5.14-1.93-9.18-4.38-9.18-4.38,0,0-.64.77-.88,1.13-.7,1.01-1.11,1.93-1.11,1.93,0,0,9.86,5.83,18.68,6.61,6.7.59,13.33-.63,13.33-.63Z"/>
    </g>
    <g>
      <path class="cls-7" d="M35.74,80.79c-3.54,1.35-4.73,3.2-6.24,9.95-1.73,7.72-1.87,15.14-1.97,19.07-.25,9.88.24,20.79.74,21.57.56.87,1.74,1.39,4.3,1.57,2.8.19,6.5.02,10.48-.38,5.76-.58,12.59-1.53,16.19-2.06,4.52-.66,7.79-1.38,7.79-1.38,0,0,3.23.05,5.37-.08,2.79-.18,5.29-.69,7.63-1.58,2.57-.98,3.21-1.46,3.68-1.83.43-.33.98-.83.85-1.34-.09-.38-.43-.32-.43-.32,0,0,.42-.21.91-.78.09-.1.2-.31.27-.42.11-.2.13-.43.08-.57-.23-.71-1.15-.39-1.15-.39,0,0,.9-.46.77-1.3-.22-.7-1.52-.3-1.52-.3,0,0,.63-.58.03-1.03-.25-.19-1.13-.18-2.26-.07-1.2.11-2.55.39-3.23.54-.23.05-.52.12-.52.12,0,0,1.71-.59,1.77-1.37.02-.67-.3-.55-1.08-.3-.8.25-1.8.24-3.15.32-.86.05-2.21.17-3.43.46-2.37.56-5.69,2.24-5.69,2.24,0,0-2.27.21-4.23.23-4.23.04-10.56-.21-15.94-.26-4.45-.04-5.84.16-5.84.16,0,0,.39-5.35,2.08-15.32,1.61-9.48,2.96-13.03,1.54-18.84-.59-2.4-4.38-7.6-7.8-6.3Z"/>
      <g>
        <path class="cls-1" d="M77.35,119.65c0-.06-.06-.1-.12-.09-.02,0-1.46.21-2.69.41-1.11.18-2.68.56-2.69.57-.06.01-.09.07-.08.13.01.05.06.09.12.08.03,0,1.59-.38,2.69-.56,1.23-.2,2.67-.41,2.68-.41.06,0,.1-.06.09-.12Z"/>
        <path class="cls-1" d="M80.41,120.99c1.86-.38,2.82-.71,2.83-.71.06-.02.09-.08.07-.14-.02-.06-.08-.09-.14-.07,0,0-.96.32-2.81.7-.75.15-2.78.43-2.8.43-.06,0-.1.06-.09.12,0,.06.06.1.12.09.01,0,1.07-.15,1.95-.28.34-.05.66-.11.87-.15Z"/>
        <path class="cls-1" d="M84.91,120.62c-.06,0-.11.05-.1.11,0,.1,0,.18-.04.27-.05.15-.17.31-.32.45-.27.24-.65.35-1.05.47-.13.04-.27.08-.4.12-2.5.83-4.98,1.05-5,1.06-.06,0-.1.06-.1.12,0,.06.06.1.12.1.01,0,.5-.04,1.25-.16.97-.15,2.38-.43,3.8-.9.13-.04.26-.08.39-.12.42-.12.82-.24,1.13-.51.18-.16.32-.35.38-.54.04-.11.05-.22.05-.34,0-.06-.05-.11-.11-.1Z"/>
        <path class="cls-1" d="M85.02,122.84s-.32.57-.98.94c-.84.47-2.09.91-2.54,1.04-1.05.3-3.1.65-3.12.65-.06.01-.1.07-.09.12,0,.06.06.1.12.09.02,0,2.09-.35,3.14-.66.45-.13,1.73-.58,2.58-1.06.71-.4,1.05-.99,1.06-1.02.03-.05,0-.12-.04-.15-.05-.03-.12,0-.15.04Z"/>
      </g>
      <g>
        <path class="cls-1" d="M27.6,115.22c-.07,0-.13.06-.13.14v2.61c.01.07.07.13.15.13.08,0,.14-.06.14-.14v-2.61c-.01-.07-.07-.12-.15-.13Z"/>
        <path class="cls-1" d="M35.52,133.14c-2.47,0-4.1-.16-4.81-.31-1.32-.29-2.69-.58-2.88-3.07-.08-1.12-.25-7.23-.26-7.3,0-.07.05-.12.12-.13.07,0,.12.05.13.12,0,.06.17,6.17.26,7.28.17,2.31,1.39,2.57,2.68,2.85.9.2,3.2.36,6.31.28,3.27-.08,7.19-.53,8.72-.72,5.09-.63,12.51-1.77,12.58-1.78.07,0,.13.04.14.1.01.07-.04.13-.1.14-.07.01-7.49,1.15-12.59,1.78-1.54.19-5.47.64-8.75.72-.55.01-1.07.02-1.55.02Z"/>
      </g>
    </g>
    <g>
      <path class="cls-5" d="M41.85,109.81s5.05-7.99,5.28-11.99c.17-2.83-1.88-11.97-4.76-14.91-2.74-3.38-4.08-4.39-5.69-4.81-1.85-.48-6.72.7-8.78,2.65-1.3,1.25-2.56,2.62-4.73,7.38-1.25,2.74-2.74,7.74-2.21,10.96,1.32,8.04,4.99,10.18,4.99,10.18,0,0,5.63,2.23,10.83,1.64,3.09-.35,5.07-1.1,5.07-1.1Z"/>
      <path class="cls-5" d="M25.67,109.04l.74,5.01s.03.08.07.1c.5.19,2.31,1.18,7.18,1.32,3.47.1,7.38-.54,7.74-.66.03,0,.04-.03.05-.06l.38-4.95s-2.87.86-6.18.83c-4.34-.04-9.99-1.6-9.99-1.6Z"/>
      <g>
        <path class="cls-5" d="M40.25,101.87c-.06,0-.11.04-.12.1-.1,1.77-1,6.53-2.03,8.64-.03.05,0,.12.05.15.02,0,.03.01.05.01.04,0,.08-.02.1-.06,1.04-2.14,1.95-6.94,2.05-8.73,0-.06-.04-.11-.11-.12Z"/>
        <path class="cls-5" d="M26.21,102.59c-.06,0-.11.06-.1.12.13,2.16.99,5.41,1.71,7.09.02.04.06.07.1.07.01,0,.03,0,.04,0,.06-.02.08-.09.06-.14-.71-1.67-1.56-4.89-1.69-7.02,0-.06-.06-.12-.12-.1Z"/>
        <path class="cls-5" d="M35.37,108.02c-.07,0-.11.05-.11.11-.02.82-.32,1.92-.54,2.67-.02.06.02.12.08.14.01,0,.02,0,.03,0,.05,0,.09-.03.11-.08.23-.77.53-1.88.55-2.73,0-.06-.05-.11-.11-.11Z"/>
      </g>
    </g>
    <g>
      <path class="cls-3" d="M51.39,32.08s.24,4.01-2.52,8.39c-1.14,1.81-3.3,3.3-3.1,6.89.04,1.56.79,2,3.05,2.38,2.26.38,3.4.48,4.45,2.05.73,1.09-.56,2.53-.29,3.69.27,1.17,1.61-.11,2.66.15,1.07.27,1.55.83,1.54,2.2,0,.67-.33,1.29-.48,1.54-.05.08-.07-.09-.04-.17.15-.33.14-1.56-.62-1.97-.74-.4-1.32.16-2.25.55-.93.39-2.29.03-2.41-1.41-.07-.91.22-1.37.42-1.86.12-.29.44-1.2-.06-1.81-.49-.59-2.43-.24-4.23.67-1.8.9-3.88.79-5.3-1.13-.57-.77-1.06-1.59-1.06-1.59,0,0-1.9-.03-2.31,1.54-.38,1.43.31,2.65.31,2.65,0,0,1.07,1.99,3.38,2.31.75.03,1.17-.08,1.17-.08,0,0,3.35,2.65,4.49,4.7,1.22,2.2,1.62,4.66,1.45,6.2-.07.61-.11,1.07-.3,1.54-.12.32-.27.58-.52.95-.89,1.32-2.85,2.23-5.66,2.18-2.34-.05-4.59-.4-6.78.75-2.2,1.15-3.52,2.46-3.21,4.37.28,1.73,1.1,1.84,1.49,1.95.99.26,2.13.2,2.94.32.62.09,1.7.03,1.85,1.47.11,1.04-1.9,1.51-1.16,2.97.39.77.95.92,1.15.96,0,0,.06,0,.04,0,0,0-.02,0-.09,0-.24,0-1-.1-1.41-.66-.95-1.3.06-2.26.45-2.86.61-.93-.15-1.66-1.72-1.36-1.52.29-3.73.4-4.53-.21-1.23-.92-1.65-2.16-1.34-4.22.36-2.34,3.04-4.12,4.51-4.62,3.5-1.17,4.12-.98,5.75-1.36,1.63-.38,3.77-1.09,3.38-3.78-.22-1.5-1.36-2.7-2.97-3.26-5.76-1.42-8.69-5.39-10.71-8.05-2.65-3.5-4.78-7.93-3.3-16.8,1.22-7.35,9.57-11.95,14.26-11.71,7.74.41,9.63,5.54,9.63,5.54Z"/>
      <g>
        <g>
          <path class="cls-3" d="M37.71,83.48c-.06,0-.1-.05-.09-.1.05-.4.25-.8.59-1.23.21-.26.41-.56.28-1-.18-.64-1.19-.61-2.76-.36-1.66.27-2.93.08-3.77-.55-.98-.74-1.22-1.97-1.32-2.83-.35-3.02,2.87-5.33,4.98-6.08,1.13-.4,2.31-.61,3.45-.81,1.72-.3,3.34-.59,4.43-1.5,1.34-1.13,1.69-2.46,1.07-4.07-.55-1.43-1.49-1.99-3.04-2.92l-.18-.11c-4.07-2.45-5.75-7.74-4.27-13.47.01-.05.06-.08.11-.06.05.01.08.06.06.11-1.46,5.65.19,10.86,4.19,13.27l.18.11c1.58.95,2.54,1.53,3.11,3.01.65,1.69.29,3.09-1.12,4.27-1.12.94-2.77,1.24-4.51,1.54-1.13.2-2.3.41-3.42.8-2.06.73-5.19,2.97-4.86,5.89.1.83.33,2.01,1.25,2.71.8.6,2.02.78,3.63.52,1.71-.27,2.74-.28,2.96.49.15.5-.07.86-.31,1.17-.33.41-.51.77-.55,1.14,0,.05-.04.08-.09.08Z"/>
          <path class="cls-3" d="M34.85,79.92s-1.8-.21-1.85-2.95c-.02-.95,1.06-2.86,4.02-3.96,1.53-.57,3.35-.62,4.61-.56.03,0,.08,0,.14,0,3.23.22,4.88-.34,5.69-.84.76-.47,1.36-1.16,1.79-2.06.2-.41,1.03-3.93-1-7.53-1.61-2.86-4.69-4.94-4.72-4.96-.04-.03-.05-.08-.02-.12.03-.04.08-.05.12-.02.03.02,3.15,2.12,4.78,5.02,2.07,3.68,1.24,7.2,1,7.7-.45.93-1.07,1.65-1.86,2.13-.84.51-2.52,1.08-5.8.86-.06,0-.1,0-.13,0-1.24-.06-3.04,0-4.54.55-2.87,1.07-3.92,2.89-3.9,3.79.04,2.57,1.61,2.77,1.68,2.77.05,0,.09.05.08.1,0,.05-.04.08-.09.08Z"/>
          <path class="cls-3" d="M30.77,77.74s-.08-.03-.09-.07c0-.03-.18-.82.91-2.45.52-.77,2.59-3.34,7.31-3.84.31-.03.74-.03,1.25-.03,2.57,0,7.36-.01,7.99-4.39.32-2.26-1.03-5.11-2.52-6.93-1.52-1.86-3.49-2.96-3.51-2.97-.04-.02-.06-.08-.04-.12.02-.04.08-.06.12-.04.02.01,2.01,1.13,3.56,3.02,1.52,1.85,2.9,4.76,2.56,7.07-.65,4.53-5.54,4.54-8.17,4.55-.5,0-.93,0-1.23.03-4.65.49-6.67,3-7.18,3.76-1.04,1.55-.89,2.3-.89,2.31.01.05-.02.1-.07.11,0,0-.01,0-.02,0Z"/>
        </g>
        <g>
          <path class="cls-3" d="M56.83,58.76s-.09-.04-.09-.08c-.06-.73-.32-1.22-.74-1.43-.41-.2-.9-.09-1.2.11-.81.54-1.69.74-2.36.56-.41-.12-.73-.38-.91-.76-.48-1-.13-1.83.18-2.57.16-.39.32-.77.31-1.1-.02-.39-.15-.68-.39-.86-.32-.23-.84-.27-1.46-.1-.1.03-.21.05-.32.08-.38.09-.85.21-1.61.52l-.19.08c-.82.35-2.07.88-3.64.63-1.93-.3-3.53-3.54-3.59-3.68-.02-.04,0-.1.04-.12.04-.02.1,0,.12.04.02.03,1.62,3.29,3.46,3.58,1.52.24,2.74-.28,3.54-.62l.19-.08c.77-.32,1.25-.44,1.63-.53.11-.03.21-.05.31-.08.69-.19,1.24-.14,1.62.13.29.21.45.55.46,1,.01.37-.15.76-.32,1.17-.29.7-.62,1.49-.18,2.42.16.34.43.56.8.66.62.17,1.45-.03,2.22-.54.32-.21.87-.37,1.38-.13.34.16.76.57.84,1.57,0,.05-.03.09-.09.1Z"/>
          <path class="cls-3" d="M53.82,57.42s-.07,0-.11,0c-.47-.01-1-.28-1.31-.67-.24-.3-.33-.64-.27-.96.09-.46.41-.98.69-1.44.21-.34.4-.66.47-.9.22-.77.08-1.38-.43-1.93-.03-.04-.03-.09,0-.13.04-.03.09-.03.13,0,.55.59.7,1.27.47,2.1-.07.26-.27.59-.49.94-.27.45-.58.95-.66,1.39-.07.34.09.63.23.81.28.35.75.59,1.18.6.6.02.98-.1,1.28-.18.42-.12.73-.21,1.3.16.04.03.05.08.03.12-.03.04-.08.05-.12.03-.5-.33-.73-.26-1.15-.14-.29.09-.66.19-1.23.19Z"/>
        </g>
        <path class="cls-3" d="M45.86,45.31s-.01,0-.02,0c-.05-.01-.08-.06-.06-.11.14-.55.42-1.05.66-1.48.06-.11.12-.21.17-.31.43-.8.95-1.47,1.5-2.18.86-1.11,1.75-2.26,2.31-3.99,1.54-4.72.63-6.17.62-6.18-.03-.04-.02-.1.02-.12.04-.03.1-.02.12.02.04.06.97,1.51-.6,6.34-.57,1.76-1.47,2.92-2.34,4.04-.55.7-1.06,1.37-1.49,2.16-.06.1-.11.21-.17.31-.25.45-.51.91-.65,1.44-.01.04-.05.07-.09.07Z"/>
      </g>
    </g>
    <g>
      <path class="cls-7" d="M41.13,50.68s-.29,0-.82.16c-.77.23-1.5,1.04-1.55,2-.12,2.15,1.59,3.48,2.39,3.84.29.13.76.34,1.23.43.42.08.82.05,1.25-.02.56-.09,1.26-.56,1.53-.87.54-.62.4-1.34.39-1.39-.1-.51-1.76-.89-2.62-1.64-1.24-1.09-1.79-2.51-1.79-2.51Z"/>
      <path class="cls-3" d="M42.32,55.2c-.33,0-.66-.08-.95-.23-.45-.24-.77-.63-.9-1.11-.13-.47-.09-1.12.3-1.51.22-.22.5-.34.7-.4.06-.02.11.01.13.07.02.05-.01.11-.07.13-.18.05-.43.16-.61.34-.33.33-.36.91-.25,1.31.12.42.41.77.8.98.44.23.98.27,1.48.11.05-.02.11.01.13.06.02.05-.01.11-.06.13-.22.07-.46.11-.69.11Z"/>
    </g>
    <g>
      <path class="cls-7" d="M40.16,45.85s-.83-1.93-2.8-1.93c-1.97,0-3.75.87-3.75.87,0,0,.73,3.78,2.41,4.44,1.68.66,3.53.31,4.08-.75.55-1.06.05-2.64.05-2.64Z"/>
      <path class="cls-2" d="M40.86,45.72c-.04-.21.28-.89-.4-1.87-.49-.7-1.45-.97-2.19-.44-.7.5-.72,1.79.03,2.55.33.32.67.55.67.55,0,0-.65-.26-.95-.29-.69-.05-1.83.15-1.97,1.18-.14,1.05.89,1.52,1.57,1.59.84.09,1.41-.17,1.41-.17,0,0-.55.43-.55,1.5,0,.9.5,1.45,1.39,1.51.7.05,1.35-.63,1.49-1.2.24-.91.07-1.45.07-1.45,0,0,.48.71,1.5.84.41.05,1.41.02,1.71-.65.28-.62-.08-1.26-.51-1.67-.55-.52-1.3-.67-1.3-.67,0,0,.4-.17.59-.32.79-.65,1.27-1.64.33-2.5-.63-.58-1.52-.58-2.23.24-.39.45-.44.8-.67,1.28Z"/>
      <path class="cls-8" d="M40.6,46.54c-.59,0-.88.37-.97.65-.22.69.32,1.33,1.02,1.3.69-.03,1.03-.62,1.02-.94-.02-.62-.51-1.01-1.08-1.01Z"/>
    </g>
  </g>
</svg>