<?xml version="1.0" encoding="UTF-8"?>
<svg id="Layer_1" data-name="Layer 1" xmlns="http://www.w3.org/2000/svg" viewBox="0 0 183.17 156.44">
  <defs>
    <style>
      .cls-1 {
        fill: #167174;
      }

      .cls-2, .cls-3, .cls-4, .cls-5, .cls-6, .cls-7 {
        fill-rule: evenodd;
      }

      .cls-2, .cls-8 {
        fill: #ffb8c0;
      }

      .cls-3, .cls-9 {
        fill: #ec7190;
      }

      .cls-10 {
        fill: #ffd2ce;
      }

      .cls-4 {
        fill: #ff919e;
      }

      .cls-5 {
        fill: #ffd1d9;
      }

      .cls-6, .cls-11 {
        fill: #ff989b;
      }

      .cls-7 {
        fill: #ffc5be;
      }

      .cls-12 {
        fill: #db784e;
      }
    </style>
  </defs>
  <path class="cls-5" d="M85.44,27.37c33.27,4.64,57.3-32.07,81.47-9.05,28.12,26.77,21.46,127.07-33.2,106.35-14.81-5.61-54.32,6.38-74.01,5.95C7.51,129.49-3.3,90.22.78,55.13,6.98,1.89,50.54,22.5,85.44,27.37h0Z"/>
  <g>
    <g>
      <path class="cls-2" d="M127.37,143.21c4.11-2.25,6.52,1.27,4.17,4.67-1.28,1.85-3.96,3.93-6.18,4.44-2.11-1.54-4.2-5.31-4.04-7.94.2-3.23,3.58-4.37,6.05-1.17h0Z"/>
      <path class="cls-2" d="M27.12,20.04c4.17-5.54,9.57-2.27,8.47,3.76-.6,3.27-2.95,7.73-5.63,9.76-3.78-.79-8.91-4.61-10.29-8.25-1.7-4.48,2.17-8.07,7.45-5.27h0Z"/>
      <path class="cls-2" d="M166.33,40.28c6.74-3.69,10.7,2.08,6.83,7.66-2.1,3.03-6.5,6.46-10.14,7.29-3.46-2.52-6.89-8.72-6.63-13.03.33-5.3,5.87-7.16,9.93-1.92h0Z"/>
    </g>
    <g>
      <path class="cls-2" d="M138.43,151.99c1.27-.41,1.92-1.11,2.53-3.15.54,1.63,1.38,2.67,2.55,3.04-1.43.43-2.12,1.81-2.67,3.15-.22-1.27-.91-2.68-2.41-3.05h0Z"/>
      <path class="cls-2" d="M160.09,119.39c2.13-.79,3.22-2.1,4.25-5.96.9,3.09,2.31,5.06,4.28,5.77-2.39.82-3.56,3.44-4.48,5.97-.36-2.4-1.52-5.08-4.04-5.77h0Z"/>
      <path class="cls-2" d="M43.96,141.9c2.07-.68,3.13-1.81,4.13-5.13.88,2.66,2.24,4.35,4.15,4.96-2.33.71-3.45,2.96-4.35,5.13-.35-2.07-1.48-4.37-3.93-4.97h0Z"/>
      <path class="cls-2" d="M171.7,28.78c1.27-.41,1.92-1.11,2.53-3.15.54,1.63,1.38,2.67,2.55,3.04-1.43.43-2.12,1.81-2.67,3.15-.22-1.27-.91-2.68-2.41-3.05h0Z"/>
      <path class="cls-2" d="M8.57,48.28c1.27-.41,1.92-1.11,2.53-3.15.54,1.63,1.38,2.67,2.55,3.04-1.43.43-2.12,1.81-2.67,3.15-.22-1.27-.91-2.68-2.41-3.05h0Z"/>
      <path class="cls-2" d="M63.19,153.39c1.27-.41,1.92-1.11,2.53-3.15.54,1.63,1.38,2.67,2.55,3.04-1.43.43-2.12,1.81-2.67,3.15-.22-1.27-.91-2.68-2.41-3.05h0Z"/>
      <path class="cls-2" d="M148.09,63.39c1.27-.41,1.92-1.11,2.53-3.15.54,1.63,1.38,2.67,2.55,3.04-1.43.43-2.12,1.81-2.67,3.15-.22-1.27-.91-2.68-2.41-3.05h0Z"/>
    </g>
  </g>
  <path class="cls-9" d="M110.21,79.4c-.04.14-.19.22-.33.17-.14-.04-.22-.19-.17-.33,4.97-15.63,5.88-33.02,3.59-46.69-1.15-6.87-3.1-12.8-5.75-17.09-2.62-4.25-5.92-6.87-9.78-7.2-1.86-.16-3.86.22-5.98,1.21-.13.06-.29,0-.35-.13,0-.01,0-.02-.01-.03-1.31-3.46-3.84-5.98-7.01-7.4-2.85-1.28-6.22-1.69-9.67-1.13-3.46.56-7.01,2.1-10.21,4.7-5.17,4.21-9.46,11.19-11.05,21.36-1.12,7.15-8.01,10.37-15.05,13.67-11.25,5.27-22.92,10.73-11.15,33.07.83,1.58.71,4.59.55,8.34-.5,12-1.34,31.78,28.15,34.99.15.02.25.15.24.29-.02.15-.15.25-.29.24-29.98-3.26-29.13-23.36-28.62-35.54.15-3.67.28-6.61-.49-8.07-12.03-22.84-.11-28.41,11.39-33.8,6.91-3.24,13.67-6.4,14.75-13.27,1.62-10.31,5.97-17.41,11.24-21.69,3.28-2.67,6.91-4.24,10.46-4.82,3.56-.58,7.03-.16,9.97,1.17,3.22,1.45,5.81,3.97,7.19,7.45,2.12-.94,4.12-1.3,5.99-1.14,4.04.34,7.48,3.06,10.19,7.45,2.68,4.35,4.66,10.34,5.82,17.28,2.3,13.75,1.39,31.23-3.61,46.94h0Z"/>
  <path class="cls-11" d="M91.67,9.23c-14.27-19.19-36.8-1.97-38.46,17.58-1.31,15.45-41.01,16.25-27.29,43.57,6.07,12.1-10.24,34.14,30.03,46.81,22.46,7.06,28.02-34.02,41.21-28.73,7.95,3.19,22.91-3.19,23.9-13.79,3.39-36.65-13.13-70.88-29.38-65.44h0Z"/>
  <path class="cls-6" d="M73.01,8.93c-1.94-3.77,5.81-5.35,6.15-1.91,2.1-4.54,8.61-1.37,6.59,1.91,4.89-.4,7.78,6.08,1.03,6.34,3.97,5.69-4.99,9.76-6.89,3.75-3.51,7.37-12.22,1.36-6.73-3.92-5.33.78-5.91-5.36-1.18-6.28.47-.09.47.1,1.04.12h0Z"/>
  <path class="cls-10" d="M71.85,9.11c-.15.01-.27-.1-.29-.24-.01-.15.1-.27.24-.29.9-.07,1.95.2,2.91.71.95.5,1.83,1.24,2.43,2.1.08.12.05.29-.07.37s-.29.05-.37-.07c-.54-.79-1.36-1.47-2.24-1.94-.88-.47-1.82-.72-2.62-.65h0Z"/>
  <path class="cls-10" d="M81.94,13.32c-.15-.01-.25-.15-.24-.29.01-.15.15-.25.29-.24,1.01.11,1.88.26,2.7.62.82.36,1.59.92,2.38,1.83.1.11.09.28-.02.37-.11.1-.28.09-.37-.03-.74-.85-1.44-1.36-2.19-1.7-.76-.33-1.58-.48-2.54-.58h0Z"/>
  <path class="cls-10" d="M80.86,11.42c-.11.1-.27.09-.37-.01-.1-.11-.09-.27.01-.37.97-.91,2.34-1.62,3.68-2.02,1.36-.4,2.71-.48,3.63-.11.14.05.2.21.15.35-.05.14-.21.2-.35.15-.81-.33-2.03-.25-3.28.12-1.27.38-2.56,1.05-3.47,1.9h0Z"/>
  <path class="cls-10" d="M72.37,16.46c-.07.13-.24.17-.36.09-.13-.07-.17-.24-.09-.36.36-.61.96-1.21,1.7-1.67.66-.41,1.44-.7,2.25-.78.15-.01.28.09.29.24.01.15-.09.27-.24.29-.72.07-1.42.33-2.01.7-.66.41-1.2.95-1.52,1.49h0Z"/>
  <path class="cls-10" d="M79.09,15.6c0-.15.13-.26.28-.25.15,0,.26.13.25.28-.03.67.11,1.45.32,2.2.3,1.08.75,2.08,1.03,2.59.07.13.03.29-.1.36-.13.07-.29.03-.36-.1-.3-.54-.77-1.58-1.08-2.7-.22-.8-.37-1.64-.34-2.37h0Z"/>
  <path class="cls-10" d="M78.79,10.47c-.02.15-.15.25-.29.24-.15-.02-.25-.15-.24-.29.02-.13.03-.23.04-.32.18-1.64.36-3.35,2.06-4.88.11-.1.28-.09.38.02.1.11.09.28-.02.38-1.55,1.39-1.72,3-1.89,4.54-.01.12-.03.24-.04.32h0Z"/>
  <path class="cls-7" d="M77.9,9.98c1.73-.62,3.63.09,4.24,1.58.61,1.49-.29,3.19-2.02,3.81-1.73.62-3.63-.09-4.24-1.58-.61-1.49.29-3.19,2.02-3.81h0Z"/>
  <path class="cls-7" d="M82.07,57.77l2.7,3.01c1.54.7,6.99-4.46,4.95-6.64l-1.96-2.09c.16-3.06-3.54-7.79-4.73-9.4-2.38.89,1.92,7.02-.81,6.18l-.16,8.95h0Z"/>
  <path class="cls-2" d="M128.05,58.84c-3.04-.72-9.51-5.16-11.04-7.63l-12.93,10.99-14.36-8.05c-.87,4.17-4.09,5.29-6.14,7.94,18.2,22.91,33.1,11.54,44.47-3.25h0Z"/>
  <path class="cls-4" d="M60.89,123l-10.87-32.18c-7.74-3.18.51-34.16,19.86-36.08,7.46-.87,11.43,1.35,15.58,3.3,26.82,20.1,21.02,30.53,18.65,67.19-15.44-2.15-29.63-1.95-43.23-2.23h0Z"/>
  <path class="cls-2" d="M85.84,44.91c-1.43-2.14-5.71-6.02-7.05-4.71-.03,2.27-1.83,1.03-2.32,4.66-.85,6.22-3.99,8.6-6.18,9.68,3.64,2.62,10.29,5.25,15.18,3.5-1.34-5.15-.57-9.99.38-13.14h0Z"/>
  <path class="cls-2" d="M76.82,44.1c1.45-14.45,13.55-8.75,17.58-23.48,2.28,4.81,2.77,9.17,1.93,10.94-.51,1.08-.38,3.66.83,4.04,1.12.36-.24,1.91-1.43,1.99-.53,1.2-.34,1.6-.28,1.97.06.36,0,.69-.71,1.24.22.55-.41,1.52-1.02,1.53-1.45.04.66,8.82-10.35,1.8-1.17-.74-5.43,3.93-6.54-.04h0Z"/>
  <path class="cls-11" d="M92.29,28.59c-.12.08-.29.04-.37-.08-.08-.12-.04-.29.08-.37.67-.43,1.45-.67,2.25-.69.77-.02,1.56.17,2.28.58.13.07.17.24.1.36-.07.13-.24.17-.36.1-.63-.36-1.32-.52-2-.51-.7.02-1.39.23-1.98.6h0Z"/>
  <path class="cls-3" d="M95.44,39.56c.14.63-.05.88-.71,1.24.18.46-.23,1.21-.73,1.45-.32-.16-.6-.4-.79-.7-.35-.54-.34-1.15-.03-1.59,1.21-.09,1.53-.78,2.26-.4h0Z"/>
  <path class="cls-11" d="M92.13,39.27c-.06-.14.01-.29.15-.35.14-.06.29.01.35.15.12.28.43.59.82.85.42.28.92.5,1.36.58.14.03.24.16.22.31-.03.14-.16.24-.31.22-.5-.09-1.08-.34-1.56-.66-.47-.31-.85-.7-1.01-1.09h0Z"/>
  <path class="cls-11" d="M91.29,32.24c-.14.05-.29-.03-.34-.17-.05-.14.03-.29.17-.34,1.04-.35,2.03-.55,2.91-.57.88-.03,1.65.12,2.24.44.13.07.18.23.11.36-.07.13-.23.18-.36.11-.51-.28-1.19-.4-1.97-.38-.83.03-1.77.21-2.76.55h0Z"/>
  <path class="cls-6" d="M93.45,32.32c-.07-.24-.07-.49-.01-.73.18-.19,2.02-.33,2.12.13,0,.52-.29,1.03-.74,1.25-.57.27-1.18-.01-1.37-.65h0Z"/>
  <path class="cls-12" d="M51.01,70.28c-.06.13-.22.2-.35.14s-.2-.22-.14-.35c3.95-9.02,11.83-11.71,17.29-13.56.25-.08.49-.17.85-.29,7.33-2.52,7.71-8.1,8.02-12.51.12-1.76.23-3.34.75-4.51,1.07-2.41,3.33-3.49,5.89-4.71,4.19-2.01,9.22-4.41,10.81-13.9.02-.14.16-.24.31-.22.14.02.24.16.22.31-1.64,9.76-6.8,12.23-11.1,14.29-2.46,1.18-4.64,2.22-5.63,4.45-.48,1.09-.59,2.62-.71,4.33-.31,4.56-.71,10.34-8.37,12.98-.19.07-.52.18-.85.29-5.37,1.83-13.13,4.46-16.98,13.27h0Z"/>
  <path class="cls-11" d="M87.83,46.15c.14.04.22.19.18.33-.04.14-.19.22-.33.18-1.4-.43-3.02-1.21-4.57-2.17-1.51-.95-2.96-2.07-4.08-3.22-.1-.11-.1-.27,0-.38.11-.1.27-.1.38,0,1.08,1.12,2.5,2.21,3.98,3.14,1.51.94,3.08,1.7,4.44,2.12h0Z"/>
  <path class="cls-6" d="M122.05,45.48c-4.85-3.11-9.35-.09-12.27,2.79-.85.83-1.51,1.52-2.24,2.37-7.67,8.9-12.37,26.76-7.9,32.9l.3,3.81,26.52-.37c-.09-1.32-.19-2.63-.28-3.95,5.49-2.26,6.05-31.01-4.13-37.56h0Z"/>
  <path class="cls-7" d="M77.81,61.67l2.7,3.01c1.54.7,6.99-4.46,4.95-6.64l-1.96-2.09c.16-3.06-3.54-7.79-4.73-9.4-2.38.89,1.92,7.02-.81,6.18-1.89-.58-3.97-1.62-5.11-3.62-1.05-1.85-2.28-1.5-2.53-.59-1.07-1.5-2.62-.26-1.46,1.47-.14,5.76,3.95,9.09,8.95,11.68h0Z"/>
  <path class="cls-11" d="M75.04,54.55c.12.08.16.24.08.37-.08.12-.24.16-.37.08-.66-.43-1.52-1.11-2.37-2.14-.85-1.03-1.68-2.41-2.31-4.25-.05-.14.03-.29.17-.34.14-.05.29.03.34.17.6,1.77,1.4,3.1,2.21,4.09.81.98,1.62,1.63,2.25,2.03h0Z"/>
  <path class="cls-11" d="M73.45,56.27c.13.07.18.23.12.36-.07.13-.23.18-.36.12-3.11-1.57-3.76-3.61-4.95-7.4l-.09-.3c-.04-.14.03-.29.17-.33.14-.04.29.03.33.17l.09.3c1.15,3.64,1.77,5.61,4.68,7.08h0Z"/>
  <path class="cls-6" d="M123.79,62.74c-3.04-.72-9.51-5.16-11.04-7.63l-12.93,10.99-14.36-8.05c-.87,4.17-4.09,5.29-6.14,7.94,18.2,22.91,33.1,11.54,44.47-3.25h0Z"/>
  <path class="cls-11" d="M122.29,64.75c.09-.12.25-.14.37-.06.12.09.14.25.06.37-2.02,2.72-7.52,8.15-13.68,11.46-4.06,2.18-8.41,3.44-12.28,2.43-.14-.04-.23-.18-.19-.32.04-.14.18-.23.32-.19,3.72.97,7.94-.26,11.9-2.38,6.09-3.27,11.51-8.63,13.51-11.31h0Z"/>
  <path class="cls-11" d="M89.27,60.49c-.13-.07-.17-.23-.1-.36.07-.13.23-.17.36-.1l13.9,7.8c.13.07.17.23.1.36-.07.13-.23.17-.36.1l-13.9-7.8h0Z"/>
  <path class="cls-11" d="M100,66.29c-.11.1-.28.09-.38-.01-.1-.11-.09-.28.01-.38l7.57-7.05c.11-.1.28-.09.38.01.1.11.09.28-.01.38l-7.57,7.05h0Z"/>
  <path class="cls-5" d="M99.64,83.54l.3,3.81c-3.15,1.73-12.54,15.8-11.02,26.18.51,3.48,10.02,8.44,16.01,8.48,11.83.09,25.14-12.41,29.18-15.44,3.03-2.27,3.51-6.56.92-10.82-2.55-4.2-6.76-7.66-8.56-8.77l-.28-3.95c-7.04,1.11-19.2,1.62-26.54.5h0Z"/>
  <path class="cls-1" d="M126.41,86.72c.14-.03.29.06.32.2.03.14-.06.29-.2.32-3.3.75-8.76,1.29-14.18,1.37-4.64.06-9.25-.21-12.46-1-.14-.03-.23-.18-.2-.32.03-.14.18-.23.32-.2,3.17.78,7.73,1.05,12.33.99,5.39-.07,10.81-.61,14.07-1.36h0Z"/>
  <path class="cls-1" d="M102.57,87.67c.11-.1.28-.09.37.02.1.11.09.28-.02.37-.6.53-1.2,1.14-1.78,1.8-.6.69-1.19,1.45-1.75,2.25-.08.12-.25.15-.37.07s-.15-.25-.07-.37c.57-.82,1.17-1.59,1.78-2.3.59-.68,1.21-1.31,1.83-1.86h0Z"/>
  <path class="cls-1" d="M108.03,88.15c.09-.12.25-.15.37-.06.12.09.15.25.06.37-1.03,1.44-1.85,2.99-2.44,4.56-.58,1.54-.93,3.1-1.01,4.59,0,.15-.13.26-.28.25-.15,0-.26-.13-.25-.28.08-1.54.44-3.16,1.04-4.75.61-1.61,1.46-3.2,2.51-4.68h0Z"/>
  <path class="cls-1" d="M122.95,87.79c-.12-.09-.14-.25-.06-.37s.25-.14.37-.06c2.09,1.52,4.03,3.86,5.38,6.56,1.24,2.48,1.99,5.26,1.9,8,0,.15-.13.26-.27.26-.15,0-.26-.13-.26-.27.08-2.64-.64-5.34-1.85-7.74-1.31-2.63-3.19-4.9-5.21-6.37h0Z"/>
  <path class="cls-1" d="M120.29,88.04c-.09-.12-.07-.28.05-.37.12-.09.28-.07.37.05.5.66.94,1.42,1.32,2.23.41.88.76,1.83,1.04,2.79.04.14-.04.29-.18.33-.14.04-.29-.04-.33-.18-.27-.94-.61-1.86-1.01-2.72-.37-.78-.79-1.5-1.26-2.13h0Z"/>
  <path class="cls-2" d="M137.71,80.87c1.4-3.34,1.47-8.29.16-14.01-.61-4.99-2.84-9.36-5.76-13.76-1.62-.27-2.18.61-2.28,1.16l-1.69-1.75c-3.43,2.23.09,4.82.96,6.8l-3.67-2.34c-.85,1.31-1.01,2.83.67,4.43-1.8,3.17,2.54,3.33,1.76,9.47-1.39,2.51-1.38,6.74.51,9.42-.41,1.38-1.19,2.21-2.17,2.75l.28,3.95c1.56,1.1,3.96,3.19,4.95,4.18,2.3-2.73,4.83-6.8,6.29-10.29h0Z"/>
  <path class="cls-11" d="M136.69,67.06c.01.15-.1.28-.24.29-.15.01-.28-.1-.29-.24-.17-2.05-1.17-4.63-2.62-7.18-1.52-2.66-3.53-5.28-5.6-7.22-.11-.1-.11-.27-.01-.38.1-.11.27-.11.38-.01,2.11,1.97,4.15,4.63,5.7,7.34,1.49,2.61,2.51,5.26,2.69,7.39h0Z"/>
  <path class="cls-11" d="M134.52,67.88c.03.14-.06.28-.21.31-.14.03-.28-.06-.31-.21h0c-.6-2.91-1.49-7.24-8.7-10.78-.13-.06-.19-.22-.12-.35.06-.13.22-.19.35-.12,7.45,3.65,8.37,8.13,8.99,11.14h0Z"/>
  <path class="cls-11" d="M131.85,68.94c.03.14-.06.28-.21.31-.14.03-.28-.06-.31-.21-.9-4.46-2.26-5.62-4.48-7.51-.14-.12-.29-.25-.44-.37-.11-.1-.12-.26-.03-.37.1-.11.26-.12.37-.03.15.13.29.25.44.37,2.31,1.97,3.71,3.17,4.65,7.81h0Z"/>
  <path class="cls-11" d="M131.14,81.93c.14.05.21.2.17.34-.05.14-.2.21-.34.17-1.28-.43-2.19-1.28-2.84-2.21-1.11-1.6-1.44-3.49-1.49-4.01-.01-.15.09-.28.24-.29.15-.01.28.09.29.24.05.48.35,2.25,1.39,3.76.59.85,1.42,1.62,2.57,2.01h0Z"/>
  <path class="cls-2" d="M110.34,15.99c-16,.27-13.63,13.26-10.84,12.32,1.44.84,3.45.18,4.83,1.8,3.24,3.8-1.95,11.93,4.31,19.31,8.49-3.17,19.13.33,26.96-3.84,3.46-3.78,3.2-9.2,2.47-11.65-1.66-5.55-9.37-5.4-10.21-10.62-1.55-9.66-10.12-13.78-17.51-7.32h0Z"/>
  <path class="cls-8" d="M110.69,16.16c-.09.11-.26.13-.37.04-.11-.09-.13-.26-.04-.37,1.05-1.31,3.05-2.63,5.33-3.38,1.72-.56,3.61-.8,5.38-.47,1.79.34,3.45,1.25,4.71,3.01,1.1,1.53,1.88,3.7,2.15,6.68.43,4.78,3.5,6.15,6.4,7.45,2,.89,3.91,1.75,4.94,3.63.7,1.28,1.16,3.48.44,6.25-.53,2-1.68,4.3-3.82,6.77-.1.11-.26.12-.37.03-.11-.1-.12-.26-.03-.37,2.08-2.4,3.2-4.63,3.7-6.56.69-2.61.26-4.67-.39-5.86-.94-1.72-2.78-2.54-4.69-3.39-3.03-1.36-6.25-2.8-6.71-7.89-.26-2.88-1.01-4.96-2.05-6.42-1.17-1.63-2.72-2.48-4.38-2.79-1.68-.32-3.47-.09-5.11.45-2.18.72-4.09,1.97-5.08,3.21h0Z"/>
  <path class="cls-7" d="M101.31,24.72c-3.51,3.03-.65,7.53-2.34,10.12-1.4.67-1.26,1.81.05,1.85.24,1.03.52,2.02.91,2.89.59,1.31.79,2.28,1.26,2.95.53.75,2.38,1,4.51,1-.94-4.38.75-8.48.6-10.64-.24-3.5-5.23-4.17-5-8.17h0Z"/>
  <path class="cls-11" d="M102.78,30.45c.12.08.15.25.06.37-.08.12-.25.15-.37.06-.45-.32-.95-.54-1.48-.65-.53-.11-1.07-.12-1.6-.02-.14.03-.28-.07-.31-.21-.03-.14.07-.28.21-.31.6-.12,1.22-.11,1.81.02.59.13,1.16.38,1.67.74h0Z"/>
  <path class="cls-11" d="M101.96,37.57c.08-.12.25-.15.37-.07.12.08.15.25.07.37-.2.29-.63.62-1.14.89-.47.25-1.01.45-1.5.53-.15.02-.28-.08-.3-.22-.02-.15.08-.28.22-.3.43-.06.91-.25,1.33-.47.44-.23.8-.5.95-.72h0Z"/>
  <path class="cls-11" d="M103.12,32.65c.14.02.24.16.22.31s-.16.24-.31.22c-.4-.07-.73-.21-1.05-.35-.55-.24-1.06-.45-1.71-.09-.13.07-.29.03-.36-.1-.07-.13-.03-.29.1-.36.88-.49,1.5-.22,2.18.07.29.12.6.26.93.31h0Z"/>
  <path class="cls-6" d="M100.59,32.88c-.04-.19-.04-.4,0-.59.12-.15,1.26-.26,1.32.11,0,.42-.18.83-.46,1-.35.22-.73-.01-.85-.52h0Z"/>
  <path class="cls-2" d="M134.11,106.57c-2.03-2.24-3.59-.21-3.59-.21-.84-.87-1.94-.97-3.36.93-4.16,4.88-8.88,7.02-10.63,7.39-3.61.74,9.35-5.08,4.84-7.89-1.31.57-2.47,1.07-3.5,1.52-6.43,2.81-8.24,3.94-12.6,10.14l-31.84-9.86.87-13.79c-6.62.3-16.21-1.34-24.27-3.99-4.64,26.37-2.11,47.85,57.73,39.85,19.61-2.23,24.76-17.91,24.43-19.1.65-1.27,1.71-3.64,1.92-5Z"/>
  <path class="cls-11" d="M74.72,83.91c0-.15.14-.26.28-.25.15,0,.26.14.25.28l-1.56,24.67c0,.15-.14.26-.28.25-.15,0-.26-.14-.25-.28l1.56-24.67h0Z"/>
  <path class="cls-11" d="M68.25,107.57c-.14-.04-.22-.19-.18-.33.04-.14.19-.22.33-.18l26.57,8.01c.14.04.22.19.18.33-.04.14-.19.22-.33.18l-26.57-8.01h0Z"/>
  <path class="cls-11" d="M121.73,117.71c-.13.07-.29.03-.36-.1s-.03-.29.1-.36c1.6-.89,3.87-2.54,5.92-4.72,1.53-1.63,2.93-3.56,3.86-5.69.06-.13.21-.2.35-.14.13.06.2.21.14.35-.95,2.2-2.39,4.18-3.96,5.84-2.09,2.23-4.41,3.91-6.05,4.82h0Z"/>
  <path class="cls-11" d="M124.1,120.83c-.13.07-.29.03-.36-.1-.07-.13-.03-.29.1-.36,2.24-1.28,4.49-3.56,6.29-6.06,1.93-2.68,3.35-5.59,3.71-7.78.02-.14.16-.24.3-.22.14.02.24.16.22.3-.37,2.27-1.83,5.26-3.81,8-1.84,2.55-4.15,4.89-6.46,6.21h0Z"/>
  <path class="cls-11" d="M113.84,115.34c-.15.02-.28-.08-.3-.22-.02-.15.08-.28.22-.3.95-.14,2.32-.35,4.04-1.01,1.73-.66,3.81-1.77,6.2-3.7.11-.09.28-.08.37.04.09.11.08.28-.04.37-2.43,1.98-4.57,3.11-6.34,3.79-1.78.68-3.18.89-4.15,1.04h0Z"/>
</svg>